<?xml version="1.0" encoding="utf-8" standalone="no"?>
<!DOCTYPE svg PUBLIC "-//W3C//DTD SVG 1.1//EN"
  "http://www.w3.org/Graphics/SVG/1.1/DTD/svg11.dtd">
<svg xmlns:xlink="http://www.w3.org/1999/xlink" width="460.8pt" height="345.6pt" viewBox="0 0 460.8 345.6" xmlns="http://www.w3.org/2000/svg" version="1.1">
 <metadata>
  <rdf:RDF xmlns:dc="http://purl.org/dc/elements/1.1/" xmlns:cc="http://creativecommons.org/ns#" xmlns:rdf="http://www.w3.org/1999/02/22-rdf-syntax-ns#">
   <cc:Work>
    <dc:type rdf:resource="http://purl.org/dc/dcmitype/StillImage"/>
    <dc:date>2024-07-11T16:59:38.565509</dc:date>
    <dc:format>image/svg+xml</dc:format>
    <dc:creator>
     <cc:Agent>
      <dc:title>Matplotlib v3.9.1, https://matplotlib.org/</dc:title>
     </cc:Agent>
    </dc:creator>
   </cc:Work>
  </rdf:RDF>
 </metadata>
 <defs>
  <style type="text/css">*{stroke-linejoin: round; stroke-linecap: butt}</style>
 </defs>
 <g id="figure_1">
  <g id="patch_1">
   <path d="M 0 345.6 
L 460.8 345.6 
L 460.8 0 
L 0 0 
z
" style="fill: #ffffff"/>
  </g>
  <g id="axes_1">
   <g id="patch_2">
    <path d="M 57.6 307.584 
L 414.72 307.584 
L 414.72 41.472 
L 57.6 41.472 
z
" style="fill: #ffffff"/>
   </g>
   <g id="matplotlib.axis_1">
    <g id="xtick_1">
     <g id="line2d_1">
      <defs>
       <path id="m48064d7c15" d="M 0 0 
L 0 -3.5 
" style="stroke: #000000; stroke-width: 0.8"/>
      </defs>
      <g>
       <use xlink:href="#m48064d7c15" x="76.331223" y="307.584" style="stroke: #000000; stroke-width: 0.8"/>
      </g>
     </g>
     <g id="line2d_2">
      <defs>
       <path id="m33f0939af8" d="M 0 0 
L 0 3.5 
" style="stroke: #000000; stroke-width: 0.8"/>
      </defs>
      <g>
       <use xlink:href="#m33f0939af8" x="76.331223" y="41.472" style="stroke: #000000; stroke-width: 0.8"/>
      </g>
     </g>
     <g id="text_1">
      <!-- 200 -->
      <g transform="translate(64.878723 320.202125) scale(0.12 -0.12)">
       <defs>
        <path id="DejaVuSans-32" d="M 1228 531 
L 3431 531 
L 3431 0 
L 469 0 
L 469 531 
Q 828 903 1448 1529 
Q 2069 2156 2228 2338 
Q 2531 2678 2651 2914 
Q 2772 3150 2772 3378 
Q 2772 3750 2511 3984 
Q 2250 4219 1831 4219 
Q 1534 4219 1204 4116 
Q 875 4013 500 3803 
L 500 4441 
Q 881 4594 1212 4672 
Q 1544 4750 1819 4750 
Q 2544 4750 2975 4387 
Q 3406 4025 3406 3419 
Q 3406 3131 3298 2873 
Q 3191 2616 2906 2266 
Q 2828 2175 2409 1742 
Q 1991 1309 1228 531 
z
" transform="scale(0.015625)"/>
        <path id="DejaVuSans-30" d="M 2034 4250 
Q 1547 4250 1301 3770 
Q 1056 3291 1056 2328 
Q 1056 1369 1301 889 
Q 1547 409 2034 409 
Q 2525 409 2770 889 
Q 3016 1369 3016 2328 
Q 3016 3291 2770 3770 
Q 2525 4250 2034 4250 
z
M 2034 4750 
Q 2819 4750 3233 4129 
Q 3647 3509 3647 2328 
Q 3647 1150 3233 529 
Q 2819 -91 2034 -91 
Q 1250 -91 836 529 
Q 422 1150 422 2328 
Q 422 3509 836 4129 
Q 1250 4750 2034 4750 
z
" transform="scale(0.015625)"/>
       </defs>
       <use xlink:href="#DejaVuSans-32"/>
       <use xlink:href="#DejaVuSans-30" x="63.623047"/>
       <use xlink:href="#DejaVuSans-30" x="127.246094"/>
      </g>
     </g>
    </g>
    <g id="xtick_2">
     <g id="line2d_3">
      <g>
       <use xlink:href="#m48064d7c15" x="134.273183" y="307.584" style="stroke: #000000; stroke-width: 0.8"/>
      </g>
     </g>
     <g id="line2d_4">
      <g>
       <use xlink:href="#m33f0939af8" x="134.273183" y="41.472" style="stroke: #000000; stroke-width: 0.8"/>
      </g>
     </g>
     <g id="text_2">
      <!-- 250 -->
      <g transform="translate(122.820683 320.202125) scale(0.12 -0.12)">
       <defs>
        <path id="DejaVuSans-35" d="M 691 4666 
L 3169 4666 
L 3169 4134 
L 1269 4134 
L 1269 2991 
Q 1406 3038 1543 3061 
Q 1681 3084 1819 3084 
Q 2600 3084 3056 2656 
Q 3513 2228 3513 1497 
Q 3513 744 3044 326 
Q 2575 -91 1722 -91 
Q 1428 -91 1123 -41 
Q 819 9 494 109 
L 494 744 
Q 775 591 1075 516 
Q 1375 441 1709 441 
Q 2250 441 2565 725 
Q 2881 1009 2881 1497 
Q 2881 1984 2565 2268 
Q 2250 2553 1709 2553 
Q 1456 2553 1204 2497 
Q 953 2441 691 2322 
L 691 4666 
z
" transform="scale(0.015625)"/>
       </defs>
       <use xlink:href="#DejaVuSans-32"/>
       <use xlink:href="#DejaVuSans-35" x="63.623047"/>
       <use xlink:href="#DejaVuSans-30" x="127.246094"/>
      </g>
     </g>
    </g>
    <g id="xtick_3">
     <g id="line2d_5">
      <g>
       <use xlink:href="#m48064d7c15" x="192.215143" y="307.584" style="stroke: #000000; stroke-width: 0.8"/>
      </g>
     </g>
     <g id="line2d_6">
      <g>
       <use xlink:href="#m33f0939af8" x="192.215143" y="41.472" style="stroke: #000000; stroke-width: 0.8"/>
      </g>
     </g>
     <g id="text_3">
      <!-- 300 -->
      <g transform="translate(180.762643 320.202125) scale(0.12 -0.12)">
       <defs>
        <path id="DejaVuSans-33" d="M 2597 2516 
Q 3050 2419 3304 2112 
Q 3559 1806 3559 1356 
Q 3559 666 3084 287 
Q 2609 -91 1734 -91 
Q 1441 -91 1130 -33 
Q 819 25 488 141 
L 488 750 
Q 750 597 1062 519 
Q 1375 441 1716 441 
Q 2309 441 2620 675 
Q 2931 909 2931 1356 
Q 2931 1769 2642 2001 
Q 2353 2234 1838 2234 
L 1294 2234 
L 1294 2753 
L 1863 2753 
Q 2328 2753 2575 2939 
Q 2822 3125 2822 3475 
Q 2822 3834 2567 4026 
Q 2313 4219 1838 4219 
Q 1578 4219 1281 4162 
Q 984 4106 628 3988 
L 628 4550 
Q 988 4650 1302 4700 
Q 1616 4750 1894 4750 
Q 2613 4750 3031 4423 
Q 3450 4097 3450 3541 
Q 3450 3153 3228 2886 
Q 3006 2619 2597 2516 
z
" transform="scale(0.015625)"/>
       </defs>
       <use xlink:href="#DejaVuSans-33"/>
       <use xlink:href="#DejaVuSans-30" x="63.623047"/>
       <use xlink:href="#DejaVuSans-30" x="127.246094"/>
      </g>
     </g>
    </g>
    <g id="xtick_4">
     <g id="line2d_7">
      <g>
       <use xlink:href="#m48064d7c15" x="250.157103" y="307.584" style="stroke: #000000; stroke-width: 0.8"/>
      </g>
     </g>
     <g id="line2d_8">
      <g>
       <use xlink:href="#m33f0939af8" x="250.157103" y="41.472" style="stroke: #000000; stroke-width: 0.8"/>
      </g>
     </g>
     <g id="text_4">
      <!-- 350 -->
      <g transform="translate(238.704603 320.202125) scale(0.12 -0.12)">
       <use xlink:href="#DejaVuSans-33"/>
       <use xlink:href="#DejaVuSans-35" x="63.623047"/>
       <use xlink:href="#DejaVuSans-30" x="127.246094"/>
      </g>
     </g>
    </g>
    <g id="xtick_5">
     <g id="line2d_9">
      <g>
       <use xlink:href="#m48064d7c15" x="308.099063" y="307.584" style="stroke: #000000; stroke-width: 0.8"/>
      </g>
     </g>
     <g id="line2d_10">
      <g>
       <use xlink:href="#m33f0939af8" x="308.099063" y="41.472" style="stroke: #000000; stroke-width: 0.8"/>
      </g>
     </g>
     <g id="text_5">
      <!-- 400 -->
      <g transform="translate(296.646563 320.202125) scale(0.12 -0.12)">
       <defs>
        <path id="DejaVuSans-34" d="M 2419 4116 
L 825 1625 
L 2419 1625 
L 2419 4116 
z
M 2253 4666 
L 3047 4666 
L 3047 1625 
L 3713 1625 
L 3713 1100 
L 3047 1100 
L 3047 0 
L 2419 0 
L 2419 1100 
L 313 1100 
L 313 1709 
L 2253 4666 
z
" transform="scale(0.015625)"/>
       </defs>
       <use xlink:href="#DejaVuSans-34"/>
       <use xlink:href="#DejaVuSans-30" x="63.623047"/>
       <use xlink:href="#DejaVuSans-30" x="127.246094"/>
      </g>
     </g>
    </g>
    <g id="xtick_6">
     <g id="line2d_11">
      <g>
       <use xlink:href="#m48064d7c15" x="366.041022" y="307.584" style="stroke: #000000; stroke-width: 0.8"/>
      </g>
     </g>
     <g id="line2d_12">
      <g>
       <use xlink:href="#m33f0939af8" x="366.041022" y="41.472" style="stroke: #000000; stroke-width: 0.8"/>
      </g>
     </g>
     <g id="text_6">
      <!-- 450 -->
      <g transform="translate(354.588522 320.202125) scale(0.12 -0.12)">
       <use xlink:href="#DejaVuSans-34"/>
       <use xlink:href="#DejaVuSans-35" x="63.623047"/>
       <use xlink:href="#DejaVuSans-30" x="127.246094"/>
      </g>
     </g>
    </g>
   </g>
   <g id="matplotlib.axis_2">
    <g id="ytick_1">
     <g id="line2d_13">
      <defs>
       <path id="m703bd0fc7a" d="M 0 0 
L 3.5 0 
" style="stroke: #000000; stroke-width: 0.8"/>
      </defs>
      <g>
       <use xlink:href="#m703bd0fc7a" x="57.6" y="298.667161" style="stroke: #000000; stroke-width: 0.8"/>
      </g>
     </g>
     <g id="line2d_14">
      <defs>
       <path id="m4cec8b6ed2" d="M 0 0 
L -3.5 0 
" style="stroke: #000000; stroke-width: 0.8"/>
      </defs>
      <g>
       <use xlink:href="#m4cec8b6ed2" x="414.72" y="298.667161" style="stroke: #000000; stroke-width: 0.8"/>
      </g>
     </g>
     <g id="text_7">
      <!-- 0.0 -->
      <g transform="translate(35.01625 303.226223) scale(0.12 -0.12)">
       <defs>
        <path id="DejaVuSans-2e" d="M 684 794 
L 1344 794 
L 1344 0 
L 684 0 
L 684 794 
z
" transform="scale(0.015625)"/>
       </defs>
       <use xlink:href="#DejaVuSans-30"/>
       <use xlink:href="#DejaVuSans-2e" x="63.623047"/>
       <use xlink:href="#DejaVuSans-30" x="95.410156"/>
      </g>
     </g>
    </g>
    <g id="ytick_2">
     <g id="line2d_15">
      <g>
       <use xlink:href="#m703bd0fc7a" x="57.6" y="243.289338" style="stroke: #000000; stroke-width: 0.8"/>
      </g>
     </g>
     <g id="line2d_16">
      <g>
       <use xlink:href="#m4cec8b6ed2" x="414.72" y="243.289338" style="stroke: #000000; stroke-width: 0.8"/>
      </g>
     </g>
     <g id="text_8">
      <!-- 0.5 -->
      <g transform="translate(35.01625 247.848401) scale(0.12 -0.12)">
       <use xlink:href="#DejaVuSans-30"/>
       <use xlink:href="#DejaVuSans-2e" x="63.623047"/>
       <use xlink:href="#DejaVuSans-35" x="95.410156"/>
      </g>
     </g>
    </g>
    <g id="ytick_3">
     <g id="line2d_17">
      <g>
       <use xlink:href="#m703bd0fc7a" x="57.6" y="187.911515" style="stroke: #000000; stroke-width: 0.8"/>
      </g>
     </g>
     <g id="line2d_18">
      <g>
       <use xlink:href="#m4cec8b6ed2" x="414.72" y="187.911515" style="stroke: #000000; stroke-width: 0.8"/>
      </g>
     </g>
     <g id="text_9">
      <!-- 1.0 -->
      <g transform="translate(35.01625 192.470578) scale(0.12 -0.12)">
       <defs>
        <path id="DejaVuSans-31" d="M 794 531 
L 1825 531 
L 1825 4091 
L 703 3866 
L 703 4441 
L 1819 4666 
L 2450 4666 
L 2450 531 
L 3481 531 
L 3481 0 
L 794 0 
L 794 531 
z
" transform="scale(0.015625)"/>
       </defs>
       <use xlink:href="#DejaVuSans-31"/>
       <use xlink:href="#DejaVuSans-2e" x="63.623047"/>
       <use xlink:href="#DejaVuSans-30" x="95.410156"/>
      </g>
     </g>
    </g>
    <g id="ytick_4">
     <g id="line2d_19">
      <g>
       <use xlink:href="#m703bd0fc7a" x="57.6" y="132.533693" style="stroke: #000000; stroke-width: 0.8"/>
      </g>
     </g>
     <g id="line2d_20">
      <g>
       <use xlink:href="#m4cec8b6ed2" x="414.72" y="132.533693" style="stroke: #000000; stroke-width: 0.8"/>
      </g>
     </g>
     <g id="text_10">
      <!-- 1.5 -->
      <g transform="translate(35.01625 137.092755) scale(0.12 -0.12)">
       <use xlink:href="#DejaVuSans-31"/>
       <use xlink:href="#DejaVuSans-2e" x="63.623047"/>
       <use xlink:href="#DejaVuSans-35" x="95.410156"/>
      </g>
     </g>
    </g>
    <g id="ytick_5">
     <g id="line2d_21">
      <g>
       <use xlink:href="#m703bd0fc7a" x="57.6" y="77.15587" style="stroke: #000000; stroke-width: 0.8"/>
      </g>
     </g>
     <g id="line2d_22">
      <g>
       <use xlink:href="#m4cec8b6ed2" x="414.72" y="77.15587" style="stroke: #000000; stroke-width: 0.8"/>
      </g>
     </g>
     <g id="text_11">
      <!-- 2.0 -->
      <g transform="translate(35.01625 81.714933) scale(0.12 -0.12)">
       <use xlink:href="#DejaVuSans-32"/>
       <use xlink:href="#DejaVuSans-2e" x="63.623047"/>
       <use xlink:href="#DejaVuSans-30" x="95.410156"/>
      </g>
     </g>
    </g>
   </g>
   <g id="patch_3">
    <path d="M 57.6 307.584 
L 57.6 41.472 
" style="fill: none; stroke: #000000; stroke-width: 0.8; stroke-linejoin: miter; stroke-linecap: square"/>
   </g>
   <g id="patch_4">
    <path d="M 414.72 307.584 
L 414.72 41.472 
" style="fill: none; stroke: #000000; stroke-width: 0.8; stroke-linejoin: miter; stroke-linecap: square"/>
   </g>
   <g id="patch_5">
    <path d="M 57.6 307.584 
L 414.72 307.584 
" style="fill: none; stroke: #000000; stroke-width: 0.8; stroke-linejoin: miter; stroke-linecap: square"/>
   </g>
   <g id="patch_6">
    <path d="M 57.6 41.472 
L 414.72 41.472 
" style="fill: none; stroke: #000000; stroke-width: 0.8; stroke-linejoin: miter; stroke-linecap: square"/>
   </g>
   <g id="LineCollection_1">
    <path d="M 73.832727 295.399132 
L 73.832727 295.318812 
" clip-path="url(#p4611364cc2)" style="fill: none; stroke: #440154"/>
    <path d="M 129.56365 293.591865 
L 129.56365 293.452002 
" clip-path="url(#p4611364cc2)" style="fill: none; stroke: #440154"/>
    <path d="M 155.251635 291.030888 
L 155.251635 290.774857 
" clip-path="url(#p4611364cc2)" style="fill: none; stroke: #440154"/>
    <path d="M 181.973702 286.041343 
L 181.973702 285.647941 
" clip-path="url(#p4611364cc2)" style="fill: none; stroke: #440154"/>
    <path d="M 207.294187 282.596376 
L 207.294187 282.220157 
" clip-path="url(#p4611364cc2)" style="fill: none; stroke: #440154"/>
    <path d="M 223.753806 280.089609 
L 223.753806 279.772364 
" clip-path="url(#p4611364cc2)" style="fill: none; stroke: #440154"/>
    <path d="M 249.051592 278.08426 
L 249.051592 277.533632 
" clip-path="url(#p4611364cc2)" style="fill: none; stroke: #440154"/>
    <path d="M 398.487273 264.664408 
L 398.487273 263.636194 
" clip-path="url(#p4611364cc2)" style="fill: none; stroke: #440154"/>
   </g>
   <g id="line2d_23">
    <defs>
     <path id="m9646839668" d="M 1.5 0 
L -1.5 -0 
" style="stroke: #440154"/>
    </defs>
    <g clip-path="url(#p4611364cc2)">
     <use xlink:href="#m9646839668" x="73.832727" y="295.399132" style="fill: #440154; stroke: #440154"/>
     <use xlink:href="#m9646839668" x="129.56365" y="293.591865" style="fill: #440154; stroke: #440154"/>
     <use xlink:href="#m9646839668" x="155.251635" y="291.030888" style="fill: #440154; stroke: #440154"/>
     <use xlink:href="#m9646839668" x="181.973702" y="286.041343" style="fill: #440154; stroke: #440154"/>
     <use xlink:href="#m9646839668" x="207.294187" y="282.596376" style="fill: #440154; stroke: #440154"/>
     <use xlink:href="#m9646839668" x="223.753806" y="280.089609" style="fill: #440154; stroke: #440154"/>
     <use xlink:href="#m9646839668" x="249.051592" y="278.08426" style="fill: #440154; stroke: #440154"/>
     <use xlink:href="#m9646839668" x="398.487273" y="264.664408" style="fill: #440154; stroke: #440154"/>
    </g>
   </g>
   <g id="line2d_24">
    <g clip-path="url(#p4611364cc2)">
     <use xlink:href="#m9646839668" x="73.832727" y="295.318812" style="fill: #440154; stroke: #440154"/>
     <use xlink:href="#m9646839668" x="129.56365" y="293.452002" style="fill: #440154; stroke: #440154"/>
     <use xlink:href="#m9646839668" x="155.251635" y="290.774857" style="fill: #440154; stroke: #440154"/>
     <use xlink:href="#m9646839668" x="181.973702" y="285.647941" style="fill: #440154; stroke: #440154"/>
     <use xlink:href="#m9646839668" x="207.294187" y="282.220157" style="fill: #440154; stroke: #440154"/>
     <use xlink:href="#m9646839668" x="223.753806" y="279.772364" style="fill: #440154; stroke: #440154"/>
     <use xlink:href="#m9646839668" x="249.051592" y="277.533632" style="fill: #440154; stroke: #440154"/>
     <use xlink:href="#m9646839668" x="398.487273" y="263.636194" style="fill: #440154; stroke: #440154"/>
    </g>
   </g>
   <g id="line2d_25">
    <defs>
     <path id="ma465addab1" d="M 0 4 
C 1.060812 4 2.078319 3.578535 2.828427 2.828427 
C 3.578535 2.078319 4 1.060812 4 0 
C 4 -1.060812 3.578535 -2.078319 2.828427 -2.828427 
C 2.078319 -3.578535 1.060812 -4 0 -4 
C -1.060812 -4 -2.078319 -3.578535 -2.828427 -2.828427 
C -3.578535 -2.078319 -4 -1.060812 -4 0 
C -4 1.060812 -3.578535 2.078319 -2.828427 2.828427 
C -2.078319 3.578535 -1.060812 4 0 4 
z
" style="stroke: #440154"/>
    </defs>
    <g clip-path="url(#p4611364cc2)">
     <use xlink:href="#ma465addab1" x="73.832727" y="295.358972" style="fill-opacity: 0; stroke: #440154"/>
     <use xlink:href="#ma465addab1" x="129.56365" y="293.521934" style="fill-opacity: 0; stroke: #440154"/>
     <use xlink:href="#ma465addab1" x="155.251635" y="290.902873" style="fill-opacity: 0; stroke: #440154"/>
     <use xlink:href="#ma465addab1" x="181.973702" y="285.844642" style="fill-opacity: 0; stroke: #440154"/>
     <use xlink:href="#ma465addab1" x="207.294187" y="282.408266" style="fill-opacity: 0; stroke: #440154"/>
     <use xlink:href="#ma465addab1" x="223.753806" y="279.930987" style="fill-opacity: 0; stroke: #440154"/>
     <use xlink:href="#ma465addab1" x="249.051592" y="277.808946" style="fill-opacity: 0; stroke: #440154"/>
     <use xlink:href="#ma465addab1" x="398.487273" y="264.150301" style="fill-opacity: 0; stroke: #440154"/>
    </g>
   </g>
   <g id="line2d_26">
    <path d="M 73.832727 295.358972 
L 129.56365 293.521934 
L 155.251635 290.902873 
L 181.973702 285.844642 
L 207.294187 282.408266 
L 223.753806 279.930987 
L 249.051592 277.808946 
L 398.487273 264.150301 
" clip-path="url(#p4611364cc2)" style="fill: none; stroke: #440154; stroke-linecap: square"/>
   </g>
   <g id="LineCollection_2">
    <path d="M 73.832727 295.445867 
L 73.832727 295.332817 
" clip-path="url(#p4611364cc2)" style="fill: none; stroke: #414487"/>
    <path d="M 129.56365 293.835595 
L 129.56365 293.691961 
" clip-path="url(#p4611364cc2)" style="fill: none; stroke: #414487"/>
    <path d="M 155.251635 291.0018 
L 155.251635 290.71289 
" clip-path="url(#p4611364cc2)" style="fill: none; stroke: #414487"/>
    <path d="M 181.973702 282.212245 
L 181.973702 281.717583 
" clip-path="url(#p4611364cc2)" style="fill: none; stroke: #414487"/>
    <path d="M 207.294187 270.672492 
L 207.294187 269.886143 
" clip-path="url(#p4611364cc2)" style="fill: none; stroke: #414487"/>
    <path d="M 223.753806 270.560206 
L 223.753806 269.927876 
" clip-path="url(#p4611364cc2)" style="fill: none; stroke: #414487"/>
    <path d="M 249.051592 273.573797 
L 249.051592 272.68856 
" clip-path="url(#p4611364cc2)" style="fill: none; stroke: #414487"/>
    <path d="M 398.487273 277.1295 
L 398.487273 276.451383 
" clip-path="url(#p4611364cc2)" style="fill: none; stroke: #414487"/>
   </g>
   <g id="line2d_27">
    <defs>
     <path id="m3fef28ac52" d="M 1.5 0 
L -1.5 -0 
" style="stroke: #414487"/>
    </defs>
    <g clip-path="url(#p4611364cc2)">
     <use xlink:href="#m3fef28ac52" x="73.832727" y="295.445867" style="fill: #414487; stroke: #414487"/>
     <use xlink:href="#m3fef28ac52" x="129.56365" y="293.835595" style="fill: #414487; stroke: #414487"/>
     <use xlink:href="#m3fef28ac52" x="155.251635" y="291.0018" style="fill: #414487; stroke: #414487"/>
     <use xlink:href="#m3fef28ac52" x="181.973702" y="282.212245" style="fill: #414487; stroke: #414487"/>
     <use xlink:href="#m3fef28ac52" x="207.294187" y="270.672492" style="fill: #414487; stroke: #414487"/>
     <use xlink:href="#m3fef28ac52" x="223.753806" y="270.560206" style="fill: #414487; stroke: #414487"/>
     <use xlink:href="#m3fef28ac52" x="249.051592" y="273.573797" style="fill: #414487; stroke: #414487"/>
     <use xlink:href="#m3fef28ac52" x="398.487273" y="277.1295" style="fill: #414487; stroke: #414487"/>
    </g>
   </g>
   <g id="line2d_28">
    <g clip-path="url(#p4611364cc2)">
     <use xlink:href="#m3fef28ac52" x="73.832727" y="295.332817" style="fill: #414487; stroke: #414487"/>
     <use xlink:href="#m3fef28ac52" x="129.56365" y="293.691961" style="fill: #414487; stroke: #414487"/>
     <use xlink:href="#m3fef28ac52" x="155.251635" y="290.71289" style="fill: #414487; stroke: #414487"/>
     <use xlink:href="#m3fef28ac52" x="181.973702" y="281.717583" style="fill: #414487; stroke: #414487"/>
     <use xlink:href="#m3fef28ac52" x="207.294187" y="269.886143" style="fill: #414487; stroke: #414487"/>
     <use xlink:href="#m3fef28ac52" x="223.753806" y="269.927876" style="fill: #414487; stroke: #414487"/>
     <use xlink:href="#m3fef28ac52" x="249.051592" y="272.68856" style="fill: #414487; stroke: #414487"/>
     <use xlink:href="#m3fef28ac52" x="398.487273" y="276.451383" style="fill: #414487; stroke: #414487"/>
    </g>
   </g>
   <g id="line2d_29">
    <defs>
     <path id="mb2635d128b" d="M -0 4 
L 4 -4 
L -4 -4 
z
" style="stroke: #414487; stroke-linejoin: miter"/>
    </defs>
    <g clip-path="url(#p4611364cc2)">
     <use xlink:href="#mb2635d128b" x="73.832727" y="295.389342" style="fill-opacity: 0; stroke: #414487; stroke-linejoin: miter"/>
     <use xlink:href="#mb2635d128b" x="129.56365" y="293.763778" style="fill-opacity: 0; stroke: #414487; stroke-linejoin: miter"/>
     <use xlink:href="#mb2635d128b" x="155.251635" y="290.857345" style="fill-opacity: 0; stroke: #414487; stroke-linejoin: miter"/>
     <use xlink:href="#mb2635d128b" x="181.973702" y="281.964914" style="fill-opacity: 0; stroke: #414487; stroke-linejoin: miter"/>
     <use xlink:href="#mb2635d128b" x="207.294187" y="270.279318" style="fill-opacity: 0; stroke: #414487; stroke-linejoin: miter"/>
     <use xlink:href="#mb2635d128b" x="223.753806" y="270.244041" style="fill-opacity: 0; stroke: #414487; stroke-linejoin: miter"/>
     <use xlink:href="#mb2635d128b" x="249.051592" y="273.131179" style="fill-opacity: 0; stroke: #414487; stroke-linejoin: miter"/>
     <use xlink:href="#mb2635d128b" x="398.487273" y="276.790441" style="fill-opacity: 0; stroke: #414487; stroke-linejoin: miter"/>
    </g>
   </g>
   <g id="line2d_30">
    <path d="M 73.832727 295.389342 
L 129.56365 293.763778 
L 155.251635 290.857345 
L 181.973702 281.964914 
L 207.294187 270.279318 
L 223.753806 270.244041 
L 249.051592 273.131179 
L 398.487273 276.790441 
" clip-path="url(#p4611364cc2)" style="fill: none; stroke: #414487; stroke-linecap: square"/>
   </g>
   <g id="LineCollection_3">
    <path d="M 73.832727 295.380181 
L 73.832727 295.286483 
" clip-path="url(#p4611364cc2)" style="fill: none; stroke: #2a788e"/>
    <path d="M 129.56365 293.975141 
L 129.56365 293.857184 
" clip-path="url(#p4611364cc2)" style="fill: none; stroke: #2a788e"/>
    <path d="M 155.251635 291.918722 
L 155.251635 291.670272 
" clip-path="url(#p4611364cc2)" style="fill: none; stroke: #2a788e"/>
    <path d="M 181.973702 281.395862 
L 181.973702 280.84974 
" clip-path="url(#p4611364cc2)" style="fill: none; stroke: #2a788e"/>
    <path d="M 207.294187 232.552684 
L 207.294187 231.232359 
" clip-path="url(#p4611364cc2)" style="fill: none; stroke: #2a788e"/>
    <path d="M 223.753806 261.259172 
L 223.753806 259.087463 
" clip-path="url(#p4611364cc2)" style="fill: none; stroke: #2a788e"/>
    <path d="M 249.051592 275.789021 
L 249.051592 275.064869 
" clip-path="url(#p4611364cc2)" style="fill: none; stroke: #2a788e"/>
    <path d="M 398.487273 278.110509 
L 398.487273 277.707017 
" clip-path="url(#p4611364cc2)" style="fill: none; stroke: #2a788e"/>
   </g>
   <g id="line2d_31">
    <defs>
     <path id="ma8bbfeaed9" d="M 1.5 0 
L -1.5 -0 
" style="stroke: #2a788e"/>
    </defs>
    <g clip-path="url(#p4611364cc2)">
     <use xlink:href="#ma8bbfeaed9" x="73.832727" y="295.380181" style="fill: #2a788e; stroke: #2a788e"/>
     <use xlink:href="#ma8bbfeaed9" x="129.56365" y="293.975141" style="fill: #2a788e; stroke: #2a788e"/>
     <use xlink:href="#ma8bbfeaed9" x="155.251635" y="291.918722" style="fill: #2a788e; stroke: #2a788e"/>
     <use xlink:href="#ma8bbfeaed9" x="181.973702" y="281.395862" style="fill: #2a788e; stroke: #2a788e"/>
     <use xlink:href="#ma8bbfeaed9" x="207.294187" y="232.552684" style="fill: #2a788e; stroke: #2a788e"/>
     <use xlink:href="#ma8bbfeaed9" x="223.753806" y="261.259172" style="fill: #2a788e; stroke: #2a788e"/>
     <use xlink:href="#ma8bbfeaed9" x="249.051592" y="275.789021" style="fill: #2a788e; stroke: #2a788e"/>
     <use xlink:href="#ma8bbfeaed9" x="398.487273" y="278.110509" style="fill: #2a788e; stroke: #2a788e"/>
    </g>
   </g>
   <g id="line2d_32">
    <g clip-path="url(#p4611364cc2)">
     <use xlink:href="#ma8bbfeaed9" x="73.832727" y="295.286483" style="fill: #2a788e; stroke: #2a788e"/>
     <use xlink:href="#ma8bbfeaed9" x="129.56365" y="293.857184" style="fill: #2a788e; stroke: #2a788e"/>
     <use xlink:href="#ma8bbfeaed9" x="155.251635" y="291.670272" style="fill: #2a788e; stroke: #2a788e"/>
     <use xlink:href="#ma8bbfeaed9" x="181.973702" y="280.84974" style="fill: #2a788e; stroke: #2a788e"/>
     <use xlink:href="#ma8bbfeaed9" x="207.294187" y="231.232359" style="fill: #2a788e; stroke: #2a788e"/>
     <use xlink:href="#ma8bbfeaed9" x="223.753806" y="259.087463" style="fill: #2a788e; stroke: #2a788e"/>
     <use xlink:href="#ma8bbfeaed9" x="249.051592" y="275.064869" style="fill: #2a788e; stroke: #2a788e"/>
     <use xlink:href="#ma8bbfeaed9" x="398.487273" y="277.707017" style="fill: #2a788e; stroke: #2a788e"/>
    </g>
   </g>
   <g id="line2d_33">
    <defs>
     <path id="mdae4056c71" d="M -0 5.656854 
L 5.656854 0 
L 0 -5.656854 
L -5.656854 -0 
z
" style="stroke: #2a788e; stroke-linejoin: miter"/>
    </defs>
    <g clip-path="url(#p4611364cc2)">
     <use xlink:href="#mdae4056c71" x="73.832727" y="295.333332" style="fill-opacity: 0; stroke: #2a788e; stroke-linejoin: miter"/>
     <use xlink:href="#mdae4056c71" x="129.56365" y="293.916162" style="fill-opacity: 0; stroke: #2a788e; stroke-linejoin: miter"/>
     <use xlink:href="#mdae4056c71" x="155.251635" y="291.794497" style="fill-opacity: 0; stroke: #2a788e; stroke-linejoin: miter"/>
     <use xlink:href="#mdae4056c71" x="181.973702" y="281.122801" style="fill-opacity: 0; stroke: #2a788e; stroke-linejoin: miter"/>
     <use xlink:href="#mdae4056c71" x="207.294187" y="231.892522" style="fill-opacity: 0; stroke: #2a788e; stroke-linejoin: miter"/>
     <use xlink:href="#mdae4056c71" x="223.753806" y="260.173317" style="fill-opacity: 0; stroke: #2a788e; stroke-linejoin: miter"/>
     <use xlink:href="#mdae4056c71" x="249.051592" y="275.426945" style="fill-opacity: 0; stroke: #2a788e; stroke-linejoin: miter"/>
     <use xlink:href="#mdae4056c71" x="398.487273" y="277.908763" style="fill-opacity: 0; stroke: #2a788e; stroke-linejoin: miter"/>
    </g>
   </g>
   <g id="line2d_34">
    <path d="M 73.832727 295.333332 
L 129.56365 293.916162 
L 155.251635 291.794497 
L 181.973702 281.122801 
L 207.294187 231.892522 
L 223.753806 260.173317 
L 249.051592 275.426945 
L 398.487273 277.908763 
" clip-path="url(#p4611364cc2)" style="fill: none; stroke: #2a788e; stroke-linecap: square"/>
   </g>
   <g id="LineCollection_4">
    <path d="M 73.832727 295.458783 
L 73.832727 295.34125 
" clip-path="url(#p4611364cc2)" style="fill: none; stroke: #22a884"/>
    <path d="M 129.56365 294.070293 
L 129.56365 293.908609 
" clip-path="url(#p4611364cc2)" style="fill: none; stroke: #22a884"/>
    <path d="M 155.251635 292.012798 
L 155.251635 291.824465 
" clip-path="url(#p4611364cc2)" style="fill: none; stroke: #22a884"/>
    <path d="M 181.973702 284.241779 
L 181.973702 283.616453 
" clip-path="url(#p4611364cc2)" style="fill: none; stroke: #22a884"/>
    <path d="M 207.294187 168.374602 
L 207.294187 164.91281 
" clip-path="url(#p4611364cc2)" style="fill: none; stroke: #22a884"/>
    <path d="M 223.753806 264.908378 
L 223.753806 262.865445 
" clip-path="url(#p4611364cc2)" style="fill: none; stroke: #22a884"/>
    <path d="M 249.051592 276.849699 
L 249.051592 276.270949 
" clip-path="url(#p4611364cc2)" style="fill: none; stroke: #22a884"/>
    <path d="M 398.487273 278.267509 
L 398.487273 277.707156 
" clip-path="url(#p4611364cc2)" style="fill: none; stroke: #22a884"/>
   </g>
   <g id="line2d_35">
    <defs>
     <path id="m517dcadd95" d="M 1.5 0 
L -1.5 -0 
" style="stroke: #22a884"/>
    </defs>
    <g clip-path="url(#p4611364cc2)">
     <use xlink:href="#m517dcadd95" x="73.832727" y="295.458783" style="fill: #22a884; stroke: #22a884"/>
     <use xlink:href="#m517dcadd95" x="129.56365" y="294.070293" style="fill: #22a884; stroke: #22a884"/>
     <use xlink:href="#m517dcadd95" x="155.251635" y="292.012798" style="fill: #22a884; stroke: #22a884"/>
     <use xlink:href="#m517dcadd95" x="181.973702" y="284.241779" style="fill: #22a884; stroke: #22a884"/>
     <use xlink:href="#m517dcadd95" x="207.294187" y="168.374602" style="fill: #22a884; stroke: #22a884"/>
     <use xlink:href="#m517dcadd95" x="223.753806" y="264.908378" style="fill: #22a884; stroke: #22a884"/>
     <use xlink:href="#m517dcadd95" x="249.051592" y="276.849699" style="fill: #22a884; stroke: #22a884"/>
     <use xlink:href="#m517dcadd95" x="398.487273" y="278.267509" style="fill: #22a884; stroke: #22a884"/>
    </g>
   </g>
   <g id="line2d_36">
    <g clip-path="url(#p4611364cc2)">
     <use xlink:href="#m517dcadd95" x="73.832727" y="295.34125" style="fill: #22a884; stroke: #22a884"/>
     <use xlink:href="#m517dcadd95" x="129.56365" y="293.908609" style="fill: #22a884; stroke: #22a884"/>
     <use xlink:href="#m517dcadd95" x="155.251635" y="291.824465" style="fill: #22a884; stroke: #22a884"/>
     <use xlink:href="#m517dcadd95" x="181.973702" y="283.616453" style="fill: #22a884; stroke: #22a884"/>
     <use xlink:href="#m517dcadd95" x="207.294187" y="164.91281" style="fill: #22a884; stroke: #22a884"/>
     <use xlink:href="#m517dcadd95" x="223.753806" y="262.865445" style="fill: #22a884; stroke: #22a884"/>
     <use xlink:href="#m517dcadd95" x="249.051592" y="276.270949" style="fill: #22a884; stroke: #22a884"/>
     <use xlink:href="#m517dcadd95" x="398.487273" y="277.707156" style="fill: #22a884; stroke: #22a884"/>
    </g>
   </g>
   <g id="line2d_37">
    <defs>
     <path id="mcbd380b364" d="M -4 4 
L 4 4 
L 4 -4 
L -4 -4 
z
" style="stroke: #22a884; stroke-linejoin: miter"/>
    </defs>
    <g clip-path="url(#p4611364cc2)">
     <use xlink:href="#mcbd380b364" x="73.832727" y="295.400016" style="fill-opacity: 0; stroke: #22a884; stroke-linejoin: miter"/>
     <use xlink:href="#mcbd380b364" x="129.56365" y="293.989451" style="fill-opacity: 0; stroke: #22a884; stroke-linejoin: miter"/>
     <use xlink:href="#mcbd380b364" x="155.251635" y="291.918632" style="fill-opacity: 0; stroke: #22a884; stroke-linejoin: miter"/>
     <use xlink:href="#mcbd380b364" x="181.973702" y="283.929116" style="fill-opacity: 0; stroke: #22a884; stroke-linejoin: miter"/>
     <use xlink:href="#mcbd380b364" x="207.294187" y="166.643706" style="fill-opacity: 0; stroke: #22a884; stroke-linejoin: miter"/>
     <use xlink:href="#mcbd380b364" x="223.753806" y="263.886912" style="fill-opacity: 0; stroke: #22a884; stroke-linejoin: miter"/>
     <use xlink:href="#mcbd380b364" x="249.051592" y="276.560324" style="fill-opacity: 0; stroke: #22a884; stroke-linejoin: miter"/>
     <use xlink:href="#mcbd380b364" x="398.487273" y="277.987332" style="fill-opacity: 0; stroke: #22a884; stroke-linejoin: miter"/>
    </g>
   </g>
   <g id="line2d_38">
    <path d="M 73.832727 295.400016 
L 129.56365 293.989451 
L 155.251635 291.918632 
L 181.973702 283.929116 
L 207.294187 166.643706 
L 223.753806 263.886912 
L 249.051592 276.560324 
L 398.487273 277.987332 
" clip-path="url(#p4611364cc2)" style="fill: none; stroke: #22a884; stroke-linecap: square"/>
   </g>
   <g id="LineCollection_5">
    <path d="M 73.832727 295.488 
L 73.832727 295.249825 
" clip-path="url(#p4611364cc2)" style="fill: none; stroke: #7ad151"/>
    <path d="M 129.56365 293.805472 
L 129.56365 293.289616 
" clip-path="url(#p4611364cc2)" style="fill: none; stroke: #7ad151"/>
    <path d="M 155.251635 291.999644 
L 155.251635 291.385198 
" clip-path="url(#p4611364cc2)" style="fill: none; stroke: #7ad151"/>
    <path d="M 181.973702 286.801587 
L 181.973702 285.482124 
" clip-path="url(#p4611364cc2)" style="fill: none; stroke: #7ad151"/>
    <path d="M 207.294187 67.014234 
L 207.294187 53.568 
" clip-path="url(#p4611364cc2)" style="fill: none; stroke: #7ad151"/>
    <path d="M 223.753806 266.582018 
L 223.753806 263.94842 
" clip-path="url(#p4611364cc2)" style="fill: none; stroke: #7ad151"/>
    <path d="M 249.051592 277.083965 
L 249.051592 275.092999 
" clip-path="url(#p4611364cc2)" style="fill: none; stroke: #7ad151"/>
    <path d="M 398.487273 277.580434 
L 398.487273 275.993705 
" clip-path="url(#p4611364cc2)" style="fill: none; stroke: #7ad151"/>
   </g>
   <g id="line2d_39">
    <defs>
     <path id="m969624e5f3" d="M 1.5 0 
L -1.5 -0 
" style="stroke: #7ad151"/>
    </defs>
    <g clip-path="url(#p4611364cc2)">
     <use xlink:href="#m969624e5f3" x="73.832727" y="295.488" style="fill: #7ad151; stroke: #7ad151"/>
     <use xlink:href="#m969624e5f3" x="129.56365" y="293.805472" style="fill: #7ad151; stroke: #7ad151"/>
     <use xlink:href="#m969624e5f3" x="155.251635" y="291.999644" style="fill: #7ad151; stroke: #7ad151"/>
     <use xlink:href="#m969624e5f3" x="181.973702" y="286.801587" style="fill: #7ad151; stroke: #7ad151"/>
     <use xlink:href="#m969624e5f3" x="207.294187" y="67.014234" style="fill: #7ad151; stroke: #7ad151"/>
     <use xlink:href="#m969624e5f3" x="223.753806" y="266.582018" style="fill: #7ad151; stroke: #7ad151"/>
     <use xlink:href="#m969624e5f3" x="249.051592" y="277.083965" style="fill: #7ad151; stroke: #7ad151"/>
     <use xlink:href="#m969624e5f3" x="398.487273" y="277.580434" style="fill: #7ad151; stroke: #7ad151"/>
    </g>
   </g>
   <g id="line2d_40">
    <g clip-path="url(#p4611364cc2)">
     <use xlink:href="#m969624e5f3" x="73.832727" y="295.249825" style="fill: #7ad151; stroke: #7ad151"/>
     <use xlink:href="#m969624e5f3" x="129.56365" y="293.289616" style="fill: #7ad151; stroke: #7ad151"/>
     <use xlink:href="#m969624e5f3" x="155.251635" y="291.385198" style="fill: #7ad151; stroke: #7ad151"/>
     <use xlink:href="#m969624e5f3" x="181.973702" y="285.482124" style="fill: #7ad151; stroke: #7ad151"/>
     <use xlink:href="#m969624e5f3" x="207.294187" y="53.568" style="fill: #7ad151; stroke: #7ad151"/>
     <use xlink:href="#m969624e5f3" x="223.753806" y="263.94842" style="fill: #7ad151; stroke: #7ad151"/>
     <use xlink:href="#m969624e5f3" x="249.051592" y="275.092999" style="fill: #7ad151; stroke: #7ad151"/>
     <use xlink:href="#m969624e5f3" x="398.487273" y="275.993705" style="fill: #7ad151; stroke: #7ad151"/>
    </g>
   </g>
   <g id="line2d_41">
    <defs>
     <path id="m554a26f6b0" d="M 0 -4 
L -3.804226 -1.236068 
L -2.351141 3.236068 
L 2.351141 3.236068 
L 3.804226 -1.236068 
z
" style="stroke: #7ad151; stroke-linejoin: miter"/>
    </defs>
    <g clip-path="url(#p4611364cc2)">
     <use xlink:href="#m554a26f6b0" x="73.832727" y="295.368913" style="fill-opacity: 0; stroke: #7ad151; stroke-linejoin: miter"/>
     <use xlink:href="#m554a26f6b0" x="129.56365" y="293.547544" style="fill-opacity: 0; stroke: #7ad151; stroke-linejoin: miter"/>
     <use xlink:href="#m554a26f6b0" x="155.251635" y="291.692421" style="fill-opacity: 0; stroke: #7ad151; stroke-linejoin: miter"/>
     <use xlink:href="#m554a26f6b0" x="181.973702" y="286.141855" style="fill-opacity: 0; stroke: #7ad151; stroke-linejoin: miter"/>
     <use xlink:href="#m554a26f6b0" x="207.294187" y="60.291117" style="fill-opacity: 0; stroke: #7ad151; stroke-linejoin: miter"/>
     <use xlink:href="#m554a26f6b0" x="223.753806" y="265.265219" style="fill-opacity: 0; stroke: #7ad151; stroke-linejoin: miter"/>
     <use xlink:href="#m554a26f6b0" x="249.051592" y="276.088482" style="fill-opacity: 0; stroke: #7ad151; stroke-linejoin: miter"/>
     <use xlink:href="#m554a26f6b0" x="398.487273" y="276.78707" style="fill-opacity: 0; stroke: #7ad151; stroke-linejoin: miter"/>
    </g>
   </g>
   <g id="line2d_42">
    <path d="M 73.832727 295.368913 
L 129.56365 293.547544 
L 155.251635 291.692421 
L 181.973702 286.141855 
L 207.294187 60.291117 
L 223.753806 265.265219 
L 249.051592 276.088482 
L 398.487273 276.78707 
" clip-path="url(#p4611364cc2)" style="fill: none; stroke: #7ad151; stroke-linecap: square"/>
   </g>
   <g id="text_12">
    <g id="patch_7">
     <path d="M 346.344 304.358976 
L 400.824 304.358976 
L 400.824 284.825226 
L 346.344 284.825226 
L 346.344 304.358976 
z
" style="fill: none; opacity: 0"/>
    </g>
    <!-- $T$ [MeV] -->
    <g transform="translate(350.304 297.903351) scale(0.12 -0.12)">
     <defs>
      <path id="DejaVuSans-Oblique-54" d="M 378 4666 
L 4325 4666 
L 4225 4134 
L 2559 4134 
L 1759 0 
L 1125 0 
L 1925 4134 
L 275 4134 
L 378 4666 
z
" transform="scale(0.015625)"/>
      <path id="DejaVuSans-20" transform="scale(0.015625)"/>
      <path id="DejaVuSans-5b" d="M 550 4863 
L 1875 4863 
L 1875 4416 
L 1125 4416 
L 1125 -397 
L 1875 -397 
L 1875 -844 
L 550 -844 
L 550 4863 
z
" transform="scale(0.015625)"/>
      <path id="DejaVuSans-4d" d="M 628 4666 
L 1569 4666 
L 2759 1491 
L 3956 4666 
L 4897 4666 
L 4897 0 
L 4281 0 
L 4281 4097 
L 3078 897 
L 2444 897 
L 1241 4097 
L 1241 0 
L 628 0 
L 628 4666 
z
" transform="scale(0.015625)"/>
      <path id="DejaVuSans-65" d="M 3597 1894 
L 3597 1613 
L 953 1613 
Q 991 1019 1311 708 
Q 1631 397 2203 397 
Q 2534 397 2845 478 
Q 3156 559 3463 722 
L 3463 178 
Q 3153 47 2828 -22 
Q 2503 -91 2169 -91 
Q 1331 -91 842 396 
Q 353 884 353 1716 
Q 353 2575 817 3079 
Q 1281 3584 2069 3584 
Q 2775 3584 3186 3129 
Q 3597 2675 3597 1894 
z
M 3022 2063 
Q 3016 2534 2758 2815 
Q 2500 3097 2075 3097 
Q 1594 3097 1305 2825 
Q 1016 2553 972 2059 
L 3022 2063 
z
" transform="scale(0.015625)"/>
      <path id="DejaVuSans-56" d="M 1831 0 
L 50 4666 
L 709 4666 
L 2188 738 
L 3669 4666 
L 4325 4666 
L 2547 0 
L 1831 0 
z
" transform="scale(0.015625)"/>
      <path id="DejaVuSans-5d" d="M 1947 4863 
L 1947 -844 
L 622 -844 
L 622 -397 
L 1369 -397 
L 1369 4416 
L 622 4416 
L 622 4863 
L 1947 4863 
z
" transform="scale(0.015625)"/>
     </defs>
     <use xlink:href="#DejaVuSans-Oblique-54" transform="translate(0 0.015625)"/>
     <use xlink:href="#DejaVuSans-20" transform="translate(61.083984 0.015625)"/>
     <use xlink:href="#DejaVuSans-5b" transform="translate(92.871094 0.015625)"/>
     <use xlink:href="#DejaVuSans-4d" transform="translate(131.884766 0.015625)"/>
     <use xlink:href="#DejaVuSans-65" transform="translate(218.164062 0.015625)"/>
     <use xlink:href="#DejaVuSans-56" transform="translate(279.6875 0.015625)"/>
     <use xlink:href="#DejaVuSans-5d" transform="translate(348.095703 0.015625)"/>
    </g>
   </g>
   <g id="text_13">
    <g id="patch_8">
     <path d="M 62.568 64.523136 
L 87.048 64.523136 
L 87.048 44.963136 
L 62.568 44.963136 
L 62.568 64.523136 
z
" style="fill: none; opacity: 0"/>
    </g>
    <!-- $\langle\chi\rangle$ -->
    <g transform="translate(66.528 58.043136) scale(0.12 -0.12)">
     <defs>
      <path id="DejaVuSans-27e8" d="M 572 2006 
L 1453 4856 
L 1984 4856 
L 1103 2006 
L 1984 -844 
L 1453 -844 
L 572 2006 
z
" transform="scale(0.015625)"/>
      <path id="DejaVuSans-Oblique-3c7" d="M 1922 -781 
L 1691 416 
L 394 -1334 
L -284 -1334 
L 1553 1141 
L 1269 2613 
Q 1194 3006 713 3006 
L 559 3006 
L 653 3500 
L 872 3494 
Q 1675 3472 1775 2950 
L 2006 1753 
L 3303 3503 
L 3981 3503 
L 2144 1028 
L 2428 -444 
Q 2503 -838 2984 -838 
L 3138 -838 
L 3044 -1331 
L 2825 -1325 
Q 2022 -1303 1922 -781 
z
" transform="scale(0.015625)"/>
      <path id="DejaVuSans-27e9" d="M 1925 2006 
L 1044 -844 
L 513 -844 
L 1394 2006 
L 513 4856 
L 1044 4856 
L 1925 2006 
z
" transform="scale(0.015625)"/>
     </defs>
     <use xlink:href="#DejaVuSans-27e8" transform="translate(0 0.125)"/>
     <use xlink:href="#DejaVuSans-Oblique-3c7" transform="translate(39.013672 0.125)"/>
     <use xlink:href="#DejaVuSans-27e9" transform="translate(98.193359 0.125)"/>
    </g>
   </g>
   <g id="legend_1">
    <g id="patch_9">
     <path d="M 66 220.362375 
L 141 220.362375 
Q 143.4 220.362375 143.4 217.962375 
L 143.4 131.093625 
Q 143.4 128.693625 141 128.693625 
L 66 128.693625 
Q 63.6 128.693625 63.6 131.093625 
L 63.6 217.962375 
Q 63.6 220.362375 66 220.362375 
z
" style="fill: #ffffff; stroke: #cccccc; stroke-linejoin: miter"/>
    </g>
    <g id="line2d_43">
     <path d="M 68.4 138.41175 
L 92.4 138.41175 
" style="fill: none; stroke: #440154; stroke-linecap: square"/>
    </g>
    <g id="line2d_44"/>
    <g id="LineCollection_6">
     <path d="M 80.4 144.41175 
L 80.4 132.41175 
" style="fill: none; stroke: #440154"/>
    </g>
    <g id="line2d_45">
     <g>
      <use xlink:href="#m9646839668" x="80.4" y="144.41175" style="fill: #440154; stroke: #440154"/>
     </g>
    </g>
    <g id="line2d_46">
     <g>
      <use xlink:href="#m9646839668" x="80.4" y="132.41175" style="fill: #440154; stroke: #440154"/>
     </g>
    </g>
    <g id="line2d_47"/>
    <g id="line2d_48">
     <g>
      <use xlink:href="#ma465addab1" x="80.4" y="138.41175" style="fill-opacity: 0; stroke: #440154"/>
     </g>
    </g>
    <g id="text_14">
     <!-- $N_s=18$ -->
     <g transform="translate(94.8 142.61175) scale(0.12 -0.12)">
      <defs>
       <path id="DejaVuSans-Oblique-4e" d="M 1081 4666 
L 1931 4666 
L 3219 666 
L 4000 4666 
L 4616 4666 
L 3706 0 
L 2853 0 
L 1569 4025 
L 788 0 
L 172 0 
L 1081 4666 
z
" transform="scale(0.015625)"/>
       <path id="DejaVuSans-Oblique-73" d="M 3200 3397 
L 3091 2853 
Q 2863 2978 2609 3040 
Q 2356 3103 2088 3103 
Q 1634 3103 1373 2948 
Q 1113 2794 1113 2528 
Q 1113 2219 1719 2053 
Q 1766 2041 1788 2034 
L 1972 1978 
Q 2547 1819 2739 1644 
Q 2931 1469 2931 1166 
Q 2931 609 2489 259 
Q 2047 -91 1331 -91 
Q 1053 -91 747 -37 
Q 441 16 72 128 
L 184 722 
Q 500 559 806 475 
Q 1113 391 1394 391 
Q 1816 391 2080 572 
Q 2344 753 2344 1031 
Q 2344 1331 1650 1516 
L 1591 1531 
L 1394 1581 
Q 956 1697 753 1886 
Q 550 2075 550 2369 
Q 550 2928 970 3256 
Q 1391 3584 2113 3584 
Q 2397 3584 2667 3537 
Q 2938 3491 3200 3397 
z
" transform="scale(0.015625)"/>
       <path id="DejaVuSans-3d" d="M 678 2906 
L 4684 2906 
L 4684 2381 
L 678 2381 
L 678 2906 
z
M 678 1631 
L 4684 1631 
L 4684 1100 
L 678 1100 
L 678 1631 
z
" transform="scale(0.015625)"/>
       <path id="DejaVuSans-38" d="M 2034 2216 
Q 1584 2216 1326 1975 
Q 1069 1734 1069 1313 
Q 1069 891 1326 650 
Q 1584 409 2034 409 
Q 2484 409 2743 651 
Q 3003 894 3003 1313 
Q 3003 1734 2745 1975 
Q 2488 2216 2034 2216 
z
M 1403 2484 
Q 997 2584 770 2862 
Q 544 3141 544 3541 
Q 544 4100 942 4425 
Q 1341 4750 2034 4750 
Q 2731 4750 3128 4425 
Q 3525 4100 3525 3541 
Q 3525 3141 3298 2862 
Q 3072 2584 2669 2484 
Q 3125 2378 3379 2068 
Q 3634 1759 3634 1313 
Q 3634 634 3220 271 
Q 2806 -91 2034 -91 
Q 1263 -91 848 271 
Q 434 634 434 1313 
Q 434 1759 690 2068 
Q 947 2378 1403 2484 
z
M 1172 3481 
Q 1172 3119 1398 2916 
Q 1625 2713 2034 2713 
Q 2441 2713 2670 2916 
Q 2900 3119 2900 3481 
Q 2900 3844 2670 4047 
Q 2441 4250 2034 4250 
Q 1625 4250 1398 4047 
Q 1172 3844 1172 3481 
z
" transform="scale(0.015625)"/>
      </defs>
      <use xlink:href="#DejaVuSans-Oblique-4e" transform="translate(0 0.78125)"/>
      <use xlink:href="#DejaVuSans-Oblique-73" transform="translate(74.804688 -15.625) scale(0.7)"/>
      <use xlink:href="#DejaVuSans-3d" transform="translate(133.491211 0.78125)"/>
      <use xlink:href="#DejaVuSans-31" transform="translate(236.762695 0.78125)"/>
      <use xlink:href="#DejaVuSans-38" transform="translate(300.385742 0.78125)"/>
     </g>
    </g>
    <g id="line2d_49">
     <path d="M 68.4 156.0255 
L 92.4 156.0255 
" style="fill: none; stroke: #414487; stroke-linecap: square"/>
    </g>
    <g id="line2d_50"/>
    <g id="LineCollection_7">
     <path d="M 80.4 162.0255 
L 80.4 150.0255 
" style="fill: none; stroke: #414487"/>
    </g>
    <g id="line2d_51">
     <g>
      <use xlink:href="#m3fef28ac52" x="80.4" y="162.0255" style="fill: #414487; stroke: #414487"/>
     </g>
    </g>
    <g id="line2d_52">
     <g>
      <use xlink:href="#m3fef28ac52" x="80.4" y="150.0255" style="fill: #414487; stroke: #414487"/>
     </g>
    </g>
    <g id="line2d_53"/>
    <g id="line2d_54">
     <g>
      <use xlink:href="#mb2635d128b" x="80.4" y="156.0255" style="fill-opacity: 0; stroke: #414487; stroke-linejoin: miter"/>
     </g>
    </g>
    <g id="text_15">
     <!-- $N_s=24$ -->
     <g transform="translate(94.8 160.2255) scale(0.12 -0.12)">
      <use xlink:href="#DejaVuSans-Oblique-4e" transform="translate(0 0.78125)"/>
      <use xlink:href="#DejaVuSans-Oblique-73" transform="translate(74.804688 -15.625) scale(0.7)"/>
      <use xlink:href="#DejaVuSans-3d" transform="translate(133.491211 0.78125)"/>
      <use xlink:href="#DejaVuSans-32" transform="translate(236.762695 0.78125)"/>
      <use xlink:href="#DejaVuSans-34" transform="translate(300.385742 0.78125)"/>
     </g>
    </g>
    <g id="line2d_55">
     <path d="M 68.4 173.63925 
L 92.4 173.63925 
" style="fill: none; stroke: #2a788e; stroke-linecap: square"/>
    </g>
    <g id="line2d_56"/>
    <g id="LineCollection_8">
     <path d="M 80.4 179.63925 
L 80.4 167.63925 
" style="fill: none; stroke: #2a788e"/>
    </g>
    <g id="line2d_57">
     <g>
      <use xlink:href="#ma8bbfeaed9" x="80.4" y="179.63925" style="fill: #2a788e; stroke: #2a788e"/>
     </g>
    </g>
    <g id="line2d_58">
     <g>
      <use xlink:href="#ma8bbfeaed9" x="80.4" y="167.63925" style="fill: #2a788e; stroke: #2a788e"/>
     </g>
    </g>
    <g id="line2d_59"/>
    <g id="line2d_60">
     <g>
      <use xlink:href="#mdae4056c71" x="80.4" y="173.63925" style="fill-opacity: 0; stroke: #2a788e; stroke-linejoin: miter"/>
     </g>
    </g>
    <g id="text_16">
     <!-- $N_s=36$ -->
     <g transform="translate(94.8 177.83925) scale(0.12 -0.12)">
      <defs>
       <path id="DejaVuSans-36" d="M 2113 2584 
Q 1688 2584 1439 2293 
Q 1191 2003 1191 1497 
Q 1191 994 1439 701 
Q 1688 409 2113 409 
Q 2538 409 2786 701 
Q 3034 994 3034 1497 
Q 3034 2003 2786 2293 
Q 2538 2584 2113 2584 
z
M 3366 4563 
L 3366 3988 
Q 3128 4100 2886 4159 
Q 2644 4219 2406 4219 
Q 1781 4219 1451 3797 
Q 1122 3375 1075 2522 
Q 1259 2794 1537 2939 
Q 1816 3084 2150 3084 
Q 2853 3084 3261 2657 
Q 3669 2231 3669 1497 
Q 3669 778 3244 343 
Q 2819 -91 2113 -91 
Q 1303 -91 875 529 
Q 447 1150 447 2328 
Q 447 3434 972 4092 
Q 1497 4750 2381 4750 
Q 2619 4750 2861 4703 
Q 3103 4656 3366 4563 
z
" transform="scale(0.015625)"/>
      </defs>
      <use xlink:href="#DejaVuSans-Oblique-4e" transform="translate(0 0.78125)"/>
      <use xlink:href="#DejaVuSans-Oblique-73" transform="translate(74.804688 -15.625) scale(0.7)"/>
      <use xlink:href="#DejaVuSans-3d" transform="translate(133.491211 0.78125)"/>
      <use xlink:href="#DejaVuSans-33" transform="translate(236.762695 0.78125)"/>
      <use xlink:href="#DejaVuSans-36" transform="translate(300.385742 0.78125)"/>
     </g>
    </g>
    <g id="line2d_61">
     <path d="M 68.4 191.253 
L 92.4 191.253 
" style="fill: none; stroke: #22a884; stroke-linecap: square"/>
    </g>
    <g id="line2d_62"/>
    <g id="LineCollection_9">
     <path d="M 80.4 197.253 
L 80.4 185.253 
" style="fill: none; stroke: #22a884"/>
    </g>
    <g id="line2d_63">
     <g>
      <use xlink:href="#m517dcadd95" x="80.4" y="197.253" style="fill: #22a884; stroke: #22a884"/>
     </g>
    </g>
    <g id="line2d_64">
     <g>
      <use xlink:href="#m517dcadd95" x="80.4" y="185.253" style="fill: #22a884; stroke: #22a884"/>
     </g>
    </g>
    <g id="line2d_65"/>
    <g id="line2d_66">
     <g>
      <use xlink:href="#mcbd380b364" x="80.4" y="191.253" style="fill-opacity: 0; stroke: #22a884; stroke-linejoin: miter"/>
     </g>
    </g>
    <g id="text_17">
     <!-- $N_s=48$ -->
     <g transform="translate(94.8 195.453) scale(0.12 -0.12)">
      <use xlink:href="#DejaVuSans-Oblique-4e" transform="translate(0 0.78125)"/>
      <use xlink:href="#DejaVuSans-Oblique-73" transform="translate(74.804688 -15.625) scale(0.7)"/>
      <use xlink:href="#DejaVuSans-3d" transform="translate(133.491211 0.78125)"/>
      <use xlink:href="#DejaVuSans-34" transform="translate(236.762695 0.78125)"/>
      <use xlink:href="#DejaVuSans-38" transform="translate(300.385742 0.78125)"/>
     </g>
    </g>
    <g id="line2d_67">
     <path d="M 68.4 208.86675 
L 92.4 208.86675 
" style="fill: none; stroke: #7ad151; stroke-linecap: square"/>
    </g>
    <g id="line2d_68"/>
    <g id="LineCollection_10">
     <path d="M 80.4 214.86675 
L 80.4 202.86675 
" style="fill: none; stroke: #7ad151"/>
    </g>
    <g id="line2d_69">
     <g>
      <use xlink:href="#m969624e5f3" x="80.4" y="214.86675" style="fill: #7ad151; stroke: #7ad151"/>
     </g>
    </g>
    <g id="line2d_70">
     <g>
      <use xlink:href="#m969624e5f3" x="80.4" y="202.86675" style="fill: #7ad151; stroke: #7ad151"/>
     </g>
    </g>
    <g id="line2d_71"/>
    <g id="line2d_72">
     <g>
      <use xlink:href="#m554a26f6b0" x="80.4" y="208.86675" style="fill-opacity: 0; stroke: #7ad151; stroke-linejoin: miter"/>
     </g>
    </g>
    <g id="text_18">
     <!-- $N_s=60$ -->
     <g transform="translate(94.8 213.06675) scale(0.12 -0.12)">
      <use xlink:href="#DejaVuSans-Oblique-4e" transform="translate(0 0.78125)"/>
      <use xlink:href="#DejaVuSans-Oblique-73" transform="translate(74.804688 -15.625) scale(0.7)"/>
      <use xlink:href="#DejaVuSans-3d" transform="translate(133.491211 0.78125)"/>
      <use xlink:href="#DejaVuSans-36" transform="translate(236.762695 0.78125)"/>
      <use xlink:href="#DejaVuSans-30" transform="translate(300.385742 0.78125)"/>
     </g>
    </g>
   </g>
  </g>
 </g>
 <defs>
  <clipPath id="p4611364cc2">
   <rect x="57.6" y="41.472" width="357.12" height="266.112"/>
  </clipPath>
 </defs>
</svg>
