<?xml version="1.0" encoding="utf-8" standalone="no"?>
<!DOCTYPE svg PUBLIC "-//W3C//DTD SVG 1.1//EN"
  "http://www.w3.org/Graphics/SVG/1.1/DTD/svg11.dtd">
<svg xmlns:xlink="http://www.w3.org/1999/xlink" width="460.8pt" height="345.6pt" viewBox="0 0 460.8 345.6" xmlns="http://www.w3.org/2000/svg" version="1.1">
 <metadata>
  <rdf:RDF xmlns:dc="http://purl.org/dc/elements/1.1/" xmlns:cc="http://creativecommons.org/ns#" xmlns:rdf="http://www.w3.org/1999/02/22-rdf-syntax-ns#">
   <cc:Work>
    <dc:type rdf:resource="http://purl.org/dc/dcmitype/StillImage"/>
    <dc:date>2024-09-12T23:01:52.716551</dc:date>
    <dc:format>image/svg+xml</dc:format>
    <dc:creator>
     <cc:Agent>
      <dc:title>Matplotlib v3.7.5, https://matplotlib.org/</dc:title>
     </cc:Agent>
    </dc:creator>
   </cc:Work>
  </rdf:RDF>
 </metadata>
 <defs>
  <style type="text/css">*{stroke-linejoin: round; stroke-linecap: butt}</style>
 </defs>
 <g id="figure_1">
  <g id="patch_1">
   <path d="M 0 345.6 
L 460.8 345.6 
L 460.8 0 
L 0 0 
z
" style="fill: #ffffff"/>
  </g>
  <g id="axes_1">
   <g id="patch_2">
    <path d="M 57.6 307.584 
L 414.72 307.584 
L 414.72 41.472 
L 57.6 41.472 
z
" style="fill: #ffffff"/>
   </g>
   <g id="matplotlib.axis_1">
    <g id="xtick_1">
     <g id="line2d_1">
      <defs>
       <path id="m563b18114e" d="M 0 0 
L 0 -3.5 
" style="stroke: #000000; stroke-width: 0.8"/>
      </defs>
      <g>
       <use xlink:href="#m563b18114e" x="73.832727" y="307.584" style="stroke: #000000; stroke-width: 0.8"/>
      </g>
     </g>
     <g id="line2d_2">
      <defs>
       <path id="m575008b3d0" d="M 0 0 
L 0 3.5 
" style="stroke: #000000; stroke-width: 0.8"/>
      </defs>
      <g>
       <use xlink:href="#m575008b3d0" x="73.832727" y="41.472" style="stroke: #000000; stroke-width: 0.8"/>
      </g>
     </g>
     <g id="text_1">
      <!-- 60 -->
      <g transform="translate(68.876248 326.615528) rotate(-30) scale(0.12 -0.12)">
       <defs>
        <path id="DejaVuSans-36" d="M 2113 2584 
Q 1688 2584 1439 2293 
Q 1191 2003 1191 1497 
Q 1191 994 1439 701 
Q 1688 409 2113 409 
Q 2538 409 2786 701 
Q 3034 994 3034 1497 
Q 3034 2003 2786 2293 
Q 2538 2584 2113 2584 
z
M 3366 4563 
L 3366 3988 
Q 3128 4100 2886 4159 
Q 2644 4219 2406 4219 
Q 1781 4219 1451 3797 
Q 1122 3375 1075 2522 
Q 1259 2794 1537 2939 
Q 1816 3084 2150 3084 
Q 2853 3084 3261 2657 
Q 3669 2231 3669 1497 
Q 3669 778 3244 343 
Q 2819 -91 2113 -91 
Q 1303 -91 875 529 
Q 447 1150 447 2328 
Q 447 3434 972 4092 
Q 1497 4750 2381 4750 
Q 2619 4750 2861 4703 
Q 3103 4656 3366 4563 
z
" transform="scale(0.015625)"/>
        <path id="DejaVuSans-30" d="M 2034 4250 
Q 1547 4250 1301 3770 
Q 1056 3291 1056 2328 
Q 1056 1369 1301 889 
Q 1547 409 2034 409 
Q 2525 409 2770 889 
Q 3016 1369 3016 2328 
Q 3016 3291 2770 3770 
Q 2525 4250 2034 4250 
z
M 2034 4750 
Q 2819 4750 3233 4129 
Q 3647 3509 3647 2328 
Q 3647 1150 3233 529 
Q 2819 -91 2034 -91 
Q 1250 -91 836 529 
Q 422 1150 422 2328 
Q 422 3509 836 4129 
Q 1250 4750 2034 4750 
z
" transform="scale(0.015625)"/>
       </defs>
       <use xlink:href="#DejaVuSans-36"/>
       <use xlink:href="#DejaVuSans-30" x="63.623047"/>
      </g>
     </g>
    </g>
    <g id="xtick_2">
     <g id="line2d_3">
      <g>
       <use xlink:href="#m563b18114e" x="141.469091" y="307.584" style="stroke: #000000; stroke-width: 0.8"/>
      </g>
     </g>
     <g id="line2d_4">
      <g>
       <use xlink:href="#m575008b3d0" x="141.469091" y="41.472" style="stroke: #000000; stroke-width: 0.8"/>
      </g>
     </g>
     <g id="text_2">
      <!-- 65 -->
      <g transform="translate(136.512612 326.615528) rotate(-30) scale(0.12 -0.12)">
       <defs>
        <path id="DejaVuSans-35" d="M 691 4666 
L 3169 4666 
L 3169 4134 
L 1269 4134 
L 1269 2991 
Q 1406 3038 1543 3061 
Q 1681 3084 1819 3084 
Q 2600 3084 3056 2656 
Q 3513 2228 3513 1497 
Q 3513 744 3044 326 
Q 2575 -91 1722 -91 
Q 1428 -91 1123 -41 
Q 819 9 494 109 
L 494 744 
Q 775 591 1075 516 
Q 1375 441 1709 441 
Q 2250 441 2565 725 
Q 2881 1009 2881 1497 
Q 2881 1984 2565 2268 
Q 2250 2553 1709 2553 
Q 1456 2553 1204 2497 
Q 953 2441 691 2322 
L 691 4666 
z
" transform="scale(0.015625)"/>
       </defs>
       <use xlink:href="#DejaVuSans-36"/>
       <use xlink:href="#DejaVuSans-35" x="63.623047"/>
      </g>
     </g>
    </g>
    <g id="xtick_3">
     <g id="line2d_5">
      <g>
       <use xlink:href="#m563b18114e" x="209.105455" y="307.584" style="stroke: #000000; stroke-width: 0.8"/>
      </g>
     </g>
     <g id="line2d_6">
      <g>
       <use xlink:href="#m575008b3d0" x="209.105455" y="41.472" style="stroke: #000000; stroke-width: 0.8"/>
      </g>
     </g>
     <g id="text_3">
      <!-- 70 -->
      <g transform="translate(204.148976 326.615528) rotate(-30) scale(0.12 -0.12)">
       <defs>
        <path id="DejaVuSans-37" d="M 525 4666 
L 3525 4666 
L 3525 4397 
L 1831 0 
L 1172 0 
L 2766 4134 
L 525 4134 
L 525 4666 
z
" transform="scale(0.015625)"/>
       </defs>
       <use xlink:href="#DejaVuSans-37"/>
       <use xlink:href="#DejaVuSans-30" x="63.623047"/>
      </g>
     </g>
    </g>
    <g id="xtick_4">
     <g id="line2d_7">
      <g>
       <use xlink:href="#m563b18114e" x="276.741818" y="307.584" style="stroke: #000000; stroke-width: 0.8"/>
      </g>
     </g>
     <g id="line2d_8">
      <g>
       <use xlink:href="#m575008b3d0" x="276.741818" y="41.472" style="stroke: #000000; stroke-width: 0.8"/>
      </g>
     </g>
     <g id="text_4">
      <!-- 75 -->
      <g transform="translate(271.785339 326.615528) rotate(-30) scale(0.12 -0.12)">
       <use xlink:href="#DejaVuSans-37"/>
       <use xlink:href="#DejaVuSans-35" x="63.623047"/>
      </g>
     </g>
    </g>
    <g id="xtick_5">
     <g id="line2d_9">
      <g>
       <use xlink:href="#m563b18114e" x="344.378182" y="307.584" style="stroke: #000000; stroke-width: 0.8"/>
      </g>
     </g>
     <g id="line2d_10">
      <g>
       <use xlink:href="#m575008b3d0" x="344.378182" y="41.472" style="stroke: #000000; stroke-width: 0.8"/>
      </g>
     </g>
     <g id="text_5">
      <!-- 80 -->
      <g transform="translate(339.421703 326.615528) rotate(-30) scale(0.12 -0.12)">
       <defs>
        <path id="DejaVuSans-38" d="M 2034 2216 
Q 1584 2216 1326 1975 
Q 1069 1734 1069 1313 
Q 1069 891 1326 650 
Q 1584 409 2034 409 
Q 2484 409 2743 651 
Q 3003 894 3003 1313 
Q 3003 1734 2745 1975 
Q 2488 2216 2034 2216 
z
M 1403 2484 
Q 997 2584 770 2862 
Q 544 3141 544 3541 
Q 544 4100 942 4425 
Q 1341 4750 2034 4750 
Q 2731 4750 3128 4425 
Q 3525 4100 3525 3541 
Q 3525 3141 3298 2862 
Q 3072 2584 2669 2484 
Q 3125 2378 3379 2068 
Q 3634 1759 3634 1313 
Q 3634 634 3220 271 
Q 2806 -91 2034 -91 
Q 1263 -91 848 271 
Q 434 634 434 1313 
Q 434 1759 690 2068 
Q 947 2378 1403 2484 
z
M 1172 3481 
Q 1172 3119 1398 2916 
Q 1625 2713 2034 2713 
Q 2441 2713 2670 2916 
Q 2900 3119 2900 3481 
Q 2900 3844 2670 4047 
Q 2441 4250 2034 4250 
Q 1625 4250 1398 4047 
Q 1172 3844 1172 3481 
z
" transform="scale(0.015625)"/>
       </defs>
       <use xlink:href="#DejaVuSans-38"/>
       <use xlink:href="#DejaVuSans-30" x="63.623047"/>
      </g>
     </g>
    </g>
    <g id="xtick_6">
     <g id="line2d_11">
      <g>
       <use xlink:href="#m563b18114e" x="412.014545" y="307.584" style="stroke: #000000; stroke-width: 0.8"/>
      </g>
     </g>
     <g id="line2d_12">
      <g>
       <use xlink:href="#m575008b3d0" x="412.014545" y="41.472" style="stroke: #000000; stroke-width: 0.8"/>
      </g>
     </g>
     <g id="text_6">
      <!-- 85 -->
      <g transform="translate(407.058066 326.615528) rotate(-30) scale(0.12 -0.12)">
       <use xlink:href="#DejaVuSans-38"/>
       <use xlink:href="#DejaVuSans-35" x="63.623047"/>
      </g>
     </g>
    </g>
    <g id="text_7">
     <!-- $B\cdot\log{N_s}$ -->
     <g transform="translate(210.78 341.896803) scale(0.12 -0.12)">
      <defs>
       <path id="DejaVuSans-Oblique-42" d="M 1081 4666 
L 2694 4666 
Q 3350 4666 3675 4422 
Q 4000 4178 4000 3688 
Q 4000 3238 3720 2911 
Q 3441 2584 2988 2516 
Q 3375 2428 3569 2181 
Q 3763 1934 3763 1522 
Q 3763 819 3242 409 
Q 2722 0 1819 0 
L 172 0 
L 1081 4666 
z
M 1234 2228 
L 903 519 
L 1919 519 
Q 2491 519 2800 781 
Q 3109 1044 3109 1522 
Q 3109 1891 2904 2059 
Q 2700 2228 2247 2228 
L 1234 2228 
z
M 1606 4147 
L 1331 2741 
L 2272 2741 
Q 2775 2741 3058 2959 
Q 3341 3178 3341 3566 
Q 3341 3869 3150 4008 
Q 2959 4147 2541 4147 
L 1606 4147 
z
" transform="scale(0.015625)"/>
       <path id="DejaVuSans-22c5" d="M 684 2619 
L 1344 2619 
L 1344 1825 
L 684 1825 
L 684 2619 
z
" transform="scale(0.015625)"/>
       <path id="DejaVuSans-6c" d="M 603 4863 
L 1178 4863 
L 1178 0 
L 603 0 
L 603 4863 
z
" transform="scale(0.015625)"/>
       <path id="DejaVuSans-6f" d="M 1959 3097 
Q 1497 3097 1228 2736 
Q 959 2375 959 1747 
Q 959 1119 1226 758 
Q 1494 397 1959 397 
Q 2419 397 2687 759 
Q 2956 1122 2956 1747 
Q 2956 2369 2687 2733 
Q 2419 3097 1959 3097 
z
M 1959 3584 
Q 2709 3584 3137 3096 
Q 3566 2609 3566 1747 
Q 3566 888 3137 398 
Q 2709 -91 1959 -91 
Q 1206 -91 779 398 
Q 353 888 353 1747 
Q 353 2609 779 3096 
Q 1206 3584 1959 3584 
z
" transform="scale(0.015625)"/>
       <path id="DejaVuSans-67" d="M 2906 1791 
Q 2906 2416 2648 2759 
Q 2391 3103 1925 3103 
Q 1463 3103 1205 2759 
Q 947 2416 947 1791 
Q 947 1169 1205 825 
Q 1463 481 1925 481 
Q 2391 481 2648 825 
Q 2906 1169 2906 1791 
z
M 3481 434 
Q 3481 -459 3084 -895 
Q 2688 -1331 1869 -1331 
Q 1566 -1331 1297 -1286 
Q 1028 -1241 775 -1147 
L 775 -588 
Q 1028 -725 1275 -790 
Q 1522 -856 1778 -856 
Q 2344 -856 2625 -561 
Q 2906 -266 2906 331 
L 2906 616 
Q 2728 306 2450 153 
Q 2172 0 1784 0 
Q 1141 0 747 490 
Q 353 981 353 1791 
Q 353 2603 747 3093 
Q 1141 3584 1784 3584 
Q 2172 3584 2450 3431 
Q 2728 3278 2906 2969 
L 2906 3500 
L 3481 3500 
L 3481 434 
z
" transform="scale(0.015625)"/>
       <path id="DejaVuSans-Oblique-4e" d="M 1081 4666 
L 1931 4666 
L 3219 666 
L 4000 4666 
L 4616 4666 
L 3706 0 
L 2853 0 
L 1569 4025 
L 788 0 
L 172 0 
L 1081 4666 
z
" transform="scale(0.015625)"/>
       <path id="DejaVuSans-Oblique-73" d="M 3200 3397 
L 3091 2853 
Q 2863 2978 2609 3040 
Q 2356 3103 2088 3103 
Q 1634 3103 1373 2948 
Q 1113 2794 1113 2528 
Q 1113 2219 1719 2053 
Q 1766 2041 1788 2034 
L 1972 1978 
Q 2547 1819 2739 1644 
Q 2931 1469 2931 1166 
Q 2931 609 2489 259 
Q 2047 -91 1331 -91 
Q 1053 -91 747 -37 
Q 441 16 72 128 
L 184 722 
Q 500 559 806 475 
Q 1113 391 1394 391 
Q 1816 391 2080 572 
Q 2344 753 2344 1031 
Q 2344 1331 1650 1516 
L 1591 1531 
L 1394 1581 
Q 956 1697 753 1886 
Q 550 2075 550 2369 
Q 550 2928 970 3256 
Q 1391 3584 2113 3584 
Q 2397 3584 2667 3537 
Q 2938 3491 3200 3397 
z
" transform="scale(0.015625)"/>
      </defs>
      <use xlink:href="#DejaVuSans-Oblique-42" transform="translate(0 0.015625)"/>
      <use xlink:href="#DejaVuSans-22c5" transform="translate(88.085938 0.015625)"/>
      <use xlink:href="#DejaVuSans-6c" transform="translate(139.355469 0.015625)"/>
      <use xlink:href="#DejaVuSans-6f" transform="translate(167.138672 0.015625)"/>
      <use xlink:href="#DejaVuSans-67" transform="translate(228.320312 0.015625)"/>
      <use xlink:href="#DejaVuSans-Oblique-4e" transform="translate(308.032551 0.015625)"/>
      <use xlink:href="#DejaVuSans-Oblique-73" transform="translate(382.837239 -16.390625) scale(0.7)"/>
     </g>
    </g>
   </g>
   <g id="matplotlib.axis_2">
    <g id="ytick_1">
     <g id="line2d_13">
      <defs>
       <path id="m9d8a99f5b7" d="M 0 0 
L 3.5 0 
" style="stroke: #000000; stroke-width: 0.8"/>
      </defs>
      <g>
       <use xlink:href="#m9d8a99f5b7" x="57.6" y="280.194996" style="stroke: #000000; stroke-width: 0.8"/>
      </g>
     </g>
     <g id="line2d_14">
      <defs>
       <path id="mba8cf1d7ba" d="M 0 0 
L -3.5 0 
" style="stroke: #000000; stroke-width: 0.8"/>
      </defs>
      <g>
       <use xlink:href="#mba8cf1d7ba" x="414.72" y="280.194996" style="stroke: #000000; stroke-width: 0.8"/>
      </g>
     </g>
     <g id="text_8">
      <!-- 0.8 -->
      <g transform="translate(35.01625 284.754058) scale(0.12 -0.12)">
       <defs>
        <path id="DejaVuSans-2e" d="M 684 794 
L 1344 794 
L 1344 0 
L 684 0 
L 684 794 
z
" transform="scale(0.015625)"/>
       </defs>
       <use xlink:href="#DejaVuSans-30"/>
       <use xlink:href="#DejaVuSans-2e" x="63.623047"/>
       <use xlink:href="#DejaVuSans-38" x="95.410156"/>
      </g>
     </g>
    </g>
    <g id="ytick_2">
     <g id="line2d_15">
      <g>
       <use xlink:href="#m9d8a99f5b7" x="57.6" y="230.6074" style="stroke: #000000; stroke-width: 0.8"/>
      </g>
     </g>
     <g id="line2d_16">
      <g>
       <use xlink:href="#mba8cf1d7ba" x="414.72" y="230.6074" style="stroke: #000000; stroke-width: 0.8"/>
      </g>
     </g>
     <g id="text_9">
      <!-- 1.0 -->
      <g transform="translate(35.01625 235.166462) scale(0.12 -0.12)">
       <defs>
        <path id="DejaVuSans-31" d="M 794 531 
L 1825 531 
L 1825 4091 
L 703 3866 
L 703 4441 
L 1819 4666 
L 2450 4666 
L 2450 531 
L 3481 531 
L 3481 0 
L 794 0 
L 794 531 
z
" transform="scale(0.015625)"/>
       </defs>
       <use xlink:href="#DejaVuSans-31"/>
       <use xlink:href="#DejaVuSans-2e" x="63.623047"/>
       <use xlink:href="#DejaVuSans-30" x="95.410156"/>
      </g>
     </g>
    </g>
    <g id="ytick_3">
     <g id="line2d_17">
      <g>
       <use xlink:href="#m9d8a99f5b7" x="57.6" y="181.019804" style="stroke: #000000; stroke-width: 0.8"/>
      </g>
     </g>
     <g id="line2d_18">
      <g>
       <use xlink:href="#mba8cf1d7ba" x="414.72" y="181.019804" style="stroke: #000000; stroke-width: 0.8"/>
      </g>
     </g>
     <g id="text_10">
      <!-- 1.2 -->
      <g transform="translate(35.01625 185.578866) scale(0.12 -0.12)">
       <defs>
        <path id="DejaVuSans-32" d="M 1228 531 
L 3431 531 
L 3431 0 
L 469 0 
L 469 531 
Q 828 903 1448 1529 
Q 2069 2156 2228 2338 
Q 2531 2678 2651 2914 
Q 2772 3150 2772 3378 
Q 2772 3750 2511 3984 
Q 2250 4219 1831 4219 
Q 1534 4219 1204 4116 
Q 875 4013 500 3803 
L 500 4441 
Q 881 4594 1212 4672 
Q 1544 4750 1819 4750 
Q 2544 4750 2975 4387 
Q 3406 4025 3406 3419 
Q 3406 3131 3298 2873 
Q 3191 2616 2906 2266 
Q 2828 2175 2409 1742 
Q 1991 1309 1228 531 
z
" transform="scale(0.015625)"/>
       </defs>
       <use xlink:href="#DejaVuSans-31"/>
       <use xlink:href="#DejaVuSans-2e" x="63.623047"/>
       <use xlink:href="#DejaVuSans-32" x="95.410156"/>
      </g>
     </g>
    </g>
    <g id="ytick_4">
     <g id="line2d_19">
      <g>
       <use xlink:href="#m9d8a99f5b7" x="57.6" y="131.432208" style="stroke: #000000; stroke-width: 0.8"/>
      </g>
     </g>
     <g id="line2d_20">
      <g>
       <use xlink:href="#mba8cf1d7ba" x="414.72" y="131.432208" style="stroke: #000000; stroke-width: 0.8"/>
      </g>
     </g>
     <g id="text_11">
      <!-- 1.4 -->
      <g transform="translate(35.01625 135.99127) scale(0.12 -0.12)">
       <defs>
        <path id="DejaVuSans-34" d="M 2419 4116 
L 825 1625 
L 2419 1625 
L 2419 4116 
z
M 2253 4666 
L 3047 4666 
L 3047 1625 
L 3713 1625 
L 3713 1100 
L 3047 1100 
L 3047 0 
L 2419 0 
L 2419 1100 
L 313 1100 
L 313 1709 
L 2253 4666 
z
" transform="scale(0.015625)"/>
       </defs>
       <use xlink:href="#DejaVuSans-31"/>
       <use xlink:href="#DejaVuSans-2e" x="63.623047"/>
       <use xlink:href="#DejaVuSans-34" x="95.410156"/>
      </g>
     </g>
    </g>
    <g id="ytick_5">
     <g id="line2d_21">
      <g>
       <use xlink:href="#m9d8a99f5b7" x="57.6" y="81.844612" style="stroke: #000000; stroke-width: 0.8"/>
      </g>
     </g>
     <g id="line2d_22">
      <g>
       <use xlink:href="#mba8cf1d7ba" x="414.72" y="81.844612" style="stroke: #000000; stroke-width: 0.8"/>
      </g>
     </g>
     <g id="text_12">
      <!-- 1.6 -->
      <g transform="translate(35.01625 86.403674) scale(0.12 -0.12)">
       <use xlink:href="#DejaVuSans-31"/>
       <use xlink:href="#DejaVuSans-2e" x="63.623047"/>
       <use xlink:href="#DejaVuSans-36" x="95.410156"/>
      </g>
     </g>
    </g>
    <g id="text_13">
     <!-- $\log{\chi_{max}}$ -->
     <g transform="translate(28.49625 197.568) rotate(-90) scale(0.12 -0.12)">
      <defs>
       <path id="DejaVuSans-Oblique-3c7" d="M 1922 -781 
L 1691 416 
L 394 -1334 
L -284 -1334 
L 1553 1141 
L 1269 2613 
Q 1194 3006 713 3006 
L 559 3006 
L 653 3500 
L 872 3494 
Q 1675 3472 1775 2950 
L 2006 1753 
L 3303 3503 
L 3981 3503 
L 2144 1028 
L 2428 -444 
Q 2503 -838 2984 -838 
L 3138 -838 
L 3044 -1331 
L 2825 -1325 
Q 2022 -1303 1922 -781 
z
" transform="scale(0.015625)"/>
       <path id="DejaVuSans-Oblique-6d" d="M 5747 2113 
L 5338 0 
L 4763 0 
L 5166 2094 
Q 5191 2228 5203 2325 
Q 5216 2422 5216 2491 
Q 5216 2772 5059 2928 
Q 4903 3084 4622 3084 
Q 4203 3084 3875 2770 
Q 3547 2456 3450 1953 
L 3066 0 
L 2491 0 
L 2900 2094 
Q 2925 2209 2937 2307 
Q 2950 2406 2950 2484 
Q 2950 2769 2794 2926 
Q 2638 3084 2363 3084 
Q 1938 3084 1609 2770 
Q 1281 2456 1184 1953 
L 800 0 
L 225 0 
L 909 3500 
L 1484 3500 
L 1375 2956 
Q 1609 3263 1923 3423 
Q 2238 3584 2597 3584 
Q 2978 3584 3223 3384 
Q 3469 3184 3519 2828 
Q 3781 3197 4126 3390 
Q 4472 3584 4856 3584 
Q 5306 3584 5551 3325 
Q 5797 3066 5797 2591 
Q 5797 2488 5784 2364 
Q 5772 2241 5747 2113 
z
" transform="scale(0.015625)"/>
       <path id="DejaVuSans-Oblique-61" d="M 3438 1997 
L 3047 0 
L 2472 0 
L 2578 531 
Q 2325 219 2001 64 
Q 1678 -91 1281 -91 
Q 834 -91 548 182 
Q 263 456 263 884 
Q 263 1497 752 1853 
Q 1241 2209 2100 2209 
L 2900 2209 
L 2931 2363 
Q 2938 2388 2941 2417 
Q 2944 2447 2944 2509 
Q 2944 2788 2717 2942 
Q 2491 3097 2081 3097 
Q 1800 3097 1504 3025 
Q 1209 2953 897 2809 
L 997 3341 
Q 1322 3463 1633 3523 
Q 1944 3584 2234 3584 
Q 2853 3584 3176 3315 
Q 3500 3047 3500 2534 
Q 3500 2431 3484 2292 
Q 3469 2153 3438 1997 
z
M 2816 1759 
L 2241 1759 
Q 1534 1759 1195 1570 
Q 856 1381 856 984 
Q 856 709 1029 553 
Q 1203 397 1509 397 
Q 1978 397 2328 733 
Q 2678 1069 2791 1631 
L 2816 1759 
z
" transform="scale(0.015625)"/>
       <path id="DejaVuSans-Oblique-78" d="M 3841 3500 
L 2234 1784 
L 3219 0 
L 2559 0 
L 1819 1388 
L 531 0 
L -166 0 
L 1556 1844 
L 641 3500 
L 1300 3500 
L 1972 2234 
L 3144 3500 
L 3841 3500 
z
" transform="scale(0.015625)"/>
      </defs>
      <use xlink:href="#DejaVuSans-6c" transform="translate(0 0.015625)"/>
      <use xlink:href="#DejaVuSans-6f" transform="translate(27.783203 0.015625)"/>
      <use xlink:href="#DejaVuSans-67" transform="translate(88.964844 0.015625)"/>
      <use xlink:href="#DejaVuSans-Oblique-3c7" transform="translate(168.677083 0.015625)"/>
      <use xlink:href="#DejaVuSans-Oblique-6d" transform="translate(227.85677 -16.390625) scale(0.7)"/>
      <use xlink:href="#DejaVuSans-Oblique-61" transform="translate(296.045247 -16.390625) scale(0.7)"/>
      <use xlink:href="#DejaVuSans-Oblique-78" transform="translate(338.940754 -16.390625) scale(0.7)"/>
     </g>
    </g>
   </g>
   <g id="patch_3">
    <path d="M 57.6 307.584 
L 57.6 41.472 
" style="fill: none; stroke: #000000; stroke-width: 0.8; stroke-linejoin: miter; stroke-linecap: square"/>
   </g>
   <g id="patch_4">
    <path d="M 414.72 307.584 
L 414.72 41.472 
" style="fill: none; stroke: #000000; stroke-width: 0.8; stroke-linejoin: miter; stroke-linecap: square"/>
   </g>
   <g id="patch_5">
    <path d="M 57.6 307.584 
L 414.72 307.584 
" style="fill: none; stroke: #000000; stroke-width: 0.8; stroke-linejoin: miter; stroke-linecap: square"/>
   </g>
   <g id="patch_6">
    <path d="M 57.6 41.472 
L 414.72 41.472 
" style="fill: none; stroke: #000000; stroke-width: 0.8; stroke-linejoin: miter; stroke-linecap: square"/>
   </g>
   <g id="text_14">
    <!-- B: 2.61(23) -->
    <g transform="translate(93.312 77.201325) scale(0.12 -0.12)">
     <defs>
      <path id="DejaVuSans-42" d="M 1259 2228 
L 1259 519 
L 2272 519 
Q 2781 519 3026 730 
Q 3272 941 3272 1375 
Q 3272 1813 3026 2020 
Q 2781 2228 2272 2228 
L 1259 2228 
z
M 1259 4147 
L 1259 2741 
L 2194 2741 
Q 2656 2741 2882 2914 
Q 3109 3088 3109 3444 
Q 3109 3797 2882 3972 
Q 2656 4147 2194 4147 
L 1259 4147 
z
M 628 4666 
L 2241 4666 
Q 2963 4666 3353 4366 
Q 3744 4066 3744 3513 
Q 3744 3084 3544 2831 
Q 3344 2578 2956 2516 
Q 3422 2416 3680 2098 
Q 3938 1781 3938 1306 
Q 3938 681 3513 340 
Q 3088 0 2303 0 
L 628 0 
L 628 4666 
z
" transform="scale(0.015625)"/>
      <path id="DejaVuSans-3a" d="M 750 794 
L 1409 794 
L 1409 0 
L 750 0 
L 750 794 
z
M 750 3309 
L 1409 3309 
L 1409 2516 
L 750 2516 
L 750 3309 
z
" transform="scale(0.015625)"/>
      <path id="DejaVuSans-20" transform="scale(0.015625)"/>
      <path id="DejaVuSans-28" d="M 1984 4856 
Q 1566 4138 1362 3434 
Q 1159 2731 1159 2009 
Q 1159 1288 1364 580 
Q 1569 -128 1984 -844 
L 1484 -844 
Q 1016 -109 783 600 
Q 550 1309 550 2009 
Q 550 2706 781 3412 
Q 1013 4119 1484 4856 
L 1984 4856 
z
" transform="scale(0.015625)"/>
      <path id="DejaVuSans-33" d="M 2597 2516 
Q 3050 2419 3304 2112 
Q 3559 1806 3559 1356 
Q 3559 666 3084 287 
Q 2609 -91 1734 -91 
Q 1441 -91 1130 -33 
Q 819 25 488 141 
L 488 750 
Q 750 597 1062 519 
Q 1375 441 1716 441 
Q 2309 441 2620 675 
Q 2931 909 2931 1356 
Q 2931 1769 2642 2001 
Q 2353 2234 1838 2234 
L 1294 2234 
L 1294 2753 
L 1863 2753 
Q 2328 2753 2575 2939 
Q 2822 3125 2822 3475 
Q 2822 3834 2567 4026 
Q 2313 4219 1838 4219 
Q 1578 4219 1281 4162 
Q 984 4106 628 3988 
L 628 4550 
Q 988 4650 1302 4700 
Q 1616 4750 1894 4750 
Q 2613 4750 3031 4423 
Q 3450 4097 3450 3541 
Q 3450 3153 3228 2886 
Q 3006 2619 2597 2516 
z
" transform="scale(0.015625)"/>
      <path id="DejaVuSans-29" d="M 513 4856 
L 1013 4856 
Q 1481 4119 1714 3412 
Q 1947 2706 1947 2009 
Q 1947 1309 1714 600 
Q 1481 -109 1013 -844 
L 513 -844 
Q 928 -128 1133 580 
Q 1338 1288 1338 2009 
Q 1338 2731 1133 3434 
Q 928 4138 513 4856 
z
" transform="scale(0.015625)"/>
     </defs>
     <use xlink:href="#DejaVuSans-42"/>
     <use xlink:href="#DejaVuSans-3a" x="68.603516"/>
     <use xlink:href="#DejaVuSans-20" x="102.294922"/>
     <use xlink:href="#DejaVuSans-32" x="134.082031"/>
     <use xlink:href="#DejaVuSans-2e" x="197.705078"/>
     <use xlink:href="#DejaVuSans-36" x="229.492188"/>
     <use xlink:href="#DejaVuSans-31" x="293.115234"/>
     <use xlink:href="#DejaVuSans-28" x="356.738281"/>
     <use xlink:href="#DejaVuSans-32" x="395.751953"/>
     <use xlink:href="#DejaVuSans-33" x="459.375"/>
     <use xlink:href="#DejaVuSans-29" x="522.998047"/>
    </g>
   </g>
   <g id="text_15">
    <!-- chi²/d.o.f.: 0.06 -->
    <g transform="translate(93.312 90.506925) scale(0.12 -0.12)">
     <defs>
      <path id="DejaVuSans-63" d="M 3122 3366 
L 3122 2828 
Q 2878 2963 2633 3030 
Q 2388 3097 2138 3097 
Q 1578 3097 1268 2742 
Q 959 2388 959 1747 
Q 959 1106 1268 751 
Q 1578 397 2138 397 
Q 2388 397 2633 464 
Q 2878 531 3122 666 
L 3122 134 
Q 2881 22 2623 -34 
Q 2366 -91 2075 -91 
Q 1284 -91 818 406 
Q 353 903 353 1747 
Q 353 2603 823 3093 
Q 1294 3584 2113 3584 
Q 2378 3584 2631 3529 
Q 2884 3475 3122 3366 
z
" transform="scale(0.015625)"/>
      <path id="DejaVuSans-68" d="M 3513 2113 
L 3513 0 
L 2938 0 
L 2938 2094 
Q 2938 2591 2744 2837 
Q 2550 3084 2163 3084 
Q 1697 3084 1428 2787 
Q 1159 2491 1159 1978 
L 1159 0 
L 581 0 
L 581 4863 
L 1159 4863 
L 1159 2956 
Q 1366 3272 1645 3428 
Q 1925 3584 2291 3584 
Q 2894 3584 3203 3211 
Q 3513 2838 3513 2113 
z
" transform="scale(0.015625)"/>
      <path id="DejaVuSans-69" d="M 603 3500 
L 1178 3500 
L 1178 0 
L 603 0 
L 603 3500 
z
M 603 4863 
L 1178 4863 
L 1178 4134 
L 603 4134 
L 603 4863 
z
" transform="scale(0.015625)"/>
      <path id="DejaVuSans-b2" d="M 838 2444 
L 2163 2444 
L 2163 2088 
L 294 2088 
L 294 2431 
Q 400 2528 597 2703 
Q 1672 3656 1672 3950 
Q 1672 4156 1509 4282 
Q 1347 4409 1081 4409 
Q 919 4409 728 4354 
Q 538 4300 313 4191 
L 313 4575 
Q 553 4663 761 4706 
Q 969 4750 1147 4750 
Q 1600 4750 1872 4544 
Q 2144 4338 2144 4000 
Q 2144 3566 1109 2678 
Q 934 2528 838 2444 
z
" transform="scale(0.015625)"/>
      <path id="DejaVuSans-2f" d="M 1625 4666 
L 2156 4666 
L 531 -594 
L 0 -594 
L 1625 4666 
z
" transform="scale(0.015625)"/>
      <path id="DejaVuSans-64" d="M 2906 2969 
L 2906 4863 
L 3481 4863 
L 3481 0 
L 2906 0 
L 2906 525 
Q 2725 213 2448 61 
Q 2172 -91 1784 -91 
Q 1150 -91 751 415 
Q 353 922 353 1747 
Q 353 2572 751 3078 
Q 1150 3584 1784 3584 
Q 2172 3584 2448 3432 
Q 2725 3281 2906 2969 
z
M 947 1747 
Q 947 1113 1208 752 
Q 1469 391 1925 391 
Q 2381 391 2643 752 
Q 2906 1113 2906 1747 
Q 2906 2381 2643 2742 
Q 2381 3103 1925 3103 
Q 1469 3103 1208 2742 
Q 947 2381 947 1747 
z
" transform="scale(0.015625)"/>
      <path id="DejaVuSans-66" d="M 2375 4863 
L 2375 4384 
L 1825 4384 
Q 1516 4384 1395 4259 
Q 1275 4134 1275 3809 
L 1275 3500 
L 2222 3500 
L 2222 3053 
L 1275 3053 
L 1275 0 
L 697 0 
L 697 3053 
L 147 3053 
L 147 3500 
L 697 3500 
L 697 3744 
Q 697 4328 969 4595 
Q 1241 4863 1831 4863 
L 2375 4863 
z
" transform="scale(0.015625)"/>
     </defs>
     <use xlink:href="#DejaVuSans-63"/>
     <use xlink:href="#DejaVuSans-68" x="54.980469"/>
     <use xlink:href="#DejaVuSans-69" x="118.359375"/>
     <use xlink:href="#DejaVuSans-b2" x="146.142578"/>
     <use xlink:href="#DejaVuSans-2f" x="186.230469"/>
     <use xlink:href="#DejaVuSans-64" x="219.921875"/>
     <use xlink:href="#DejaVuSans-2e" x="283.398438"/>
     <use xlink:href="#DejaVuSans-6f" x="315.185547"/>
     <use xlink:href="#DejaVuSans-2e" x="374.617188"/>
     <use xlink:href="#DejaVuSans-66" x="406.404297"/>
     <use xlink:href="#DejaVuSans-2e" x="434.359375"/>
     <use xlink:href="#DejaVuSans-3a" x="466.146484"/>
     <use xlink:href="#DejaVuSans-20" x="499.837891"/>
     <use xlink:href="#DejaVuSans-30" x="531.625"/>
     <use xlink:href="#DejaVuSans-2e" x="595.248047"/>
     <use xlink:href="#DejaVuSans-30" x="627.035156"/>
     <use xlink:href="#DejaVuSans-36" x="690.658203"/>
    </g>
   </g>
   <g id="text_16">
    <!-- Log Fit of $\chi_{max}$ and $N_s$ -->
    <g transform="translate(171.54 35.472) scale(0.12 -0.12)">
     <defs>
      <path id="DejaVuSans-4c" d="M 628 4666 
L 1259 4666 
L 1259 531 
L 3531 531 
L 3531 0 
L 628 0 
L 628 4666 
z
" transform="scale(0.015625)"/>
      <path id="DejaVuSans-46" d="M 628 4666 
L 3309 4666 
L 3309 4134 
L 1259 4134 
L 1259 2759 
L 3109 2759 
L 3109 2228 
L 1259 2228 
L 1259 0 
L 628 0 
L 628 4666 
z
" transform="scale(0.015625)"/>
      <path id="DejaVuSans-74" d="M 1172 4494 
L 1172 3500 
L 2356 3500 
L 2356 3053 
L 1172 3053 
L 1172 1153 
Q 1172 725 1289 603 
Q 1406 481 1766 481 
L 2356 481 
L 2356 0 
L 1766 0 
Q 1100 0 847 248 
Q 594 497 594 1153 
L 594 3053 
L 172 3053 
L 172 3500 
L 594 3500 
L 594 4494 
L 1172 4494 
z
" transform="scale(0.015625)"/>
      <path id="DejaVuSans-61" d="M 2194 1759 
Q 1497 1759 1228 1600 
Q 959 1441 959 1056 
Q 959 750 1161 570 
Q 1363 391 1709 391 
Q 2188 391 2477 730 
Q 2766 1069 2766 1631 
L 2766 1759 
L 2194 1759 
z
M 3341 1997 
L 3341 0 
L 2766 0 
L 2766 531 
Q 2569 213 2275 61 
Q 1981 -91 1556 -91 
Q 1019 -91 701 211 
Q 384 513 384 1019 
Q 384 1609 779 1909 
Q 1175 2209 1959 2209 
L 2766 2209 
L 2766 2266 
Q 2766 2663 2505 2880 
Q 2244 3097 1772 3097 
Q 1472 3097 1187 3025 
Q 903 2953 641 2809 
L 641 3341 
Q 956 3463 1253 3523 
Q 1550 3584 1831 3584 
Q 2591 3584 2966 3190 
Q 3341 2797 3341 1997 
z
" transform="scale(0.015625)"/>
      <path id="DejaVuSans-6e" d="M 3513 2113 
L 3513 0 
L 2938 0 
L 2938 2094 
Q 2938 2591 2744 2837 
Q 2550 3084 2163 3084 
Q 1697 3084 1428 2787 
Q 1159 2491 1159 1978 
L 1159 0 
L 581 0 
L 581 3500 
L 1159 3500 
L 1159 2956 
Q 1366 3272 1645 3428 
Q 1925 3584 2291 3584 
Q 2894 3584 3203 3211 
Q 3513 2838 3513 2113 
z
" transform="scale(0.015625)"/>
     </defs>
     <use xlink:href="#DejaVuSans-4c" transform="translate(0 0.015625)"/>
     <use xlink:href="#DejaVuSans-6f" transform="translate(55.712891 0.015625)"/>
     <use xlink:href="#DejaVuSans-67" transform="translate(116.894531 0.015625)"/>
     <use xlink:href="#DejaVuSans-20" transform="translate(180.371094 0.015625)"/>
     <use xlink:href="#DejaVuSans-46" transform="translate(212.158203 0.015625)"/>
     <use xlink:href="#DejaVuSans-69" transform="translate(269.677734 0.015625)"/>
     <use xlink:href="#DejaVuSans-74" transform="translate(297.460938 0.015625)"/>
     <use xlink:href="#DejaVuSans-20" transform="translate(336.669922 0.015625)"/>
     <use xlink:href="#DejaVuSans-6f" transform="translate(368.457031 0.015625)"/>
     <use xlink:href="#DejaVuSans-66" transform="translate(429.638672 0.015625)"/>
     <use xlink:href="#DejaVuSans-20" transform="translate(464.84375 0.015625)"/>
     <use xlink:href="#DejaVuSans-Oblique-3c7" transform="translate(496.630859 0.015625)"/>
     <use xlink:href="#DejaVuSans-Oblique-6d" transform="translate(555.810547 -16.390625) scale(0.7)"/>
     <use xlink:href="#DejaVuSans-Oblique-61" transform="translate(623.999023 -16.390625) scale(0.7)"/>
     <use xlink:href="#DejaVuSans-Oblique-78" transform="translate(666.894531 -16.390625) scale(0.7)"/>
     <use xlink:href="#DejaVuSans-20" transform="translate(711.054688 0.015625)"/>
     <use xlink:href="#DejaVuSans-61" transform="translate(742.841797 0.015625)"/>
     <use xlink:href="#DejaVuSans-6e" transform="translate(804.121094 0.015625)"/>
     <use xlink:href="#DejaVuSans-64" transform="translate(867.5 0.015625)"/>
     <use xlink:href="#DejaVuSans-20" transform="translate(930.976562 0.015625)"/>
     <use xlink:href="#DejaVuSans-Oblique-4e" transform="translate(962.763672 0.015625)"/>
     <use xlink:href="#DejaVuSans-Oblique-73" transform="translate(1037.568359 -16.390625) scale(0.7)"/>
    </g>
   </g>
   <g id="PolyCollection_1">
    <defs>
     <path id="mbb35a56d9c" d="M 73.832727 -64.289084 
L 73.832727 -50.479095 
L 74.157382 -50.748165 
L 74.482036 -51.016988 
L 74.806691 -51.285825 
L 75.131345 -51.554331 
L 75.456 -51.822678 
L 75.780655 -52.090951 
L 76.105309 -52.359063 
L 76.429964 -52.626932 
L 76.754618 -52.894641 
L 77.079273 -53.162273 
L 77.403927 -53.429663 
L 77.728582 -53.696974 
L 78.053236 -53.963963 
L 78.377891 -54.230872 
L 78.702545 -54.497701 
L 79.0272 -54.764289 
L 79.351855 -55.030717 
L 79.676509 -55.296984 
L 80.001164 -55.56309 
L 80.325818 -55.828957 
L 80.650473 -56.094741 
L 80.975127 -56.360363 
L 81.299782 -56.625824 
L 81.624436 -56.891124 
L 81.949091 -57.156186 
L 82.273745 -57.421162 
L 82.5984 -57.685976 
L 82.923055 -57.950554 
L 83.247709 -58.214971 
L 83.572364 -58.479298 
L 83.897018 -58.743391 
L 84.221673 -59.007393 
L 84.546327 -59.271162 
L 84.870982 -59.534768 
L 85.195636 -59.798281 
L 85.520291 -60.061494 
L 85.844945 -60.324613 
L 86.1696 -60.587637 
L 86.494255 -60.85043 
L 86.818909 -61.11306 
L 87.143564 -61.375526 
L 87.468218 -61.637764 
L 87.792873 -61.89997 
L 88.117527 -62.161946 
L 88.442182 -62.423695 
L 88.766836 -62.685345 
L 89.091491 -62.94683 
L 89.416145 -63.20809 
L 89.7408 -63.469247 
L 90.065455 -63.730241 
L 90.390109 -63.991009 
L 90.714764 -64.251614 
L 91.039418 -64.512115 
L 91.364073 -64.772333 
L 91.688727 -65.032505 
L 92.013382 -65.292455 
L 92.338036 -65.552297 
L 92.662691 -65.811917 
L 92.987345 -66.071373 
L 93.312 -66.330664 
L 93.636655 -66.589791 
L 93.961309 -66.848808 
L 94.285964 -67.107551 
L 94.610618 -67.366184 
L 94.935273 -67.624651 
L 95.259927 -67.882902 
L 95.584582 -68.14104 
L 95.909236 -68.399063 
L 96.233891 -68.656819 
L 96.558545 -68.91446 
L 96.8832 -69.171888 
L 97.207855 -69.429198 
L 97.532509 -69.686295 
L 97.857164 -69.943228 
L 98.181818 -70.200042 
L 98.506473 -70.45669 
L 98.831127 -70.713126 
L 99.155782 -70.969442 
L 99.480436 -71.225547 
L 99.805091 -71.481488 
L 100.129745 -71.737262 
L 100.4544 -71.992872 
L 100.779055 -72.248316 
L 101.103709 -72.503594 
L 101.428364 -72.758747 
L 101.753018 -73.013654 
L 102.077673 -73.268474 
L 102.402327 -73.52305 
L 102.726982 -73.777499 
L 103.051636 -74.031782 
L 103.376291 -74.285862 
L 103.700945 -74.539814 
L 104.0256 -74.793599 
L 104.350255 -75.047218 
L 104.674909 -75.300637 
L 104.999564 -75.553924 
L 105.324218 -75.807011 
L 105.648873 -76.059934 
L 105.973527 -76.312722 
L 106.298182 -76.565313 
L 106.622836 -76.817739 
L 106.947491 -77.070029 
L 107.272145 -77.322123 
L 107.5968 -77.574052 
L 107.921455 -77.825815 
L 108.246109 -78.07744 
L 108.570764 -78.328845 
L 108.895418 -78.580111 
L 109.220073 -78.831212 
L 109.544727 -79.082147 
L 109.869382 -79.33294 
L 110.194036 -79.58352 
L 110.518691 -79.833935 
L 110.843345 -80.084208 
L 111.168 -80.334315 
L 111.492655 -80.584256 
L 111.817309 -80.834012 
L 112.141964 -81.083622 
L 112.466618 -81.333048 
L 112.791273 -81.582327 
L 113.115927 -81.831441 
L 113.440582 -82.080372 
L 113.765236 -82.329138 
L 114.089891 -82.577755 
L 114.414545 -82.826192 
L 114.7392 -83.074465 
L 115.063855 -83.322572 
L 115.388509 -83.570516 
L 115.713164 -83.818307 
L 116.037818 -84.065921 
L 116.362473 -84.313371 
L 116.687127 -84.560656 
L 117.011782 -84.807777 
L 117.336436 -85.054734 
L 117.661091 -85.301527 
L 117.985745 -85.548147 
L 118.3104 -85.794612 
L 118.635055 -86.040912 
L 118.959709 -86.287049 
L 119.284364 -86.533016 
L 119.609018 -86.778821 
L 119.933673 -87.024467 
L 120.258327 -87.269949 
L 120.582982 -87.515264 
L 120.907636 -87.760419 
L 121.232291 -88.005411 
L 121.556945 -88.250238 
L 121.8816 -88.494902 
L 122.206255 -88.739404 
L 122.530909 -88.983744 
L 122.855564 -89.227922 
L 123.180218 -89.471937 
L 123.504873 -89.715791 
L 123.829527 -89.959483 
L 124.154182 -90.203008 
L 124.478836 -90.446376 
L 124.803491 -90.689588 
L 125.128145 -90.932627 
L 125.4528 -91.175517 
L 125.777455 -91.418239 
L 126.102109 -91.660809 
L 126.426764 -91.90321 
L 126.751418 -92.14544 
L 127.076073 -92.387528 
L 127.400727 -92.629457 
L 127.725382 -92.871215 
L 128.050036 -93.112812 
L 128.374691 -93.354249 
L 128.699345 -93.595539 
L 129.024 -93.83667 
L 129.348655 -94.077627 
L 129.673309 -94.318439 
L 129.997964 -94.559093 
L 130.322618 -94.799588 
L 130.647273 -95.039908 
L 130.971927 -95.280086 
L 131.296582 -95.520106 
L 131.621236 -95.759968 
L 131.945891 -95.999672 
L 132.270545 -96.239198 
L 132.5952 -96.478607 
L 132.919855 -96.717838 
L 133.244509 -96.956912 
L 133.569164 -97.195829 
L 133.893818 -97.434588 
L 134.218473 -97.673191 
L 134.543127 -97.911637 
L 134.867782 -98.149952 
L 135.192436 -98.388085 
L 135.517091 -98.626089 
L 135.841745 -98.863911 
L 136.1664 -99.101604 
L 136.491055 -99.339143 
L 136.815709 -99.57647 
L 137.140364 -99.813699 
L 137.465018 -100.050774 
L 137.789673 -100.287695 
L 138.114327 -100.524431 
L 138.438982 -100.761044 
L 138.763636 -100.997471 
L 139.088291 -101.233777 
L 139.412945 -101.46993 
L 139.7376 -101.70593 
L 140.062255 -101.941812 
L 140.386909 -102.177472 
L 140.711564 -102.413014 
L 141.036218 -102.648404 
L 141.360873 -102.883642 
L 141.685527 -103.118729 
L 142.010182 -103.353663 
L 142.334836 -103.588447 
L 142.659491 -103.823118 
L 142.984145 -104.0576 
L 143.3088 -104.291931 
L 143.633455 -104.526152 
L 143.958109 -104.760182 
L 144.282764 -104.994105 
L 144.607418 -105.227878 
L 144.932073 -105.461416 
L 145.256727 -105.694935 
L 145.581382 -105.928218 
L 145.906036 -106.161351 
L 146.230691 -106.394428 
L 146.555345 -106.627264 
L 146.88 -106.86 
L 147.204655 -107.092587 
L 147.529309 -107.32498 
L 147.853964 -107.557273 
L 148.178618 -107.789469 
L 148.503273 -108.02142 
L 148.827927 -108.253274 
L 149.152582 -108.484982 
L 149.477236 -108.716544 
L 149.801891 -108.94796 
L 150.126545 -109.179231 
L 150.4512 -109.41041 
L 150.775855 -109.641392 
L 151.100509 -109.872283 
L 151.425164 -110.102921 
L 151.749818 -110.333524 
L 152.074473 -110.563929 
L 152.399127 -110.794246 
L 152.723782 -111.024363 
L 153.048436 -111.254337 
L 153.373091 -111.484226 
L 153.697745 -111.713973 
L 154.0224 -111.943519 
L 154.347055 -112.172983 
L 154.671709 -112.402245 
L 154.996364 -112.631425 
L 155.321018 -112.860465 
L 155.645673 -113.089365 
L 155.970327 -113.318124 
L 156.294982 -113.546743 
L 156.619636 -113.775158 
L 156.944291 -114.003561 
L 157.268945 -114.231761 
L 157.5936 -114.459822 
L 157.918255 -114.687744 
L 158.242909 -114.915527 
L 158.567564 -115.143172 
L 158.892218 -115.370678 
L 159.216873 -115.598046 
L 159.541527 -115.825345 
L 159.866182 -116.052439 
L 160.190836 -116.279395 
L 160.515491 -116.506283 
L 160.840145 -116.732966 
L 161.1648 -116.959512 
L 161.489455 -117.185993 
L 161.814109 -117.412267 
L 162.138764 -117.638477 
L 162.463418 -117.86448 
L 162.788073 -118.090421 
L 163.112727 -118.316227 
L 163.437382 -118.541825 
L 163.762036 -118.767363 
L 164.086691 -118.992767 
L 164.411345 -119.218038 
L 164.736 -119.4431 
L 165.060655 -119.668105 
L 165.385309 -119.892977 
L 165.709964 -120.117794 
L 166.034618 -120.342324 
L 166.359273 -120.5668 
L 166.683927 -120.791222 
L 167.008582 -121.015435 
L 167.333236 -121.239517 
L 167.657891 -121.463468 
L 167.982545 -121.687288 
L 168.3072 -121.910977 
L 168.631855 -122.134618 
L 168.956509 -122.358047 
L 169.281164 -122.581347 
L 169.605818 -122.8046 
L 169.930473 -123.027642 
L 170.255127 -123.250637 
L 170.579782 -123.473505 
L 170.904436 -123.696161 
L 171.229091 -123.918773 
L 171.553745 -124.141258 
L 171.8784 -124.36353 
L 172.203055 -124.585674 
L 172.527709 -124.807864 
L 172.852364 -125.029842 
L 173.177018 -125.251606 
L 173.501673 -125.473331 
L 173.826327 -125.69493 
L 174.150982 -125.916404 
L 174.475636 -126.137753 
L 174.800291 -126.358887 
L 175.124945 -126.579986 
L 175.4496 -126.80105 
L 175.774255 -127.0219 
L 176.098909 -127.242626 
L 176.423564 -127.463228 
L 176.748218 -127.683799 
L 177.072873 -127.904154 
L 177.397527 -128.124386 
L 177.722182 -128.344496 
L 178.046836 -128.564483 
L 178.371491 -128.784441 
L 178.696145 -129.004277 
L 179.0208 -129.223898 
L 179.345455 -129.443397 
L 179.670109 -129.66287 
L 179.994764 -129.882222 
L 180.319418 -130.101357 
L 180.644073 -130.320469 
L 180.968727 -130.53946 
L 181.293382 -130.758234 
L 181.618036 -130.976986 
L 181.942691 -131.195717 
L 182.267345 -131.414132 
L 182.592 -131.632527 
L 182.916655 -131.850703 
L 183.241309 -132.068861 
L 183.565964 -132.287 
L 183.890618 -132.504921 
L 184.215273 -132.722624 
L 184.539927 -132.940411 
L 184.864582 -133.15798 
L 185.189236 -133.375432 
L 185.513891 -133.592766 
L 185.838545 -133.809985 
L 186.1632 -134.027189 
L 186.487855 -134.244175 
L 186.812509 -134.461045 
L 187.137164 -134.677799 
L 187.461818 -134.894541 
L 187.786473 -135.111064 
L 188.111127 -135.327578 
L 188.435782 -135.543976 
L 188.760436 -135.760155 
L 189.085091 -135.976326 
L 189.409745 -136.192276 
L 189.7344 -136.408326 
L 190.059055 -136.624049 
L 190.383709 -136.839658 
L 190.708364 -137.055369 
L 191.033018 -137.270752 
L 191.357673 -137.48613 
L 191.682327 -137.701396 
L 192.006982 -137.91655 
L 192.331636 -138.131592 
L 192.656291 -138.346523 
L 192.980945 -138.561342 
L 193.3056 -138.77605 
L 193.630255 -138.990646 
L 193.954909 -139.205132 
L 194.279564 -139.419507 
L 194.604218 -139.633884 
L 194.928873 -139.848038 
L 195.253527 -140.062083 
L 195.578182 -140.276018 
L 195.902836 -140.489843 
L 196.227491 -140.703671 
L 196.552145 -140.917278 
L 196.8768 -141.130889 
L 197.201455 -141.344392 
L 197.526109 -141.557673 
L 197.850764 -141.770845 
L 198.175418 -141.984023 
L 198.500073 -142.196979 
L 198.824727 -142.409942 
L 199.149382 -142.622799 
L 199.474036 -142.835432 
L 199.798691 -143.048074 
L 200.123345 -143.260609 
L 200.448 -143.473038 
L 200.772655 -143.685361 
L 201.097309 -143.897578 
L 201.421964 -144.109571 
L 201.746618 -144.321694 
L 202.071273 -144.533475 
L 202.395927 -144.745387 
L 202.720582 -144.957076 
L 203.045236 -145.16866 
L 203.369891 -145.38014 
L 203.694545 -145.591514 
L 204.0192 -145.802785 
L 204.343855 -146.014071 
L 204.668509 -146.225133 
L 204.993164 -146.436091 
L 205.317818 -146.647067 
L 205.642473 -146.857696 
L 205.967127 -147.068465 
L 206.291782 -147.27901 
L 206.616436 -147.489574 
L 206.941091 -147.700035 
L 207.265745 -147.910271 
L 207.5904 -148.120528 
L 207.915055 -148.330683 
L 208.239709 -148.540613 
L 208.564364 -148.750565 
L 208.889018 -148.960415 
L 209.213673 -149.17004 
L 209.538327 -149.379563 
L 209.862982 -149.589235 
L 210.187636 -149.798556 
L 210.512291 -150.007902 
L 210.836945 -150.217147 
L 211.1616 -150.426418 
L 211.486255 -150.635337 
L 211.810909 -150.844282 
L 212.135564 -151.053128 
L 212.460218 -151.262 
L 212.784873 -151.47052 
L 213.109527 -151.679067 
L 213.434182 -151.887643 
L 213.758836 -152.09612 
L 214.083491 -152.304372 
L 214.408145 -152.512524 
L 214.7328 -152.720578 
L 215.057455 -152.928663 
L 215.382109 -153.136521 
L 215.706764 -153.344281 
L 216.031418 -153.552072 
L 216.356073 -153.759637 
L 216.680727 -153.967234 
L 217.005382 -154.174604 
L 217.330036 -154.381877 
L 217.654691 -154.589314 
L 217.979345 -154.796393 
L 218.304 -155.003507 
L 218.628655 -155.210525 
L 218.953309 -155.417446 
L 219.277964 -155.62414 
L 219.602618 -155.83087 
L 219.927273 -156.037504 
L 220.251927 -156.244043 
L 220.576582 -156.450354 
L 220.901236 -156.656703 
L 221.225891 -156.862956 
L 221.550545 -157.069248 
L 221.8752 -157.275312 
L 222.199855 -157.481281 
L 222.524509 -157.687022 
L 222.849164 -157.892937 
L 223.173818 -158.098624 
L 223.498473 -158.304351 
L 223.823127 -158.509715 
L 224.147782 -158.715255 
L 224.472436 -158.920702 
L 224.797091 -159.125921 
L 225.121745 -159.331046 
L 225.4464 -159.536078 
L 225.771055 -159.741153 
L 226.095709 -159.946 
L 226.420364 -160.15089 
L 226.745018 -160.355552 
L 227.069673 -160.560257 
L 227.394327 -160.764871 
L 227.718982 -160.969256 
L 228.043636 -161.173686 
L 228.368291 -161.378024 
L 228.692945 -161.582271 
L 229.0176 -161.786289 
L 229.342255 -161.990354 
L 229.666909 -162.194327 
L 229.991564 -162.39821 
L 230.316218 -162.602002 
L 230.640873 -162.805565 
L 230.965527 -163.009175 
L 231.290182 -163.212695 
L 231.614836 -163.416265 
L 231.939491 -163.619605 
L 232.264145 -163.822855 
L 232.5888 -164.026155 
L 232.913455 -164.229225 
L 233.238109 -164.432066 
L 233.562764 -164.635098 
L 233.887418 -164.8379 
L 234.212073 -165.040754 
L 234.536727 -165.243378 
L 234.861382 -165.445913 
L 235.186036 -165.64836 
L 235.510691 -165.850717 
L 235.835345 -166.053269 
L 236.16 -166.25545 
L 236.484655 -166.457542 
L 236.809309 -166.659688 
L 237.133964 -166.861746 
L 237.458618 -167.063575 
L 237.783273 -167.265458 
L 238.107927 -167.467253 
L 238.432582 -167.668819 
L 238.757236 -167.870439 
L 239.081891 -168.071973 
L 239.406545 -168.273277 
L 239.7312 -168.474636 
L 240.055855 -168.675909 
L 240.380509 -168.877096 
L 240.705164 -169.078196 
L 241.029818 -169.279209 
L 241.354473 -169.480136 
L 241.679127 -169.680977 
L 242.003782 -169.881732 
L 242.328436 -170.082401 
L 242.653091 -170.283129 
L 242.977745 -170.483627 
L 243.3024 -170.684039 
L 243.627055 -170.884365 
L 243.951709 -171.084606 
L 244.276364 -171.284762 
L 244.601018 -171.484978 
L 244.925673 -171.68511 
L 245.250327 -171.884865 
L 245.574982 -172.084827 
L 245.899636 -172.284705 
L 246.224291 -172.484352 
L 246.548945 -172.684061 
L 246.8736 -172.883539 
L 247.198255 -173.082933 
L 247.522909 -173.282536 
L 247.847564 -173.481762 
L 248.172218 -173.681051 
L 248.496873 -173.880257 
L 248.821527 -174.079231 
L 249.146182 -174.27827 
L 249.470836 -174.477225 
L 249.795491 -174.675949 
L 250.120145 -174.874886 
L 250.4448 -175.073592 
L 250.769455 -175.272067 
L 251.094109 -175.470607 
L 251.418764 -175.669065 
L 251.743418 -175.86744 
L 252.068073 -176.065733 
L 252.392727 -176.263943 
L 252.717382 -176.46222 
L 253.042036 -176.660117 
L 253.366691 -176.85823 
L 253.691345 -177.056112 
L 254.016 -177.253912 
L 254.340655 -177.45178 
L 254.665309 -177.649266 
L 254.989964 -177.846821 
L 255.314618 -178.044445 
L 255.639273 -178.241988 
L 255.963927 -178.439299 
L 256.288582 -178.636529 
L 256.613236 -178.833979 
L 256.937891 -179.031047 
L 257.262545 -179.228035 
L 257.5872 -179.425092 
L 257.911855 -179.621918 
L 258.236509 -179.818814 
L 258.561164 -180.015479 
L 258.885818 -180.212367 
L 259.210473 -180.408871 
L 259.535127 -180.605447 
L 259.859782 -180.801791 
L 260.184436 -180.998207 
L 260.509091 -181.194544 
L 260.833745 -181.3908 
L 261.1584 -181.586977 
L 261.483055 -181.783075 
L 261.807709 -181.979094 
L 262.132364 -182.175033 
L 262.457018 -182.370893 
L 262.781673 -182.566674 
L 263.106327 -182.762375 
L 263.430982 -182.958152 
L 263.755636 -183.153543 
L 264.080291 -183.349161 
L 264.404945 -183.544548 
L 264.7296 -183.739857 
L 265.054255 -183.935087 
L 265.378909 -184.130392 
L 265.703564 -184.325465 
L 266.028218 -184.520461 
L 266.352873 -184.715532 
L 266.677527 -184.910371 
L 267.002182 -185.105132 
L 267.326836 -185.29997 
L 267.651491 -185.49473 
L 267.976145 -185.689258 
L 268.3008 -185.883709 
L 268.625455 -186.078392 
L 268.950109 -186.272687 
L 269.274764 -186.467061 
L 269.599418 -186.661357 
L 269.924073 -186.855422 
L 270.248727 -187.049564 
L 270.573382 -187.243474 
L 270.898036 -187.437463 
L 271.222691 -187.631531 
L 271.547345 -187.825211 
L 271.872 -188.018971 
L 272.196655 -188.212654 
L 272.521309 -188.40626 
L 272.845964 -188.599791 
L 273.170618 -188.793245 
L 273.495273 -188.986623 
L 273.819927 -189.179925 
L 274.144582 -189.373151 
L 274.469236 -189.566458 
L 274.793891 -189.759376 
L 275.118545 -189.952532 
L 275.4432 -190.145456 
L 275.767855 -190.338304 
L 276.092509 -190.531234 
L 276.417164 -190.723931 
L 276.741818 -190.91671 
L 277.066473 -191.109257 
L 277.391127 -191.301887 
L 277.715782 -191.494126 
L 278.040436 -191.686605 
L 278.365091 -191.87901 
L 278.689745 -192.071341 
L 279.0144 -192.263438 
L 279.339055 -192.455461 
L 279.663709 -192.647568 
L 279.988364 -192.8396 
L 280.313018 -193.0314 
L 280.637673 -193.223284 
L 280.962327 -193.415093 
L 281.286982 -193.60667 
L 281.611636 -193.798332 
L 281.936291 -193.98992 
L 282.260945 -194.181434 
L 282.5856 -194.372874 
L 282.910255 -194.564082 
L 283.234909 -194.755534 
L 283.559564 -194.946753 
L 283.884218 -195.137899 
L 284.208873 -195.328972 
L 284.533527 -195.519972 
L 284.858182 -195.710898 
L 285.182836 -195.901751 
L 285.507491 -196.092531 
L 285.832145 -196.283238 
L 286.1568 -196.474032 
L 286.481455 -196.664433 
L 286.806109 -196.855082 
L 287.130764 -197.045498 
L 287.455418 -197.235841 
L 287.780073 -197.426432 
L 288.104727 -197.61647 
L 288.429382 -197.806757 
L 288.754036 -197.99681 
L 289.078691 -198.186952 
L 289.403345 -198.376861 
L 289.728 -198.566859 
L 290.052655 -198.756624 
L 290.377309 -198.946478 
L 290.701964 -199.13626 
L 291.026618 -199.32597 
L 291.351273 -199.515448 
L 291.675927 -199.705015 
L 292.000582 -199.894349 
L 292.325236 -200.083773 
L 292.649891 -200.273126 
L 292.974545 -200.462407 
L 293.2992 -200.651617 
L 293.623855 -200.840594 
L 293.948509 -201.029662 
L 294.273164 -201.218659 
L 294.597818 -201.407584 
L 294.922473 -201.596601 
L 295.247127 -201.785223 
L 295.571782 -201.974099 
L 295.896436 -202.162741 
L 296.221091 -202.351151 
L 296.545745 -202.539652 
L 296.8704 -202.728083 
L 297.195055 -202.916443 
L 297.519709 -203.104896 
L 297.844364 -203.293115 
L 298.169018 -203.481265 
L 298.493673 -203.669507 
L 298.818327 -203.857679 
L 299.142982 -204.045618 
L 299.467636 -204.233487 
L 299.792291 -204.42145 
L 300.116945 -204.609179 
L 300.4416 -204.796839 
L 300.766255 -204.984592 
L 301.090909 -205.172276 
L 301.415564 -205.359726 
L 301.740218 -205.547107 
L 302.064873 -205.734583 
L 302.389527 -205.921989 
L 302.714182 -206.109162 
L 303.038836 -206.296429 
L 303.363491 -206.483628 
L 303.688145 -206.670757 
L 304.0128 -206.857818 
L 304.337455 -207.044645 
L 304.662109 -207.231568 
L 304.986764 -207.418421 
L 305.311418 -207.605206 
L 305.636073 -207.791923 
L 305.960727 -207.97857 
L 306.285382 -208.16515 
L 306.610036 -208.351495 
L 306.934691 -208.538102 
L 307.259345 -208.724476 
L 307.584 -208.910782 
L 307.908655 -209.097019 
L 308.233309 -209.283188 
L 308.557964 -209.469289 
L 308.882618 -209.655322 
L 309.207273 -209.841452 
L 309.531927 -210.027349 
L 309.856582 -210.213343 
L 310.181236 -210.399104 
L 310.505891 -210.584797 
L 310.830545 -210.770423 
L 311.1552 -210.955981 
L 311.479855 -211.141637 
L 311.804509 -211.32706 
L 312.129164 -211.512581 
L 312.453818 -211.698035 
L 312.778473 -211.883256 
L 313.103127 -212.068575 
L 313.427782 -212.253827 
L 313.752436 -212.438846 
L 314.077091 -212.623964 
L 314.401745 -212.808849 
L 314.7264 -212.993833 
L 315.051055 -213.17875 
L 315.375709 -213.363601 
L 315.700364 -213.548218 
L 316.025018 -213.732935 
L 316.349673 -213.917585 
L 316.674327 -214.102002 
L 316.998982 -214.286686 
L 317.323636 -214.47097 
L 317.648291 -214.655354 
L 317.972945 -214.839838 
L 318.2976 -215.02409 
L 318.622255 -215.208275 
L 318.946909 -215.392227 
L 319.271564 -215.57628 
L 319.596218 -215.760267 
L 319.920873 -215.944355 
L 320.245527 -216.12821 
L 320.570182 -216.312166 
L 320.894836 -216.495889 
L 321.219491 -216.679379 
L 321.544145 -216.863138 
L 321.8688 -217.046664 
L 322.193455 -217.230292 
L 322.518109 -217.413687 
L 322.842764 -217.597184 
L 323.167418 -217.780447 
L 323.492073 -217.963813 
L 323.816727 -218.146946 
L 324.141382 -218.330014 
L 324.466036 -218.513184 
L 324.790691 -218.696121 
L 325.115345 -218.879161 
L 325.44 -219.061968 
L 325.764655 -219.244878 
L 326.089309 -219.427555 
L 326.413964 -219.610336 
L 326.738618 -219.793051 
L 327.063273 -219.975702 
L 327.387927 -220.158119 
L 327.712582 -220.340809 
L 328.037236 -220.523097 
L 328.361891 -220.705489 
L 328.686545 -220.887817 
L 329.0112 -221.07008 
L 329.335855 -221.252279 
L 329.660509 -221.434414 
L 329.985164 -221.616484 
L 330.309818 -221.79849 
L 330.634473 -221.980431 
L 330.959127 -222.162309 
L 331.283782 -222.344123 
L 331.608436 -222.525872 
L 331.933091 -222.707558 
L 332.257745 -222.889179 
L 332.5824 -223.070737 
L 332.907055 -223.2524 
L 333.231709 -223.43383 
L 333.556364 -223.615366 
L 333.881018 -223.796499 
L 334.205673 -223.977908 
L 334.530327 -224.159084 
L 334.854982 -224.340365 
L 335.179636 -224.521414 
L 335.504291 -224.702569 
L 335.828945 -224.88349 
L 336.1536 -225.064519 
L 336.478255 -225.245314 
L 336.802909 -225.426046 
L 337.127564 -225.606885 
L 337.452218 -225.78749 
L 337.776873 -225.968203 
L 338.101527 -226.148853 
L 338.426182 -226.32944 
L 338.750836 -226.509793 
L 339.075491 -226.690254 
L 339.400145 -226.870483 
L 339.7248 -227.050818 
L 340.049455 -227.231091 
L 340.374109 -227.411301 
L 340.698764 -227.591449 
L 341.023418 -227.771534 
L 341.348073 -227.951386 
L 341.672727 -228.131517 
L 341.997382 -228.311245 
L 342.322036 -228.491251 
L 342.646691 -228.670854 
L 342.971345 -228.850735 
L 343.296 -229.030213 
L 343.620655 -229.209971 
L 343.945309 -229.389325 
L 344.269964 -229.568958 
L 344.594618 -229.748359 
L 344.919273 -229.927698 
L 345.243927 -230.107145 
L 345.568582 -230.286189 
L 345.893236 -230.465513 
L 346.217891 -230.644605 
L 346.542545 -230.823806 
L 346.8672 -231.002774 
L 347.191855 -231.18168 
L 347.516509 -231.360696 
L 347.841164 -231.53948 
L 348.165818 -231.718373 
L 348.490473 -231.897205 
L 348.815127 -232.075804 
L 349.139782 -232.254513 
L 349.464436 -232.432989 
L 349.789091 -232.611405 
L 350.113745 -232.78993 
L 350.4384 -232.968395 
L 350.763055 -233.146626 
L 351.087709 -233.324969 
L 351.412364 -233.503078 
L 351.737018 -233.681299 
L 352.061673 -233.859459 
L 352.386327 -234.037557 
L 352.710982 -234.215595 
L 353.035636 -234.393573 
L 353.360291 -234.571317 
L 353.684945 -234.749345 
L 354.0096 -234.926969 
L 354.334255 -235.104703 
L 354.658909 -235.282378 
L 354.983564 -235.459991 
L 355.308218 -235.637545 
L 355.632873 -235.815038 
L 355.957527 -235.99247 
L 356.282182 -236.170015 
L 356.606836 -236.347155 
L 356.931491 -236.524579 
L 357.256145 -236.701771 
L 357.5808 -236.878903 
L 357.905455 -237.056147 
L 358.230109 -237.232986 
L 358.554764 -237.41011 
L 358.879418 -237.587002 
L 359.204073 -237.764006 
L 359.528727 -237.940605 
L 359.853382 -238.11749 
L 360.178036 -238.294143 
L 360.502691 -238.470908 
L 360.827345 -238.647441 
L 361.152 -238.823914 
L 361.476655 -239.000501 
L 361.801309 -239.176855 
L 362.125964 -239.353323 
L 362.450618 -239.529731 
L 362.775273 -239.70608 
L 363.099927 -239.882197 
L 363.424582 -240.058254 
L 363.749236 -240.234425 
L 364.073891 -240.410537 
L 364.398545 -240.586589 
L 364.7232 -240.762583 
L 365.047855 -240.938517 
L 365.372509 -241.11422 
L 365.697164 -241.290036 
L 366.021818 -241.465794 
L 366.346473 -241.641492 
L 366.671127 -241.816958 
L 366.995782 -241.992713 
L 367.320436 -242.168235 
L 367.645091 -242.343698 
L 367.969745 -242.51893 
L 368.2944 -242.694449 
L 368.619055 -242.869737 
L 368.943709 -243.044966 
L 369.268364 -243.220136 
L 369.593018 -243.395248 
L 369.917673 -243.570301 
L 370.242327 -243.745296 
L 370.566982 -243.920407 
L 370.891636 -244.095285 
L 371.216291 -244.269931 
L 371.540945 -244.444867 
L 371.8656 -244.619571 
L 372.190255 -244.79439 
L 372.514909 -244.968977 
L 372.839564 -245.143681 
L 373.164218 -245.318152 
L 373.488873 -245.492565 
L 373.813527 -245.667095 
L 374.138182 -245.841566 
L 374.462836 -246.015806 
L 374.787491 -246.189988 
L 375.112145 -246.364286 
L 375.4368 -246.538352 
L 375.761455 -246.712535 
L 376.086109 -246.88666 
L 376.410764 -247.060553 
L 376.735418 -247.234563 
L 377.060073 -247.408341 
L 377.384727 -247.582411 
L 377.709382 -247.756074 
L 378.034036 -247.929854 
L 378.358691 -248.103577 
L 378.683345 -248.277068 
L 379.008 -248.450676 
L 379.332655 -248.624227 
L 379.657309 -248.797721 
L 379.981964 -248.971158 
L 380.306618 -249.144537 
L 380.631273 -249.31786 
L 380.955927 -249.491125 
L 381.280582 -249.664333 
L 381.605236 -249.837485 
L 381.929891 -250.010579 
L 382.254545 -250.183617 
L 382.5792 -250.356773 
L 382.903855 -250.529522 
L 383.228509 -250.702564 
L 383.553164 -250.8752 
L 383.877818 -251.048129 
L 384.202473 -251.220826 
L 384.527127 -251.393466 
L 384.851782 -251.56605 
L 385.176436 -251.738753 
L 385.501091 -251.911224 
L 385.825745 -252.083639 
L 386.1504 -252.256172 
L 386.475055 -252.428474 
L 386.799709 -252.600894 
L 387.124364 -252.773084 
L 387.449018 -252.945392 
L 387.773673 -253.117468 
L 388.098327 -253.289664 
L 388.422982 -253.461804 
L 388.747636 -253.633712 
L 389.072291 -253.805564 
L 389.396945 -253.977536 
L 389.7216 -254.149452 
L 390.046255 -254.321311 
L 390.370909 -254.492939 
L 390.695564 -254.664687 
L 391.020218 -254.836204 
L 391.344873 -255.00784 
L 391.669527 -255.179421 
L 391.994182 -255.350946 
L 392.318836 -255.522415 
L 392.643491 -255.693829 
L 392.968145 -255.865011 
L 393.2928 -256.036489 
L 393.617455 -256.20756 
L 393.942109 -256.378752 
L 394.266764 -256.549888 
L 394.591418 -256.720968 
L 394.916073 -256.891993 
L 395.240727 -257.062963 
L 395.565382 -257.234054 
L 395.890036 -257.404737 
L 396.214691 -257.575717 
L 396.539345 -257.746466 
L 396.864 -257.91716 
L 397.188655 -258.087799 
L 397.513309 -258.258382 
L 397.837964 -258.428911 
L 398.162618 -258.59956 
L 398.162618 -291.592808 
L 398.162618 -291.592808 
L 397.837964 -291.393246 
L 397.513309 -291.193456 
L 397.188655 -290.993616 
L 396.864 -290.793725 
L 396.539345 -290.593783 
L 396.214691 -290.39379 
L 395.890036 -290.193922 
L 395.565382 -289.993651 
L 395.240727 -289.793682 
L 394.916073 -289.593485 
L 394.591418 -289.393237 
L 394.266764 -289.192938 
L 393.942109 -288.992587 
L 393.617455 -288.792186 
L 393.2928 -288.591558 
L 392.968145 -288.39123 
L 392.643491 -288.190499 
L 392.318836 -287.989893 
L 391.994182 -287.789236 
L 391.669527 -287.588527 
L 391.344873 -287.387767 
L 391.020218 -287.186956 
L 390.695564 -286.985918 
L 390.370909 -286.785004 
L 390.046255 -286.583863 
L 389.7216 -286.382846 
L 389.396945 -286.181778 
L 389.072291 -285.980658 
L 388.747636 -285.779312 
L 388.422982 -285.577913 
L 388.098327 -285.376639 
L 387.773673 -285.175313 
L 387.449018 -284.97376 
L 387.124364 -284.772331 
L 386.799709 -284.570675 
L 386.475055 -284.369143 
L 386.1504 -284.167384 
L 385.825745 -283.965748 
L 385.501091 -283.763885 
L 385.176436 -283.561971 
L 384.851782 -283.36018 
L 384.527127 -283.158162 
L 384.202473 -282.956092 
L 383.877818 -282.75397 
L 383.553164 -282.551972 
L 383.228509 -282.349571 
L 382.903855 -282.147469 
L 382.5792 -281.944965 
L 382.254545 -281.742759 
L 381.929891 -281.540326 
L 381.605236 -281.33784 
L 381.280582 -281.135303 
L 380.955927 -280.932714 
L 380.631273 -280.730073 
L 380.306618 -280.52738 
L 379.981964 -280.324634 
L 379.657309 -280.121836 
L 379.332655 -279.918987 
L 379.008 -279.716085 
L 378.683345 -279.51313 
L 378.358691 -279.309949 
L 378.034036 -279.106891 
L 377.709382 -278.90378 
L 377.384727 -278.700442 
L 377.060073 -278.497401 
L 376.735418 -278.293958 
L 376.410764 -278.090638 
L 376.086109 -277.887091 
L 375.761455 -277.683666 
L 375.4368 -277.480188 
L 375.112145 -277.276484 
L 374.787491 -277.072901 
L 374.462836 -276.869092 
L 374.138182 -276.66523 
L 373.813527 -276.46149 
L 373.488873 -276.257697 
L 373.164218 -276.053677 
L 372.839564 -275.849605 
L 372.514909 -275.645654 
L 372.190255 -275.441477 
L 371.8656 -275.23742 
L 371.540945 -275.033137 
L 371.216291 -274.828976 
L 370.891636 -274.624413 
L 370.566982 -274.419972 
L 370.242327 -274.215652 
L 369.917673 -274.011105 
L 369.593018 -273.806506 
L 369.268364 -273.601853 
L 368.943709 -273.397148 
L 368.619055 -273.192389 
L 368.2944 -272.987578 
L 367.969745 -272.782887 
L 367.645091 -272.577796 
L 367.320436 -272.372826 
L 366.995782 -272.167803 
L 366.671127 -271.9629 
L 366.346473 -271.757597 
L 366.021818 -271.552414 
L 365.697164 -271.347179 
L 365.372509 -271.14189 
L 365.047855 -270.936374 
L 364.7232 -270.730979 
L 364.398545 -270.525531 
L 364.073891 -270.320029 
L 363.749236 -270.114474 
L 363.424582 -269.908866 
L 363.099927 -269.703031 
L 362.775273 -269.497143 
L 362.450618 -269.291374 
L 362.125964 -269.085553 
L 361.801309 -268.879678 
L 361.476655 -268.673576 
L 361.152 -268.467594 
L 360.827345 -268.261385 
L 360.502691 -268.055123 
L 360.178036 -267.848981 
L 359.853382 -267.642612 
L 359.528727 -267.436362 
L 359.204073 -267.229713 
L 358.879418 -267.023356 
L 358.554764 -266.816773 
L 358.230109 -266.610309 
L 357.905455 -266.403446 
L 357.5808 -266.196874 
L 357.256145 -265.990076 
L 356.931491 -265.783225 
L 356.606836 -265.576492 
L 356.282182 -265.36936 
L 355.957527 -265.162519 
L 355.632873 -264.955453 
L 355.308218 -264.748332 
L 354.983564 -264.541157 
L 354.658909 -264.333929 
L 354.334255 -264.126647 
L 354.0096 -263.91931 
L 353.684945 -263.711748 
L 353.360291 -263.504476 
L 353.035636 -263.296806 
L 352.710982 -263.089253 
L 352.386327 -262.881647 
L 352.061673 -262.673987 
L 351.737018 -262.466272 
L 351.412364 -262.258504 
L 351.087709 -262.050509 
L 350.763055 -261.842632 
L 350.4384 -261.634529 
L 350.113745 -261.426544 
L 349.789091 -261.218505 
L 349.464436 -261.010239 
L 349.139782 -260.80192 
L 348.815127 -260.593717 
L 348.490473 -260.385289 
L 348.165818 -260.176978 
L 347.841164 -259.968613 
L 347.516509 -259.760022 
L 347.191855 -259.551547 
L 346.8672 -259.342847 
L 346.542545 -259.134093 
L 346.217891 -258.925455 
L 345.893236 -258.716592 
L 345.568582 -258.507845 
L 345.243927 -258.298702 
L 344.919273 -258.089846 
L 344.594618 -257.880765 
L 344.269964 -257.671629 
L 343.945309 -257.46261 
L 343.620655 -257.253194 
L 343.296 -257.044065 
L 342.971345 -256.83454 
L 342.646691 -256.625301 
L 342.322036 -256.415667 
L 341.997382 -256.206319 
L 341.672727 -255.996575 
L 341.348073 -255.787117 
L 341.023418 -255.577264 
L 340.698764 -255.367526 
L 340.374109 -255.157734 
L 340.049455 -254.947886 
L 339.7248 -254.737984 
L 339.400145 -254.528027 
L 339.075491 -254.317845 
L 338.750836 -254.107778 
L 338.426182 -253.897486 
L 338.101527 -253.687309 
L 337.776873 -253.477077 
L 337.452218 -253.26679 
L 337.127564 -253.056278 
L 336.802909 -252.84588 
L 336.478255 -252.635258 
L 336.1536 -252.424581 
L 335.828945 -252.214019 
L 335.504291 -252.003231 
L 335.179636 -251.792558 
L 334.854982 -251.581661 
L 334.530327 -251.370877 
L 334.205673 -251.159869 
L 333.881018 -250.948975 
L 333.556364 -250.737687 
L 333.231709 -250.526683 
L 332.907055 -250.315454 
L 332.5824 -250.104339 
L 332.257745 -249.892999 
L 331.933091 -249.681604 
L 331.608436 -249.470153 
L 331.283782 -249.258648 
L 330.959127 -249.047086 
L 330.634473 -248.83547 
L 330.309818 -248.623798 
L 329.985164 -248.41207 
L 329.660509 -248.200287 
L 329.335855 -247.988448 
L 329.0112 -247.776554 
L 328.686545 -247.564604 
L 328.361891 -247.352599 
L 328.037236 -247.140538 
L 327.712582 -246.928253 
L 327.387927 -246.71625 
L 327.063273 -246.503853 
L 326.738618 -246.29157 
L 326.413964 -246.079231 
L 326.089309 -245.866836 
L 325.764655 -245.654217 
L 325.44 -245.441711 
L 325.115345 -245.22898 
L 324.790691 -245.016362 
L 324.466036 -244.803521 
L 324.141382 -244.590791 
L 323.816727 -244.377838 
L 323.492073 -244.164829 
L 323.167418 -243.951931 
L 322.842764 -243.738811 
L 322.518109 -243.525802 
L 322.193455 -243.312569 
L 321.8688 -243.099448 
L 321.544145 -242.886103 
L 321.219491 -242.67287 
L 320.894836 -242.459247 
L 320.570182 -242.245734 
L 320.245527 -242.032333 
L 319.920873 -241.818709 
L 319.596218 -241.605195 
L 319.271564 -241.391459 
L 318.946909 -241.177666 
L 318.622255 -240.96365 
L 318.2976 -240.749745 
L 317.972945 -240.535784 
L 317.648291 -240.321934 
L 317.323636 -240.10786 
L 316.998982 -239.893564 
L 316.674327 -239.679545 
L 316.349673 -239.465136 
L 316.025018 -239.250838 
L 315.700364 -239.036483 
L 315.375709 -238.821906 
L 315.051055 -238.607439 
L 314.7264 -238.392915 
L 314.401745 -238.178335 
L 314.077091 -237.963533 
L 313.752436 -237.74884 
L 313.427782 -237.533925 
L 313.103127 -237.31912 
L 312.778473 -237.104258 
L 312.453818 -236.889173 
L 312.129164 -236.674199 
L 311.804509 -236.459167 
L 311.479855 -236.243914 
L 311.1552 -236.02877 
L 310.830545 -235.813403 
L 310.505891 -235.59798 
L 310.181236 -235.382501 
L 309.856582 -235.166965 
L 309.531927 -234.951537 
L 309.207273 -234.735888 
L 308.882618 -234.520348 
L 308.557964 -234.304586 
L 308.233309 -234.088767 
L 307.908655 -233.872891 
L 307.584 -233.656959 
L 307.259345 -233.44097 
L 306.934691 -233.224925 
L 306.610036 -233.008987 
L 306.285382 -232.792664 
L 305.960727 -232.576448 
L 305.636073 -232.360176 
L 305.311418 -232.143847 
L 304.986764 -231.927461 
L 304.662109 -231.711018 
L 304.337455 -231.494519 
L 304.0128 -231.277798 
L 303.688145 -231.061185 
L 303.363491 -230.844515 
L 303.038836 -230.627788 
L 302.714182 -230.411005 
L 302.389527 -230.194 
L 302.064873 -229.977103 
L 301.740218 -229.760148 
L 301.415564 -229.542973 
L 301.090909 -229.325741 
L 300.766255 -229.108616 
L 300.4416 -228.891434 
L 300.116945 -228.674031 
L 299.792291 -228.456571 
L 299.467636 -228.239218 
L 299.142982 -228.021644 
L 298.818327 -227.804014 
L 298.493673 -227.58649 
L 298.169018 -227.368908 
L 297.844364 -227.151106 
L 297.519709 -226.933248 
L 297.195055 -226.715495 
L 296.8704 -226.497522 
L 296.545745 -226.279492 
L 296.221091 -226.061405 
L 295.896436 -225.843099 
L 295.571782 -225.624898 
L 295.247127 -225.406802 
L 294.922473 -225.188325 
L 294.597818 -224.970114 
L 294.273164 -224.751685 
L 293.948509 -224.533198 
L 293.623855 -224.314654 
L 293.2992 -224.095891 
L 292.974545 -223.877232 
L 292.649891 -223.658517 
L 292.325236 -223.439744 
L 292.000582 -223.220914 
L 291.675927 -223.001865 
L 291.351273 -222.78292 
L 291.026618 -222.563757 
L 290.701964 -222.344698 
L 290.377309 -222.125581 
L 290.052655 -221.906408 
L 289.728 -221.687015 
L 289.403345 -221.467727 
L 289.078691 -221.24822 
L 288.754036 -221.028817 
L 288.429382 -220.809196 
L 288.104727 -220.589678 
L 287.780073 -220.369782 
L 287.455418 -220.150309 
L 287.130764 -219.930459 
L 286.806109 -219.710551 
L 286.481455 -219.490746 
L 286.1568 -219.270563 
L 285.832145 -219.050644 
L 285.507491 -218.830506 
L 285.182836 -218.610312 
L 284.858182 -218.39006 
L 284.533527 -218.16975 
L 284.208873 -217.949384 
L 283.884218 -217.728959 
L 283.559564 -217.508478 
L 283.234909 -217.287939 
L 282.910255 -217.067502 
L 282.5856 -216.846689 
L 282.260945 -216.625977 
L 281.936291 -216.405208 
L 281.611636 -216.184382 
L 281.286982 -215.963498 
L 280.962327 -215.742398 
L 280.637673 -215.5214 
L 280.313018 -215.300343 
L 279.988364 -215.079071 
L 279.663709 -214.8579 
L 279.339055 -214.636671 
L 279.0144 -214.415227 
L 278.689745 -214.193725 
L 278.365091 -213.972324 
L 278.040436 -213.750865 
L 277.715782 -213.529349 
L 277.391127 -213.30746 
L 277.066473 -213.085828 
L 276.741818 -212.863982 
L 276.417164 -212.642235 
L 276.092509 -212.420274 
L 275.767855 -212.198412 
L 275.4432 -211.976336 
L 275.118545 -211.754202 
L 274.793891 -211.532167 
L 274.469236 -211.309762 
L 274.144582 -211.087612 
L 273.819927 -210.865248 
L 273.495273 -210.642827 
L 273.170618 -210.420348 
L 272.845964 -210.197812 
L 272.521309 -209.975218 
L 272.196655 -209.752566 
L 271.872 -209.529858 
L 271.547345 -209.307091 
L 271.222691 -209.084112 
L 270.898036 -208.861386 
L 270.573382 -208.638447 
L 270.248727 -208.415295 
L 269.924073 -208.192241 
L 269.599418 -207.968974 
L 269.274764 -207.745805 
L 268.950109 -207.522579 
L 268.625455 -207.29914 
L 268.3008 -207.075953 
L 267.976145 -206.8524 
L 267.651491 -206.628788 
L 267.326836 -206.405274 
L 267.002182 -206.181703 
L 266.677527 -205.957919 
L 266.352873 -205.734078 
L 266.028218 -205.510334 
L 265.703564 -205.286379 
L 265.378909 -205.062365 
L 265.054255 -204.838449 
L 264.7296 -204.614321 
L 264.404945 -204.390136 
L 264.080291 -204.165893 
L 263.755636 -203.941746 
L 263.430982 -203.717236 
L 263.106327 -203.492974 
L 262.781673 -203.268502 
L 262.457018 -203.043973 
L 262.132364 -202.819386 
L 261.807709 -202.594741 
L 261.483055 -202.37004 
L 261.1584 -202.145281 
L 260.833745 -201.920465 
L 260.509091 -201.695591 
L 260.184436 -201.47066 
L 259.859782 -201.245672 
L 259.535127 -201.020474 
L 259.210473 -200.795371 
L 258.885818 -200.570059 
L 258.561164 -200.344993 
L 258.236509 -200.119567 
L 257.911855 -199.894235 
L 257.5872 -199.668694 
L 257.262545 -199.443248 
L 256.937891 -199.217593 
L 256.613236 -198.991881 
L 256.288582 -198.766413 
L 255.963927 -198.540587 
L 255.639273 -198.314704 
L 255.314618 -198.088914 
L 254.989964 -197.863066 
L 254.665309 -197.637012 
L 254.340655 -197.41075 
L 254.016 -197.184731 
L 253.691345 -196.958505 
L 253.366691 -196.732223 
L 253.042036 -196.506032 
L 252.717382 -196.279486 
L 252.392727 -196.053182 
L 252.068073 -195.826671 
L 251.743418 -195.600103 
L 251.418764 -195.373479 
L 251.094109 -195.146797 
L 250.769455 -194.920059 
L 250.4448 -194.693115 
L 250.120145 -194.466263 
L 249.795491 -194.239502 
L 249.470836 -194.012388 
L 249.146182 -193.785365 
L 248.821527 -193.558285 
L 248.496873 -193.331001 
L 248.172218 -193.103808 
L 247.847564 -192.876558 
L 247.522909 -192.649104 
L 247.198255 -192.421887 
L 246.8736 -192.19432 
L 246.548945 -191.966696 
L 246.224291 -191.739162 
L 245.899636 -191.511426 
L 245.574982 -191.283778 
L 245.250327 -191.056074 
L 244.925673 -190.828022 
L 244.601018 -190.600205 
L 244.276364 -190.372331 
L 243.951709 -190.144256 
L 243.627055 -189.916123 
L 243.3024 -189.687935 
L 242.977745 -189.45969 
L 242.653091 -189.231389 
L 242.328436 -189.003176 
L 242.003782 -188.774762 
L 241.679127 -188.546292 
L 241.354473 -188.317766 
L 241.029818 -188.089184 
L 240.705164 -187.860545 
L 240.380509 -187.63185 
L 240.055855 -187.403099 
L 239.7312 -187.174292 
L 239.406545 -186.945428 
L 239.081891 -186.716366 
L 238.757236 -186.48739 
L 238.432582 -186.258359 
L 238.107927 -186.029129 
L 237.783273 -185.799986 
L 237.458618 -185.570786 
L 237.133964 -185.341389 
L 236.809309 -185.112078 
L 236.484655 -184.882711 
L 236.16 -184.653147 
L 235.835345 -184.423527 
L 235.510691 -184.194133 
L 235.186036 -183.964402 
L 234.861382 -183.734615 
L 234.536727 -183.504773 
L 234.212073 -183.274875 
L 233.887418 -183.045063 
L 233.562764 -182.815054 
L 233.238109 -182.58513 
L 232.913455 -182.354871 
L 232.5888 -182.124697 
L 232.264145 -181.894606 
L 231.939491 -181.664321 
L 231.614836 -181.433981 
L 231.290182 -181.203724 
L 230.965527 -180.973273 
L 230.640873 -180.742768 
L 230.316218 -180.512068 
L 229.991564 -180.281452 
L 229.666909 -180.050782 
L 229.342255 -179.820056 
L 229.0176 -179.589275 
L 228.692945 -179.358302 
L 228.368291 -179.127412 
L 228.043636 -178.896467 
L 227.718982 -178.665467 
L 227.394327 -178.434275 
L 227.069673 -178.203166 
L 226.745018 -177.972002 
L 226.420364 -177.740647 
L 226.095709 -177.509374 
L 225.771055 -177.27791 
L 225.4464 -177.046528 
L 225.121745 -176.814956 
L 224.797091 -176.58333 
L 224.472436 -176.35165 
L 224.147782 -176.120051 
L 223.823127 -175.888397 
L 223.498473 -175.65642 
L 223.173818 -175.424658 
L 222.849164 -175.192708 
L 222.524509 -174.960837 
L 222.199855 -174.728646 
L 221.8752 -174.496534 
L 221.550545 -174.264369 
L 221.225891 -174.032283 
L 220.901236 -173.80001 
L 220.576582 -173.567684 
L 220.251927 -173.335172 
L 219.927273 -173.102739 
L 219.602618 -172.870253 
L 219.277964 -172.637713 
L 218.953309 -172.404988 
L 218.628655 -172.172342 
L 218.304 -171.939643 
L 217.979345 -171.70689 
L 217.654691 -171.473954 
L 217.330036 -171.241225 
L 217.005382 -171.008183 
L 216.680727 -170.775089 
L 216.356073 -170.542071 
L 216.031418 -170.308871 
L 215.706764 -170.075748 
L 215.382109 -169.842444 
L 215.057455 -169.609087 
L 214.7328 -169.375806 
L 214.408145 -169.142344 
L 214.083491 -168.90883 
L 213.758836 -168.675264 
L 213.434182 -168.441774 
L 213.109527 -168.208231 
L 212.784873 -167.974509 
L 212.460218 -167.740608 
L 212.135564 -167.506909 
L 211.810909 -167.273031 
L 211.486255 -167.039102 
L 211.1616 -166.804995 
L 210.836945 -166.571088 
L 210.512291 -166.337004 
L 210.187636 -166.102869 
L 209.862982 -165.868557 
L 209.538327 -165.634444 
L 209.213673 -165.40003 
L 208.889018 -165.165565 
L 208.564364 -164.931174 
L 208.239709 -164.696731 
L 207.915055 -164.462115 
L 207.5904 -164.227571 
L 207.265745 -163.992975 
L 206.941091 -163.758207 
L 206.616436 -163.523511 
L 206.291782 -163.288764 
L 205.967127 -163.053844 
L 205.642473 -162.818996 
L 205.317818 -162.583855 
L 204.993164 -162.348907 
L 204.668509 -162.113787 
L 204.343855 -161.878618 
L 204.0192 -161.643519 
L 203.694545 -161.40825 
L 203.369891 -161.172932 
L 203.045236 -160.937564 
L 202.720582 -160.702146 
L 202.395927 -160.46668 
L 202.071273 -160.231282 
L 201.746618 -159.995599 
L 201.421964 -159.760102 
L 201.097309 -159.524321 
L 200.772655 -159.288609 
L 200.448 -159.052848 
L 200.123345 -158.817038 
L 199.798691 -158.581179 
L 199.474036 -158.345272 
L 199.149382 -158.1092 
L 198.824727 -157.873196 
L 198.500073 -157.637143 
L 198.175418 -157.400927 
L 197.850764 -157.164779 
L 197.526109 -156.928467 
L 197.201455 -156.692108 
L 196.8768 -156.455815 
L 196.552145 -156.219475 
L 196.227491 -155.982973 
L 195.902836 -155.746537 
L 195.578182 -155.509941 
L 195.253527 -155.273298 
L 194.928873 -155.036607 
L 194.604218 -154.79987 
L 194.279564 -154.563198 
L 193.954909 -154.326367 
L 193.630255 -154.08949 
L 193.3056 -153.852566 
L 192.980945 -153.615596 
L 192.656291 -153.378579 
L 192.331636 -153.141517 
L 192.006982 -152.904408 
L 191.682327 -152.667253 
L 191.357673 -152.430052 
L 191.033018 -152.192805 
L 190.708364 -151.955405 
L 190.383709 -151.718175 
L 190.059055 -151.480684 
L 189.7344 -151.243148 
L 189.409745 -151.00578 
L 189.085091 -150.768155 
L 188.760436 -150.53059 
L 188.435782 -150.292875 
L 188.111127 -150.055221 
L 187.786473 -149.817521 
L 187.461818 -149.579673 
L 187.137164 -149.341884 
L 186.812509 -149.103948 
L 186.487855 -148.865967 
L 186.1632 -148.627943 
L 185.838545 -148.389977 
L 185.513891 -148.151865 
L 185.189236 -147.91371 
L 184.864582 -147.675511 
L 184.539927 -147.437269 
L 184.215273 -147.199085 
L 183.890618 -146.960656 
L 183.565964 -146.722284 
L 183.241309 -146.48397 
L 182.916655 -146.245513 
L 182.592 -146.006914 
L 182.267345 -145.768373 
L 181.942691 -145.52969 
L 181.618036 -145.291162 
L 181.293382 -145.052493 
L 180.968727 -144.813685 
L 180.644073 -144.574932 
L 180.319418 -144.336138 
L 179.994764 -144.097206 
L 179.670109 -143.858328 
L 179.345455 -143.619409 
L 179.0208 -143.380353 
L 178.696145 -143.141257 
L 178.371491 -142.902215 
L 178.046836 -142.663131 
L 177.722182 -142.423913 
L 177.397527 -142.184655 
L 177.072873 -141.945357 
L 176.748218 -141.706019 
L 176.423564 -141.466733 
L 176.098909 -141.227315 
L 175.774255 -140.987858 
L 175.4496 -140.748361 
L 175.124945 -140.508914 
L 174.800291 -140.269338 
L 174.475636 -140.029634 
L 174.150982 -139.78998 
L 173.826327 -139.550287 
L 173.501673 -139.310556 
L 173.177018 -139.070786 
L 172.852364 -138.83089 
L 172.527709 -138.591043 
L 172.203055 -138.351244 
L 171.8784 -138.111234 
L 171.553745 -137.871187 
L 171.229091 -137.631188 
L 170.904436 -137.391151 
L 170.579782 -137.150992 
L 170.255127 -136.91088 
L 169.930473 -136.67073 
L 169.605818 -136.43046 
L 169.281164 -136.190236 
L 168.956509 -135.949893 
L 168.631855 -135.709514 
L 168.3072 -135.469179 
L 167.982545 -135.228728 
L 167.657891 -134.98824 
L 167.333236 -134.747716 
L 167.008582 -134.507157 
L 166.683927 -134.266562 
L 166.359273 -134.02601 
L 166.034618 -133.785344 
L 165.709964 -133.544566 
L 165.385309 -133.303907 
L 165.060655 -133.063136 
L 164.736 -132.82233 
L 164.411345 -132.581414 
L 164.086691 -132.340539 
L 163.762036 -132.09963 
L 163.437382 -131.858686 
L 163.112727 -131.617634 
L 162.788073 -131.376622 
L 162.463418 -131.135576 
L 162.138764 -130.894425 
L 161.814109 -130.653311 
L 161.489455 -130.412094 
L 161.1648 -130.170914 
L 160.840145 -129.92963 
L 160.515491 -129.688314 
L 160.190836 -129.447035 
L 159.866182 -129.205654 
L 159.541527 -128.964241 
L 159.216873 -128.722863 
L 158.892218 -128.481386 
L 158.567564 -128.239877 
L 158.242909 -127.998336 
L 157.918255 -127.756763 
L 157.5936 -127.51516 
L 157.268945 -127.273525 
L 156.944291 -127.031858 
L 156.619636 -126.790224 
L 156.294982 -126.548432 
L 155.970327 -126.306673 
L 155.645673 -126.064883 
L 155.321018 -125.823062 
L 154.996364 -125.581211 
L 154.671709 -125.339329 
L 154.347055 -125.097357 
L 154.0224 -124.855415 
L 153.697745 -124.613384 
L 153.373091 -124.371382 
L 153.048436 -124.12935 
L 152.723782 -123.887232 
L 152.399127 -123.645084 
L 152.074473 -123.402964 
L 151.749818 -123.160759 
L 151.425164 -122.91858 
L 151.100509 -122.676263 
L 150.775855 -122.434027 
L 150.4512 -122.191708 
L 150.126545 -121.949414 
L 149.801891 -121.707038 
L 149.477236 -121.464635 
L 149.152582 -121.222204 
L 148.827927 -120.979745 
L 148.503273 -120.737258 
L 148.178618 -120.494695 
L 147.853964 -120.252203 
L 147.529309 -120.009634 
L 147.204655 -119.76699 
L 146.88 -119.524367 
L 146.555345 -119.281717 
L 146.230691 -119.038995 
L 145.906036 -118.796336 
L 145.581382 -118.553561 
L 145.256727 -118.31076 
L 144.932073 -118.06802 
L 144.607418 -117.825123 
L 144.282764 -117.582287 
L 143.958109 -117.339425 
L 143.633455 -117.096494 
L 143.3088 -116.853579 
L 142.984145 -116.610598 
L 142.659491 -116.367592 
L 142.334836 -116.124599 
L 142.010182 -115.881542 
L 141.685527 -115.63846 
L 141.360873 -115.395353 
L 141.036218 -115.152221 
L 140.711564 -114.909065 
L 140.386909 -114.665883 
L 140.062255 -114.422643 
L 139.7376 -114.179447 
L 139.412945 -113.936192 
L 139.088291 -113.692912 
L 138.763636 -113.449608 
L 138.438982 -113.206248 
L 138.114327 -112.962896 
L 137.789673 -112.719488 
L 137.465018 -112.476088 
L 137.140364 -112.232663 
L 136.815709 -111.989215 
L 136.491055 -111.745685 
L 136.1664 -111.502189 
L 135.841745 -111.258669 
L 135.517091 -111.015098 
L 135.192436 -110.771531 
L 134.867782 -110.527914 
L 134.543127 -110.284298 
L 134.218473 -110.040635 
L 133.893818 -109.796949 
L 133.569164 -109.55324 
L 133.244509 -109.309509 
L 132.919855 -109.065755 
L 132.5952 -108.821977 
L 132.270545 -108.578198 
L 131.945891 -108.334355 
L 131.621236 -108.09051 
L 131.296582 -107.846642 
L 130.971927 -107.602751 
L 130.647273 -107.358838 
L 130.322618 -107.114885 
L 129.997964 -106.870927 
L 129.673309 -106.626946 
L 129.348655 -106.382942 
L 129.024 -106.138902 
L 128.699345 -105.894853 
L 128.374691 -105.650782 
L 128.050036 -105.406675 
L 127.725382 -105.162547 
L 127.400727 -104.918398 
L 127.076073 -104.674237 
L 126.751418 -104.430053 
L 126.426764 -104.185828 
L 126.102109 -103.941591 
L 125.777455 -103.69734 
L 125.4528 -103.453059 
L 125.128145 -103.208762 
L 124.803491 -102.96443 
L 124.478836 -102.720088 
L 124.154182 -102.475719 
L 123.829527 -102.231323 
L 123.504873 -101.98691 
L 123.180218 -101.742475 
L 122.855564 -101.498017 
L 122.530909 -101.253538 
L 122.206255 -101.009035 
L 121.8816 -100.764511 
L 121.556945 -100.519964 
L 121.232291 -100.275395 
L 120.907636 -100.030806 
L 120.582982 -99.786195 
L 120.258327 -99.541559 
L 119.933673 -99.296904 
L 119.609018 -99.052228 
L 119.284364 -98.807524 
L 118.959709 -98.562797 
L 118.635055 -98.318054 
L 118.3104 -98.073289 
L 117.985745 -97.828501 
L 117.661091 -97.583683 
L 117.336436 -97.33885 
L 117.011782 -97.093995 
L 116.687127 -96.849118 
L 116.362473 -96.604217 
L 116.037818 -96.359294 
L 115.713164 -96.114348 
L 115.388509 -95.869392 
L 115.063855 -95.624401 
L 114.7392 -95.379386 
L 114.414545 -95.134348 
L 114.089891 -94.889287 
L 113.765236 -94.644218 
L 113.440582 -94.399109 
L 113.115927 -94.153977 
L 112.791273 -93.908839 
L 112.466618 -93.663678 
L 112.141964 -93.418475 
L 111.817309 -93.173267 
L 111.492655 -92.928015 
L 111.168 -92.68276 
L 110.843345 -92.437481 
L 110.518691 -92.192178 
L 110.194036 -91.946828 
L 109.869382 -91.701453 
L 109.544727 -91.456101 
L 109.220073 -91.210701 
L 108.895418 -90.965276 
L 108.570764 -90.719827 
L 108.246109 -90.474325 
L 107.921455 -90.228853 
L 107.5968 -89.983328 
L 107.272145 -89.737778 
L 106.947491 -89.492202 
L 106.622836 -89.246631 
L 106.298182 -89.001003 
L 105.973527 -88.75535 
L 105.648873 -88.509702 
L 105.324218 -88.263997 
L 104.999564 -88.018264 
L 104.674909 -87.772539 
L 104.350255 -87.526753 
L 104.0256 -87.280974 
L 103.700945 -87.03517 
L 103.376291 -86.789339 
L 103.051636 -86.543444 
L 102.726982 -86.297558 
L 102.402327 -86.051646 
L 102.077673 -85.805667 
L 101.753018 -85.559738 
L 101.428364 -85.313702 
L 101.103709 -85.067719 
L 100.779055 -84.821667 
L 100.4544 -84.575587 
L 100.129745 -84.329477 
L 99.805091 -84.083339 
L 99.480436 -83.837172 
L 99.155782 -83.590975 
L 98.831127 -83.344794 
L 98.506473 -83.098538 
L 98.181818 -82.852299 
L 97.857164 -82.60603 
L 97.532509 -82.359684 
L 97.207855 -82.113307 
L 96.8832 -81.866948 
L 96.558545 -81.62051 
L 96.233891 -81.374089 
L 95.909236 -81.127588 
L 95.584582 -80.881157 
L 95.259927 -80.634643 
L 94.935273 -80.388046 
L 94.610618 -80.14147 
L 94.285964 -79.894861 
L 93.961309 -79.648165 
L 93.636655 -79.401546 
L 93.312 -79.154839 
L 92.987345 -78.9081 
L 92.662691 -78.661327 
L 92.338036 -78.41452 
L 92.013382 -78.167738 
L 91.688727 -77.920864 
L 91.364073 -77.674014 
L 91.039418 -77.427012 
L 90.714764 -77.180094 
L 90.390109 -76.933082 
L 90.065455 -76.686033 
L 89.7408 -76.439011 
L 89.416145 -76.191953 
L 89.091491 -75.944798 
L 88.766836 -75.697669 
L 88.442182 -75.450504 
L 88.117527 -75.203239 
L 87.792873 -74.956002 
L 87.468218 -74.708792 
L 87.143564 -74.461415 
L 86.818909 -74.214067 
L 86.494255 -73.96668 
L 86.1696 -73.719256 
L 85.844945 -73.471862 
L 85.520291 -73.224361 
L 85.195636 -72.976752 
L 84.870982 -72.729243 
L 84.546327 -72.481626 
L 84.221673 -72.233968 
L 83.897018 -71.986342 
L 83.572364 -71.738605 
L 83.247709 -71.490899 
L 82.923055 -71.243081 
L 82.5984 -70.995221 
L 82.273745 -70.747394 
L 81.949091 -70.499527 
L 81.624436 -70.251543 
L 81.299782 -70.003592 
L 80.975127 -69.755599 
L 80.650473 -69.507565 
L 80.325818 -69.259488 
L 80.001164 -69.01129 
L 79.676509 -68.763127 
L 79.351855 -68.51492 
L 79.0272 -68.26667 
L 78.702545 -68.018376 
L 78.377891 -67.770118 
L 78.053236 -67.521736 
L 77.728582 -67.273227 
L 77.403927 -67.024836 
L 77.079273 -66.776318 
L 76.754618 -66.527836 
L 76.429964 -66.279227 
L 76.105309 -66.03057 
L 75.780655 -65.781952 
L 75.456 -65.533287 
L 75.131345 -65.28449 
L 74.806691 -65.035646 
L 74.482036 -64.786925 
L 74.157382 -64.537985 
L 73.832727 -64.289084 
z
" style="stroke: #1f77b4; stroke-opacity: 0.5"/>
    </defs>
    <g clip-path="url(#p7a2f7da416)">
     <use xlink:href="#mbb35a56d9c" x="0" y="345.6" style="fill: #1f77b4; fill-opacity: 0.5; stroke: #1f77b4; stroke-opacity: 0.5"/>
    </g>
   </g>
   <g id="line2d_23">
    <path d="M 73.832727 288.215911 
L 91.039418 274.630436 
L 108.570764 261.075664 
L 126.426764 247.555481 
L 144.607418 234.073499 
L 162.788073 220.866479 
L 181.293382 207.694636 
L 200.123345 194.561176 
L 219.277964 181.469073 
L 238.757236 168.421085 
L 258.561164 155.419764 
L 279.0144 142.260667 
L 299.792291 129.160989 
L 320.894836 116.122432 
L 342.322036 103.146541 
L 364.073891 90.234717 
L 386.1504 77.388222 
L 398.162618 70.503816 
L 398.162618 70.503816 
" clip-path="url(#p7a2f7da416)" style="fill: none; stroke: #1f77b4; stroke-linecap: square"/>
   </g>
   <g id="LineCollection_1">
    <path d="M 73.832727 295.488 
L 73.832727 281.5024 
" clip-path="url(#p7a2f7da416)" style="fill: none; stroke: #ff7f0e"/>
    <path d="M 236.16 183.595512 
L 236.16 149.412117 
" clip-path="url(#p7a2f7da416)" style="fill: none; stroke: #ff7f0e"/>
    <path d="M 398.487273 92.078878 
L 398.487273 53.568 
" clip-path="url(#p7a2f7da416)" style="fill: none; stroke: #ff7f0e"/>
   </g>
   <g id="line2d_24">
    <defs>
     <path id="m9d5453d44c" d="M 1.5 0 
L -1.5 -0 
" style="stroke: #ff7f0e"/>
    </defs>
    <g clip-path="url(#p7a2f7da416)">
     <use xlink:href="#m9d5453d44c" x="73.832727" y="295.488" style="fill: #ff7f0e; stroke: #ff7f0e"/>
     <use xlink:href="#m9d5453d44c" x="236.16" y="183.595512" style="fill: #ff7f0e; stroke: #ff7f0e"/>
     <use xlink:href="#m9d5453d44c" x="398.487273" y="92.078878" style="fill: #ff7f0e; stroke: #ff7f0e"/>
    </g>
   </g>
   <g id="line2d_25">
    <g clip-path="url(#p7a2f7da416)">
     <use xlink:href="#m9d5453d44c" x="73.832727" y="281.5024" style="fill: #ff7f0e; stroke: #ff7f0e"/>
     <use xlink:href="#m9d5453d44c" x="236.16" y="149.412117" style="fill: #ff7f0e; stroke: #ff7f0e"/>
     <use xlink:href="#m9d5453d44c" x="398.487273" y="53.568" style="fill: #ff7f0e; stroke: #ff7f0e"/>
    </g>
   </g>
   <g id="line2d_26">
    <defs>
     <path id="mfab268e486" d="M 0 4 
C 1.060812 4 2.078319 3.578535 2.828427 2.828427 
C 3.578535 2.078319 4 1.060812 4 0 
C 4 -1.060812 3.578535 -2.078319 2.828427 -2.828427 
C 2.078319 -3.578535 1.060812 -4 0 -4 
C -1.060812 -4 -2.078319 -3.578535 -2.828427 -2.828427 
C -3.578535 -2.078319 -4 -1.060812 -4 0 
C -4 1.060812 -3.578535 2.078319 -2.828427 2.828427 
C -2.078319 3.578535 -1.060812 4 0 4 
z
" style="stroke: #ff7f0e"/>
    </defs>
    <g clip-path="url(#p7a2f7da416)">
     <use xlink:href="#mfab268e486" x="73.832727" y="288.4952" style="fill-opacity: 0; stroke: #ff7f0e"/>
     <use xlink:href="#mfab268e486" x="236.16" y="166.503815" style="fill-opacity: 0; stroke: #ff7f0e"/>
     <use xlink:href="#mfab268e486" x="398.487273" y="72.823439" style="fill-opacity: 0; stroke: #ff7f0e"/>
    </g>
   </g>
  </g>
 </g>
 <defs>
  <clipPath id="p7a2f7da416">
   <rect x="57.6" y="41.472" width="357.12" height="266.112"/>
  </clipPath>
 </defs>
</svg>
