<?xml version="1.0" encoding="utf-8" standalone="no"?>
<!DOCTYPE svg PUBLIC "-//W3C//DTD SVG 1.1//EN"
  "http://www.w3.org/Graphics/SVG/1.1/DTD/svg11.dtd">
<svg xmlns:xlink="http://www.w3.org/1999/xlink" width="460.8pt" height="345.6pt" viewBox="0 0 460.8 345.6" xmlns="http://www.w3.org/2000/svg" version="1.1">
 <metadata>
  <rdf:RDF xmlns:dc="http://purl.org/dc/elements/1.1/" xmlns:cc="http://creativecommons.org/ns#" xmlns:rdf="http://www.w3.org/1999/02/22-rdf-syntax-ns#">
   <cc:Work>
    <dc:type rdf:resource="http://purl.org/dc/dcmitype/StillImage"/>
    <dc:date>2024-07-11T17:03:09.021977</dc:date>
    <dc:format>image/svg+xml</dc:format>
    <dc:creator>
     <cc:Agent>
      <dc:title>Matplotlib v3.9.1, https://matplotlib.org/</dc:title>
     </cc:Agent>
    </dc:creator>
   </cc:Work>
  </rdf:RDF>
 </metadata>
 <defs>
  <style type="text/css">*{stroke-linejoin: round; stroke-linecap: butt}</style>
 </defs>
 <g id="figure_1">
  <g id="patch_1">
   <path d="M 0 345.6 
L 460.8 345.6 
L 460.8 0 
L 0 0 
z
" style="fill: #ffffff"/>
  </g>
  <g id="axes_1">
   <g id="patch_2">
    <path d="M 57.6 307.584 
L 414.72 307.584 
L 414.72 41.472 
L 57.6 41.472 
z
" style="fill: #ffffff"/>
   </g>
   <g id="matplotlib.axis_1">
    <g id="xtick_1">
     <g id="line2d_1">
      <defs>
       <path id="m05339ce5c3" d="M 0 0 
L 0 -3.5 
" style="stroke: #000000; stroke-width: 0.8"/>
      </defs>
      <g>
       <use xlink:href="#m05339ce5c3" x="80.243612" y="307.584" style="stroke: #000000; stroke-width: 0.8"/>
      </g>
     </g>
     <g id="line2d_2">
      <defs>
       <path id="mf115e3dff2" d="M 0 0 
L 0 3.5 
" style="stroke: #000000; stroke-width: 0.8"/>
      </defs>
      <g>
       <use xlink:href="#mf115e3dff2" x="80.243612" y="41.472" style="stroke: #000000; stroke-width: 0.8"/>
      </g>
     </g>
     <g id="text_1">
      <!-- 50000 -->
      <g transform="translate(65.368977 338.068028) rotate(-30) scale(0.12 -0.12)">
       <defs>
        <path id="DejaVuSans-35" d="M 691 4666 
L 3169 4666 
L 3169 4134 
L 1269 4134 
L 1269 2991 
Q 1406 3038 1543 3061 
Q 1681 3084 1819 3084 
Q 2600 3084 3056 2656 
Q 3513 2228 3513 1497 
Q 3513 744 3044 326 
Q 2575 -91 1722 -91 
Q 1428 -91 1123 -41 
Q 819 9 494 109 
L 494 744 
Q 775 591 1075 516 
Q 1375 441 1709 441 
Q 2250 441 2565 725 
Q 2881 1009 2881 1497 
Q 2881 1984 2565 2268 
Q 2250 2553 1709 2553 
Q 1456 2553 1204 2497 
Q 953 2441 691 2322 
L 691 4666 
z
" transform="scale(0.015625)"/>
        <path id="DejaVuSans-30" d="M 2034 4250 
Q 1547 4250 1301 3770 
Q 1056 3291 1056 2328 
Q 1056 1369 1301 889 
Q 1547 409 2034 409 
Q 2525 409 2770 889 
Q 3016 1369 3016 2328 
Q 3016 3291 2770 3770 
Q 2525 4250 2034 4250 
z
M 2034 4750 
Q 2819 4750 3233 4129 
Q 3647 3509 3647 2328 
Q 3647 1150 3233 529 
Q 2819 -91 2034 -91 
Q 1250 -91 836 529 
Q 422 1150 422 2328 
Q 422 3509 836 4129 
Q 1250 4750 2034 4750 
z
" transform="scale(0.015625)"/>
       </defs>
       <use xlink:href="#DejaVuSans-35"/>
       <use xlink:href="#DejaVuSans-30" x="63.623047"/>
       <use xlink:href="#DejaVuSans-30" x="127.246094"/>
       <use xlink:href="#DejaVuSans-30" x="190.869141"/>
       <use xlink:href="#DejaVuSans-30" x="254.492188"/>
      </g>
     </g>
    </g>
    <g id="xtick_2">
     <g id="line2d_3">
      <g>
       <use xlink:href="#m05339ce5c3" x="128.171874" y="307.584" style="stroke: #000000; stroke-width: 0.8"/>
      </g>
     </g>
     <g id="line2d_4">
      <g>
       <use xlink:href="#mf115e3dff2" x="128.171874" y="41.472" style="stroke: #000000; stroke-width: 0.8"/>
      </g>
     </g>
     <g id="text_2">
      <!-- 75000 -->
      <g transform="translate(113.297239 338.068028) rotate(-30) scale(0.12 -0.12)">
       <defs>
        <path id="DejaVuSans-37" d="M 525 4666 
L 3525 4666 
L 3525 4397 
L 1831 0 
L 1172 0 
L 2766 4134 
L 525 4134 
L 525 4666 
z
" transform="scale(0.015625)"/>
       </defs>
       <use xlink:href="#DejaVuSans-37"/>
       <use xlink:href="#DejaVuSans-35" x="63.623047"/>
       <use xlink:href="#DejaVuSans-30" x="127.246094"/>
       <use xlink:href="#DejaVuSans-30" x="190.869141"/>
       <use xlink:href="#DejaVuSans-30" x="254.492188"/>
      </g>
     </g>
    </g>
    <g id="xtick_3">
     <g id="line2d_5">
      <g>
       <use xlink:href="#m05339ce5c3" x="176.100136" y="307.584" style="stroke: #000000; stroke-width: 0.8"/>
      </g>
     </g>
     <g id="line2d_6">
      <g>
       <use xlink:href="#mf115e3dff2" x="176.100136" y="41.472" style="stroke: #000000; stroke-width: 0.8"/>
      </g>
     </g>
     <g id="text_3">
      <!-- 100000 -->
      <g transform="translate(157.919449 341.885528) rotate(-30) scale(0.12 -0.12)">
       <defs>
        <path id="DejaVuSans-31" d="M 794 531 
L 1825 531 
L 1825 4091 
L 703 3866 
L 703 4441 
L 1819 4666 
L 2450 4666 
L 2450 531 
L 3481 531 
L 3481 0 
L 794 0 
L 794 531 
z
" transform="scale(0.015625)"/>
       </defs>
       <use xlink:href="#DejaVuSans-31"/>
       <use xlink:href="#DejaVuSans-30" x="63.623047"/>
       <use xlink:href="#DejaVuSans-30" x="127.246094"/>
       <use xlink:href="#DejaVuSans-30" x="190.869141"/>
       <use xlink:href="#DejaVuSans-30" x="254.492188"/>
       <use xlink:href="#DejaVuSans-30" x="318.115234"/>
      </g>
     </g>
    </g>
    <g id="xtick_4">
     <g id="line2d_7">
      <g>
       <use xlink:href="#m05339ce5c3" x="224.028398" y="307.584" style="stroke: #000000; stroke-width: 0.8"/>
      </g>
     </g>
     <g id="line2d_8">
      <g>
       <use xlink:href="#mf115e3dff2" x="224.028398" y="41.472" style="stroke: #000000; stroke-width: 0.8"/>
      </g>
     </g>
     <g id="text_4">
      <!-- 125000 -->
      <g transform="translate(205.847711 341.885528) rotate(-30) scale(0.12 -0.12)">
       <defs>
        <path id="DejaVuSans-32" d="M 1228 531 
L 3431 531 
L 3431 0 
L 469 0 
L 469 531 
Q 828 903 1448 1529 
Q 2069 2156 2228 2338 
Q 2531 2678 2651 2914 
Q 2772 3150 2772 3378 
Q 2772 3750 2511 3984 
Q 2250 4219 1831 4219 
Q 1534 4219 1204 4116 
Q 875 4013 500 3803 
L 500 4441 
Q 881 4594 1212 4672 
Q 1544 4750 1819 4750 
Q 2544 4750 2975 4387 
Q 3406 4025 3406 3419 
Q 3406 3131 3298 2873 
Q 3191 2616 2906 2266 
Q 2828 2175 2409 1742 
Q 1991 1309 1228 531 
z
" transform="scale(0.015625)"/>
       </defs>
       <use xlink:href="#DejaVuSans-31"/>
       <use xlink:href="#DejaVuSans-32" x="63.623047"/>
       <use xlink:href="#DejaVuSans-35" x="127.246094"/>
       <use xlink:href="#DejaVuSans-30" x="190.869141"/>
       <use xlink:href="#DejaVuSans-30" x="254.492188"/>
       <use xlink:href="#DejaVuSans-30" x="318.115234"/>
      </g>
     </g>
    </g>
    <g id="xtick_5">
     <g id="line2d_9">
      <g>
       <use xlink:href="#m05339ce5c3" x="271.95666" y="307.584" style="stroke: #000000; stroke-width: 0.8"/>
      </g>
     </g>
     <g id="line2d_10">
      <g>
       <use xlink:href="#mf115e3dff2" x="271.95666" y="41.472" style="stroke: #000000; stroke-width: 0.8"/>
      </g>
     </g>
     <g id="text_5">
      <!-- 150000 -->
      <g transform="translate(253.775974 341.885528) rotate(-30) scale(0.12 -0.12)">
       <use xlink:href="#DejaVuSans-31"/>
       <use xlink:href="#DejaVuSans-35" x="63.623047"/>
       <use xlink:href="#DejaVuSans-30" x="127.246094"/>
       <use xlink:href="#DejaVuSans-30" x="190.869141"/>
       <use xlink:href="#DejaVuSans-30" x="254.492188"/>
       <use xlink:href="#DejaVuSans-30" x="318.115234"/>
      </g>
     </g>
    </g>
    <g id="xtick_6">
     <g id="line2d_11">
      <g>
       <use xlink:href="#m05339ce5c3" x="319.884923" y="307.584" style="stroke: #000000; stroke-width: 0.8"/>
      </g>
     </g>
     <g id="line2d_12">
      <g>
       <use xlink:href="#mf115e3dff2" x="319.884923" y="41.472" style="stroke: #000000; stroke-width: 0.8"/>
      </g>
     </g>
     <g id="text_6">
      <!-- 175000 -->
      <g transform="translate(301.704236 341.885528) rotate(-30) scale(0.12 -0.12)">
       <use xlink:href="#DejaVuSans-31"/>
       <use xlink:href="#DejaVuSans-37" x="63.623047"/>
       <use xlink:href="#DejaVuSans-35" x="127.246094"/>
       <use xlink:href="#DejaVuSans-30" x="190.869141"/>
       <use xlink:href="#DejaVuSans-30" x="254.492188"/>
       <use xlink:href="#DejaVuSans-30" x="318.115234"/>
      </g>
     </g>
    </g>
    <g id="xtick_7">
     <g id="line2d_13">
      <g>
       <use xlink:href="#m05339ce5c3" x="367.813185" y="307.584" style="stroke: #000000; stroke-width: 0.8"/>
      </g>
     </g>
     <g id="line2d_14">
      <g>
       <use xlink:href="#mf115e3dff2" x="367.813185" y="41.472" style="stroke: #000000; stroke-width: 0.8"/>
      </g>
     </g>
     <g id="text_7">
      <!-- 200000 -->
      <g transform="translate(349.632498 341.885528) rotate(-30) scale(0.12 -0.12)">
       <use xlink:href="#DejaVuSans-32"/>
       <use xlink:href="#DejaVuSans-30" x="63.623047"/>
       <use xlink:href="#DejaVuSans-30" x="127.246094"/>
       <use xlink:href="#DejaVuSans-30" x="190.869141"/>
       <use xlink:href="#DejaVuSans-30" x="254.492188"/>
       <use xlink:href="#DejaVuSans-30" x="318.115234"/>
      </g>
     </g>
    </g>
    <g id="text_8">
     <!-- $N_s^3$ -->
     <g transform="translate(228.36 358.966803) scale(0.12 -0.12)">
      <defs>
       <path id="DejaVuSans-Oblique-4e" d="M 1081 4666 
L 1931 4666 
L 3219 666 
L 4000 4666 
L 4616 4666 
L 3706 0 
L 2853 0 
L 1569 4025 
L 788 0 
L 172 0 
L 1081 4666 
z
" transform="scale(0.015625)"/>
       <path id="DejaVuSans-33" d="M 2597 2516 
Q 3050 2419 3304 2112 
Q 3559 1806 3559 1356 
Q 3559 666 3084 287 
Q 2609 -91 1734 -91 
Q 1441 -91 1130 -33 
Q 819 25 488 141 
L 488 750 
Q 750 597 1062 519 
Q 1375 441 1716 441 
Q 2309 441 2620 675 
Q 2931 909 2931 1356 
Q 2931 1769 2642 2001 
Q 2353 2234 1838 2234 
L 1294 2234 
L 1294 2753 
L 1863 2753 
Q 2328 2753 2575 2939 
Q 2822 3125 2822 3475 
Q 2822 3834 2567 4026 
Q 2313 4219 1838 4219 
Q 1578 4219 1281 4162 
Q 984 4106 628 3988 
L 628 4550 
Q 988 4650 1302 4700 
Q 1616 4750 1894 4750 
Q 2613 4750 3031 4423 
Q 3450 4097 3450 3541 
Q 3450 3153 3228 2886 
Q 3006 2619 2597 2516 
z
" transform="scale(0.015625)"/>
       <path id="DejaVuSans-Oblique-73" d="M 3200 3397 
L 3091 2853 
Q 2863 2978 2609 3040 
Q 2356 3103 2088 3103 
Q 1634 3103 1373 2948 
Q 1113 2794 1113 2528 
Q 1113 2219 1719 2053 
Q 1766 2041 1788 2034 
L 1972 1978 
Q 2547 1819 2739 1644 
Q 2931 1469 2931 1166 
Q 2931 609 2489 259 
Q 2047 -91 1331 -91 
Q 1053 -91 747 -37 
Q 441 16 72 128 
L 184 722 
Q 500 559 806 475 
Q 1113 391 1394 391 
Q 1816 391 2080 572 
Q 2344 753 2344 1031 
Q 2344 1331 1650 1516 
L 1591 1531 
L 1394 1581 
Q 956 1697 753 1886 
Q 550 2075 550 2369 
Q 550 2928 970 3256 
Q 1391 3584 2113 3584 
Q 2397 3584 2667 3537 
Q 2938 3491 3200 3397 
z
" transform="scale(0.015625)"/>
      </defs>
      <use xlink:href="#DejaVuSans-Oblique-4e" transform="translate(0 0.765625)"/>
      <use xlink:href="#DejaVuSans-33" transform="translate(81.821458 39.046875) scale(0.7)"/>
      <use xlink:href="#DejaVuSans-Oblique-73" transform="translate(74.804688 -26.578125) scale(0.7)"/>
     </g>
    </g>
   </g>
   <g id="matplotlib.axis_2">
    <g id="ytick_1">
     <g id="line2d_15">
      <defs>
       <path id="m0d62daa4fd" d="M 0 0 
L 3.5 0 
" style="stroke: #000000; stroke-width: 0.8"/>
      </defs>
      <g>
       <use xlink:href="#m0d62daa4fd" x="57.6" y="295.02992" style="stroke: #000000; stroke-width: 0.8"/>
      </g>
     </g>
     <g id="line2d_16">
      <defs>
       <path id="m4bbd905946" d="M 0 0 
L -3.5 0 
" style="stroke: #000000; stroke-width: 0.8"/>
      </defs>
      <g>
       <use xlink:href="#m4bbd905946" x="414.72" y="295.02992" style="stroke: #000000; stroke-width: 0.8"/>
      </g>
     </g>
     <g id="text_9">
      <!-- 0.6 -->
      <g transform="translate(35.01625 299.588983) scale(0.12 -0.12)">
       <defs>
        <path id="DejaVuSans-2e" d="M 684 794 
L 1344 794 
L 1344 0 
L 684 0 
L 684 794 
z
" transform="scale(0.015625)"/>
        <path id="DejaVuSans-36" d="M 2113 2584 
Q 1688 2584 1439 2293 
Q 1191 2003 1191 1497 
Q 1191 994 1439 701 
Q 1688 409 2113 409 
Q 2538 409 2786 701 
Q 3034 994 3034 1497 
Q 3034 2003 2786 2293 
Q 2538 2584 2113 2584 
z
M 3366 4563 
L 3366 3988 
Q 3128 4100 2886 4159 
Q 2644 4219 2406 4219 
Q 1781 4219 1451 3797 
Q 1122 3375 1075 2522 
Q 1259 2794 1537 2939 
Q 1816 3084 2150 3084 
Q 2853 3084 3261 2657 
Q 3669 2231 3669 1497 
Q 3669 778 3244 343 
Q 2819 -91 2113 -91 
Q 1303 -91 875 529 
Q 447 1150 447 2328 
Q 447 3434 972 4092 
Q 1497 4750 2381 4750 
Q 2619 4750 2861 4703 
Q 3103 4656 3366 4563 
z
" transform="scale(0.015625)"/>
       </defs>
       <use xlink:href="#DejaVuSans-30"/>
       <use xlink:href="#DejaVuSans-2e" x="63.623047"/>
       <use xlink:href="#DejaVuSans-36" x="95.410156"/>
      </g>
     </g>
    </g>
    <g id="ytick_2">
     <g id="line2d_17">
      <g>
       <use xlink:href="#m0d62daa4fd" x="57.6" y="265.089922" style="stroke: #000000; stroke-width: 0.8"/>
      </g>
     </g>
     <g id="line2d_18">
      <g>
       <use xlink:href="#m4bbd905946" x="414.72" y="265.089922" style="stroke: #000000; stroke-width: 0.8"/>
      </g>
     </g>
     <g id="text_10">
      <!-- 0.8 -->
      <g transform="translate(35.01625 269.648985) scale(0.12 -0.12)">
       <defs>
        <path id="DejaVuSans-38" d="M 2034 2216 
Q 1584 2216 1326 1975 
Q 1069 1734 1069 1313 
Q 1069 891 1326 650 
Q 1584 409 2034 409 
Q 2484 409 2743 651 
Q 3003 894 3003 1313 
Q 3003 1734 2745 1975 
Q 2488 2216 2034 2216 
z
M 1403 2484 
Q 997 2584 770 2862 
Q 544 3141 544 3541 
Q 544 4100 942 4425 
Q 1341 4750 2034 4750 
Q 2731 4750 3128 4425 
Q 3525 4100 3525 3541 
Q 3525 3141 3298 2862 
Q 3072 2584 2669 2484 
Q 3125 2378 3379 2068 
Q 3634 1759 3634 1313 
Q 3634 634 3220 271 
Q 2806 -91 2034 -91 
Q 1263 -91 848 271 
Q 434 634 434 1313 
Q 434 1759 690 2068 
Q 947 2378 1403 2484 
z
M 1172 3481 
Q 1172 3119 1398 2916 
Q 1625 2713 2034 2713 
Q 2441 2713 2670 2916 
Q 2900 3119 2900 3481 
Q 2900 3844 2670 4047 
Q 2441 4250 2034 4250 
Q 1625 4250 1398 4047 
Q 1172 3844 1172 3481 
z
" transform="scale(0.015625)"/>
       </defs>
       <use xlink:href="#DejaVuSans-30"/>
       <use xlink:href="#DejaVuSans-2e" x="63.623047"/>
       <use xlink:href="#DejaVuSans-38" x="95.410156"/>
      </g>
     </g>
    </g>
    <g id="ytick_3">
     <g id="line2d_19">
      <g>
       <use xlink:href="#m0d62daa4fd" x="57.6" y="235.149924" style="stroke: #000000; stroke-width: 0.8"/>
      </g>
     </g>
     <g id="line2d_20">
      <g>
       <use xlink:href="#m4bbd905946" x="414.72" y="235.149924" style="stroke: #000000; stroke-width: 0.8"/>
      </g>
     </g>
     <g id="text_11">
      <!-- 1.0 -->
      <g transform="translate(35.01625 239.708986) scale(0.12 -0.12)">
       <use xlink:href="#DejaVuSans-31"/>
       <use xlink:href="#DejaVuSans-2e" x="63.623047"/>
       <use xlink:href="#DejaVuSans-30" x="95.410156"/>
      </g>
     </g>
    </g>
    <g id="ytick_4">
     <g id="line2d_21">
      <g>
       <use xlink:href="#m0d62daa4fd" x="57.6" y="205.209925" style="stroke: #000000; stroke-width: 0.8"/>
      </g>
     </g>
     <g id="line2d_22">
      <g>
       <use xlink:href="#m4bbd905946" x="414.72" y="205.209925" style="stroke: #000000; stroke-width: 0.8"/>
      </g>
     </g>
     <g id="text_12">
      <!-- 1.2 -->
      <g transform="translate(35.01625 209.768988) scale(0.12 -0.12)">
       <use xlink:href="#DejaVuSans-31"/>
       <use xlink:href="#DejaVuSans-2e" x="63.623047"/>
       <use xlink:href="#DejaVuSans-32" x="95.410156"/>
      </g>
     </g>
    </g>
    <g id="ytick_5">
     <g id="line2d_23">
      <g>
       <use xlink:href="#m0d62daa4fd" x="57.6" y="175.269927" style="stroke: #000000; stroke-width: 0.8"/>
      </g>
     </g>
     <g id="line2d_24">
      <g>
       <use xlink:href="#m4bbd905946" x="414.72" y="175.269927" style="stroke: #000000; stroke-width: 0.8"/>
      </g>
     </g>
     <g id="text_13">
      <!-- 1.4 -->
      <g transform="translate(35.01625 179.82899) scale(0.12 -0.12)">
       <defs>
        <path id="DejaVuSans-34" d="M 2419 4116 
L 825 1625 
L 2419 1625 
L 2419 4116 
z
M 2253 4666 
L 3047 4666 
L 3047 1625 
L 3713 1625 
L 3713 1100 
L 3047 1100 
L 3047 0 
L 2419 0 
L 2419 1100 
L 313 1100 
L 313 1709 
L 2253 4666 
z
" transform="scale(0.015625)"/>
       </defs>
       <use xlink:href="#DejaVuSans-31"/>
       <use xlink:href="#DejaVuSans-2e" x="63.623047"/>
       <use xlink:href="#DejaVuSans-34" x="95.410156"/>
      </g>
     </g>
    </g>
    <g id="ytick_6">
     <g id="line2d_25">
      <g>
       <use xlink:href="#m0d62daa4fd" x="57.6" y="145.329929" style="stroke: #000000; stroke-width: 0.8"/>
      </g>
     </g>
     <g id="line2d_26">
      <g>
       <use xlink:href="#m4bbd905946" x="414.72" y="145.329929" style="stroke: #000000; stroke-width: 0.8"/>
      </g>
     </g>
     <g id="text_14">
      <!-- 1.6 -->
      <g transform="translate(35.01625 149.888991) scale(0.12 -0.12)">
       <use xlink:href="#DejaVuSans-31"/>
       <use xlink:href="#DejaVuSans-2e" x="63.623047"/>
       <use xlink:href="#DejaVuSans-36" x="95.410156"/>
      </g>
     </g>
    </g>
    <g id="ytick_7">
     <g id="line2d_27">
      <g>
       <use xlink:href="#m0d62daa4fd" x="57.6" y="115.38993" style="stroke: #000000; stroke-width: 0.8"/>
      </g>
     </g>
     <g id="line2d_28">
      <g>
       <use xlink:href="#m4bbd905946" x="414.72" y="115.38993" style="stroke: #000000; stroke-width: 0.8"/>
      </g>
     </g>
     <g id="text_15">
      <!-- 1.8 -->
      <g transform="translate(35.01625 119.948993) scale(0.12 -0.12)">
       <use xlink:href="#DejaVuSans-31"/>
       <use xlink:href="#DejaVuSans-2e" x="63.623047"/>
       <use xlink:href="#DejaVuSans-38" x="95.410156"/>
      </g>
     </g>
    </g>
    <g id="ytick_8">
     <g id="line2d_29">
      <g>
       <use xlink:href="#m0d62daa4fd" x="57.6" y="85.449932" style="stroke: #000000; stroke-width: 0.8"/>
      </g>
     </g>
     <g id="line2d_30">
      <g>
       <use xlink:href="#m4bbd905946" x="414.72" y="85.449932" style="stroke: #000000; stroke-width: 0.8"/>
      </g>
     </g>
     <g id="text_16">
      <!-- 2.0 -->
      <g transform="translate(35.01625 90.008994) scale(0.12 -0.12)">
       <use xlink:href="#DejaVuSans-32"/>
       <use xlink:href="#DejaVuSans-2e" x="63.623047"/>
       <use xlink:href="#DejaVuSans-30" x="95.410156"/>
      </g>
     </g>
    </g>
    <g id="ytick_9">
     <g id="line2d_31">
      <g>
       <use xlink:href="#m0d62daa4fd" x="57.6" y="55.509934" style="stroke: #000000; stroke-width: 0.8"/>
      </g>
     </g>
     <g id="line2d_32">
      <g>
       <use xlink:href="#m4bbd905946" x="414.72" y="55.509934" style="stroke: #000000; stroke-width: 0.8"/>
      </g>
     </g>
     <g id="text_17">
      <!-- 2.2 -->
      <g transform="translate(35.01625 60.068996) scale(0.12 -0.12)">
       <use xlink:href="#DejaVuSans-32"/>
       <use xlink:href="#DejaVuSans-2e" x="63.623047"/>
       <use xlink:href="#DejaVuSans-32" x="95.410156"/>
      </g>
     </g>
    </g>
    <g id="text_18">
     <!-- $\chi_{max}$ -->
     <g transform="translate(28.49625 187.428) rotate(-90) scale(0.12 -0.12)">
      <defs>
       <path id="DejaVuSans-Oblique-3c7" d="M 1922 -781 
L 1691 416 
L 394 -1334 
L -284 -1334 
L 1553 1141 
L 1269 2613 
Q 1194 3006 713 3006 
L 559 3006 
L 653 3500 
L 872 3494 
Q 1675 3472 1775 2950 
L 2006 1753 
L 3303 3503 
L 3981 3503 
L 2144 1028 
L 2428 -444 
Q 2503 -838 2984 -838 
L 3138 -838 
L 3044 -1331 
L 2825 -1325 
Q 2022 -1303 1922 -781 
z
" transform="scale(0.015625)"/>
       <path id="DejaVuSans-Oblique-6d" d="M 5747 2113 
L 5338 0 
L 4763 0 
L 5166 2094 
Q 5191 2228 5203 2325 
Q 5216 2422 5216 2491 
Q 5216 2772 5059 2928 
Q 4903 3084 4622 3084 
Q 4203 3084 3875 2770 
Q 3547 2456 3450 1953 
L 3066 0 
L 2491 0 
L 2900 2094 
Q 2925 2209 2937 2307 
Q 2950 2406 2950 2484 
Q 2950 2769 2794 2926 
Q 2638 3084 2363 3084 
Q 1938 3084 1609 2770 
Q 1281 2456 1184 1953 
L 800 0 
L 225 0 
L 909 3500 
L 1484 3500 
L 1375 2956 
Q 1609 3263 1923 3423 
Q 2238 3584 2597 3584 
Q 2978 3584 3223 3384 
Q 3469 3184 3519 2828 
Q 3781 3197 4126 3390 
Q 4472 3584 4856 3584 
Q 5306 3584 5551 3325 
Q 5797 3066 5797 2591 
Q 5797 2488 5784 2364 
Q 5772 2241 5747 2113 
z
" transform="scale(0.015625)"/>
       <path id="DejaVuSans-Oblique-61" d="M 3438 1997 
L 3047 0 
L 2472 0 
L 2578 531 
Q 2325 219 2001 64 
Q 1678 -91 1281 -91 
Q 834 -91 548 182 
Q 263 456 263 884 
Q 263 1497 752 1853 
Q 1241 2209 2100 2209 
L 2900 2209 
L 2931 2363 
Q 2938 2388 2941 2417 
Q 2944 2447 2944 2509 
Q 2944 2788 2717 2942 
Q 2491 3097 2081 3097 
Q 1800 3097 1504 3025 
Q 1209 2953 897 2809 
L 997 3341 
Q 1322 3463 1633 3523 
Q 1944 3584 2234 3584 
Q 2853 3584 3176 3315 
Q 3500 3047 3500 2534 
Q 3500 2431 3484 2292 
Q 3469 2153 3438 1997 
z
M 2816 1759 
L 2241 1759 
Q 1534 1759 1195 1570 
Q 856 1381 856 984 
Q 856 709 1029 553 
Q 1203 397 1509 397 
Q 1978 397 2328 733 
Q 2678 1069 2791 1631 
L 2816 1759 
z
" transform="scale(0.015625)"/>
       <path id="DejaVuSans-Oblique-78" d="M 3841 3500 
L 2234 1784 
L 3219 0 
L 2559 0 
L 1819 1388 
L 531 0 
L -166 0 
L 1556 1844 
L 641 3500 
L 1300 3500 
L 1972 2234 
L 3144 3500 
L 3841 3500 
z
" transform="scale(0.015625)"/>
      </defs>
      <use xlink:href="#DejaVuSans-Oblique-3c7" transform="translate(0 0.265625)"/>
      <use xlink:href="#DejaVuSans-Oblique-6d" transform="translate(59.179688 -16.140625) scale(0.7)"/>
      <use xlink:href="#DejaVuSans-Oblique-61" transform="translate(127.368164 -16.140625) scale(0.7)"/>
      <use xlink:href="#DejaVuSans-Oblique-78" transform="translate(170.263672 -16.140625) scale(0.7)"/>
     </g>
    </g>
   </g>
   <g id="patch_3">
    <path d="M 57.6 307.584 
L 57.6 41.472 
" style="fill: none; stroke: #000000; stroke-width: 0.8; stroke-linejoin: miter; stroke-linecap: square"/>
   </g>
   <g id="patch_4">
    <path d="M 414.72 307.584 
L 414.72 41.472 
" style="fill: none; stroke: #000000; stroke-width: 0.8; stroke-linejoin: miter; stroke-linecap: square"/>
   </g>
   <g id="patch_5">
    <path d="M 57.6 307.584 
L 414.72 307.584 
" style="fill: none; stroke: #000000; stroke-width: 0.8; stroke-linejoin: miter; stroke-linecap: square"/>
   </g>
   <g id="patch_6">
    <path d="M 57.6 41.472 
L 414.72 41.472 
" style="fill: none; stroke: #000000; stroke-width: 0.8; stroke-linejoin: miter; stroke-linecap: square"/>
   </g>
   <g id="text_19">
    <!-- Linear Fit of $\chi_{max}$ vs $N_s^3$ -->
    <g transform="translate(167.4 35.472) scale(0.12 -0.12)">
     <defs>
      <path id="DejaVuSans-4c" d="M 628 4666 
L 1259 4666 
L 1259 531 
L 3531 531 
L 3531 0 
L 628 0 
L 628 4666 
z
" transform="scale(0.015625)"/>
      <path id="DejaVuSans-69" d="M 603 3500 
L 1178 3500 
L 1178 0 
L 603 0 
L 603 3500 
z
M 603 4863 
L 1178 4863 
L 1178 4134 
L 603 4134 
L 603 4863 
z
" transform="scale(0.015625)"/>
      <path id="DejaVuSans-6e" d="M 3513 2113 
L 3513 0 
L 2938 0 
L 2938 2094 
Q 2938 2591 2744 2837 
Q 2550 3084 2163 3084 
Q 1697 3084 1428 2787 
Q 1159 2491 1159 1978 
L 1159 0 
L 581 0 
L 581 3500 
L 1159 3500 
L 1159 2956 
Q 1366 3272 1645 3428 
Q 1925 3584 2291 3584 
Q 2894 3584 3203 3211 
Q 3513 2838 3513 2113 
z
" transform="scale(0.015625)"/>
      <path id="DejaVuSans-65" d="M 3597 1894 
L 3597 1613 
L 953 1613 
Q 991 1019 1311 708 
Q 1631 397 2203 397 
Q 2534 397 2845 478 
Q 3156 559 3463 722 
L 3463 178 
Q 3153 47 2828 -22 
Q 2503 -91 2169 -91 
Q 1331 -91 842 396 
Q 353 884 353 1716 
Q 353 2575 817 3079 
Q 1281 3584 2069 3584 
Q 2775 3584 3186 3129 
Q 3597 2675 3597 1894 
z
M 3022 2063 
Q 3016 2534 2758 2815 
Q 2500 3097 2075 3097 
Q 1594 3097 1305 2825 
Q 1016 2553 972 2059 
L 3022 2063 
z
" transform="scale(0.015625)"/>
      <path id="DejaVuSans-61" d="M 2194 1759 
Q 1497 1759 1228 1600 
Q 959 1441 959 1056 
Q 959 750 1161 570 
Q 1363 391 1709 391 
Q 2188 391 2477 730 
Q 2766 1069 2766 1631 
L 2766 1759 
L 2194 1759 
z
M 3341 1997 
L 3341 0 
L 2766 0 
L 2766 531 
Q 2569 213 2275 61 
Q 1981 -91 1556 -91 
Q 1019 -91 701 211 
Q 384 513 384 1019 
Q 384 1609 779 1909 
Q 1175 2209 1959 2209 
L 2766 2209 
L 2766 2266 
Q 2766 2663 2505 2880 
Q 2244 3097 1772 3097 
Q 1472 3097 1187 3025 
Q 903 2953 641 2809 
L 641 3341 
Q 956 3463 1253 3523 
Q 1550 3584 1831 3584 
Q 2591 3584 2966 3190 
Q 3341 2797 3341 1997 
z
" transform="scale(0.015625)"/>
      <path id="DejaVuSans-72" d="M 2631 2963 
Q 2534 3019 2420 3045 
Q 2306 3072 2169 3072 
Q 1681 3072 1420 2755 
Q 1159 2438 1159 1844 
L 1159 0 
L 581 0 
L 581 3500 
L 1159 3500 
L 1159 2956 
Q 1341 3275 1631 3429 
Q 1922 3584 2338 3584 
Q 2397 3584 2469 3576 
Q 2541 3569 2628 3553 
L 2631 2963 
z
" transform="scale(0.015625)"/>
      <path id="DejaVuSans-20" transform="scale(0.015625)"/>
      <path id="DejaVuSans-46" d="M 628 4666 
L 3309 4666 
L 3309 4134 
L 1259 4134 
L 1259 2759 
L 3109 2759 
L 3109 2228 
L 1259 2228 
L 1259 0 
L 628 0 
L 628 4666 
z
" transform="scale(0.015625)"/>
      <path id="DejaVuSans-74" d="M 1172 4494 
L 1172 3500 
L 2356 3500 
L 2356 3053 
L 1172 3053 
L 1172 1153 
Q 1172 725 1289 603 
Q 1406 481 1766 481 
L 2356 481 
L 2356 0 
L 1766 0 
Q 1100 0 847 248 
Q 594 497 594 1153 
L 594 3053 
L 172 3053 
L 172 3500 
L 594 3500 
L 594 4494 
L 1172 4494 
z
" transform="scale(0.015625)"/>
      <path id="DejaVuSans-6f" d="M 1959 3097 
Q 1497 3097 1228 2736 
Q 959 2375 959 1747 
Q 959 1119 1226 758 
Q 1494 397 1959 397 
Q 2419 397 2687 759 
Q 2956 1122 2956 1747 
Q 2956 2369 2687 2733 
Q 2419 3097 1959 3097 
z
M 1959 3584 
Q 2709 3584 3137 3096 
Q 3566 2609 3566 1747 
Q 3566 888 3137 398 
Q 2709 -91 1959 -91 
Q 1206 -91 779 398 
Q 353 888 353 1747 
Q 353 2609 779 3096 
Q 1206 3584 1959 3584 
z
" transform="scale(0.015625)"/>
      <path id="DejaVuSans-66" d="M 2375 4863 
L 2375 4384 
L 1825 4384 
Q 1516 4384 1395 4259 
Q 1275 4134 1275 3809 
L 1275 3500 
L 2222 3500 
L 2222 3053 
L 1275 3053 
L 1275 0 
L 697 0 
L 697 3053 
L 147 3053 
L 147 3500 
L 697 3500 
L 697 3744 
Q 697 4328 969 4595 
Q 1241 4863 1831 4863 
L 2375 4863 
z
" transform="scale(0.015625)"/>
      <path id="DejaVuSans-76" d="M 191 3500 
L 800 3500 
L 1894 563 
L 2988 3500 
L 3597 3500 
L 2284 0 
L 1503 0 
L 191 3500 
z
" transform="scale(0.015625)"/>
      <path id="DejaVuSans-73" d="M 2834 3397 
L 2834 2853 
Q 2591 2978 2328 3040 
Q 2066 3103 1784 3103 
Q 1356 3103 1142 2972 
Q 928 2841 928 2578 
Q 928 2378 1081 2264 
Q 1234 2150 1697 2047 
L 1894 2003 
Q 2506 1872 2764 1633 
Q 3022 1394 3022 966 
Q 3022 478 2636 193 
Q 2250 -91 1575 -91 
Q 1294 -91 989 -36 
Q 684 19 347 128 
L 347 722 
Q 666 556 975 473 
Q 1284 391 1588 391 
Q 1994 391 2212 530 
Q 2431 669 2431 922 
Q 2431 1156 2273 1281 
Q 2116 1406 1581 1522 
L 1381 1569 
Q 847 1681 609 1914 
Q 372 2147 372 2553 
Q 372 3047 722 3315 
Q 1072 3584 1716 3584 
Q 2034 3584 2315 3537 
Q 2597 3491 2834 3397 
z
" transform="scale(0.015625)"/>
     </defs>
     <use xlink:href="#DejaVuSans-4c" transform="translate(0 0.765625)"/>
     <use xlink:href="#DejaVuSans-69" transform="translate(55.712891 0.765625)"/>
     <use xlink:href="#DejaVuSans-6e" transform="translate(83.496094 0.765625)"/>
     <use xlink:href="#DejaVuSans-65" transform="translate(146.875 0.765625)"/>
     <use xlink:href="#DejaVuSans-61" transform="translate(208.398438 0.765625)"/>
     <use xlink:href="#DejaVuSans-72" transform="translate(269.677734 0.765625)"/>
     <use xlink:href="#DejaVuSans-20" transform="translate(310.791016 0.765625)"/>
     <use xlink:href="#DejaVuSans-46" transform="translate(342.578125 0.765625)"/>
     <use xlink:href="#DejaVuSans-69" transform="translate(400.097656 0.765625)"/>
     <use xlink:href="#DejaVuSans-74" transform="translate(427.880859 0.765625)"/>
     <use xlink:href="#DejaVuSans-20" transform="translate(467.089844 0.765625)"/>
     <use xlink:href="#DejaVuSans-6f" transform="translate(498.876953 0.765625)"/>
     <use xlink:href="#DejaVuSans-66" transform="translate(560.058594 0.765625)"/>
     <use xlink:href="#DejaVuSans-20" transform="translate(595.263672 0.765625)"/>
     <use xlink:href="#DejaVuSans-Oblique-3c7" transform="translate(627.050781 0.765625)"/>
     <use xlink:href="#DejaVuSans-Oblique-6d" transform="translate(686.230469 -15.640625) scale(0.7)"/>
     <use xlink:href="#DejaVuSans-Oblique-61" transform="translate(754.418945 -15.640625) scale(0.7)"/>
     <use xlink:href="#DejaVuSans-Oblique-78" transform="translate(797.314453 -15.640625) scale(0.7)"/>
     <use xlink:href="#DejaVuSans-20" transform="translate(841.474609 0.765625)"/>
     <use xlink:href="#DejaVuSans-76" transform="translate(873.261719 0.765625)"/>
     <use xlink:href="#DejaVuSans-73" transform="translate(932.441406 0.765625)"/>
     <use xlink:href="#DejaVuSans-20" transform="translate(984.541016 0.765625)"/>
     <use xlink:href="#DejaVuSans-Oblique-4e" transform="translate(1016.328125 0.765625)"/>
     <use xlink:href="#DejaVuSans-33" transform="translate(1098.149583 39.046875) scale(0.7)"/>
     <use xlink:href="#DejaVuSans-Oblique-73" transform="translate(1091.132812 -26.578125) scale(0.7)"/>
    </g>
   </g>
   <g id="PolyCollection_1">
    <defs>
     <path id="m7c36bd7ddf" d="M 73.832727 -51.906282 
L 73.832727 -50.13745 
L 74.157382 -50.372344 
L 74.482036 -50.607207 
L 74.806691 -50.842041 
L 75.131345 -51.076844 
L 75.456 -51.311618 
L 75.780655 -51.54636 
L 76.105309 -51.781072 
L 76.429964 -52.015753 
L 76.754618 -52.250402 
L 77.079273 -52.485021 
L 77.403927 -52.719608 
L 77.728582 -52.954163 
L 78.053236 -53.188687 
L 78.377891 -53.423179 
L 78.702545 -53.657638 
L 79.0272 -53.892065 
L 79.351855 -54.12646 
L 79.676509 -54.360823 
L 80.001164 -54.595152 
L 80.325818 -54.829449 
L 80.650473 -55.063713 
L 80.975127 -55.297943 
L 81.299782 -55.53214 
L 81.624436 -55.766304 
L 81.949091 -56.000434 
L 82.273745 -56.23453 
L 82.5984 -56.468593 
L 82.923055 -56.702621 
L 83.247709 -56.936616 
L 83.572364 -57.170576 
L 83.897018 -57.404502 
L 84.221673 -57.638394 
L 84.546327 -57.872251 
L 84.870982 -58.106073 
L 85.195636 -58.33986 
L 85.520291 -58.573613 
L 85.844945 -58.807331 
L 86.1696 -59.041014 
L 86.494255 -59.274661 
L 86.818909 -59.508274 
L 87.143564 -59.741851 
L 87.468218 -59.975393 
L 87.792873 -60.2089 
L 88.117527 -60.442371 
L 88.442182 -60.675807 
L 88.766836 -60.909207 
L 89.091491 -61.142571 
L 89.416145 -61.3759 
L 89.7408 -61.609193 
L 90.065455 -61.842451 
L 90.390109 -62.075672 
L 90.714764 -62.308858 
L 91.039418 -62.542008 
L 91.364073 -62.775123 
L 91.688727 -63.008201 
L 92.013382 -63.241244 
L 92.338036 -63.474251 
L 92.662691 -63.707222 
L 92.987345 -63.940157 
L 93.312 -64.173057 
L 93.636655 -64.40592 
L 93.961309 -64.638748 
L 94.285964 -64.87154 
L 94.610618 -65.104297 
L 94.935273 -65.337017 
L 95.259927 -65.569703 
L 95.584582 -65.802352 
L 95.909236 -66.034966 
L 96.233891 -66.267545 
L 96.558545 -66.500088 
L 96.8832 -66.732595 
L 97.207855 -66.965068 
L 97.532509 -67.197505 
L 97.857164 -67.429907 
L 98.181818 -67.662274 
L 98.506473 -67.894606 
L 98.831127 -68.126903 
L 99.155782 -68.359165 
L 99.480436 -68.591393 
L 99.805091 -68.823586 
L 100.129745 -69.055744 
L 100.4544 -69.287868 
L 100.779055 -69.519957 
L 101.103709 -69.752013 
L 101.428364 -69.984034 
L 101.753018 -70.216022 
L 102.077673 -70.447975 
L 102.402327 -70.679895 
L 102.726982 -70.911782 
L 103.051636 -71.143635 
L 103.376291 -71.375454 
L 103.700945 -71.607241 
L 104.0256 -71.838994 
L 104.350255 -72.070715 
L 104.674909 -72.302403 
L 104.999564 -72.534058 
L 105.324218 -72.765681 
L 105.648873 -72.997272 
L 105.973527 -73.228831 
L 106.298182 -73.460358 
L 106.622836 -73.691853 
L 106.947491 -73.923316 
L 107.272145 -74.154748 
L 107.5968 -74.386149 
L 107.921455 -74.617519 
L 108.246109 -74.848858 
L 108.570764 -75.080166 
L 108.895418 -75.311443 
L 109.220073 -75.542691 
L 109.544727 -75.773908 
L 109.869382 -76.005095 
L 110.194036 -76.236252 
L 110.518691 -76.46738 
L 110.843345 -76.698479 
L 111.168 -76.929548 
L 111.492655 -77.160588 
L 111.817309 -77.391599 
L 112.141964 -77.622582 
L 112.466618 -77.853536 
L 112.791273 -78.084462 
L 113.115927 -78.31536 
L 113.440582 -78.546231 
L 113.765236 -78.777073 
L 114.089891 -79.007888 
L 114.414545 -79.238676 
L 114.7392 -79.469437 
L 115.063855 -79.700171 
L 115.388509 -79.930878 
L 115.713164 -80.161559 
L 116.037818 -80.392213 
L 116.362473 -80.622842 
L 116.687127 -80.853444 
L 117.011782 -81.084022 
L 117.336436 -81.314573 
L 117.661091 -81.5451 
L 117.985745 -81.775601 
L 118.3104 -82.006077 
L 118.635055 -82.236529 
L 118.959709 -82.466957 
L 119.284364 -82.69736 
L 119.609018 -82.927739 
L 119.933673 -83.158095 
L 120.258327 -83.388426 
L 120.582982 -83.618735 
L 120.907636 -83.84902 
L 121.232291 -84.079282 
L 121.556945 -84.309521 
L 121.8816 -84.539738 
L 122.206255 -84.769932 
L 122.530909 -85.000104 
L 122.855564 -85.230254 
L 123.180218 -85.460382 
L 123.504873 -85.690489 
L 123.829527 -85.920573 
L 124.154182 -86.150637 
L 124.478836 -86.38068 
L 124.803491 -86.610701 
L 125.128145 -86.840702 
L 125.4528 -87.070683 
L 125.777455 -87.300643 
L 126.102109 -87.530583 
L 126.426764 -87.760503 
L 126.751418 -87.990403 
L 127.076073 -88.220284 
L 127.400727 -88.450145 
L 127.725382 -88.679987 
L 128.050036 -88.90981 
L 128.374691 -89.139614 
L 128.699345 -89.369399 
L 129.024 -89.599166 
L 129.348655 -89.828914 
L 129.673309 -90.058645 
L 129.997964 -90.288357 
L 130.322618 -90.518051 
L 130.647273 -90.747728 
L 130.971927 -90.977387 
L 131.296582 -91.207029 
L 131.621236 -91.436654 
L 131.945891 -91.666262 
L 132.270545 -91.895852 
L 132.5952 -92.125427 
L 132.919855 -92.354984 
L 133.244509 -92.584526 
L 133.569164 -92.814051 
L 133.893818 -93.04356 
L 134.218473 -93.273053 
L 134.543127 -93.50253 
L 134.867782 -93.731992 
L 135.192436 -93.961439 
L 135.517091 -94.19087 
L 135.841745 -94.420286 
L 136.1664 -94.649687 
L 136.491055 -94.879073 
L 136.815709 -95.108444 
L 137.140364 -95.337801 
L 137.465018 -95.567144 
L 137.789673 -95.796472 
L 138.114327 -96.025786 
L 138.438982 -96.255086 
L 138.763636 -96.484373 
L 139.088291 -96.713645 
L 139.412945 -96.942904 
L 139.7376 -97.17215 
L 140.062255 -97.401382 
L 140.386909 -97.630601 
L 140.711564 -97.859807 
L 141.036218 -98.089 
L 141.360873 -98.31818 
L 141.685527 -98.547347 
L 142.010182 -98.776502 
L 142.334836 -99.005645 
L 142.659491 -99.234775 
L 142.984145 -99.463893 
L 143.3088 -99.692999 
L 143.633455 -99.922093 
L 143.958109 -100.151175 
L 144.282764 -100.380245 
L 144.607418 -100.609304 
L 144.932073 -100.838351 
L 145.256727 -101.067387 
L 145.581382 -101.296412 
L 145.906036 -101.525425 
L 146.230691 -101.754428 
L 146.555345 -101.983419 
L 146.88 -102.2124 
L 147.204655 -102.44137 
L 147.529309 -102.670329 
L 147.853964 -102.899278 
L 148.178618 -103.128217 
L 148.503273 -103.357145 
L 148.827927 -103.586062 
L 149.152582 -103.81497 
L 149.477236 -104.043868 
L 149.801891 -104.272756 
L 150.126545 -104.501634 
L 150.4512 -104.730502 
L 150.775855 -104.959361 
L 151.100509 -105.18821 
L 151.425164 -105.417049 
L 151.749818 -105.645879 
L 152.074473 -105.8747 
L 152.399127 -106.103512 
L 152.723782 -106.332315 
L 153.048436 -106.561109 
L 153.373091 -106.789893 
L 153.697745 -107.018669 
L 154.0224 -107.247436 
L 154.347055 -107.476195 
L 154.671709 -107.704945 
L 154.996364 -107.933686 
L 155.321018 -108.162419 
L 155.645673 -108.391144 
L 155.970327 -108.61986 
L 156.294982 -108.848569 
L 156.619636 -109.077269 
L 156.944291 -109.305961 
L 157.268945 -109.534645 
L 157.5936 -109.763321 
L 157.918255 -109.99199 
L 158.242909 -110.220651 
L 158.567564 -110.449304 
L 158.892218 -110.677949 
L 159.216873 -110.906587 
L 159.541527 -111.135218 
L 159.866182 -111.363841 
L 160.190836 -111.592457 
L 160.515491 -111.821065 
L 160.840145 -112.049667 
L 161.1648 -112.278261 
L 161.489455 -112.506849 
L 161.814109 -112.735429 
L 162.138764 -112.964002 
L 162.463418 -113.192569 
L 162.788073 -113.421129 
L 163.112727 -113.649682 
L 163.437382 -113.878228 
L 163.762036 -114.106768 
L 164.086691 -114.335302 
L 164.411345 -114.563829 
L 164.736 -114.792349 
L 165.060655 -115.020863 
L 165.385309 -115.249371 
L 165.709964 -115.477872 
L 166.034618 -115.706368 
L 166.359273 -115.934857 
L 166.683927 -116.16334 
L 167.008582 -116.391817 
L 167.333236 -116.620289 
L 167.657891 -116.848754 
L 167.982545 -117.077213 
L 168.3072 -117.305667 
L 168.631855 -117.534115 
L 168.956509 -117.762557 
L 169.281164 -117.990993 
L 169.605818 -118.219424 
L 169.930473 -118.44785 
L 170.255127 -118.67627 
L 170.579782 -118.904684 
L 170.904436 -119.133093 
L 171.229091 -119.361497 
L 171.553745 -119.589895 
L 171.8784 -119.818288 
L 172.203055 -120.046676 
L 172.527709 -120.275059 
L 172.852364 -120.503436 
L 173.177018 -120.731809 
L 173.501673 -120.960176 
L 173.826327 -121.188539 
L 174.150982 -121.416896 
L 174.475636 -121.645249 
L 174.800291 -121.873597 
L 175.124945 -122.10194 
L 175.4496 -122.330278 
L 175.774255 -122.558611 
L 176.098909 -122.78694 
L 176.423564 -123.015264 
L 176.748218 -123.243583 
L 177.072873 -123.471898 
L 177.397527 -123.700209 
L 177.722182 -123.928514 
L 178.046836 -124.156816 
L 178.371491 -124.385113 
L 178.696145 -124.613405 
L 179.0208 -124.841693 
L 179.345455 -125.069977 
L 179.670109 -125.298257 
L 179.994764 -125.526532 
L 180.319418 -125.754804 
L 180.644073 -125.983071 
L 180.968727 -126.211333 
L 181.293382 -126.439592 
L 181.618036 -126.667847 
L 181.942691 -126.896098 
L 182.267345 -127.124344 
L 182.592 -127.352587 
L 182.916655 -127.580826 
L 183.241309 -127.809061 
L 183.565964 -128.037292 
L 183.890618 -128.265519 
L 184.215273 -128.493742 
L 184.539927 -128.721962 
L 184.864582 -128.950178 
L 185.189236 -129.17839 
L 185.513891 -129.406598 
L 185.838545 -129.634803 
L 186.1632 -129.863004 
L 186.487855 -130.091202 
L 186.812509 -130.319396 
L 187.137164 -130.547586 
L 187.461818 -130.775773 
L 187.786473 -131.003957 
L 188.111127 -131.232137 
L 188.435782 -131.460313 
L 188.760436 -131.688487 
L 189.085091 -131.916656 
L 189.409745 -132.144823 
L 189.7344 -132.372986 
L 190.059055 -132.601146 
L 190.383709 -132.829303 
L 190.708364 -133.057456 
L 191.033018 -133.285606 
L 191.357673 -133.513753 
L 191.682327 -133.741897 
L 192.006982 -133.970038 
L 192.331636 -134.198175 
L 192.656291 -134.42631 
L 192.980945 -134.654441 
L 193.3056 -134.88257 
L 193.630255 -135.110695 
L 193.954909 -135.338817 
L 194.279564 -135.566937 
L 194.604218 -135.795053 
L 194.928873 -136.023167 
L 195.253527 -136.251277 
L 195.578182 -136.479385 
L 195.902836 -136.70749 
L 196.227491 -136.935592 
L 196.552145 -137.163691 
L 196.8768 -137.391788 
L 197.201455 -137.619881 
L 197.526109 -137.847972 
L 197.850764 -138.07606 
L 198.175418 -138.304146 
L 198.500073 -138.532229 
L 198.824727 -138.760309 
L 199.149382 -138.988386 
L 199.474036 -139.216461 
L 199.798691 -139.444533 
L 200.123345 -139.672603 
L 200.448 -139.90067 
L 200.772655 -140.128734 
L 201.097309 -140.356796 
L 201.421964 -140.584856 
L 201.746618 -140.812913 
L 202.071273 -141.040967 
L 202.395927 -141.269019 
L 202.720582 -141.497069 
L 203.045236 -141.725116 
L 203.369891 -141.95316 
L 203.694545 -142.181203 
L 204.0192 -142.409243 
L 204.343855 -142.63728 
L 204.668509 -142.865316 
L 204.993164 -143.093348 
L 205.317818 -143.321379 
L 205.642473 -143.549407 
L 205.967127 -143.777434 
L 206.291782 -144.005457 
L 206.616436 -144.233479 
L 206.941091 -144.461498 
L 207.265745 -144.689515 
L 207.5904 -144.91753 
L 207.915055 -145.145543 
L 208.239709 -145.373554 
L 208.564364 -145.601562 
L 208.889018 -145.829569 
L 209.213673 -146.057573 
L 209.538327 -146.285575 
L 209.862982 -146.513575 
L 210.187636 -146.741573 
L 210.512291 -146.969569 
L 210.836945 -147.197563 
L 211.1616 -147.425555 
L 211.486255 -147.653545 
L 211.810909 -147.881532 
L 212.135564 -148.109518 
L 212.460218 -148.337502 
L 212.784873 -148.565484 
L 213.109527 -148.793464 
L 213.434182 -149.021442 
L 213.758836 -149.249418 
L 214.083491 -149.477393 
L 214.408145 -149.705365 
L 214.7328 -149.933335 
L 215.057455 -150.161304 
L 215.382109 -150.389271 
L 215.706764 -150.617236 
L 216.031418 -150.845199 
L 216.356073 -151.07316 
L 216.680727 -151.301119 
L 217.005382 -151.529077 
L 217.330036 -151.757033 
L 217.654691 -151.984987 
L 217.979345 -152.212939 
L 218.304 -152.44089 
L 218.628655 -152.668839 
L 218.953309 -152.896786 
L 219.277964 -153.124731 
L 219.602618 -153.352675 
L 219.927273 -153.580617 
L 220.251927 -153.808558 
L 220.576582 -154.036496 
L 220.901236 -154.264433 
L 221.225891 -154.492369 
L 221.550545 -154.720303 
L 221.8752 -154.948235 
L 222.199855 -155.176165 
L 222.524509 -155.404094 
L 222.849164 -155.632022 
L 223.173818 -155.859947 
L 223.498473 -156.087872 
L 223.823127 -156.315794 
L 224.147782 -156.543715 
L 224.472436 -156.771635 
L 224.797091 -156.999553 
L 225.121745 -157.227469 
L 225.4464 -157.455384 
L 225.771055 -157.683298 
L 226.095709 -157.91121 
L 226.420364 -158.139121 
L 226.745018 -158.36703 
L 227.069673 -158.594937 
L 227.394327 -158.822843 
L 227.718982 -159.050748 
L 228.043636 -159.278651 
L 228.368291 -159.506553 
L 228.692945 -159.734454 
L 229.0176 -159.962353 
L 229.342255 -160.19025 
L 229.666909 -160.418146 
L 229.991564 -160.646041 
L 230.316218 -160.873935 
L 230.640873 -161.101827 
L 230.965527 -161.329718 
L 231.290182 -161.557607 
L 231.614836 -161.785495 
L 231.939491 -162.013382 
L 232.264145 -162.241267 
L 232.5888 -162.469151 
L 232.913455 -162.697034 
L 233.238109 -162.924916 
L 233.562764 -163.152796 
L 233.887418 -163.380675 
L 234.212073 -163.608553 
L 234.536727 -163.836429 
L 234.861382 -164.064304 
L 235.186036 -164.292178 
L 235.510691 -164.520051 
L 235.835345 -164.747922 
L 236.16 -164.975792 
L 236.484655 -165.203661 
L 236.809309 -165.431529 
L 237.133964 -165.659395 
L 237.458618 -165.887261 
L 237.783273 -166.115125 
L 238.107927 -166.342988 
L 238.432582 -166.570849 
L 238.757236 -166.79871 
L 239.081891 -167.02657 
L 239.406545 -167.254428 
L 239.7312 -167.482285 
L 240.055855 -167.710141 
L 240.380509 -167.937996 
L 240.705164 -168.165849 
L 241.029818 -168.393702 
L 241.354473 -168.621554 
L 241.679127 -168.849404 
L 242.003782 -169.077253 
L 242.328436 -169.305101 
L 242.653091 -169.532948 
L 242.977745 -169.760794 
L 243.3024 -169.988639 
L 243.627055 -170.216483 
L 243.951709 -170.444326 
L 244.276364 -170.672168 
L 244.601018 -170.900008 
L 244.925673 -171.127848 
L 245.250327 -171.355686 
L 245.574982 -171.583524 
L 245.899636 -171.811361 
L 246.224291 -172.039196 
L 246.548945 -172.26703 
L 246.8736 -172.494864 
L 247.198255 -172.722696 
L 247.522909 -172.950528 
L 247.847564 -173.178358 
L 248.172218 -173.406188 
L 248.496873 -173.634016 
L 248.821527 -173.861844 
L 249.146182 -174.08967 
L 249.470836 -174.317496 
L 249.795491 -174.54532 
L 250.120145 -174.773144 
L 250.4448 -175.000967 
L 250.769455 -175.228788 
L 251.094109 -175.456609 
L 251.418764 -175.684429 
L 251.743418 -175.912248 
L 252.068073 -176.140066 
L 252.392727 -176.367883 
L 252.717382 -176.595699 
L 253.042036 -176.823515 
L 253.366691 -177.051329 
L 253.691345 -177.279142 
L 254.016 -177.506955 
L 254.340655 -177.734767 
L 254.665309 -177.962578 
L 254.989964 -178.190387 
L 255.314618 -178.418196 
L 255.639273 -178.646005 
L 255.963927 -178.873812 
L 256.288582 -179.101618 
L 256.613236 -179.329424 
L 256.937891 -179.557229 
L 257.262545 -179.785033 
L 257.5872 -180.012836 
L 257.911855 -180.240638 
L 258.236509 -180.468439 
L 258.561164 -180.69624 
L 258.885818 -180.92404 
L 259.210473 -181.151838 
L 259.535127 -181.379637 
L 259.859782 -181.607434 
L 260.184436 -181.83523 
L 260.509091 -182.063026 
L 260.833745 -182.290821 
L 261.1584 -182.518615 
L 261.483055 -182.746408 
L 261.807709 -182.974201 
L 262.132364 -183.201992 
L 262.457018 -183.429783 
L 262.781673 -183.657574 
L 263.106327 -183.885363 
L 263.430982 -184.113152 
L 263.755636 -184.340939 
L 264.080291 -184.568727 
L 264.404945 -184.796513 
L 264.7296 -185.024299 
L 265.054255 -185.252083 
L 265.378909 -185.479868 
L 265.703564 -185.707651 
L 266.028218 -185.935434 
L 266.352873 -186.163216 
L 266.677527 -186.390997 
L 267.002182 -186.618777 
L 267.326836 -186.846557 
L 267.651491 -187.074336 
L 267.976145 -187.302114 
L 268.3008 -187.529892 
L 268.625455 -187.757669 
L 268.950109 -187.985445 
L 269.274764 -188.213221 
L 269.599418 -188.440995 
L 269.924073 -188.66877 
L 270.248727 -188.896543 
L 270.573382 -189.124316 
L 270.898036 -189.352088 
L 271.222691 -189.579859 
L 271.547345 -189.80763 
L 271.872 -190.0354 
L 272.196655 -190.26317 
L 272.521309 -190.490938 
L 272.845964 -190.718706 
L 273.170618 -190.946474 
L 273.495273 -191.174241 
L 273.819927 -191.402007 
L 274.144582 -191.629772 
L 274.469236 -191.857537 
L 274.793891 -192.085301 
L 275.118545 -192.313065 
L 275.4432 -192.540828 
L 275.767855 -192.76859 
L 276.092509 -192.996352 
L 276.417164 -193.224113 
L 276.741818 -193.451873 
L 277.066473 -193.679633 
L 277.391127 -193.907392 
L 277.715782 -194.135151 
L 278.040436 -194.362909 
L 278.365091 -194.590666 
L 278.689745 -194.818423 
L 279.0144 -195.046179 
L 279.339055 -195.273934 
L 279.663709 -195.501689 
L 279.988364 -195.729444 
L 280.313018 -195.957198 
L 280.637673 -196.184951 
L 280.962327 -196.412703 
L 281.286982 -196.640455 
L 281.611636 -196.868207 
L 281.936291 -197.095958 
L 282.260945 -197.323708 
L 282.5856 -197.551458 
L 282.910255 -197.779207 
L 283.234909 -198.006956 
L 283.559564 -198.234704 
L 283.884218 -198.462451 
L 284.208873 -198.690198 
L 284.533527 -198.917944 
L 284.858182 -199.14569 
L 285.182836 -199.373436 
L 285.507491 -199.60118 
L 285.832145 -199.828924 
L 286.1568 -200.056668 
L 286.481455 -200.284411 
L 286.806109 -200.512154 
L 287.130764 -200.739896 
L 287.455418 -200.967637 
L 287.780073 -201.195378 
L 288.104727 -201.423119 
L 288.429382 -201.650859 
L 288.754036 -201.878598 
L 289.078691 -202.106337 
L 289.403345 -202.334076 
L 289.728 -202.561813 
L 290.052655 -202.789551 
L 290.377309 -203.017288 
L 290.701964 -203.245024 
L 291.026618 -203.47276 
L 291.351273 -203.700495 
L 291.675927 -203.92823 
L 292.000582 -204.155964 
L 292.325236 -204.383698 
L 292.649891 -204.611432 
L 292.974545 -204.839164 
L 293.2992 -205.066897 
L 293.623855 -205.294629 
L 293.948509 -205.52236 
L 294.273164 -205.750091 
L 294.597818 -205.977822 
L 294.922473 -206.205552 
L 295.247127 -206.433281 
L 295.571782 -206.66101 
L 295.896436 -206.888739 
L 296.221091 -207.116467 
L 296.545745 -207.344194 
L 296.8704 -207.571922 
L 297.195055 -207.799648 
L 297.519709 -208.027375 
L 297.844364 -208.2551 
L 298.169018 -208.482826 
L 298.493673 -208.710551 
L 298.818327 -208.938275 
L 299.142982 -209.165999 
L 299.467636 -209.393722 
L 299.792291 -209.621446 
L 300.116945 -209.849168 
L 300.4416 -210.07689 
L 300.766255 -210.304612 
L 301.090909 -210.532333 
L 301.415564 -210.760054 
L 301.740218 -210.987775 
L 302.064873 -211.215495 
L 302.389527 -211.443214 
L 302.714182 -211.670934 
L 303.038836 -211.898652 
L 303.363491 -212.126371 
L 303.688145 -212.354089 
L 304.0128 -212.581806 
L 304.337455 -212.809523 
L 304.662109 -213.03724 
L 304.986764 -213.264956 
L 305.311418 -213.492672 
L 305.636073 -213.720387 
L 305.960727 -213.948102 
L 306.285382 -214.175817 
L 306.610036 -214.403531 
L 306.934691 -214.631245 
L 307.259345 -214.858958 
L 307.584 -215.086671 
L 307.908655 -215.314383 
L 308.233309 -215.542096 
L 308.557964 -215.769807 
L 308.882618 -215.997519 
L 309.207273 -216.22523 
L 309.531927 -216.45294 
L 309.856582 -216.68065 
L 310.181236 -216.90836 
L 310.505891 -217.13607 
L 310.830545 -217.363779 
L 311.1552 -217.591487 
L 311.479855 -217.819196 
L 311.804509 -218.046903 
L 312.129164 -218.274611 
L 312.453818 -218.502318 
L 312.778473 -218.730025 
L 313.103127 -218.957731 
L 313.427782 -219.185437 
L 313.752436 -219.413143 
L 314.077091 -219.640848 
L 314.401745 -219.868553 
L 314.7264 -220.096258 
L 315.051055 -220.323962 
L 315.375709 -220.551666 
L 315.700364 -220.779369 
L 316.025018 -221.007072 
L 316.349673 -221.234775 
L 316.674327 -221.462477 
L 316.998982 -221.690179 
L 317.323636 -221.917881 
L 317.648291 -222.145582 
L 317.972945 -222.373283 
L 318.2976 -222.600984 
L 318.622255 -222.828684 
L 318.946909 -223.056384 
L 319.271564 -223.284084 
L 319.596218 -223.511783 
L 319.920873 -223.739482 
L 320.245527 -223.96718 
L 320.570182 -224.194879 
L 320.894836 -224.422577 
L 321.219491 -224.650274 
L 321.544145 -224.877971 
L 321.8688 -225.105668 
L 322.193455 -225.333365 
L 322.518109 -225.561061 
L 322.842764 -225.788757 
L 323.167418 -226.016452 
L 323.492073 -226.244148 
L 323.816727 -226.471842 
L 324.141382 -226.699537 
L 324.466036 -226.927231 
L 324.790691 -227.154925 
L 325.115345 -227.382619 
L 325.44 -227.610312 
L 325.764655 -227.838005 
L 326.089309 -228.065698 
L 326.413964 -228.29339 
L 326.738618 -228.521082 
L 327.063273 -228.748774 
L 327.387927 -228.976465 
L 327.712582 -229.204156 
L 328.037236 -229.431847 
L 328.361891 -229.659537 
L 328.686545 -229.887228 
L 329.0112 -230.114917 
L 329.335855 -230.342607 
L 329.660509 -230.570296 
L 329.985164 -230.797985 
L 330.309818 -231.025674 
L 330.634473 -231.253362 
L 330.959127 -231.48105 
L 331.283782 -231.708738 
L 331.608436 -231.936425 
L 331.933091 -232.164113 
L 332.257745 -232.391799 
L 332.5824 -232.619486 
L 332.907055 -232.847172 
L 333.231709 -233.074858 
L 333.556364 -233.302544 
L 333.881018 -233.530229 
L 334.205673 -233.757914 
L 334.530327 -233.985599 
L 334.854982 -234.213284 
L 335.179636 -234.440968 
L 335.504291 -234.668652 
L 335.828945 -234.896336 
L 336.1536 -235.124019 
L 336.478255 -235.351702 
L 336.802909 -235.579385 
L 337.127564 -235.807068 
L 337.452218 -236.03475 
L 337.776873 -236.262432 
L 338.101527 -236.490114 
L 338.426182 -236.717795 
L 338.750836 -236.945477 
L 339.075491 -237.173157 
L 339.400145 -237.400838 
L 339.7248 -237.628519 
L 340.049455 -237.856199 
L 340.374109 -238.083879 
L 340.698764 -238.311558 
L 341.023418 -238.539237 
L 341.348073 -238.766917 
L 341.672727 -238.994595 
L 341.997382 -239.222274 
L 342.322036 -239.449952 
L 342.646691 -239.67763 
L 342.971345 -239.905308 
L 343.296 -240.132985 
L 343.620655 -240.360663 
L 343.945309 -240.58834 
L 344.269964 -240.816016 
L 344.594618 -241.043693 
L 344.919273 -241.271369 
L 345.243927 -241.499045 
L 345.568582 -241.726721 
L 345.893236 -241.954396 
L 346.217891 -242.182071 
L 346.542545 -242.409746 
L 346.8672 -242.637421 
L 347.191855 -242.865096 
L 347.516509 -243.09277 
L 347.841164 -243.320444 
L 348.165818 -243.548118 
L 348.490473 -243.775791 
L 348.815127 -244.003464 
L 349.139782 -244.231137 
L 349.464436 -244.45881 
L 349.789091 -244.686483 
L 350.113745 -244.914155 
L 350.4384 -245.141827 
L 350.763055 -245.369499 
L 351.087709 -245.59717 
L 351.412364 -245.824842 
L 351.737018 -246.052513 
L 352.061673 -246.280184 
L 352.386327 -246.507854 
L 352.710982 -246.735525 
L 353.035636 -246.963195 
L 353.360291 -247.190865 
L 353.684945 -247.418535 
L 354.0096 -247.646204 
L 354.334255 -247.873873 
L 354.658909 -248.101542 
L 354.983564 -248.329211 
L 355.308218 -248.55688 
L 355.632873 -248.784548 
L 355.957527 -249.012216 
L 356.282182 -249.239884 
L 356.606836 -249.467552 
L 356.931491 -249.695219 
L 357.256145 -249.922887 
L 357.5808 -250.150554 
L 357.905455 -250.37822 
L 358.230109 -250.605887 
L 358.554764 -250.833553 
L 358.879418 -251.06122 
L 359.204073 -251.288886 
L 359.528727 -251.516551 
L 359.853382 -251.744217 
L 360.178036 -251.971882 
L 360.502691 -252.199547 
L 360.827345 -252.427212 
L 361.152 -252.654877 
L 361.476655 -252.882541 
L 361.801309 -253.110205 
L 362.125964 -253.337869 
L 362.450618 -253.565533 
L 362.775273 -253.793197 
L 363.099927 -254.02086 
L 363.424582 -254.248523 
L 363.749236 -254.476186 
L 364.073891 -254.703849 
L 364.398545 -254.931512 
L 364.7232 -255.159174 
L 365.047855 -255.386836 
L 365.372509 -255.614498 
L 365.697164 -255.84216 
L 366.021818 -256.069822 
L 366.346473 -256.297483 
L 366.671127 -256.525144 
L 366.995782 -256.752805 
L 367.320436 -256.980466 
L 367.645091 -257.208126 
L 367.969745 -257.435787 
L 368.2944 -257.663447 
L 368.619055 -257.891107 
L 368.943709 -258.118767 
L 369.268364 -258.346426 
L 369.593018 -258.574086 
L 369.917673 -258.801745 
L 370.242327 -259.029404 
L 370.566982 -259.257063 
L 370.891636 -259.484721 
L 371.216291 -259.71238 
L 371.540945 -259.940038 
L 371.8656 -260.167696 
L 372.190255 -260.395354 
L 372.514909 -260.623012 
L 372.839564 -260.850669 
L 373.164218 -261.078327 
L 373.488873 -261.305984 
L 373.813527 -261.533641 
L 374.138182 -261.761297 
L 374.462836 -261.988954 
L 374.787491 -262.21661 
L 375.112145 -262.444267 
L 375.4368 -262.671923 
L 375.761455 -262.899578 
L 376.086109 -263.127234 
L 376.410764 -263.35489 
L 376.735418 -263.582545 
L 377.060073 -263.8102 
L 377.384727 -264.037855 
L 377.709382 -264.26551 
L 378.034036 -264.493164 
L 378.358691 -264.720819 
L 378.683345 -264.948473 
L 379.008 -265.176127 
L 379.332655 -265.403781 
L 379.657309 -265.631435 
L 379.981964 -265.859088 
L 380.306618 -266.086741 
L 380.631273 -266.314395 
L 380.955927 -266.542048 
L 381.280582 -266.769701 
L 381.605236 -266.997353 
L 381.929891 -267.225006 
L 382.254545 -267.452658 
L 382.5792 -267.68031 
L 382.903855 -267.907962 
L 383.228509 -268.135614 
L 383.553164 -268.363266 
L 383.877818 -268.590917 
L 384.202473 -268.818569 
L 384.527127 -269.04622 
L 384.851782 -269.273871 
L 385.176436 -269.501522 
L 385.501091 -269.729172 
L 385.825745 -269.956823 
L 386.1504 -270.184473 
L 386.475055 -270.412123 
L 386.799709 -270.639773 
L 387.124364 -270.867423 
L 387.449018 -271.095073 
L 387.773673 -271.322722 
L 388.098327 -271.550372 
L 388.422982 -271.778021 
L 388.747636 -272.00567 
L 389.072291 -272.233319 
L 389.396945 -272.460968 
L 389.7216 -272.688616 
L 390.046255 -272.916265 
L 390.370909 -273.143913 
L 390.695564 -273.371561 
L 391.020218 -273.599209 
L 391.344873 -273.826857 
L 391.669527 -274.054504 
L 391.994182 -274.282152 
L 392.318836 -274.509799 
L 392.643491 -274.737446 
L 392.968145 -274.965093 
L 393.2928 -275.19274 
L 393.617455 -275.420387 
L 393.942109 -275.648033 
L 394.266764 -275.87568 
L 394.591418 -276.103326 
L 394.916073 -276.330972 
L 395.240727 -276.558618 
L 395.565382 -276.786264 
L 395.890036 -277.01391 
L 396.214691 -277.241555 
L 396.539345 -277.469201 
L 396.864 -277.696846 
L 397.188655 -277.924491 
L 397.513309 -278.152136 
L 397.837964 -278.379781 
L 398.162618 -278.607425 
L 398.162618 -289.027484 
L 398.162618 -289.027484 
L 397.837964 -288.789071 
L 397.513309 -288.550659 
L 397.188655 -288.312246 
L 396.864 -288.073834 
L 396.539345 -287.835422 
L 396.214691 -287.59701 
L 395.890036 -287.358599 
L 395.565382 -287.120187 
L 395.240727 -286.881776 
L 394.916073 -286.643364 
L 394.591418 -286.404953 
L 394.266764 -286.166542 
L 393.942109 -285.928132 
L 393.617455 -285.689721 
L 393.2928 -285.45131 
L 392.968145 -285.2129 
L 392.643491 -284.97449 
L 392.318836 -284.73608 
L 391.994182 -284.49767 
L 391.669527 -284.25926 
L 391.344873 -284.020851 
L 391.020218 -283.782441 
L 390.695564 -283.544032 
L 390.370909 -283.305623 
L 390.046255 -283.067214 
L 389.7216 -282.828805 
L 389.396945 -282.590396 
L 389.072291 -282.351988 
L 388.747636 -282.113579 
L 388.422982 -281.875171 
L 388.098327 -281.636763 
L 387.773673 -281.398355 
L 387.449018 -281.159948 
L 387.124364 -280.92154 
L 386.799709 -280.683133 
L 386.475055 -280.444725 
L 386.1504 -280.206318 
L 385.825745 -279.967912 
L 385.501091 -279.729505 
L 385.176436 -279.491098 
L 384.851782 -279.252692 
L 384.527127 -279.014286 
L 384.202473 -278.77588 
L 383.877818 -278.537474 
L 383.553164 -278.299068 
L 383.228509 -278.060662 
L 382.903855 -277.822257 
L 382.5792 -277.583852 
L 382.254545 -277.345447 
L 381.929891 -277.107042 
L 381.605236 -276.868637 
L 381.280582 -276.630232 
L 380.955927 -276.391828 
L 380.631273 -276.153424 
L 380.306618 -275.91502 
L 379.981964 -275.676616 
L 379.657309 -275.438212 
L 379.332655 -275.199809 
L 379.008 -274.961405 
L 378.683345 -274.723002 
L 378.358691 -274.484599 
L 378.034036 -274.246196 
L 377.709382 -274.007794 
L 377.384727 -273.769391 
L 377.060073 -273.530989 
L 376.735418 -273.292587 
L 376.410764 -273.054185 
L 376.086109 -272.815783 
L 375.761455 -272.577382 
L 375.4368 -272.33898 
L 375.112145 -272.100579 
L 374.787491 -271.862178 
L 374.462836 -271.623777 
L 374.138182 -271.385376 
L 373.813527 -271.146976 
L 373.488873 -270.908576 
L 373.164218 -270.670176 
L 372.839564 -270.431776 
L 372.514909 -270.193376 
L 372.190255 -269.954976 
L 371.8656 -269.716577 
L 371.540945 -269.478178 
L 371.216291 -269.239779 
L 370.891636 -269.00138 
L 370.566982 -268.762981 
L 370.242327 -268.524583 
L 369.917673 -268.286185 
L 369.593018 -268.047787 
L 369.268364 -267.809389 
L 368.943709 -267.570991 
L 368.619055 -267.332594 
L 368.2944 -267.094197 
L 367.969745 -266.8558 
L 367.645091 -266.617403 
L 367.320436 -266.379006 
L 366.995782 -266.14061 
L 366.671127 -265.902213 
L 366.346473 -265.663817 
L 366.021818 -265.425421 
L 365.697164 -265.187026 
L 365.372509 -264.94863 
L 365.047855 -264.710235 
L 364.7232 -264.47184 
L 364.398545 -264.233445 
L 364.073891 -263.99505 
L 363.749236 -263.756656 
L 363.424582 -263.518262 
L 363.099927 -263.279868 
L 362.775273 -263.041474 
L 362.450618 -262.80308 
L 362.125964 -262.564687 
L 361.801309 -262.326294 
L 361.476655 -262.087901 
L 361.152 -261.849508 
L 360.827345 -261.611115 
L 360.502691 -261.372723 
L 360.178036 -261.134331 
L 359.853382 -260.895939 
L 359.528727 -260.657547 
L 359.204073 -260.419155 
L 358.879418 -260.180764 
L 358.554764 -259.942373 
L 358.230109 -259.703982 
L 357.905455 -259.465592 
L 357.5808 -259.227201 
L 357.256145 -258.988811 
L 356.931491 -258.750421 
L 356.606836 -258.512031 
L 356.282182 -258.273642 
L 355.957527 -258.035252 
L 355.632873 -257.796863 
L 355.308218 -257.558474 
L 354.983564 -257.320086 
L 354.658909 -257.081697 
L 354.334255 -256.843309 
L 354.0096 -256.604921 
L 353.684945 -256.366533 
L 353.360291 -256.128146 
L 353.035636 -255.889759 
L 352.710982 -255.651372 
L 352.386327 -255.412985 
L 352.061673 -255.174598 
L 351.737018 -254.936212 
L 351.412364 -254.697826 
L 351.087709 -254.45944 
L 350.763055 -254.221054 
L 350.4384 -253.982669 
L 350.113745 -253.744283 
L 349.789091 -253.505899 
L 349.464436 -253.267514 
L 349.139782 -253.029129 
L 348.815127 -252.790745 
L 348.490473 -252.552361 
L 348.165818 -252.313977 
L 347.841164 -252.075594 
L 347.516509 -251.837211 
L 347.191855 -251.598828 
L 346.8672 -251.360445 
L 346.542545 -251.122062 
L 346.217891 -250.88368 
L 345.893236 -250.645298 
L 345.568582 -250.406916 
L 345.243927 -250.168535 
L 344.919273 -249.930154 
L 344.594618 -249.691773 
L 344.269964 -249.453392 
L 343.945309 -249.215011 
L 343.620655 -248.976631 
L 343.296 -248.738251 
L 342.971345 -248.499871 
L 342.646691 -248.261492 
L 342.322036 -248.023113 
L 341.997382 -247.784734 
L 341.672727 -247.546355 
L 341.348073 -247.307977 
L 341.023418 -247.069598 
L 340.698764 -246.831221 
L 340.374109 -246.592843 
L 340.049455 -246.354466 
L 339.7248 -246.116088 
L 339.400145 -245.877712 
L 339.075491 -245.639335 
L 338.750836 -245.400959 
L 338.426182 -245.162583 
L 338.101527 -244.924207 
L 337.776873 -244.685831 
L 337.452218 -244.447456 
L 337.127564 -244.209081 
L 336.802909 -243.970707 
L 336.478255 -243.732332 
L 336.1536 -243.493958 
L 335.828945 -243.255584 
L 335.504291 -243.017211 
L 335.179636 -242.778838 
L 334.854982 -242.540465 
L 334.530327 -242.302092 
L 334.205673 -242.06372 
L 333.881018 -241.825347 
L 333.556364 -241.586976 
L 333.231709 -241.348604 
L 332.907055 -241.110233 
L 332.5824 -240.871862 
L 332.257745 -240.633491 
L 331.933091 -240.395121 
L 331.608436 -240.156751 
L 331.283782 -239.918381 
L 330.959127 -239.680011 
L 330.634473 -239.441642 
L 330.309818 -239.203273 
L 329.985164 -238.964905 
L 329.660509 -238.726536 
L 329.335855 -238.488168 
L 329.0112 -238.249801 
L 328.686545 -238.011433 
L 328.361891 -237.773066 
L 328.037236 -237.5347 
L 327.712582 -237.296333 
L 327.387927 -237.057967 
L 327.063273 -236.819601 
L 326.738618 -236.581236 
L 326.413964 -236.34287 
L 326.089309 -236.104505 
L 325.764655 -235.866141 
L 325.44 -235.627777 
L 325.115345 -235.389413 
L 324.790691 -235.151049 
L 324.466036 -234.912686 
L 324.141382 -234.674323 
L 323.816727 -234.43596 
L 323.492073 -234.197598 
L 323.167418 -233.959236 
L 322.842764 -233.720874 
L 322.518109 -233.482513 
L 322.193455 -233.244152 
L 321.8688 -233.005791 
L 321.544145 -232.767431 
L 321.219491 -232.529071 
L 320.894836 -232.290711 
L 320.570182 -232.052352 
L 320.245527 -231.813992 
L 319.920873 -231.575634 
L 319.596218 -231.337275 
L 319.271564 -231.098917 
L 318.946909 -230.86056 
L 318.622255 -230.622203 
L 318.2976 -230.383846 
L 317.972945 -230.145489 
L 317.648291 -229.907133 
L 317.323636 -229.668777 
L 316.998982 -229.430421 
L 316.674327 -229.192066 
L 316.349673 -228.953711 
L 316.025018 -228.715357 
L 315.700364 -228.477003 
L 315.375709 -228.238649 
L 315.051055 -228.000295 
L 314.7264 -227.761942 
L 314.401745 -227.52359 
L 314.077091 -227.285237 
L 313.752436 -227.046885 
L 313.427782 -226.808534 
L 313.103127 -226.570182 
L 312.778473 -226.331832 
L 312.453818 -226.093481 
L 312.129164 -225.855131 
L 311.804509 -225.616781 
L 311.479855 -225.378432 
L 311.1552 -225.140083 
L 310.830545 -224.901734 
L 310.505891 -224.663386 
L 310.181236 -224.425038 
L 309.856582 -224.186691 
L 309.531927 -223.948344 
L 309.207273 -223.709997 
L 308.882618 -223.471651 
L 308.557964 -223.233305 
L 308.233309 -222.99496 
L 307.908655 -222.756615 
L 307.584 -222.51827 
L 307.259345 -222.279926 
L 306.934691 -222.041582 
L 306.610036 -221.803238 
L 306.285382 -221.564895 
L 305.960727 -221.326553 
L 305.636073 -221.08821 
L 305.311418 -220.849868 
L 304.986764 -220.611527 
L 304.662109 -220.373186 
L 304.337455 -220.134845 
L 304.0128 -219.896505 
L 303.688145 -219.658165 
L 303.363491 -219.419826 
L 303.038836 -219.181487 
L 302.714182 -218.943149 
L 302.389527 -218.704811 
L 302.064873 -218.466473 
L 301.740218 -218.228136 
L 301.415564 -217.989799 
L 301.090909 -217.751463 
L 300.766255 -217.513127 
L 300.4416 -217.274791 
L 300.116945 -217.036456 
L 299.792291 -216.798122 
L 299.467636 -216.559787 
L 299.142982 -216.321454 
L 298.818327 -216.08312 
L 298.493673 -215.844788 
L 298.169018 -215.606455 
L 297.844364 -215.368123 
L 297.519709 -215.129792 
L 297.195055 -214.891461 
L 296.8704 -214.65313 
L 296.545745 -214.4148 
L 296.221091 -214.176471 
L 295.896436 -213.938142 
L 295.571782 -213.699813 
L 295.247127 -213.461485 
L 294.922473 -213.223157 
L 294.597818 -212.98483 
L 294.273164 -212.746503 
L 293.948509 -212.508177 
L 293.623855 -212.269851 
L 293.2992 -212.031526 
L 292.974545 -211.793201 
L 292.649891 -211.554876 
L 292.325236 -211.316553 
L 292.000582 -211.078229 
L 291.675927 -210.839906 
L 291.351273 -210.601584 
L 291.026618 -210.363262 
L 290.701964 -210.124941 
L 290.377309 -209.88662 
L 290.052655 -209.648299 
L 289.728 -209.409979 
L 289.403345 -209.17166 
L 289.078691 -208.933341 
L 288.754036 -208.695023 
L 288.429382 -208.456705 
L 288.104727 -208.218388 
L 287.780073 -207.980071 
L 287.455418 -207.741755 
L 287.130764 -207.503439 
L 286.806109 -207.265124 
L 286.481455 -207.026809 
L 286.1568 -206.788495 
L 285.832145 -206.550182 
L 285.507491 -206.311869 
L 285.182836 -206.073556 
L 284.858182 -205.835244 
L 284.533527 -205.596933 
L 284.208873 -205.358622 
L 283.884218 -205.120312 
L 283.559564 -204.882002 
L 283.234909 -204.643693 
L 282.910255 -204.405384 
L 282.5856 -204.167076 
L 282.260945 -203.928768 
L 281.936291 -203.690462 
L 281.611636 -203.452155 
L 281.286982 -203.213849 
L 280.962327 -202.975544 
L 280.637673 -202.73724 
L 280.313018 -202.498936 
L 279.988364 -202.260632 
L 279.663709 -202.022329 
L 279.339055 -201.784027 
L 279.0144 -201.545725 
L 278.689745 -201.307424 
L 278.365091 -201.069124 
L 278.040436 -200.830824 
L 277.715782 -200.592525 
L 277.391127 -200.354226 
L 277.066473 -200.115928 
L 276.741818 -199.87763 
L 276.417164 -199.639334 
L 276.092509 -199.401037 
L 275.767855 -199.162742 
L 275.4432 -198.924447 
L 275.118545 -198.686153 
L 274.793891 -198.447859 
L 274.469236 -198.209566 
L 274.144582 -197.971273 
L 273.819927 -197.732982 
L 273.495273 -197.494691 
L 273.170618 -197.2564 
L 272.845964 -197.01811 
L 272.521309 -196.779821 
L 272.196655 -196.541533 
L 271.872 -196.303245 
L 271.547345 -196.064958 
L 271.222691 -195.826671 
L 270.898036 -195.588385 
L 270.573382 -195.3501 
L 270.248727 -195.111816 
L 269.924073 -194.873532 
L 269.599418 -194.635249 
L 269.274764 -194.396966 
L 268.950109 -194.158685 
L 268.625455 -193.920404 
L 268.3008 -193.682123 
L 267.976145 -193.443844 
L 267.651491 -193.205565 
L 267.326836 -192.967287 
L 267.002182 -192.729009 
L 266.677527 -192.490732 
L 266.352873 -192.252456 
L 266.028218 -192.014181 
L 265.703564 -191.775907 
L 265.378909 -191.537633 
L 265.054255 -191.29936 
L 264.7296 -191.061087 
L 264.404945 -190.822816 
L 264.080291 -190.584545 
L 263.755636 -190.346275 
L 263.430982 -190.108005 
L 263.106327 -189.869737 
L 262.781673 -189.631469 
L 262.457018 -189.393202 
L 262.132364 -189.154935 
L 261.807709 -188.91667 
L 261.483055 -188.678405 
L 261.1584 -188.440141 
L 260.833745 -188.201878 
L 260.509091 -187.963616 
L 260.184436 -187.725354 
L 259.859782 -187.487093 
L 259.535127 -187.248834 
L 259.210473 -187.010574 
L 258.885818 -186.772316 
L 258.561164 -186.534059 
L 258.236509 -186.295802 
L 257.911855 -186.057546 
L 257.5872 -185.819291 
L 257.262545 -185.581037 
L 256.937891 -185.342783 
L 256.613236 -185.104531 
L 256.288582 -184.866279 
L 255.963927 -184.628029 
L 255.639273 -184.389779 
L 255.314618 -184.15153 
L 254.989964 -183.913281 
L 254.665309 -183.675034 
L 254.340655 -183.436788 
L 254.016 -183.198542 
L 253.691345 -182.960297 
L 253.366691 -182.722054 
L 253.042036 -182.483811 
L 252.717382 -182.245569 
L 252.392727 -182.007328 
L 252.068073 -181.769088 
L 251.743418 -181.530848 
L 251.418764 -181.29261 
L 251.094109 -181.054373 
L 250.769455 -180.816136 
L 250.4448 -180.577901 
L 250.120145 -180.339666 
L 249.795491 -180.101433 
L 249.470836 -179.8632 
L 249.146182 -179.624968 
L 248.821527 -179.386738 
L 248.496873 -179.148508 
L 248.172218 -178.910279 
L 247.847564 -178.672051 
L 247.522909 -178.433825 
L 247.198255 -178.195599 
L 246.8736 -177.957374 
L 246.548945 -177.71915 
L 246.224291 -177.480927 
L 245.899636 -177.242706 
L 245.574982 -177.004485 
L 245.250327 -176.766265 
L 244.925673 -176.528047 
L 244.601018 -176.289829 
L 244.276364 -176.051612 
L 243.951709 -175.813397 
L 243.627055 -175.575182 
L 243.3024 -175.336969 
L 242.977745 -175.098757 
L 242.653091 -174.860545 
L 242.328436 -174.622335 
L 242.003782 -174.384126 
L 241.679127 -174.145918 
L 241.354473 -173.907711 
L 241.029818 -173.669506 
L 240.705164 -173.431301 
L 240.380509 -173.193097 
L 240.055855 -172.954895 
L 239.7312 -172.716694 
L 239.406545 -172.478494 
L 239.081891 -172.240295 
L 238.757236 -172.002097 
L 238.432582 -171.7639 
L 238.107927 -171.525705 
L 237.783273 -171.287511 
L 237.458618 -171.049317 
L 237.133964 -170.811126 
L 236.809309 -170.572935 
L 236.484655 -170.334745 
L 236.16 -170.096557 
L 235.835345 -169.85837 
L 235.510691 -169.620184 
L 235.186036 -169.382 
L 234.861382 -169.143816 
L 234.536727 -168.905634 
L 234.212073 -168.667453 
L 233.887418 -168.429274 
L 233.562764 -168.191095 
L 233.238109 -167.952918 
L 232.913455 -167.714743 
L 232.5888 -167.476568 
L 232.264145 -167.238395 
L 231.939491 -167.000223 
L 231.614836 -166.762053 
L 231.290182 -166.523884 
L 230.965527 -166.285716 
L 230.640873 -166.047549 
L 230.316218 -165.809384 
L 229.991564 -165.57122 
L 229.666909 -165.333058 
L 229.342255 -165.094897 
L 229.0176 -164.856737 
L 228.692945 -164.618579 
L 228.368291 -164.380422 
L 228.043636 -164.142267 
L 227.718982 -163.904113 
L 227.394327 -163.665961 
L 227.069673 -163.427809 
L 226.745018 -163.18966 
L 226.420364 -162.951512 
L 226.095709 -162.713365 
L 225.771055 -162.47522 
L 225.4464 -162.237076 
L 225.121745 -161.998934 
L 224.797091 -161.760793 
L 224.472436 -161.522654 
L 224.147782 -161.284516 
L 223.823127 -161.04638 
L 223.498473 -160.808245 
L 223.173818 -160.570112 
L 222.849164 -160.331981 
L 222.524509 -160.093851 
L 222.199855 -159.855723 
L 221.8752 -159.617596 
L 221.550545 -159.379471 
L 221.225891 -159.141348 
L 220.901236 -158.903226 
L 220.576582 -158.665106 
L 220.251927 -158.426987 
L 219.927273 -158.18887 
L 219.602618 -157.950755 
L 219.277964 -157.712642 
L 218.953309 -157.47453 
L 218.628655 -157.23642 
L 218.304 -156.998311 
L 217.979345 -156.760205 
L 217.654691 -156.5221 
L 217.330036 -156.283997 
L 217.005382 -156.045895 
L 216.680727 -155.807796 
L 216.356073 -155.569698 
L 216.031418 -155.331602 
L 215.706764 -155.093508 
L 215.382109 -154.855416 
L 215.057455 -154.617325 
L 214.7328 -154.379236 
L 214.408145 -154.14115 
L 214.083491 -153.903065 
L 213.758836 -153.664982 
L 213.434182 -153.426901 
L 213.109527 -153.188821 
L 212.784873 -152.950744 
L 212.460218 -152.712669 
L 212.135564 -152.474596 
L 211.810909 -152.236524 
L 211.486255 -151.998455 
L 211.1616 -151.760387 
L 210.836945 -151.522322 
L 210.512291 -151.284259 
L 210.187636 -151.046197 
L 209.862982 -150.808138 
L 209.538327 -150.570081 
L 209.213673 -150.332026 
L 208.889018 -150.093973 
L 208.564364 -149.855922 
L 208.239709 -149.617873 
L 207.915055 -149.379827 
L 207.5904 -149.141782 
L 207.265745 -148.90374 
L 206.941091 -148.6657 
L 206.616436 -148.427662 
L 206.291782 -148.189626 
L 205.967127 -147.951593 
L 205.642473 -147.713562 
L 205.317818 -147.475533 
L 204.993164 -147.237506 
L 204.668509 -146.999482 
L 204.343855 -146.76146 
L 204.0192 -146.52344 
L 203.694545 -146.285423 
L 203.369891 -146.047408 
L 203.045236 -145.809396 
L 202.720582 -145.571386 
L 202.395927 -145.333378 
L 202.071273 -145.095373 
L 201.746618 -144.85737 
L 201.421964 -144.61937 
L 201.097309 -144.381372 
L 200.772655 -144.143376 
L 200.448 -143.905384 
L 200.123345 -143.667393 
L 199.798691 -143.429406 
L 199.474036 -143.191421 
L 199.149382 -142.953438 
L 198.824727 -142.715459 
L 198.500073 -142.477481 
L 198.175418 -142.239507 
L 197.850764 -142.001535 
L 197.526109 -141.763566 
L 197.201455 -141.5256 
L 196.8768 -141.287636 
L 196.552145 -141.049675 
L 196.227491 -140.811717 
L 195.902836 -140.573762 
L 195.578182 -140.33581 
L 195.253527 -140.09786 
L 194.928873 -139.859914 
L 194.604218 -139.62197 
L 194.279564 -139.384029 
L 193.954909 -139.146091 
L 193.630255 -138.908157 
L 193.3056 -138.670225 
L 192.980945 -138.432296 
L 192.656291 -138.19437 
L 192.331636 -137.956447 
L 192.006982 -137.718528 
L 191.682327 -137.480611 
L 191.357673 -137.242698 
L 191.033018 -137.004787 
L 190.708364 -136.76688 
L 190.383709 -136.528977 
L 190.059055 -136.291076 
L 189.7344 -136.053179 
L 189.409745 -135.815285 
L 189.085091 -135.577394 
L 188.760436 -135.339506 
L 188.435782 -135.101622 
L 188.111127 -134.863742 
L 187.786473 -134.625865 
L 187.461818 -134.387991 
L 187.137164 -134.150121 
L 186.812509 -133.912254 
L 186.487855 -133.674391 
L 186.1632 -133.436531 
L 185.838545 -133.198675 
L 185.513891 -132.960822 
L 185.189236 -132.722974 
L 184.864582 -132.485129 
L 184.539927 -132.247287 
L 184.215273 -132.00945 
L 183.890618 -131.771616 
L 183.565964 -131.533786 
L 183.241309 -131.295959 
L 182.916655 -131.058137 
L 182.592 -130.820319 
L 182.267345 -130.582504 
L 181.942691 -130.344694 
L 181.618036 -130.106887 
L 181.293382 -129.869084 
L 180.968727 -129.631286 
L 180.644073 -129.393492 
L 180.319418 -129.155701 
L 179.994764 -128.917915 
L 179.670109 -128.680133 
L 179.345455 -128.442356 
L 179.0208 -128.204583 
L 178.696145 -127.966813 
L 178.371491 -127.729049 
L 178.046836 -127.491289 
L 177.722182 -127.253533 
L 177.397527 -127.015781 
L 177.072873 -126.778034 
L 176.748218 -126.540292 
L 176.423564 -126.302554 
L 176.098909 -126.064821 
L 175.774255 -125.827093 
L 175.4496 -125.589369 
L 175.124945 -125.35165 
L 174.800291 -125.113935 
L 174.475636 -124.876226 
L 174.150982 -124.638521 
L 173.826327 -124.400822 
L 173.501673 -124.163127 
L 173.177018 -123.925437 
L 172.852364 -123.687752 
L 172.527709 -123.450073 
L 172.203055 -123.212398 
L 171.8784 -122.974729 
L 171.553745 -122.737065 
L 171.229091 -122.499406 
L 170.904436 -122.261752 
L 170.579782 -122.024104 
L 170.255127 -121.786461 
L 169.930473 -121.548824 
L 169.605818 -121.311192 
L 169.281164 -121.073566 
L 168.956509 -120.835945 
L 168.631855 -120.59833 
L 168.3072 -120.36072 
L 167.982545 -120.123117 
L 167.657891 -119.885519 
L 167.333236 -119.647927 
L 167.008582 -119.410341 
L 166.683927 -119.172761 
L 166.359273 -118.935187 
L 166.034618 -118.697619 
L 165.709964 -118.460057 
L 165.385309 -118.222501 
L 165.060655 -117.984952 
L 164.736 -117.747409 
L 164.411345 -117.509872 
L 164.086691 -117.272342 
L 163.762036 -117.034818 
L 163.437382 -116.7973 
L 163.112727 -116.559789 
L 162.788073 -116.322285 
L 162.463418 -116.084788 
L 162.138764 -115.847297 
L 161.814109 -115.609814 
L 161.489455 -115.372337 
L 161.1648 -115.134867 
L 160.840145 -114.897404 
L 160.515491 -114.659948 
L 160.190836 -114.4225 
L 159.866182 -114.185058 
L 159.541527 -113.947624 
L 159.216873 -113.710197 
L 158.892218 -113.472778 
L 158.567564 -113.235367 
L 158.242909 -112.997962 
L 157.918255 -112.760566 
L 157.5936 -112.523177 
L 157.268945 -112.285796 
L 156.944291 -112.048423 
L 156.619636 -111.811058 
L 156.294982 -111.573701 
L 155.970327 -111.336352 
L 155.645673 -111.099011 
L 155.321018 -110.861678 
L 154.996364 -110.624354 
L 154.671709 -110.387038 
L 154.347055 -110.149731 
L 154.0224 -109.912432 
L 153.697745 -109.675142 
L 153.373091 -109.437861 
L 153.048436 -109.200589 
L 152.723782 -108.963325 
L 152.399127 -108.726071 
L 152.074473 -108.488825 
L 151.749818 -108.251589 
L 151.425164 -108.014362 
L 151.100509 -107.777144 
L 150.775855 -107.539936 
L 150.4512 -107.302737 
L 150.126545 -107.065548 
L 149.801891 -106.828369 
L 149.477236 -106.5912 
L 149.152582 -106.35404 
L 148.827927 -106.116891 
L 148.503273 -105.879751 
L 148.178618 -105.642622 
L 147.853964 -105.405503 
L 147.529309 -105.168395 
L 147.204655 -104.931297 
L 146.88 -104.69421 
L 146.555345 -104.457133 
L 146.230691 -104.220067 
L 145.906036 -103.983013 
L 145.581382 -103.745969 
L 145.256727 -103.508936 
L 144.932073 -103.271915 
L 144.607418 -103.034905 
L 144.282764 -102.797907 
L 143.958109 -102.56092 
L 143.633455 -102.323945 
L 143.3088 -102.086981 
L 142.984145 -101.85003 
L 142.659491 -101.613091 
L 142.334836 -101.376164 
L 142.010182 -101.139249 
L 141.685527 -100.902347 
L 141.360873 -100.665457 
L 141.036218 -100.42858 
L 140.711564 -100.191716 
L 140.386909 -99.954864 
L 140.062255 -99.718026 
L 139.7376 -99.481201 
L 139.412945 -99.244389 
L 139.088291 -99.007591 
L 138.763636 -98.770806 
L 138.438982 -98.534035 
L 138.114327 -98.297278 
L 137.789673 -98.060535 
L 137.465018 -97.823806 
L 137.140364 -97.587091 
L 136.815709 -97.350391 
L 136.491055 -97.113705 
L 136.1664 -96.877034 
L 135.841745 -96.640378 
L 135.517091 -96.403737 
L 135.192436 -96.167111 
L 134.867782 -95.9305 
L 134.543127 -95.693904 
L 134.218473 -95.457325 
L 133.893818 -95.220761 
L 133.569164 -94.984212 
L 133.244509 -94.74768 
L 132.919855 -94.511164 
L 132.5952 -94.274665 
L 132.270545 -94.038182 
L 131.945891 -93.801715 
L 131.621236 -93.565266 
L 131.296582 -93.328833 
L 130.971927 -93.092418 
L 130.647273 -92.85602 
L 130.322618 -92.61964 
L 129.997964 -92.383277 
L 129.673309 -92.146932 
L 129.348655 -91.910605 
L 129.024 -91.674296 
L 128.699345 -91.438006 
L 128.374691 -91.201734 
L 128.050036 -90.96548 
L 127.725382 -90.729246 
L 127.400727 -90.493031 
L 127.076073 -90.256835 
L 126.751418 -90.020658 
L 126.426764 -89.784501 
L 126.102109 -89.548364 
L 125.777455 -89.312247 
L 125.4528 -89.07615 
L 125.128145 -88.840073 
L 124.803491 -88.604016 
L 124.478836 -88.367981 
L 124.154182 -88.131966 
L 123.829527 -87.895973 
L 123.504873 -87.66 
L 123.180218 -87.42405 
L 122.855564 -87.18812 
L 122.530909 -86.952213 
L 122.206255 -86.716328 
L 121.8816 -86.480465 
L 121.556945 -86.244624 
L 121.232291 -86.008806 
L 120.907636 -85.773011 
L 120.582982 -85.537239 
L 120.258327 -85.30149 
L 119.933673 -85.065765 
L 119.609018 -84.830063 
L 119.284364 -84.594385 
L 118.959709 -84.358731 
L 118.635055 -84.123101 
L 118.3104 -83.887496 
L 117.985745 -83.651915 
L 117.661091 -83.416359 
L 117.336436 -83.180828 
L 117.011782 -82.945323 
L 116.687127 -82.709843 
L 116.362473 -82.474388 
L 116.037818 -82.238959 
L 115.713164 -82.003557 
L 115.388509 -81.76818 
L 115.063855 -81.53283 
L 114.7392 -81.297507 
L 114.414545 -81.06221 
L 114.089891 -80.826941 
L 113.765236 -80.591699 
L 113.440582 -80.356484 
L 113.115927 -80.121297 
L 112.791273 -79.886138 
L 112.466618 -79.651007 
L 112.141964 -79.415904 
L 111.817309 -79.180829 
L 111.492655 -78.945783 
L 111.168 -78.710766 
L 110.843345 -78.475778 
L 110.518691 -78.240819 
L 110.194036 -78.00589 
L 109.869382 -77.77099 
L 109.544727 -77.53612 
L 109.220073 -77.30128 
L 108.895418 -77.06647 
L 108.570764 -76.83169 
L 108.246109 -76.596941 
L 107.921455 -76.362223 
L 107.5968 -76.127535 
L 107.272145 -75.892879 
L 106.947491 -75.658254 
L 106.622836 -75.42366 
L 106.298182 -75.189098 
L 105.973527 -74.954567 
L 105.648873 -74.720069 
L 105.324218 -74.485602 
L 104.999564 -74.251168 
L 104.674909 -74.016766 
L 104.350255 -73.782397 
L 104.0256 -73.548061 
L 103.700945 -73.313757 
L 103.376291 -73.079486 
L 103.051636 -72.845249 
L 102.726982 -72.611044 
L 102.402327 -72.376873 
L 102.077673 -72.142736 
L 101.753018 -71.908632 
L 101.428364 -71.674563 
L 101.103709 -71.440527 
L 100.779055 -71.206525 
L 100.4544 -70.972557 
L 100.129745 -70.738624 
L 99.805091 -70.504725 
L 99.480436 -70.270861 
L 99.155782 -70.037031 
L 98.831127 -69.803236 
L 98.506473 -69.569476 
L 98.181818 -69.335751 
L 97.857164 -69.10206 
L 97.532509 -68.868405 
L 97.207855 -68.634785 
L 96.8832 -68.4012 
L 96.558545 -68.167651 
L 96.233891 -67.934137 
L 95.909236 -67.700658 
L 95.584582 -67.467215 
L 95.259927 -67.233807 
L 94.935273 -67.000435 
L 94.610618 -66.767098 
L 94.285964 -66.533798 
L 93.961309 -66.300532 
L 93.636655 -66.067303 
L 93.312 -65.83411 
L 92.987345 -65.600952 
L 92.662691 -65.36783 
L 92.338036 -65.134744 
L 92.013382 -64.901693 
L 91.688727 -64.668679 
L 91.364073 -64.4357 
L 91.039418 -64.202757 
L 90.714764 -63.96985 
L 90.390109 -63.736979 
L 90.065455 -63.504143 
L 89.7408 -63.271343 
L 89.416145 -63.038579 
L 89.091491 -62.805851 
L 88.766836 -62.573158 
L 88.442182 -62.340501 
L 88.117527 -62.107879 
L 87.792873 -61.875293 
L 87.468218 -61.642743 
L 87.143564 -61.410227 
L 86.818909 -61.177747 
L 86.494255 -60.945303 
L 86.1696 -60.712893 
L 85.844945 -60.480519 
L 85.520291 -60.248179 
L 85.195636 -60.015875 
L 84.870982 -59.783605 
L 84.546327 -59.55137 
L 84.221673 -59.31917 
L 83.897018 -59.087004 
L 83.572364 -58.854873 
L 83.247709 -58.622776 
L 82.923055 -58.390713 
L 82.5984 -58.158684 
L 82.273745 -57.92669 
L 81.949091 -57.694729 
L 81.624436 -57.462802 
L 81.299782 -57.230908 
L 80.975127 -56.999048 
L 80.650473 -56.767221 
L 80.325818 -56.535428 
L 80.001164 -56.303667 
L 79.676509 -56.07194 
L 79.351855 -55.840245 
L 79.0272 -55.608582 
L 78.702545 -55.376952 
L 78.377891 -55.145355 
L 78.053236 -54.913789 
L 77.728582 -54.682256 
L 77.403927 -54.450754 
L 77.079273 -54.219284 
L 76.754618 -53.987845 
L 76.429964 -53.756437 
L 76.105309 -53.525061 
L 75.780655 -53.293715 
L 75.456 -53.062401 
L 75.131345 -52.831117 
L 74.806691 -52.599863 
L 74.482036 -52.368639 
L 74.157382 -52.137446 
L 73.832727 -51.906282 
z
" style="stroke: #1f77b4; stroke-opacity: 0.5"/>
    </defs>
    <g clip-path="url(#p0275fad0db)">
     <use xlink:href="#m7c36bd7ddf" x="0" y="345.6" style="fill: #1f77b4; fill-opacity: 0.5; stroke: #1f77b4; stroke-opacity: 0.5"/>
    </g>
   </g>
   <g id="line2d_33">
    <path d="M 73.832727 294.578134 
L 398.162618 61.782545 
L 398.162618 61.782545 
" clip-path="url(#p0275fad0db)" style="fill: none; stroke: #1f77b4; stroke-linecap: square"/>
   </g>
   <g id="LineCollection_1">
    <path d="M 73.832727 295.488 
L 73.832727 293.703418 
" clip-path="url(#p0275fad0db)" style="fill: none; stroke: #ff7f0e"/>
    <path d="M 196.406382 208.743362 
L 196.406382 204.06432 
" clip-path="url(#p0275fad0db)" style="fill: none; stroke: #ff7f0e"/>
    <path d="M 398.487273 71.742252 
L 398.487273 53.568 
" clip-path="url(#p0275fad0db)" style="fill: none; stroke: #ff7f0e"/>
   </g>
   <g id="line2d_34">
    <defs>
     <path id="md4d462ded8" d="M 1.5 0 
L -1.5 -0 
" style="stroke: #ff7f0e"/>
    </defs>
    <g clip-path="url(#p0275fad0db)">
     <use xlink:href="#md4d462ded8" x="73.832727" y="295.488" style="fill: #ff7f0e; stroke: #ff7f0e"/>
     <use xlink:href="#md4d462ded8" x="196.406382" y="208.743362" style="fill: #ff7f0e; stroke: #ff7f0e"/>
     <use xlink:href="#md4d462ded8" x="398.487273" y="71.742252" style="fill: #ff7f0e; stroke: #ff7f0e"/>
    </g>
   </g>
   <g id="line2d_35">
    <g clip-path="url(#p0275fad0db)">
     <use xlink:href="#md4d462ded8" x="73.832727" y="293.703418" style="fill: #ff7f0e; stroke: #ff7f0e"/>
     <use xlink:href="#md4d462ded8" x="196.406382" y="204.06432" style="fill: #ff7f0e; stroke: #ff7f0e"/>
     <use xlink:href="#md4d462ded8" x="398.487273" y="53.568" style="fill: #ff7f0e; stroke: #ff7f0e"/>
    </g>
   </g>
   <g id="line2d_36">
    <defs>
     <path id="mc29500e66b" d="M 0 4 
C 1.060812 4 2.078319 3.578535 2.828427 2.828427 
C 3.578535 2.078319 4 1.060812 4 0 
C 4 -1.060812 3.578535 -2.078319 2.828427 -2.828427 
C 2.078319 -3.578535 1.060812 -4 0 -4 
C -1.060812 -4 -2.078319 -3.578535 -2.828427 -2.828427 
C -3.578535 -2.078319 -4 -1.060812 -4 0 
C -4 1.060812 -3.578535 2.078319 -2.828427 2.828427 
C -2.078319 3.578535 -1.060812 4 0 4 
z
" style="stroke: #ff7f0e"/>
    </defs>
    <g clip-path="url(#p0275fad0db)">
     <use xlink:href="#mc29500e66b" x="73.832727" y="294.595709" style="fill-opacity: 0; stroke: #ff7f0e"/>
     <use xlink:href="#mc29500e66b" x="196.406382" y="206.403841" style="fill-opacity: 0; stroke: #ff7f0e"/>
     <use xlink:href="#mc29500e66b" x="398.487273" y="62.655126" style="fill-opacity: 0; stroke: #ff7f0e"/>
    </g>
   </g>
  </g>
 </g>
 <defs>
  <clipPath id="p0275fad0db">
   <rect x="57.6" y="41.472" width="357.12" height="266.112"/>
  </clipPath>
 </defs>
</svg>
