<?xml version="1.0" encoding="utf-8" standalone="no"?>
<!DOCTYPE svg PUBLIC "-//W3C//DTD SVG 1.1//EN"
  "http://www.w3.org/Graphics/SVG/1.1/DTD/svg11.dtd">
<svg xmlns:xlink="http://www.w3.org/1999/xlink" width="460.8pt" height="345.6pt" viewBox="0 0 460.8 345.6" xmlns="http://www.w3.org/2000/svg" version="1.1">
 <metadata>
  <rdf:RDF xmlns:dc="http://purl.org/dc/elements/1.1/" xmlns:cc="http://creativecommons.org/ns#" xmlns:rdf="http://www.w3.org/1999/02/22-rdf-syntax-ns#">
   <cc:Work>
    <dc:type rdf:resource="http://purl.org/dc/dcmitype/StillImage"/>
    <dc:date>2024-09-12T23:10:28.740727</dc:date>
    <dc:format>image/svg+xml</dc:format>
    <dc:creator>
     <cc:Agent>
      <dc:title>Matplotlib v3.7.5, https://matplotlib.org/</dc:title>
     </cc:Agent>
    </dc:creator>
   </cc:Work>
  </rdf:RDF>
 </metadata>
 <defs>
  <style type="text/css">*{stroke-linejoin: round; stroke-linecap: butt}</style>
 </defs>
 <g id="figure_1">
  <g id="patch_1">
   <path d="M 0 345.6 
L 460.8 345.6 
L 460.8 0 
L 0 0 
z
" style="fill: #ffffff"/>
  </g>
  <g id="axes_1">
   <g id="patch_2">
    <path d="M 57.6 307.584 
L 414.72 307.584 
L 414.72 41.472 
L 57.6 41.472 
z
" style="fill: #ffffff"/>
   </g>
   <g id="matplotlib.axis_1">
    <g id="xtick_1">
     <g id="line2d_1">
      <defs>
       <path id="m841961ec8e" d="M 0 0 
L 0 -3.5 
" style="stroke: #000000; stroke-width: 0.8"/>
      </defs>
      <g>
       <use xlink:href="#m841961ec8e" x="73.799859" y="307.584" style="stroke: #000000; stroke-width: 0.8"/>
      </g>
     </g>
     <g id="line2d_2">
      <defs>
       <path id="mc064b71625" d="M 0 0 
L 0 3.5 
" style="stroke: #000000; stroke-width: 0.8"/>
      </defs>
      <g>
       <use xlink:href="#mc064b71625" x="73.799859" y="41.472" style="stroke: #000000; stroke-width: 0.8"/>
      </g>
     </g>
     <g id="text_1">
      <!-- 0 -->
      <g transform="translate(72.149432 322.798028) rotate(-30) scale(0.12 -0.12)">
       <defs>
        <path id="DejaVuSans-30" d="M 2034 4250 
Q 1547 4250 1301 3770 
Q 1056 3291 1056 2328 
Q 1056 1369 1301 889 
Q 1547 409 2034 409 
Q 2525 409 2770 889 
Q 3016 1369 3016 2328 
Q 3016 3291 2770 3770 
Q 2525 4250 2034 4250 
z
M 2034 4750 
Q 2819 4750 3233 4129 
Q 3647 3509 3647 2328 
Q 3647 1150 3233 529 
Q 2819 -91 2034 -91 
Q 1250 -91 836 529 
Q 422 1150 422 2328 
Q 422 3509 836 4129 
Q 1250 4750 2034 4750 
z
" transform="scale(0.015625)"/>
       </defs>
       <use xlink:href="#DejaVuSans-30"/>
      </g>
     </g>
    </g>
    <g id="xtick_2">
     <g id="line2d_3">
      <g>
       <use xlink:href="#m841961ec8e" x="128.580561" y="307.584" style="stroke: #000000; stroke-width: 0.8"/>
      </g>
     </g>
     <g id="line2d_4">
      <g>
       <use xlink:href="#mc064b71625" x="128.580561" y="41.472" style="stroke: #000000; stroke-width: 0.8"/>
      </g>
     </g>
     <g id="text_2">
      <!-- 100000 -->
      <g transform="translate(110.399874 341.885528) rotate(-30) scale(0.12 -0.12)">
       <defs>
        <path id="DejaVuSans-31" d="M 794 531 
L 1825 531 
L 1825 4091 
L 703 3866 
L 703 4441 
L 1819 4666 
L 2450 4666 
L 2450 531 
L 3481 531 
L 3481 0 
L 794 0 
L 794 531 
z
" transform="scale(0.015625)"/>
       </defs>
       <use xlink:href="#DejaVuSans-31"/>
       <use xlink:href="#DejaVuSans-30" x="63.623047"/>
       <use xlink:href="#DejaVuSans-30" x="127.246094"/>
       <use xlink:href="#DejaVuSans-30" x="190.869141"/>
       <use xlink:href="#DejaVuSans-30" x="254.492188"/>
       <use xlink:href="#DejaVuSans-30" x="318.115234"/>
      </g>
     </g>
    </g>
    <g id="xtick_3">
     <g id="line2d_5">
      <g>
       <use xlink:href="#m841961ec8e" x="183.361263" y="307.584" style="stroke: #000000; stroke-width: 0.8"/>
      </g>
     </g>
     <g id="line2d_6">
      <g>
       <use xlink:href="#mc064b71625" x="183.361263" y="41.472" style="stroke: #000000; stroke-width: 0.8"/>
      </g>
     </g>
     <g id="text_3">
      <!-- 200000 -->
      <g transform="translate(165.180577 341.885528) rotate(-30) scale(0.12 -0.12)">
       <defs>
        <path id="DejaVuSans-32" d="M 1228 531 
L 3431 531 
L 3431 0 
L 469 0 
L 469 531 
Q 828 903 1448 1529 
Q 2069 2156 2228 2338 
Q 2531 2678 2651 2914 
Q 2772 3150 2772 3378 
Q 2772 3750 2511 3984 
Q 2250 4219 1831 4219 
Q 1534 4219 1204 4116 
Q 875 4013 500 3803 
L 500 4441 
Q 881 4594 1212 4672 
Q 1544 4750 1819 4750 
Q 2544 4750 2975 4387 
Q 3406 4025 3406 3419 
Q 3406 3131 3298 2873 
Q 3191 2616 2906 2266 
Q 2828 2175 2409 1742 
Q 1991 1309 1228 531 
z
" transform="scale(0.015625)"/>
       </defs>
       <use xlink:href="#DejaVuSans-32"/>
       <use xlink:href="#DejaVuSans-30" x="63.623047"/>
       <use xlink:href="#DejaVuSans-30" x="127.246094"/>
       <use xlink:href="#DejaVuSans-30" x="190.869141"/>
       <use xlink:href="#DejaVuSans-30" x="254.492188"/>
       <use xlink:href="#DejaVuSans-30" x="318.115234"/>
      </g>
     </g>
    </g>
    <g id="xtick_4">
     <g id="line2d_7">
      <g>
       <use xlink:href="#m841961ec8e" x="238.141966" y="307.584" style="stroke: #000000; stroke-width: 0.8"/>
      </g>
     </g>
     <g id="line2d_8">
      <g>
       <use xlink:href="#mc064b71625" x="238.141966" y="41.472" style="stroke: #000000; stroke-width: 0.8"/>
      </g>
     </g>
     <g id="text_4">
      <!-- 300000 -->
      <g transform="translate(219.961279 341.885528) rotate(-30) scale(0.12 -0.12)">
       <defs>
        <path id="DejaVuSans-33" d="M 2597 2516 
Q 3050 2419 3304 2112 
Q 3559 1806 3559 1356 
Q 3559 666 3084 287 
Q 2609 -91 1734 -91 
Q 1441 -91 1130 -33 
Q 819 25 488 141 
L 488 750 
Q 750 597 1062 519 
Q 1375 441 1716 441 
Q 2309 441 2620 675 
Q 2931 909 2931 1356 
Q 2931 1769 2642 2001 
Q 2353 2234 1838 2234 
L 1294 2234 
L 1294 2753 
L 1863 2753 
Q 2328 2753 2575 2939 
Q 2822 3125 2822 3475 
Q 2822 3834 2567 4026 
Q 2313 4219 1838 4219 
Q 1578 4219 1281 4162 
Q 984 4106 628 3988 
L 628 4550 
Q 988 4650 1302 4700 
Q 1616 4750 1894 4750 
Q 2613 4750 3031 4423 
Q 3450 4097 3450 3541 
Q 3450 3153 3228 2886 
Q 3006 2619 2597 2516 
z
" transform="scale(0.015625)"/>
       </defs>
       <use xlink:href="#DejaVuSans-33"/>
       <use xlink:href="#DejaVuSans-30" x="63.623047"/>
       <use xlink:href="#DejaVuSans-30" x="127.246094"/>
       <use xlink:href="#DejaVuSans-30" x="190.869141"/>
       <use xlink:href="#DejaVuSans-30" x="254.492188"/>
       <use xlink:href="#DejaVuSans-30" x="318.115234"/>
      </g>
     </g>
    </g>
    <g id="xtick_5">
     <g id="line2d_9">
      <g>
       <use xlink:href="#m841961ec8e" x="292.922668" y="307.584" style="stroke: #000000; stroke-width: 0.8"/>
      </g>
     </g>
     <g id="line2d_10">
      <g>
       <use xlink:href="#mc064b71625" x="292.922668" y="41.472" style="stroke: #000000; stroke-width: 0.8"/>
      </g>
     </g>
     <g id="text_5">
      <!-- 400000 -->
      <g transform="translate(274.741981 341.885528) rotate(-30) scale(0.12 -0.12)">
       <defs>
        <path id="DejaVuSans-34" d="M 2419 4116 
L 825 1625 
L 2419 1625 
L 2419 4116 
z
M 2253 4666 
L 3047 4666 
L 3047 1625 
L 3713 1625 
L 3713 1100 
L 3047 1100 
L 3047 0 
L 2419 0 
L 2419 1100 
L 313 1100 
L 313 1709 
L 2253 4666 
z
" transform="scale(0.015625)"/>
       </defs>
       <use xlink:href="#DejaVuSans-34"/>
       <use xlink:href="#DejaVuSans-30" x="63.623047"/>
       <use xlink:href="#DejaVuSans-30" x="127.246094"/>
       <use xlink:href="#DejaVuSans-30" x="190.869141"/>
       <use xlink:href="#DejaVuSans-30" x="254.492188"/>
       <use xlink:href="#DejaVuSans-30" x="318.115234"/>
      </g>
     </g>
    </g>
    <g id="xtick_6">
     <g id="line2d_11">
      <g>
       <use xlink:href="#m841961ec8e" x="347.70337" y="307.584" style="stroke: #000000; stroke-width: 0.8"/>
      </g>
     </g>
     <g id="line2d_12">
      <g>
       <use xlink:href="#mc064b71625" x="347.70337" y="41.472" style="stroke: #000000; stroke-width: 0.8"/>
      </g>
     </g>
     <g id="text_6">
      <!-- 500000 -->
      <g transform="translate(329.522684 341.885528) rotate(-30) scale(0.12 -0.12)">
       <defs>
        <path id="DejaVuSans-35" d="M 691 4666 
L 3169 4666 
L 3169 4134 
L 1269 4134 
L 1269 2991 
Q 1406 3038 1543 3061 
Q 1681 3084 1819 3084 
Q 2600 3084 3056 2656 
Q 3513 2228 3513 1497 
Q 3513 744 3044 326 
Q 2575 -91 1722 -91 
Q 1428 -91 1123 -41 
Q 819 9 494 109 
L 494 744 
Q 775 591 1075 516 
Q 1375 441 1709 441 
Q 2250 441 2565 725 
Q 2881 1009 2881 1497 
Q 2881 1984 2565 2268 
Q 2250 2553 1709 2553 
Q 1456 2553 1204 2497 
Q 953 2441 691 2322 
L 691 4666 
z
" transform="scale(0.015625)"/>
       </defs>
       <use xlink:href="#DejaVuSans-35"/>
       <use xlink:href="#DejaVuSans-30" x="63.623047"/>
       <use xlink:href="#DejaVuSans-30" x="127.246094"/>
       <use xlink:href="#DejaVuSans-30" x="190.869141"/>
       <use xlink:href="#DejaVuSans-30" x="254.492188"/>
       <use xlink:href="#DejaVuSans-30" x="318.115234"/>
      </g>
     </g>
    </g>
    <g id="xtick_7">
     <g id="line2d_13">
      <g>
       <use xlink:href="#m841961ec8e" x="402.484073" y="307.584" style="stroke: #000000; stroke-width: 0.8"/>
      </g>
     </g>
     <g id="line2d_14">
      <g>
       <use xlink:href="#mc064b71625" x="402.484073" y="41.472" style="stroke: #000000; stroke-width: 0.8"/>
      </g>
     </g>
     <g id="text_7">
      <!-- 600000 -->
      <g transform="translate(384.303386 341.885528) rotate(-30) scale(0.12 -0.12)">
       <defs>
        <path id="DejaVuSans-36" d="M 2113 2584 
Q 1688 2584 1439 2293 
Q 1191 2003 1191 1497 
Q 1191 994 1439 701 
Q 1688 409 2113 409 
Q 2538 409 2786 701 
Q 3034 994 3034 1497 
Q 3034 2003 2786 2293 
Q 2538 2584 2113 2584 
z
M 3366 4563 
L 3366 3988 
Q 3128 4100 2886 4159 
Q 2644 4219 2406 4219 
Q 1781 4219 1451 3797 
Q 1122 3375 1075 2522 
Q 1259 2794 1537 2939 
Q 1816 3084 2150 3084 
Q 2853 3084 3261 2657 
Q 3669 2231 3669 1497 
Q 3669 778 3244 343 
Q 2819 -91 2113 -91 
Q 1303 -91 875 529 
Q 447 1150 447 2328 
Q 447 3434 972 4092 
Q 1497 4750 2381 4750 
Q 2619 4750 2861 4703 
Q 3103 4656 3366 4563 
z
" transform="scale(0.015625)"/>
       </defs>
       <use xlink:href="#DejaVuSans-36"/>
       <use xlink:href="#DejaVuSans-30" x="63.623047"/>
       <use xlink:href="#DejaVuSans-30" x="127.246094"/>
       <use xlink:href="#DejaVuSans-30" x="190.869141"/>
       <use xlink:href="#DejaVuSans-30" x="254.492188"/>
       <use xlink:href="#DejaVuSans-30" x="318.115234"/>
      </g>
     </g>
    </g>
    <g id="text_8">
     <!-- $N_s$ -->
     <g transform="translate(229.26 357.164928) scale(0.12 -0.12)">
      <defs>
       <path id="DejaVuSans-Oblique-4e" d="M 1081 4666 
L 1931 4666 
L 3219 666 
L 4000 4666 
L 4616 4666 
L 3706 0 
L 2853 0 
L 1569 4025 
L 788 0 
L 172 0 
L 1081 4666 
z
" transform="scale(0.015625)"/>
       <path id="DejaVuSans-Oblique-73" d="M 3200 3397 
L 3091 2853 
Q 2863 2978 2609 3040 
Q 2356 3103 2088 3103 
Q 1634 3103 1373 2948 
Q 1113 2794 1113 2528 
Q 1113 2219 1719 2053 
Q 1766 2041 1788 2034 
L 1972 1978 
Q 2547 1819 2739 1644 
Q 2931 1469 2931 1166 
Q 2931 609 2489 259 
Q 2047 -91 1331 -91 
Q 1053 -91 747 -37 
Q 441 16 72 128 
L 184 722 
Q 500 559 806 475 
Q 1113 391 1394 391 
Q 1816 391 2080 572 
Q 2344 753 2344 1031 
Q 2344 1331 1650 1516 
L 1591 1531 
L 1394 1581 
Q 956 1697 753 1886 
Q 550 2075 550 2369 
Q 550 2928 970 3256 
Q 1391 3584 2113 3584 
Q 2397 3584 2667 3537 
Q 2938 3491 3200 3397 
z
" transform="scale(0.015625)"/>
      </defs>
      <use xlink:href="#DejaVuSans-Oblique-4e" transform="translate(0 0.09375)"/>
      <use xlink:href="#DejaVuSans-Oblique-73" transform="translate(74.804688 -16.3125) scale(0.7)"/>
     </g>
    </g>
   </g>
   <g id="matplotlib.axis_2">
    <g id="ytick_1">
     <g id="line2d_15">
      <defs>
       <path id="m7dc90fb446" d="M 0 0 
L 3.5 0 
" style="stroke: #000000; stroke-width: 0.8"/>
      </defs>
      <g>
       <use xlink:href="#m7dc90fb446" x="57.6" y="303.378799" style="stroke: #000000; stroke-width: 0.8"/>
      </g>
     </g>
     <g id="line2d_16">
      <defs>
       <path id="m8b8e2b27f4" d="M 0 0 
L -3.5 0 
" style="stroke: #000000; stroke-width: 0.8"/>
      </defs>
      <g>
       <use xlink:href="#m8b8e2b27f4" x="414.72" y="303.378799" style="stroke: #000000; stroke-width: 0.8"/>
      </g>
     </g>
     <g id="text_9">
      <!-- 0 -->
      <g transform="translate(46.465 307.937861) scale(0.12 -0.12)">
       <use xlink:href="#DejaVuSans-30"/>
      </g>
     </g>
    </g>
    <g id="ytick_2">
     <g id="line2d_17">
      <g>
       <use xlink:href="#m7dc90fb446" x="57.6" y="258.249808" style="stroke: #000000; stroke-width: 0.8"/>
      </g>
     </g>
     <g id="line2d_18">
      <g>
       <use xlink:href="#m8b8e2b27f4" x="414.72" y="258.249808" style="stroke: #000000; stroke-width: 0.8"/>
      </g>
     </g>
     <g id="text_10">
      <!-- 1 -->
      <g transform="translate(46.465 262.80887) scale(0.12 -0.12)">
       <use xlink:href="#DejaVuSans-31"/>
      </g>
     </g>
    </g>
    <g id="ytick_3">
     <g id="line2d_19">
      <g>
       <use xlink:href="#m7dc90fb446" x="57.6" y="213.120817" style="stroke: #000000; stroke-width: 0.8"/>
      </g>
     </g>
     <g id="line2d_20">
      <g>
       <use xlink:href="#m8b8e2b27f4" x="414.72" y="213.120817" style="stroke: #000000; stroke-width: 0.8"/>
      </g>
     </g>
     <g id="text_11">
      <!-- 2 -->
      <g transform="translate(46.465 217.679879) scale(0.12 -0.12)">
       <use xlink:href="#DejaVuSans-32"/>
      </g>
     </g>
    </g>
    <g id="ytick_4">
     <g id="line2d_21">
      <g>
       <use xlink:href="#m7dc90fb446" x="57.6" y="167.991826" style="stroke: #000000; stroke-width: 0.8"/>
      </g>
     </g>
     <g id="line2d_22">
      <g>
       <use xlink:href="#m8b8e2b27f4" x="414.72" y="167.991826" style="stroke: #000000; stroke-width: 0.8"/>
      </g>
     </g>
     <g id="text_12">
      <!-- 3 -->
      <g transform="translate(46.465 172.550888) scale(0.12 -0.12)">
       <use xlink:href="#DejaVuSans-33"/>
      </g>
     </g>
    </g>
    <g id="ytick_5">
     <g id="line2d_23">
      <g>
       <use xlink:href="#m7dc90fb446" x="57.6" y="122.862835" style="stroke: #000000; stroke-width: 0.8"/>
      </g>
     </g>
     <g id="line2d_24">
      <g>
       <use xlink:href="#m8b8e2b27f4" x="414.72" y="122.862835" style="stroke: #000000; stroke-width: 0.8"/>
      </g>
     </g>
     <g id="text_13">
      <!-- 4 -->
      <g transform="translate(46.465 127.421898) scale(0.12 -0.12)">
       <use xlink:href="#DejaVuSans-34"/>
      </g>
     </g>
    </g>
    <g id="ytick_6">
     <g id="line2d_25">
      <g>
       <use xlink:href="#m7dc90fb446" x="57.6" y="77.733844" style="stroke: #000000; stroke-width: 0.8"/>
      </g>
     </g>
     <g id="line2d_26">
      <g>
       <use xlink:href="#m8b8e2b27f4" x="414.72" y="77.733844" style="stroke: #000000; stroke-width: 0.8"/>
      </g>
     </g>
     <g id="text_14">
      <!-- 5 -->
      <g transform="translate(46.465 82.292907) scale(0.12 -0.12)">
       <use xlink:href="#DejaVuSans-35"/>
      </g>
     </g>
    </g>
    <g id="text_15">
     <!-- $\chi_{max}$ -->
     <g transform="translate(39.945 187.428) rotate(-90) scale(0.12 -0.12)">
      <defs>
       <path id="DejaVuSans-Oblique-3c7" d="M 1922 -781 
L 1691 416 
L 394 -1334 
L -284 -1334 
L 1553 1141 
L 1269 2613 
Q 1194 3006 713 3006 
L 559 3006 
L 653 3500 
L 872 3494 
Q 1675 3472 1775 2950 
L 2006 1753 
L 3303 3503 
L 3981 3503 
L 2144 1028 
L 2428 -444 
Q 2503 -838 2984 -838 
L 3138 -838 
L 3044 -1331 
L 2825 -1325 
Q 2022 -1303 1922 -781 
z
" transform="scale(0.015625)"/>
       <path id="DejaVuSans-Oblique-6d" d="M 5747 2113 
L 5338 0 
L 4763 0 
L 5166 2094 
Q 5191 2228 5203 2325 
Q 5216 2422 5216 2491 
Q 5216 2772 5059 2928 
Q 4903 3084 4622 3084 
Q 4203 3084 3875 2770 
Q 3547 2456 3450 1953 
L 3066 0 
L 2491 0 
L 2900 2094 
Q 2925 2209 2937 2307 
Q 2950 2406 2950 2484 
Q 2950 2769 2794 2926 
Q 2638 3084 2363 3084 
Q 1938 3084 1609 2770 
Q 1281 2456 1184 1953 
L 800 0 
L 225 0 
L 909 3500 
L 1484 3500 
L 1375 2956 
Q 1609 3263 1923 3423 
Q 2238 3584 2597 3584 
Q 2978 3584 3223 3384 
Q 3469 3184 3519 2828 
Q 3781 3197 4126 3390 
Q 4472 3584 4856 3584 
Q 5306 3584 5551 3325 
Q 5797 3066 5797 2591 
Q 5797 2488 5784 2364 
Q 5772 2241 5747 2113 
z
" transform="scale(0.015625)"/>
       <path id="DejaVuSans-Oblique-61" d="M 3438 1997 
L 3047 0 
L 2472 0 
L 2578 531 
Q 2325 219 2001 64 
Q 1678 -91 1281 -91 
Q 834 -91 548 182 
Q 263 456 263 884 
Q 263 1497 752 1853 
Q 1241 2209 2100 2209 
L 2900 2209 
L 2931 2363 
Q 2938 2388 2941 2417 
Q 2944 2447 2944 2509 
Q 2944 2788 2717 2942 
Q 2491 3097 2081 3097 
Q 1800 3097 1504 3025 
Q 1209 2953 897 2809 
L 997 3341 
Q 1322 3463 1633 3523 
Q 1944 3584 2234 3584 
Q 2853 3584 3176 3315 
Q 3500 3047 3500 2534 
Q 3500 2431 3484 2292 
Q 3469 2153 3438 1997 
z
M 2816 1759 
L 2241 1759 
Q 1534 1759 1195 1570 
Q 856 1381 856 984 
Q 856 709 1029 553 
Q 1203 397 1509 397 
Q 1978 397 2328 733 
Q 2678 1069 2791 1631 
L 2816 1759 
z
" transform="scale(0.015625)"/>
       <path id="DejaVuSans-Oblique-78" d="M 3841 3500 
L 2234 1784 
L 3219 0 
L 2559 0 
L 1819 1388 
L 531 0 
L -166 0 
L 1556 1844 
L 641 3500 
L 1300 3500 
L 1972 2234 
L 3144 3500 
L 3841 3500 
z
" transform="scale(0.015625)"/>
      </defs>
      <use xlink:href="#DejaVuSans-Oblique-3c7" transform="translate(0 0.265625)"/>
      <use xlink:href="#DejaVuSans-Oblique-6d" transform="translate(59.179688 -16.140625) scale(0.7)"/>
      <use xlink:href="#DejaVuSans-Oblique-61" transform="translate(127.368164 -16.140625) scale(0.7)"/>
      <use xlink:href="#DejaVuSans-Oblique-78" transform="translate(170.263672 -16.140625) scale(0.7)"/>
     </g>
    </g>
   </g>
   <g id="patch_3">
    <path d="M 57.6 307.584 
L 57.6 41.472 
" style="fill: none; stroke: #000000; stroke-width: 0.8; stroke-linejoin: miter; stroke-linecap: square"/>
   </g>
   <g id="patch_4">
    <path d="M 414.72 307.584 
L 414.72 41.472 
" style="fill: none; stroke: #000000; stroke-width: 0.8; stroke-linejoin: miter; stroke-linecap: square"/>
   </g>
   <g id="patch_5">
    <path d="M 57.6 307.584 
L 414.72 307.584 
" style="fill: none; stroke: #000000; stroke-width: 0.8; stroke-linejoin: miter; stroke-linecap: square"/>
   </g>
   <g id="patch_6">
    <path d="M 57.6 41.472 
L 414.72 41.472 
" style="fill: none; stroke: #000000; stroke-width: 0.8; stroke-linejoin: miter; stroke-linecap: square"/>
   </g>
   <g id="text_16">
    <!-- Fit of $\chi_{max}$ vs $N_s^3$ -->
    <g transform="translate(187.98 35.472) scale(0.12 -0.12)">
     <defs>
      <path id="DejaVuSans-46" d="M 628 4666 
L 3309 4666 
L 3309 4134 
L 1259 4134 
L 1259 2759 
L 3109 2759 
L 3109 2228 
L 1259 2228 
L 1259 0 
L 628 0 
L 628 4666 
z
" transform="scale(0.015625)"/>
      <path id="DejaVuSans-69" d="M 603 3500 
L 1178 3500 
L 1178 0 
L 603 0 
L 603 3500 
z
M 603 4863 
L 1178 4863 
L 1178 4134 
L 603 4134 
L 603 4863 
z
" transform="scale(0.015625)"/>
      <path id="DejaVuSans-74" d="M 1172 4494 
L 1172 3500 
L 2356 3500 
L 2356 3053 
L 1172 3053 
L 1172 1153 
Q 1172 725 1289 603 
Q 1406 481 1766 481 
L 2356 481 
L 2356 0 
L 1766 0 
Q 1100 0 847 248 
Q 594 497 594 1153 
L 594 3053 
L 172 3053 
L 172 3500 
L 594 3500 
L 594 4494 
L 1172 4494 
z
" transform="scale(0.015625)"/>
      <path id="DejaVuSans-20" transform="scale(0.015625)"/>
      <path id="DejaVuSans-6f" d="M 1959 3097 
Q 1497 3097 1228 2736 
Q 959 2375 959 1747 
Q 959 1119 1226 758 
Q 1494 397 1959 397 
Q 2419 397 2687 759 
Q 2956 1122 2956 1747 
Q 2956 2369 2687 2733 
Q 2419 3097 1959 3097 
z
M 1959 3584 
Q 2709 3584 3137 3096 
Q 3566 2609 3566 1747 
Q 3566 888 3137 398 
Q 2709 -91 1959 -91 
Q 1206 -91 779 398 
Q 353 888 353 1747 
Q 353 2609 779 3096 
Q 1206 3584 1959 3584 
z
" transform="scale(0.015625)"/>
      <path id="DejaVuSans-66" d="M 2375 4863 
L 2375 4384 
L 1825 4384 
Q 1516 4384 1395 4259 
Q 1275 4134 1275 3809 
L 1275 3500 
L 2222 3500 
L 2222 3053 
L 1275 3053 
L 1275 0 
L 697 0 
L 697 3053 
L 147 3053 
L 147 3500 
L 697 3500 
L 697 3744 
Q 697 4328 969 4595 
Q 1241 4863 1831 4863 
L 2375 4863 
z
" transform="scale(0.015625)"/>
      <path id="DejaVuSans-76" d="M 191 3500 
L 800 3500 
L 1894 563 
L 2988 3500 
L 3597 3500 
L 2284 0 
L 1503 0 
L 191 3500 
z
" transform="scale(0.015625)"/>
      <path id="DejaVuSans-73" d="M 2834 3397 
L 2834 2853 
Q 2591 2978 2328 3040 
Q 2066 3103 1784 3103 
Q 1356 3103 1142 2972 
Q 928 2841 928 2578 
Q 928 2378 1081 2264 
Q 1234 2150 1697 2047 
L 1894 2003 
Q 2506 1872 2764 1633 
Q 3022 1394 3022 966 
Q 3022 478 2636 193 
Q 2250 -91 1575 -91 
Q 1294 -91 989 -36 
Q 684 19 347 128 
L 347 722 
Q 666 556 975 473 
Q 1284 391 1588 391 
Q 1994 391 2212 530 
Q 2431 669 2431 922 
Q 2431 1156 2273 1281 
Q 2116 1406 1581 1522 
L 1381 1569 
Q 847 1681 609 1914 
Q 372 2147 372 2553 
Q 372 3047 722 3315 
Q 1072 3584 1716 3584 
Q 2034 3584 2315 3537 
Q 2597 3491 2834 3397 
z
" transform="scale(0.015625)"/>
     </defs>
     <use xlink:href="#DejaVuSans-46" transform="translate(0 0.765625)"/>
     <use xlink:href="#DejaVuSans-69" transform="translate(57.519531 0.765625)"/>
     <use xlink:href="#DejaVuSans-74" transform="translate(85.302734 0.765625)"/>
     <use xlink:href="#DejaVuSans-20" transform="translate(124.511719 0.765625)"/>
     <use xlink:href="#DejaVuSans-6f" transform="translate(156.298828 0.765625)"/>
     <use xlink:href="#DejaVuSans-66" transform="translate(217.480469 0.765625)"/>
     <use xlink:href="#DejaVuSans-20" transform="translate(252.685547 0.765625)"/>
     <use xlink:href="#DejaVuSans-Oblique-3c7" transform="translate(284.472656 0.765625)"/>
     <use xlink:href="#DejaVuSans-Oblique-6d" transform="translate(343.652344 -15.640625) scale(0.7)"/>
     <use xlink:href="#DejaVuSans-Oblique-61" transform="translate(411.84082 -15.640625) scale(0.7)"/>
     <use xlink:href="#DejaVuSans-Oblique-78" transform="translate(454.736328 -15.640625) scale(0.7)"/>
     <use xlink:href="#DejaVuSans-20" transform="translate(498.896484 0.765625)"/>
     <use xlink:href="#DejaVuSans-76" transform="translate(530.683594 0.765625)"/>
     <use xlink:href="#DejaVuSans-73" transform="translate(589.863281 0.765625)"/>
     <use xlink:href="#DejaVuSans-20" transform="translate(641.962891 0.765625)"/>
     <use xlink:href="#DejaVuSans-Oblique-4e" transform="translate(673.75 0.765625)"/>
     <use xlink:href="#DejaVuSans-33" transform="translate(755.571458 39.046875) scale(0.7)"/>
     <use xlink:href="#DejaVuSans-Oblique-73" transform="translate(748.554688 -26.578125) scale(0.7)"/>
    </g>
   </g>
   <g id="PolyCollection_1">
    <defs>
     <path id="ma078c8cc03" d="M 73.832727 -69.826135 
L 73.832727 -50.112 
L 73.83274 -50.11201 
L 73.832754 -50.11202 
L 73.832767 -50.112029 
L 73.83278 -50.112039 
L 73.832793 -50.112049 
L 73.832806 -50.112059 
L 73.832819 -50.112068 
L 73.832832 -50.112078 
L 73.832846 -50.112088 
L 73.832859 -50.112098 
L 73.832872 -50.112108 
L 73.832885 -50.112117 
L 73.832898 -50.112127 
L 73.832911 -50.112137 
L 73.832924 -50.112147 
L 73.832938 -50.112156 
L 73.832951 -50.112166 
L 73.832964 -50.112176 
L 73.832977 -50.112186 
L 73.83299 -50.112196 
L 73.833003 -50.112205 
L 73.833017 -50.112215 
L 73.83303 -50.112225 
L 73.833043 -50.112235 
L 73.833056 -50.112245 
L 73.833069 -50.112254 
L 73.833082 -50.112264 
L 73.833095 -50.112274 
L 73.833109 -50.112284 
L 73.833122 -50.112293 
L 73.833135 -50.112303 
L 73.833148 -50.112313 
L 73.833161 -50.112323 
L 73.833174 -50.112333 
L 73.833187 -50.112342 
L 73.833201 -50.112352 
L 73.833214 -50.112362 
L 73.833227 -50.112372 
L 73.83324 -50.112381 
L 73.833253 -50.112391 
L 73.833266 -50.112401 
L 73.833279 -50.112411 
L 73.833293 -50.112421 
L 73.833306 -50.11243 
L 73.833319 -50.11244 
L 73.833332 -50.11245 
L 73.833345 -50.11246 
L 73.833358 -50.112469 
L 73.833371 -50.112479 
L 73.833385 -50.112489 
L 73.833398 -50.112499 
L 73.833411 -50.112509 
L 73.833424 -50.112518 
L 73.833437 -50.112528 
L 73.83345 -50.112538 
L 73.833464 -50.112548 
L 73.833477 -50.112557 
L 73.83349 -50.112567 
L 73.833503 -50.112577 
L 73.833516 -50.112587 
L 73.833529 -50.112597 
L 73.833542 -50.112606 
L 73.833556 -50.112616 
L 73.833569 -50.112626 
L 73.833582 -50.112636 
L 73.833595 -50.112646 
L 73.833608 -50.112655 
L 73.833621 -50.112665 
L 73.833634 -50.112675 
L 73.833648 -50.112685 
L 73.833661 -50.112694 
L 73.833674 -50.112704 
L 73.833687 -50.112714 
L 73.8337 -50.112724 
L 73.833713 -50.112734 
L 73.833726 -50.112743 
L 73.83374 -50.112753 
L 73.833753 -50.112763 
L 73.833766 -50.112773 
L 73.833779 -50.112782 
L 73.833792 -50.112792 
L 73.833805 -50.112802 
L 73.833819 -50.112812 
L 73.833832 -50.112822 
L 73.833845 -50.112831 
L 73.833858 -50.112841 
L 73.833871 -50.112851 
L 73.833884 -50.112861 
L 73.833897 -50.11287 
L 73.833911 -50.11288 
L 73.833924 -50.11289 
L 73.833937 -50.1129 
L 73.83395 -50.11291 
L 73.833963 -50.112919 
L 73.833976 -50.112929 
L 73.833989 -50.112939 
L 73.834003 -50.112949 
L 73.834016 -50.112958 
L 73.834029 -50.112968 
L 73.834042 -50.112978 
L 73.834055 -50.112988 
L 73.834068 -50.112998 
L 73.834081 -50.113007 
L 73.834095 -50.113017 
L 73.834108 -50.113027 
L 73.834121 -50.113037 
L 73.834134 -50.113047 
L 73.834147 -50.113056 
L 73.83416 -50.113066 
L 73.834173 -50.113076 
L 73.834187 -50.113086 
L 73.8342 -50.113095 
L 73.834213 -50.113105 
L 73.834226 -50.113115 
L 73.834239 -50.113125 
L 73.834252 -50.113135 
L 73.834266 -50.113144 
L 73.834279 -50.113154 
L 73.834292 -50.113164 
L 73.834305 -50.113174 
L 73.834318 -50.113183 
L 73.834331 -50.113193 
L 73.834344 -50.113203 
L 73.834358 -50.113213 
L 73.834371 -50.113223 
L 73.834384 -50.113232 
L 73.834397 -50.113242 
L 73.83441 -50.113252 
L 73.834423 -50.113262 
L 73.834436 -50.113271 
L 73.83445 -50.113281 
L 73.834463 -50.113291 
L 73.834476 -50.113301 
L 73.834489 -50.113311 
L 73.834502 -50.11332 
L 73.834515 -50.11333 
L 73.834528 -50.11334 
L 73.834542 -50.11335 
L 73.834555 -50.11336 
L 73.834568 -50.113369 
L 73.834581 -50.113379 
L 73.834594 -50.113389 
L 73.834607 -50.113399 
L 73.83462 -50.113408 
L 73.834634 -50.113418 
L 73.834647 -50.113428 
L 73.83466 -50.113438 
L 73.834673 -50.113448 
L 73.834686 -50.113457 
L 73.834699 -50.113467 
L 73.834713 -50.113477 
L 73.834726 -50.113487 
L 73.834739 -50.113496 
L 73.834752 -50.113506 
L 73.834765 -50.113516 
L 73.834778 -50.113526 
L 73.834791 -50.113536 
L 73.834805 -50.113545 
L 73.834818 -50.113555 
L 73.834831 -50.113565 
L 73.834844 -50.113575 
L 73.834857 -50.113584 
L 73.83487 -50.113594 
L 73.834883 -50.113604 
L 73.834897 -50.113614 
L 73.83491 -50.113624 
L 73.834923 -50.113633 
L 73.834936 -50.113643 
L 73.834949 -50.113653 
L 73.834962 -50.113663 
L 73.834975 -50.113672 
L 73.834989 -50.113682 
L 73.835002 -50.113692 
L 73.835015 -50.113702 
L 73.835028 -50.113712 
L 73.835041 -50.113721 
L 73.835054 -50.113731 
L 73.835068 -50.113741 
L 73.835081 -50.113751 
L 73.835094 -50.113761 
L 73.835107 -50.11377 
L 73.83512 -50.11378 
L 73.835133 -50.11379 
L 73.835146 -50.1138 
L 73.83516 -50.113809 
L 73.835173 -50.113819 
L 73.835186 -50.113829 
L 73.835199 -50.113839 
L 73.835212 -50.113849 
L 73.835225 -50.113858 
L 73.835238 -50.113868 
L 73.835252 -50.113878 
L 73.835265 -50.113888 
L 73.835278 -50.113897 
L 73.835291 -50.113907 
L 73.835304 -50.113917 
L 73.835317 -50.113927 
L 73.83533 -50.113937 
L 73.835344 -50.113946 
L 73.835357 -50.113956 
L 73.83537 -50.113966 
L 73.835383 -50.113976 
L 73.835396 -50.113985 
L 73.835409 -50.113995 
L 73.835422 -50.114005 
L 73.835436 -50.114015 
L 73.835449 -50.114025 
L 73.835462 -50.114034 
L 73.835475 -50.114044 
L 73.835488 -50.114054 
L 73.835501 -50.114064 
L 73.835515 -50.114073 
L 73.835528 -50.114083 
L 73.835541 -50.114093 
L 73.835554 -50.114103 
L 73.835567 -50.114113 
L 73.83558 -50.114122 
L 73.835593 -50.114132 
L 73.835607 -50.114142 
L 73.83562 -50.114152 
L 73.835633 -50.114162 
L 73.835646 -50.114171 
L 73.835659 -50.114181 
L 73.835672 -50.114191 
L 73.835685 -50.114201 
L 73.835699 -50.11421 
L 73.835712 -50.11422 
L 73.835725 -50.11423 
L 73.835738 -50.11424 
L 73.835751 -50.11425 
L 73.835764 -50.114259 
L 73.835777 -50.114269 
L 73.835791 -50.114279 
L 73.835804 -50.114289 
L 73.835817 -50.114298 
L 73.83583 -50.114308 
L 73.835843 -50.114318 
L 73.835856 -50.114328 
L 73.835869 -50.114338 
L 73.835883 -50.114347 
L 73.835896 -50.114357 
L 73.835909 -50.114367 
L 73.835922 -50.114377 
L 73.835935 -50.114386 
L 73.835948 -50.114396 
L 73.835962 -50.114406 
L 73.835975 -50.114416 
L 73.835988 -50.114426 
L 73.836001 -50.114435 
L 73.836014 -50.114445 
L 73.836027 -50.114455 
L 73.83604 -50.114465 
L 73.836054 -50.114474 
L 73.836067 -50.114484 
L 73.83608 -50.114494 
L 73.836093 -50.114504 
L 73.836106 -50.114514 
L 73.836119 -50.114523 
L 73.836132 -50.114533 
L 73.836146 -50.114543 
L 73.836159 -50.114553 
L 73.836172 -50.114563 
L 73.836185 -50.114572 
L 73.836198 -50.114582 
L 73.836211 -50.114592 
L 73.836224 -50.114602 
L 73.836238 -50.114611 
L 73.836251 -50.114621 
L 73.836264 -50.114631 
L 73.836277 -50.114641 
L 73.83629 -50.114651 
L 73.836303 -50.11466 
L 73.836317 -50.11467 
L 73.83633 -50.11468 
L 73.836343 -50.11469 
L 73.836356 -50.114699 
L 73.836369 -50.114709 
L 73.836382 -50.114719 
L 73.836395 -50.114729 
L 73.836409 -50.114739 
L 73.836422 -50.114748 
L 73.836435 -50.114758 
L 73.836448 -50.114768 
L 73.836461 -50.114778 
L 73.836474 -50.114787 
L 73.836487 -50.114797 
L 73.836501 -50.114807 
L 73.836514 -50.114817 
L 73.836527 -50.114827 
L 73.83654 -50.114836 
L 73.836553 -50.114846 
L 73.836566 -50.114856 
L 73.836579 -50.114866 
L 73.836593 -50.114875 
L 73.836606 -50.114885 
L 73.836619 -50.114895 
L 73.836632 -50.114905 
L 73.836645 -50.114915 
L 73.836658 -50.114924 
L 73.836671 -50.114934 
L 73.836685 -50.114944 
L 73.836698 -50.114954 
L 73.836711 -50.114964 
L 73.836724 -50.114973 
L 73.836737 -50.114983 
L 73.83675 -50.114993 
L 73.836764 -50.115003 
L 73.836777 -50.115012 
L 73.83679 -50.115022 
L 73.836803 -50.115032 
L 73.836816 -50.115042 
L 73.836829 -50.115052 
L 73.836842 -50.115061 
L 73.836856 -50.115071 
L 73.836869 -50.115081 
L 73.836882 -50.115091 
L 73.836895 -50.1151 
L 73.836908 -50.11511 
L 73.836921 -50.11512 
L 73.836934 -50.11513 
L 73.836948 -50.11514 
L 73.836961 -50.115149 
L 73.836974 -50.115159 
L 73.836987 -50.115169 
L 73.837 -50.115179 
L 73.837013 -50.115188 
L 73.837026 -50.115198 
L 73.83704 -50.115208 
L 73.837053 -50.115218 
L 73.837066 -50.115228 
L 73.837079 -50.115237 
L 73.837092 -50.115247 
L 73.837105 -50.115257 
L 73.837118 -50.115267 
L 73.837132 -50.115276 
L 73.837145 -50.115286 
L 73.837158 -50.115296 
L 73.837171 -50.115306 
L 73.837184 -50.115316 
L 73.837197 -50.115325 
L 73.837211 -50.115335 
L 73.837224 -50.115345 
L 73.837237 -50.115355 
L 73.83725 -50.115365 
L 73.837263 -50.115374 
L 73.837276 -50.115384 
L 73.837289 -50.115394 
L 73.837303 -50.115404 
L 73.837316 -50.115413 
L 73.837329 -50.115423 
L 73.837342 -50.115433 
L 73.837355 -50.115443 
L 73.837368 -50.115453 
L 73.837381 -50.115462 
L 73.837395 -50.115472 
L 73.837408 -50.115482 
L 73.837421 -50.115492 
L 73.837434 -50.115501 
L 73.837447 -50.115511 
L 73.83746 -50.115521 
L 73.837473 -50.115531 
L 73.837487 -50.115541 
L 73.8375 -50.11555 
L 73.837513 -50.11556 
L 73.837526 -50.11557 
L 73.837539 -50.11558 
L 73.837552 -50.115589 
L 73.837566 -50.115599 
L 73.837579 -50.115609 
L 73.837592 -50.115619 
L 73.837605 -50.115629 
L 73.837618 -50.115638 
L 73.837631 -50.115648 
L 73.837644 -50.115658 
L 73.837658 -50.115668 
L 73.837671 -50.115678 
L 73.837684 -50.115687 
L 73.837697 -50.115697 
L 73.83771 -50.115707 
L 73.837723 -50.115717 
L 73.837736 -50.115726 
L 73.83775 -50.115736 
L 73.837763 -50.115746 
L 73.837776 -50.115756 
L 73.837789 -50.115766 
L 73.837802 -50.115775 
L 73.837815 -50.115785 
L 73.837828 -50.115795 
L 73.837842 -50.115805 
L 73.837855 -50.115814 
L 73.837868 -50.115824 
L 73.837881 -50.115834 
L 73.837894 -50.115844 
L 73.837907 -50.115854 
L 73.83792 -50.115863 
L 73.837934 -50.115873 
L 73.837947 -50.115883 
L 73.83796 -50.115893 
L 73.837973 -50.115902 
L 73.837986 -50.115912 
L 73.837999 -50.115922 
L 73.838013 -50.115932 
L 73.838026 -50.115942 
L 73.838039 -50.115951 
L 73.838052 -50.115961 
L 73.838065 -50.115971 
L 73.838078 -50.115981 
L 73.838091 -50.11599 
L 73.838105 -50.116 
L 73.838118 -50.11601 
L 73.838131 -50.11602 
L 73.838144 -50.11603 
L 73.838157 -50.116039 
L 73.83817 -50.116049 
L 73.838183 -50.116059 
L 73.838197 -50.116069 
L 73.83821 -50.116079 
L 73.838223 -50.116088 
L 73.838236 -50.116098 
L 73.838249 -50.116108 
L 73.838262 -50.116118 
L 73.838275 -50.116127 
L 73.838289 -50.116137 
L 73.838302 -50.116147 
L 73.838315 -50.116157 
L 73.838328 -50.116167 
L 73.838341 -50.116176 
L 73.838354 -50.116186 
L 73.838367 -50.116196 
L 73.838381 -50.116206 
L 73.838394 -50.116215 
L 73.838407 -50.116225 
L 73.83842 -50.116235 
L 73.838433 -50.116245 
L 73.838446 -50.116255 
L 73.83846 -50.116264 
L 73.838473 -50.116274 
L 73.838486 -50.116284 
L 73.838499 -50.116294 
L 73.838512 -50.116303 
L 73.838525 -50.116313 
L 73.838538 -50.116323 
L 73.838552 -50.116333 
L 73.838565 -50.116343 
L 73.838578 -50.116352 
L 73.838591 -50.116362 
L 73.838604 -50.116372 
L 73.838617 -50.116382 
L 73.83863 -50.116391 
L 73.838644 -50.116401 
L 73.838657 -50.116411 
L 73.83867 -50.116421 
L 73.838683 -50.116431 
L 73.838696 -50.11644 
L 73.838709 -50.11645 
L 73.838722 -50.11646 
L 73.838736 -50.11647 
L 73.838749 -50.11648 
L 73.838762 -50.116489 
L 73.838775 -50.116499 
L 73.838788 -50.116509 
L 73.838801 -50.116519 
L 73.838815 -50.116528 
L 73.838828 -50.116538 
L 73.838841 -50.116548 
L 73.838854 -50.116558 
L 73.838867 -50.116568 
L 73.83888 -50.116577 
L 73.838893 -50.116587 
L 73.838907 -50.116597 
L 73.83892 -50.116607 
L 73.838933 -50.116616 
L 73.838946 -50.116626 
L 73.838959 -50.116636 
L 73.838972 -50.116646 
L 73.838985 -50.116656 
L 73.838999 -50.116665 
L 73.839012 -50.116675 
L 73.839025 -50.116685 
L 73.839038 -50.116695 
L 73.839051 -50.116704 
L 73.839064 -50.116714 
L 73.839077 -50.116724 
L 73.839091 -50.116734 
L 73.839104 -50.116744 
L 73.839117 -50.116753 
L 73.83913 -50.116763 
L 73.839143 -50.116773 
L 73.839156 -50.116783 
L 73.839169 -50.116792 
L 73.839183 -50.116802 
L 73.839196 -50.116812 
L 73.839209 -50.116822 
L 73.839222 -50.116832 
L 73.839235 -50.116841 
L 73.839248 -50.116851 
L 73.839262 -50.116861 
L 73.839275 -50.116871 
L 73.839288 -50.116881 
L 73.839301 -50.11689 
L 73.839314 -50.1169 
L 73.839327 -50.11691 
L 73.83934 -50.11692 
L 73.839354 -50.116929 
L 73.839367 -50.116939 
L 73.83938 -50.116949 
L 73.839393 -50.116959 
L 73.839406 -50.116969 
L 73.839419 -50.116978 
L 73.839432 -50.116988 
L 73.839446 -50.116998 
L 73.839459 -50.117008 
L 73.839472 -50.117017 
L 73.839485 -50.117027 
L 73.839498 -50.117037 
L 73.839511 -50.117047 
L 73.839524 -50.117057 
L 73.839538 -50.117066 
L 73.839551 -50.117076 
L 73.839564 -50.117086 
L 73.839577 -50.117096 
L 73.83959 -50.117105 
L 73.839603 -50.117115 
L 73.839616 -50.117125 
L 73.83963 -50.117135 
L 73.839643 -50.117145 
L 73.839656 -50.117154 
L 73.839669 -50.117164 
L 73.839682 -50.117174 
L 73.839695 -50.117184 
L 73.839709 -50.117193 
L 73.839722 -50.117203 
L 73.839735 -50.117213 
L 73.839748 -50.117223 
L 73.839761 -50.117233 
L 73.839774 -50.117242 
L 73.839787 -50.117252 
L 73.839801 -50.117262 
L 73.839814 -50.117272 
L 73.839827 -50.117282 
L 73.83984 -50.117291 
L 73.839853 -50.117301 
L 73.839866 -50.117311 
L 73.839879 -50.117321 
L 73.839893 -50.11733 
L 73.839906 -50.11734 
L 73.839919 -50.11735 
L 73.839932 -50.11736 
L 73.839945 -50.11737 
L 73.839958 -50.117379 
L 73.839971 -50.117389 
L 73.839985 -50.117399 
L 73.839998 -50.117409 
L 73.840011 -50.117418 
L 73.840024 -50.117428 
L 73.840037 -50.117438 
L 73.84005 -50.117448 
L 73.840064 -50.117458 
L 73.840077 -50.117467 
L 73.84009 -50.117477 
L 73.840103 -50.117487 
L 73.840116 -50.117497 
L 73.840129 -50.117506 
L 73.840142 -50.117516 
L 73.840156 -50.117526 
L 73.840169 -50.117536 
L 73.840182 -50.117546 
L 73.840195 -50.117555 
L 73.840208 -50.117565 
L 73.840221 -50.117575 
L 73.840234 -50.117585 
L 73.840248 -50.117594 
L 73.840261 -50.117604 
L 73.840274 -50.117614 
L 73.840287 -50.117624 
L 73.8403 -50.117634 
L 73.840313 -50.117643 
L 73.840326 -50.117653 
L 73.84034 -50.117663 
L 73.840353 -50.117673 
L 73.840366 -50.117683 
L 73.840379 -50.117692 
L 73.840392 -50.117702 
L 73.840405 -50.117712 
L 73.840418 -50.117722 
L 73.840432 -50.117731 
L 73.840445 -50.117741 
L 73.840458 -50.117751 
L 73.840471 -50.117761 
L 73.840484 -50.117771 
L 73.840497 -50.11778 
L 73.840511 -50.11779 
L 73.840524 -50.1178 
L 73.840537 -50.11781 
L 73.84055 -50.117819 
L 73.840563 -50.117829 
L 73.840576 -50.117839 
L 73.840589 -50.117849 
L 73.840603 -50.117859 
L 73.840616 -50.117868 
L 73.840629 -50.117878 
L 73.840642 -50.117888 
L 73.840655 -50.117898 
L 73.840668 -50.117907 
L 73.840681 -50.117917 
L 73.840695 -50.117927 
L 73.840708 -50.117937 
L 73.840721 -50.117947 
L 73.840734 -50.117956 
L 73.840747 -50.117966 
L 73.84076 -50.117976 
L 73.840773 -50.117986 
L 73.840787 -50.117996 
L 73.8408 -50.118005 
L 73.840813 -50.118015 
L 73.840826 -50.118025 
L 73.840839 -50.118035 
L 73.840852 -50.118044 
L 73.840865 -50.118054 
L 73.840879 -50.118064 
L 73.840892 -50.118074 
L 73.840905 -50.118084 
L 73.840918 -50.118093 
L 73.840931 -50.118103 
L 73.840944 -50.118113 
L 73.840958 -50.118123 
L 73.840971 -50.118132 
L 73.840984 -50.118142 
L 73.840997 -50.118152 
L 73.84101 -50.118162 
L 73.841023 -50.118172 
L 73.841036 -50.118181 
L 73.84105 -50.118191 
L 73.841063 -50.118201 
L 73.841076 -50.118211 
L 73.841089 -50.11822 
L 73.841102 -50.11823 
L 73.841115 -50.11824 
L 73.841128 -50.11825 
L 73.841142 -50.11826 
L 73.841155 -50.118269 
L 73.841168 -50.118279 
L 73.841181 -50.118289 
L 73.841194 -50.118299 
L 73.841207 -50.118308 
L 73.84122 -50.118318 
L 73.841234 -50.118328 
L 73.841247 -50.118338 
L 73.84126 -50.118348 
L 73.841273 -50.118357 
L 73.841286 -50.118367 
L 73.841299 -50.118377 
L 73.841313 -50.118387 
L 73.841326 -50.118397 
L 73.841339 -50.118406 
L 73.841352 -50.118416 
L 73.841365 -50.118426 
L 73.841378 -50.118436 
L 73.841391 -50.118445 
L 73.841405 -50.118455 
L 73.841418 -50.118465 
L 73.841431 -50.118475 
L 73.841444 -50.118485 
L 73.841457 -50.118494 
L 73.84147 -50.118504 
L 73.841483 -50.118514 
L 73.841497 -50.118524 
L 73.84151 -50.118533 
L 73.841523 -50.118543 
L 73.841536 -50.118553 
L 73.841549 -50.118563 
L 73.841562 -50.118573 
L 73.841575 -50.118582 
L 73.841589 -50.118592 
L 73.841602 -50.118602 
L 73.841615 -50.118612 
L 73.841628 -50.118621 
L 73.841641 -50.118631 
L 73.841654 -50.118641 
L 73.841667 -50.118651 
L 73.841681 -50.118661 
L 73.841694 -50.11867 
L 73.841707 -50.11868 
L 73.84172 -50.11869 
L 73.841733 -50.1187 
L 73.841746 -50.118709 
L 73.84176 -50.118719 
L 73.841773 -50.118729 
L 73.841786 -50.118739 
L 73.841799 -50.118749 
L 73.841812 -50.118758 
L 73.841825 -50.118768 
L 73.841838 -50.118778 
L 73.841852 -50.118788 
L 73.841865 -50.118798 
L 73.841878 -50.118807 
L 73.841891 -50.118817 
L 73.841904 -50.118827 
L 73.841917 -50.118837 
L 73.84193 -50.118846 
L 73.841944 -50.118856 
L 73.841957 -50.118866 
L 73.84197 -50.118876 
L 73.841983 -50.118886 
L 73.841996 -50.118895 
L 73.842009 -50.118905 
L 73.842022 -50.118915 
L 73.842036 -50.118925 
L 73.842049 -50.118934 
L 73.842062 -50.118944 
L 73.842075 -50.118954 
L 73.842088 -50.118964 
L 73.842101 -50.118974 
L 73.842114 -50.118983 
L 73.842128 -50.118993 
L 73.842141 -50.119003 
L 73.842154 -50.119013 
L 73.842167 -50.119022 
L 73.84218 -50.119032 
L 73.842193 -50.119042 
L 73.842207 -50.119052 
L 73.84222 -50.119062 
L 73.842233 -50.119071 
L 73.842246 -50.119081 
L 73.842259 -50.119091 
L 73.842272 -50.119101 
L 73.842285 -50.11911 
L 73.842299 -50.11912 
L 73.842312 -50.11913 
L 73.842325 -50.11914 
L 73.842338 -50.11915 
L 73.842351 -50.119159 
L 73.842364 -50.119169 
L 73.842377 -50.119179 
L 73.842391 -50.119189 
L 73.842404 -50.119199 
L 73.842417 -50.119208 
L 73.84243 -50.119218 
L 73.842443 -50.119228 
L 73.842456 -50.119238 
L 73.842469 -50.119247 
L 73.842483 -50.119257 
L 73.842496 -50.119267 
L 73.842509 -50.119277 
L 73.842522 -50.119287 
L 73.842535 -50.119296 
L 73.842548 -50.119306 
L 73.842562 -50.119316 
L 73.842575 -50.119326 
L 73.842588 -50.119335 
L 73.842601 -50.119345 
L 73.842614 -50.119355 
L 73.842627 -50.119365 
L 73.84264 -50.119375 
L 73.842654 -50.119384 
L 73.842667 -50.119394 
L 73.84268 -50.119404 
L 73.842693 -50.119414 
L 73.842706 -50.119423 
L 73.842719 -50.119433 
L 73.842732 -50.119443 
L 73.842746 -50.119453 
L 73.842759 -50.119463 
L 73.842772 -50.119472 
L 73.842785 -50.119482 
L 73.842798 -50.119492 
L 73.842811 -50.119502 
L 73.842824 -50.119511 
L 73.842838 -50.119521 
L 73.842851 -50.119531 
L 73.842864 -50.119541 
L 73.842877 -50.119551 
L 73.84289 -50.11956 
L 73.842903 -50.11957 
L 73.842916 -50.11958 
L 73.84293 -50.11959 
L 73.842943 -50.1196 
L 73.842956 -50.119609 
L 73.842969 -50.119619 
L 73.842982 -50.119629 
L 73.842995 -50.119639 
L 73.843009 -50.119648 
L 73.843022 -50.119658 
L 73.843035 -50.119668 
L 73.843048 -50.119678 
L 73.843061 -50.119688 
L 73.843074 -50.119697 
L 73.843087 -50.119707 
L 73.843101 -50.119717 
L 73.843114 -50.119727 
L 73.843127 -50.119736 
L 73.84314 -50.119746 
L 73.843153 -50.119756 
L 73.843166 -50.119766 
L 73.843179 -50.119776 
L 73.843193 -50.119785 
L 73.843206 -50.119795 
L 73.843219 -50.119805 
L 73.843232 -50.119815 
L 73.843245 -50.119824 
L 73.843258 -50.119834 
L 73.843271 -50.119844 
L 73.843285 -50.119854 
L 73.843298 -50.119864 
L 73.843311 -50.119873 
L 73.843324 -50.119883 
L 73.843337 -50.119893 
L 73.84335 -50.119903 
L 73.843363 -50.119912 
L 73.843377 -50.119922 
L 73.84339 -50.119932 
L 73.843403 -50.119942 
L 73.843416 -50.119952 
L 73.843429 -50.119961 
L 73.843442 -50.119971 
L 73.843456 -50.119981 
L 73.843469 -50.119991 
L 73.843482 -50.120001 
L 73.843495 -50.12001 
L 73.843508 -50.12002 
L 73.843521 -50.12003 
L 73.843534 -50.12004 
L 73.843548 -50.120049 
L 73.843561 -50.120059 
L 73.843574 -50.120069 
L 73.843587 -50.120079 
L 73.8436 -50.120089 
L 73.843613 -50.120098 
L 73.843626 -50.120108 
L 73.84364 -50.120118 
L 73.843653 -50.120128 
L 73.843666 -50.120137 
L 73.843679 -50.120147 
L 73.843692 -50.120157 
L 73.843705 -50.120167 
L 73.843718 -50.120177 
L 73.843732 -50.120186 
L 73.843745 -50.120196 
L 73.843758 -50.120206 
L 73.843771 -50.120216 
L 73.843784 -50.120225 
L 73.843797 -50.120235 
L 73.843811 -50.120245 
L 73.843824 -50.120255 
L 73.843837 -50.120265 
L 73.84385 -50.120274 
L 73.843863 -50.120284 
L 73.843876 -50.120294 
L 73.843889 -50.120304 
L 73.843903 -50.120314 
L 73.843916 -50.120323 
L 73.843929 -50.120333 
L 73.843942 -50.120343 
L 73.843955 -50.120353 
L 73.843968 -50.120362 
L 73.843981 -50.120372 
L 73.843995 -50.120382 
L 73.844008 -50.120392 
L 73.844021 -50.120402 
L 73.844034 -50.120411 
L 73.844047 -50.120421 
L 73.84406 -50.120431 
L 73.844073 -50.120441 
L 73.844087 -50.12045 
L 73.8441 -50.12046 
L 73.844113 -50.12047 
L 73.844126 -50.12048 
L 73.844139 -50.12049 
L 73.844152 -50.120499 
L 73.844165 -50.120509 
L 73.844179 -50.120519 
L 73.844192 -50.120529 
L 73.844205 -50.120538 
L 73.844218 -50.120548 
L 73.844231 -50.120558 
L 73.844244 -50.120568 
L 73.844258 -50.120578 
L 73.844271 -50.120587 
L 73.844284 -50.120597 
L 73.844297 -50.120607 
L 73.84431 -50.120617 
L 73.844323 -50.120626 
L 73.844336 -50.120636 
L 73.84435 -50.120646 
L 73.844363 -50.120656 
L 73.844376 -50.120666 
L 73.844389 -50.120675 
L 73.844402 -50.120685 
L 73.844415 -50.120695 
L 73.844428 -50.120705 
L 73.844442 -50.120715 
L 73.844455 -50.120724 
L 73.844468 -50.120734 
L 73.844481 -50.120744 
L 73.844494 -50.120754 
L 73.844507 -50.120763 
L 73.84452 -50.120773 
L 73.844534 -50.120783 
L 73.844547 -50.120793 
L 73.84456 -50.120803 
L 73.844573 -50.120812 
L 73.844586 -50.120822 
L 73.844599 -50.120832 
L 73.844612 -50.120842 
L 73.844626 -50.120851 
L 73.844639 -50.120861 
L 73.844652 -50.120871 
L 73.844665 -50.120881 
L 73.844678 -50.120891 
L 73.844691 -50.1209 
L 73.844705 -50.12091 
L 73.844718 -50.12092 
L 73.844731 -50.12093 
L 73.844744 -50.120939 
L 73.844757 -50.120949 
L 73.84477 -50.120959 
L 73.844783 -50.120969 
L 73.844797 -50.120979 
L 73.84481 -50.120988 
L 73.844823 -50.120998 
L 73.844836 -50.121008 
L 73.844849 -50.121018 
L 73.844862 -50.121027 
L 73.844875 -50.121037 
L 73.844889 -50.121047 
L 73.844902 -50.121057 
L 73.844915 -50.121067 
L 73.844928 -50.121076 
L 73.844941 -50.121086 
L 73.844954 -50.121096 
L 73.844967 -50.121106 
L 73.844981 -50.121116 
L 73.844994 -50.121125 
L 73.845007 -50.121135 
L 73.84502 -50.121145 
L 73.845033 -50.121155 
L 73.845046 -50.121164 
L 73.84506 -50.121174 
L 73.845073 -50.121184 
L 73.845086 -50.121194 
L 73.845099 -50.121204 
L 73.845112 -50.121213 
L 73.845125 -50.121223 
L 73.845138 -50.121233 
L 73.845152 -50.121243 
L 73.845165 -50.121252 
L 73.845178 -50.121262 
L 73.845191 -50.121272 
L 73.845204 -50.121282 
L 73.845217 -50.121292 
L 73.84523 -50.121301 
L 73.845244 -50.121311 
L 73.845257 -50.121321 
L 73.84527 -50.121331 
L 73.845283 -50.12134 
L 73.845296 -50.12135 
L 73.845309 -50.12136 
L 73.845322 -50.12137 
L 73.845336 -50.12138 
L 73.845349 -50.121389 
L 73.845362 -50.121399 
L 73.845375 -50.121409 
L 73.845388 -50.121419 
L 73.845401 -50.121428 
L 73.845414 -50.121438 
L 73.845428 -50.121448 
L 73.845441 -50.121458 
L 73.845454 -50.121468 
L 73.845467 -50.121477 
L 73.84548 -50.121487 
L 73.845493 -50.121497 
L 73.845507 -50.121507 
L 73.84552 -50.121517 
L 73.845533 -50.121526 
L 73.845546 -50.121536 
L 73.845559 -50.121546 
L 73.845572 -50.121556 
L 73.845585 -50.121565 
L 73.845599 -50.121575 
L 73.845612 -50.121585 
L 73.845625 -50.121595 
L 73.845638 -50.121605 
L 73.845651 -50.121614 
L 73.845664 -50.121624 
L 73.845677 -50.121634 
L 73.845691 -50.121644 
L 73.845704 -50.121653 
L 73.845717 -50.121663 
L 73.84573 -50.121673 
L 73.845743 -50.121683 
L 73.845756 -50.121693 
L 73.845769 -50.121702 
L 73.845783 -50.121712 
L 73.845796 -50.121722 
L 73.845809 -50.121732 
L 73.845822 -50.121741 
L 73.845835 -50.121751 
L 73.845848 -50.121761 
L 73.845861 -50.121771 
L 73.845861 -69.834022 
L 73.845861 -69.834022 
L 73.845848 -69.834014 
L 73.845835 -69.834006 
L 73.845822 -69.833998 
L 73.845809 -69.83399 
L 73.845796 -69.833982 
L 73.845783 -69.833974 
L 73.845769 -69.833966 
L 73.845756 -69.833958 
L 73.845743 -69.833951 
L 73.84573 -69.833943 
L 73.845717 -69.833935 
L 73.845704 -69.833927 
L 73.845691 -69.833919 
L 73.845677 -69.833911 
L 73.845664 -69.833903 
L 73.845651 -69.833895 
L 73.845638 -69.833887 
L 73.845625 -69.833879 
L 73.845612 -69.833872 
L 73.845599 -69.833864 
L 73.845585 -69.833856 
L 73.845572 -69.833848 
L 73.845559 -69.83384 
L 73.845546 -69.833832 
L 73.845533 -69.833824 
L 73.84552 -69.833816 
L 73.845507 -69.833808 
L 73.845493 -69.833801 
L 73.84548 -69.833793 
L 73.845467 -69.833785 
L 73.845454 -69.833777 
L 73.845441 -69.833769 
L 73.845428 -69.833761 
L 73.845414 -69.833753 
L 73.845401 -69.833745 
L 73.845388 -69.833737 
L 73.845375 -69.833729 
L 73.845362 -69.833722 
L 73.845349 -69.833714 
L 73.845336 -69.833706 
L 73.845322 -69.833698 
L 73.845309 -69.83369 
L 73.845296 -69.833682 
L 73.845283 -69.833674 
L 73.84527 -69.833666 
L 73.845257 -69.833658 
L 73.845244 -69.833651 
L 73.84523 -69.833643 
L 73.845217 -69.833635 
L 73.845204 -69.833627 
L 73.845191 -69.833619 
L 73.845178 -69.833611 
L 73.845165 -69.833603 
L 73.845152 -69.833595 
L 73.845138 -69.833587 
L 73.845125 -69.833579 
L 73.845112 -69.833572 
L 73.845099 -69.833564 
L 73.845086 -69.833556 
L 73.845073 -69.833548 
L 73.84506 -69.83354 
L 73.845046 -69.833532 
L 73.845033 -69.833524 
L 73.84502 -69.833516 
L 73.845007 -69.833508 
L 73.844994 -69.833501 
L 73.844981 -69.833493 
L 73.844967 -69.833485 
L 73.844954 -69.833477 
L 73.844941 -69.833469 
L 73.844928 -69.833461 
L 73.844915 -69.833453 
L 73.844902 -69.833445 
L 73.844889 -69.833437 
L 73.844875 -69.833429 
L 73.844862 -69.833422 
L 73.844849 -69.833414 
L 73.844836 -69.833406 
L 73.844823 -69.833398 
L 73.84481 -69.83339 
L 73.844797 -69.833382 
L 73.844783 -69.833374 
L 73.84477 -69.833366 
L 73.844757 -69.833358 
L 73.844744 -69.833351 
L 73.844731 -69.833343 
L 73.844718 -69.833335 
L 73.844705 -69.833327 
L 73.844691 -69.833319 
L 73.844678 -69.833311 
L 73.844665 -69.833303 
L 73.844652 -69.833295 
L 73.844639 -69.833287 
L 73.844626 -69.833279 
L 73.844612 -69.833272 
L 73.844599 -69.833264 
L 73.844586 -69.833256 
L 73.844573 -69.833248 
L 73.84456 -69.83324 
L 73.844547 -69.833232 
L 73.844534 -69.833224 
L 73.84452 -69.833216 
L 73.844507 -69.833208 
L 73.844494 -69.833201 
L 73.844481 -69.833193 
L 73.844468 -69.833185 
L 73.844455 -69.833177 
L 73.844442 -69.833169 
L 73.844428 -69.833161 
L 73.844415 -69.833153 
L 73.844402 -69.833145 
L 73.844389 -69.833137 
L 73.844376 -69.833129 
L 73.844363 -69.833122 
L 73.84435 -69.833114 
L 73.844336 -69.833106 
L 73.844323 -69.833098 
L 73.84431 -69.83309 
L 73.844297 -69.833082 
L 73.844284 -69.833074 
L 73.844271 -69.833066 
L 73.844258 -69.833058 
L 73.844244 -69.833051 
L 73.844231 -69.833043 
L 73.844218 -69.833035 
L 73.844205 -69.833027 
L 73.844192 -69.833019 
L 73.844179 -69.833011 
L 73.844165 -69.833003 
L 73.844152 -69.832995 
L 73.844139 -69.832987 
L 73.844126 -69.832979 
L 73.844113 -69.832972 
L 73.8441 -69.832964 
L 73.844087 -69.832956 
L 73.844073 -69.832948 
L 73.84406 -69.83294 
L 73.844047 -69.832932 
L 73.844034 -69.832924 
L 73.844021 -69.832916 
L 73.844008 -69.832908 
L 73.843995 -69.832901 
L 73.843981 -69.832893 
L 73.843968 -69.832885 
L 73.843955 -69.832877 
L 73.843942 -69.832869 
L 73.843929 -69.832861 
L 73.843916 -69.832853 
L 73.843903 -69.832845 
L 73.843889 -69.832837 
L 73.843876 -69.832829 
L 73.843863 -69.832822 
L 73.84385 -69.832814 
L 73.843837 -69.832806 
L 73.843824 -69.832798 
L 73.843811 -69.83279 
L 73.843797 -69.832782 
L 73.843784 -69.832774 
L 73.843771 -69.832766 
L 73.843758 -69.832758 
L 73.843745 -69.832751 
L 73.843732 -69.832743 
L 73.843718 -69.832735 
L 73.843705 -69.832727 
L 73.843692 -69.832719 
L 73.843679 -69.832711 
L 73.843666 -69.832703 
L 73.843653 -69.832695 
L 73.84364 -69.832687 
L 73.843626 -69.832679 
L 73.843613 -69.832672 
L 73.8436 -69.832664 
L 73.843587 -69.832656 
L 73.843574 -69.832648 
L 73.843561 -69.83264 
L 73.843548 -69.832632 
L 73.843534 -69.832624 
L 73.843521 -69.832616 
L 73.843508 -69.832608 
L 73.843495 -69.832601 
L 73.843482 -69.832593 
L 73.843469 -69.832585 
L 73.843456 -69.832577 
L 73.843442 -69.832569 
L 73.843429 -69.832561 
L 73.843416 -69.832553 
L 73.843403 -69.832545 
L 73.84339 -69.832537 
L 73.843377 -69.832529 
L 73.843363 -69.832522 
L 73.84335 -69.832514 
L 73.843337 -69.832506 
L 73.843324 -69.832498 
L 73.843311 -69.83249 
L 73.843298 -69.832482 
L 73.843285 -69.832474 
L 73.843271 -69.832466 
L 73.843258 -69.832458 
L 73.843245 -69.832451 
L 73.843232 -69.832443 
L 73.843219 -69.832435 
L 73.843206 -69.832427 
L 73.843193 -69.832419 
L 73.843179 -69.832411 
L 73.843166 -69.832403 
L 73.843153 -69.832395 
L 73.84314 -69.832387 
L 73.843127 -69.832379 
L 73.843114 -69.832372 
L 73.843101 -69.832364 
L 73.843087 -69.832356 
L 73.843074 -69.832348 
L 73.843061 -69.83234 
L 73.843048 -69.832332 
L 73.843035 -69.832324 
L 73.843022 -69.832316 
L 73.843009 -69.832308 
L 73.842995 -69.832301 
L 73.842982 -69.832293 
L 73.842969 -69.832285 
L 73.842956 -69.832277 
L 73.842943 -69.832269 
L 73.84293 -69.832261 
L 73.842916 -69.832253 
L 73.842903 -69.832245 
L 73.84289 -69.832237 
L 73.842877 -69.832229 
L 73.842864 -69.832222 
L 73.842851 -69.832214 
L 73.842838 -69.832206 
L 73.842824 -69.832198 
L 73.842811 -69.83219 
L 73.842798 -69.832182 
L 73.842785 -69.832174 
L 73.842772 -69.832166 
L 73.842759 -69.832158 
L 73.842746 -69.832151 
L 73.842732 -69.832143 
L 73.842719 -69.832135 
L 73.842706 -69.832127 
L 73.842693 -69.832119 
L 73.84268 -69.832111 
L 73.842667 -69.832103 
L 73.842654 -69.832095 
L 73.84264 -69.832087 
L 73.842627 -69.832079 
L 73.842614 -69.832072 
L 73.842601 -69.832064 
L 73.842588 -69.832056 
L 73.842575 -69.832048 
L 73.842562 -69.83204 
L 73.842548 -69.832032 
L 73.842535 -69.832024 
L 73.842522 -69.832016 
L 73.842509 -69.832008 
L 73.842496 -69.832001 
L 73.842483 -69.831993 
L 73.842469 -69.831985 
L 73.842456 -69.831977 
L 73.842443 -69.831969 
L 73.84243 -69.831961 
L 73.842417 -69.831953 
L 73.842404 -69.831945 
L 73.842391 -69.831937 
L 73.842377 -69.831929 
L 73.842364 -69.831922 
L 73.842351 -69.831914 
L 73.842338 -69.831906 
L 73.842325 -69.831898 
L 73.842312 -69.83189 
L 73.842299 -69.831882 
L 73.842285 -69.831874 
L 73.842272 -69.831866 
L 73.842259 -69.831858 
L 73.842246 -69.831851 
L 73.842233 -69.831843 
L 73.84222 -69.831835 
L 73.842207 -69.831827 
L 73.842193 -69.831819 
L 73.84218 -69.831811 
L 73.842167 -69.831803 
L 73.842154 -69.831795 
L 73.842141 -69.831787 
L 73.842128 -69.831779 
L 73.842114 -69.831772 
L 73.842101 -69.831764 
L 73.842088 -69.831756 
L 73.842075 -69.831748 
L 73.842062 -69.83174 
L 73.842049 -69.831732 
L 73.842036 -69.831724 
L 73.842022 -69.831716 
L 73.842009 -69.831708 
L 73.841996 -69.831701 
L 73.841983 -69.831693 
L 73.84197 -69.831685 
L 73.841957 -69.831677 
L 73.841944 -69.831669 
L 73.84193 -69.831661 
L 73.841917 -69.831653 
L 73.841904 -69.831645 
L 73.841891 -69.831637 
L 73.841878 -69.831629 
L 73.841865 -69.831622 
L 73.841852 -69.831614 
L 73.841838 -69.831606 
L 73.841825 -69.831598 
L 73.841812 -69.83159 
L 73.841799 -69.831582 
L 73.841786 -69.831574 
L 73.841773 -69.831566 
L 73.84176 -69.831558 
L 73.841746 -69.831551 
L 73.841733 -69.831543 
L 73.84172 -69.831535 
L 73.841707 -69.831527 
L 73.841694 -69.831519 
L 73.841681 -69.831511 
L 73.841667 -69.831503 
L 73.841654 -69.831495 
L 73.841641 -69.831487 
L 73.841628 -69.831479 
L 73.841615 -69.831472 
L 73.841602 -69.831464 
L 73.841589 -69.831456 
L 73.841575 -69.831448 
L 73.841562 -69.83144 
L 73.841549 -69.831432 
L 73.841536 -69.831424 
L 73.841523 -69.831416 
L 73.84151 -69.831408 
L 73.841497 -69.831401 
L 73.841483 -69.831393 
L 73.84147 -69.831385 
L 73.841457 -69.831377 
L 73.841444 -69.831369 
L 73.841431 -69.831361 
L 73.841418 -69.831353 
L 73.841405 -69.831345 
L 73.841391 -69.831337 
L 73.841378 -69.831329 
L 73.841365 -69.831322 
L 73.841352 -69.831314 
L 73.841339 -69.831306 
L 73.841326 -69.831298 
L 73.841313 -69.83129 
L 73.841299 -69.831282 
L 73.841286 -69.831274 
L 73.841273 -69.831266 
L 73.84126 -69.831258 
L 73.841247 -69.831251 
L 73.841234 -69.831243 
L 73.84122 -69.831235 
L 73.841207 -69.831227 
L 73.841194 -69.831219 
L 73.841181 -69.831211 
L 73.841168 -69.831203 
L 73.841155 -69.831195 
L 73.841142 -69.831187 
L 73.841128 -69.831179 
L 73.841115 -69.831172 
L 73.841102 -69.831164 
L 73.841089 -69.831156 
L 73.841076 -69.831148 
L 73.841063 -69.83114 
L 73.84105 -69.831132 
L 73.841036 -69.831124 
L 73.841023 -69.831116 
L 73.84101 -69.831108 
L 73.840997 -69.831101 
L 73.840984 -69.831093 
L 73.840971 -69.831085 
L 73.840958 -69.831077 
L 73.840944 -69.831069 
L 73.840931 -69.831061 
L 73.840918 -69.831053 
L 73.840905 -69.831045 
L 73.840892 -69.831037 
L 73.840879 -69.831029 
L 73.840865 -69.831022 
L 73.840852 -69.831014 
L 73.840839 -69.831006 
L 73.840826 -69.830998 
L 73.840813 -69.83099 
L 73.8408 -69.830982 
L 73.840787 -69.830974 
L 73.840773 -69.830966 
L 73.84076 -69.830958 
L 73.840747 -69.830951 
L 73.840734 -69.830943 
L 73.840721 -69.830935 
L 73.840708 -69.830927 
L 73.840695 -69.830919 
L 73.840681 -69.830911 
L 73.840668 -69.830903 
L 73.840655 -69.830895 
L 73.840642 -69.830887 
L 73.840629 -69.830879 
L 73.840616 -69.830872 
L 73.840603 -69.830864 
L 73.840589 -69.830856 
L 73.840576 -69.830848 
L 73.840563 -69.83084 
L 73.84055 -69.830832 
L 73.840537 -69.830824 
L 73.840524 -69.830816 
L 73.840511 -69.830808 
L 73.840497 -69.830801 
L 73.840484 -69.830793 
L 73.840471 -69.830785 
L 73.840458 -69.830777 
L 73.840445 -69.830769 
L 73.840432 -69.830761 
L 73.840418 -69.830753 
L 73.840405 -69.830745 
L 73.840392 -69.830737 
L 73.840379 -69.830729 
L 73.840366 -69.830722 
L 73.840353 -69.830714 
L 73.84034 -69.830706 
L 73.840326 -69.830698 
L 73.840313 -69.83069 
L 73.8403 -69.830682 
L 73.840287 -69.830674 
L 73.840274 -69.830666 
L 73.840261 -69.830658 
L 73.840248 -69.830651 
L 73.840234 -69.830643 
L 73.840221 -69.830635 
L 73.840208 -69.830627 
L 73.840195 -69.830619 
L 73.840182 -69.830611 
L 73.840169 -69.830603 
L 73.840156 -69.830595 
L 73.840142 -69.830587 
L 73.840129 -69.830579 
L 73.840116 -69.830572 
L 73.840103 -69.830564 
L 73.84009 -69.830556 
L 73.840077 -69.830548 
L 73.840064 -69.83054 
L 73.84005 -69.830532 
L 73.840037 -69.830524 
L 73.840024 -69.830516 
L 73.840011 -69.830508 
L 73.839998 -69.830501 
L 73.839985 -69.830493 
L 73.839971 -69.830485 
L 73.839958 -69.830477 
L 73.839945 -69.830469 
L 73.839932 -69.830461 
L 73.839919 -69.830453 
L 73.839906 -69.830445 
L 73.839893 -69.830437 
L 73.839879 -69.830429 
L 73.839866 -69.830422 
L 73.839853 -69.830414 
L 73.83984 -69.830406 
L 73.839827 -69.830398 
L 73.839814 -69.83039 
L 73.839801 -69.830382 
L 73.839787 -69.830374 
L 73.839774 -69.830366 
L 73.839761 -69.830358 
L 73.839748 -69.830351 
L 73.839735 -69.830343 
L 73.839722 -69.830335 
L 73.839709 -69.830327 
L 73.839695 -69.830319 
L 73.839682 -69.830311 
L 73.839669 -69.830303 
L 73.839656 -69.830295 
L 73.839643 -69.830287 
L 73.83963 -69.830279 
L 73.839616 -69.830272 
L 73.839603 -69.830264 
L 73.83959 -69.830256 
L 73.839577 -69.830248 
L 73.839564 -69.83024 
L 73.839551 -69.830232 
L 73.839538 -69.830224 
L 73.839524 -69.830216 
L 73.839511 -69.830208 
L 73.839498 -69.830201 
L 73.839485 -69.830193 
L 73.839472 -69.830185 
L 73.839459 -69.830177 
L 73.839446 -69.830169 
L 73.839432 -69.830161 
L 73.839419 -69.830153 
L 73.839406 -69.830145 
L 73.839393 -69.830137 
L 73.83938 -69.830129 
L 73.839367 -69.830122 
L 73.839354 -69.830114 
L 73.83934 -69.830106 
L 73.839327 -69.830098 
L 73.839314 -69.83009 
L 73.839301 -69.830082 
L 73.839288 -69.830074 
L 73.839275 -69.830066 
L 73.839262 -69.830058 
L 73.839248 -69.830051 
L 73.839235 -69.830043 
L 73.839222 -69.830035 
L 73.839209 -69.830027 
L 73.839196 -69.830019 
L 73.839183 -69.830011 
L 73.839169 -69.830003 
L 73.839156 -69.829995 
L 73.839143 -69.829987 
L 73.83913 -69.829979 
L 73.839117 -69.829972 
L 73.839104 -69.829964 
L 73.839091 -69.829956 
L 73.839077 -69.829948 
L 73.839064 -69.82994 
L 73.839051 -69.829932 
L 73.839038 -69.829924 
L 73.839025 -69.829916 
L 73.839012 -69.829908 
L 73.838999 -69.829901 
L 73.838985 -69.829893 
L 73.838972 -69.829885 
L 73.838959 -69.829877 
L 73.838946 -69.829869 
L 73.838933 -69.829861 
L 73.83892 -69.829853 
L 73.838907 -69.829845 
L 73.838893 -69.829837 
L 73.83888 -69.829829 
L 73.838867 -69.829822 
L 73.838854 -69.829814 
L 73.838841 -69.829806 
L 73.838828 -69.829798 
L 73.838815 -69.82979 
L 73.838801 -69.829782 
L 73.838788 -69.829774 
L 73.838775 -69.829766 
L 73.838762 -69.829758 
L 73.838749 -69.829751 
L 73.838736 -69.829743 
L 73.838722 -69.829735 
L 73.838709 -69.829727 
L 73.838696 -69.829719 
L 73.838683 -69.829711 
L 73.83867 -69.829703 
L 73.838657 -69.829695 
L 73.838644 -69.829687 
L 73.83863 -69.829679 
L 73.838617 -69.829672 
L 73.838604 -69.829664 
L 73.838591 -69.829656 
L 73.838578 -69.829648 
L 73.838565 -69.82964 
L 73.838552 -69.829632 
L 73.838538 -69.829624 
L 73.838525 -69.829616 
L 73.838512 -69.829608 
L 73.838499 -69.829601 
L 73.838486 -69.829593 
L 73.838473 -69.829585 
L 73.83846 -69.829577 
L 73.838446 -69.829569 
L 73.838433 -69.829561 
L 73.83842 -69.829553 
L 73.838407 -69.829545 
L 73.838394 -69.829537 
L 73.838381 -69.829529 
L 73.838367 -69.829522 
L 73.838354 -69.829514 
L 73.838341 -69.829506 
L 73.838328 -69.829498 
L 73.838315 -69.82949 
L 73.838302 -69.829482 
L 73.838289 -69.829474 
L 73.838275 -69.829466 
L 73.838262 -69.829458 
L 73.838249 -69.829451 
L 73.838236 -69.829443 
L 73.838223 -69.829435 
L 73.83821 -69.829427 
L 73.838197 -69.829419 
L 73.838183 -69.829411 
L 73.83817 -69.829403 
L 73.838157 -69.829395 
L 73.838144 -69.829387 
L 73.838131 -69.829379 
L 73.838118 -69.829372 
L 73.838105 -69.829364 
L 73.838091 -69.829356 
L 73.838078 -69.829348 
L 73.838065 -69.82934 
L 73.838052 -69.829332 
L 73.838039 -69.829324 
L 73.838026 -69.829316 
L 73.838013 -69.829308 
L 73.837999 -69.829301 
L 73.837986 -69.829293 
L 73.837973 -69.829285 
L 73.83796 -69.829277 
L 73.837947 -69.829269 
L 73.837934 -69.829261 
L 73.83792 -69.829253 
L 73.837907 -69.829245 
L 73.837894 -69.829237 
L 73.837881 -69.829229 
L 73.837868 -69.829222 
L 73.837855 -69.829214 
L 73.837842 -69.829206 
L 73.837828 -69.829198 
L 73.837815 -69.82919 
L 73.837802 -69.829182 
L 73.837789 -69.829174 
L 73.837776 -69.829166 
L 73.837763 -69.829158 
L 73.83775 -69.829151 
L 73.837736 -69.829143 
L 73.837723 -69.829135 
L 73.83771 -69.829127 
L 73.837697 -69.829119 
L 73.837684 -69.829111 
L 73.837671 -69.829103 
L 73.837658 -69.829095 
L 73.837644 -69.829087 
L 73.837631 -69.829079 
L 73.837618 -69.829072 
L 73.837605 -69.829064 
L 73.837592 -69.829056 
L 73.837579 -69.829048 
L 73.837566 -69.82904 
L 73.837552 -69.829032 
L 73.837539 -69.829024 
L 73.837526 -69.829016 
L 73.837513 -69.829008 
L 73.8375 -69.829001 
L 73.837487 -69.828993 
L 73.837473 -69.828985 
L 73.83746 -69.828977 
L 73.837447 -69.828969 
L 73.837434 -69.828961 
L 73.837421 -69.828953 
L 73.837408 -69.828945 
L 73.837395 -69.828937 
L 73.837381 -69.828929 
L 73.837368 -69.828922 
L 73.837355 -69.828914 
L 73.837342 -69.828906 
L 73.837329 -69.828898 
L 73.837316 -69.82889 
L 73.837303 -69.828882 
L 73.837289 -69.828874 
L 73.837276 -69.828866 
L 73.837263 -69.828858 
L 73.83725 -69.828851 
L 73.837237 -69.828843 
L 73.837224 -69.828835 
L 73.837211 -69.828827 
L 73.837197 -69.828819 
L 73.837184 -69.828811 
L 73.837171 -69.828803 
L 73.837158 -69.828795 
L 73.837145 -69.828787 
L 73.837132 -69.828779 
L 73.837118 -69.828772 
L 73.837105 -69.828764 
L 73.837092 -69.828756 
L 73.837079 -69.828748 
L 73.837066 -69.82874 
L 73.837053 -69.828732 
L 73.83704 -69.828724 
L 73.837026 -69.828716 
L 73.837013 -69.828708 
L 73.837 -69.828701 
L 73.836987 -69.828693 
L 73.836974 -69.828685 
L 73.836961 -69.828677 
L 73.836948 -69.828669 
L 73.836934 -69.828661 
L 73.836921 -69.828653 
L 73.836908 -69.828645 
L 73.836895 -69.828637 
L 73.836882 -69.828629 
L 73.836869 -69.828622 
L 73.836856 -69.828614 
L 73.836842 -69.828606 
L 73.836829 -69.828598 
L 73.836816 -69.82859 
L 73.836803 -69.828582 
L 73.83679 -69.828574 
L 73.836777 -69.828566 
L 73.836764 -69.828558 
L 73.83675 -69.828551 
L 73.836737 -69.828543 
L 73.836724 -69.828535 
L 73.836711 -69.828527 
L 73.836698 -69.828519 
L 73.836685 -69.828511 
L 73.836671 -69.828503 
L 73.836658 -69.828495 
L 73.836645 -69.828487 
L 73.836632 -69.828479 
L 73.836619 -69.828472 
L 73.836606 -69.828464 
L 73.836593 -69.828456 
L 73.836579 -69.828448 
L 73.836566 -69.82844 
L 73.836553 -69.828432 
L 73.83654 -69.828424 
L 73.836527 -69.828416 
L 73.836514 -69.828408 
L 73.836501 -69.828401 
L 73.836487 -69.828393 
L 73.836474 -69.828385 
L 73.836461 -69.828377 
L 73.836448 -69.828369 
L 73.836435 -69.828361 
L 73.836422 -69.828353 
L 73.836409 -69.828345 
L 73.836395 -69.828337 
L 73.836382 -69.828329 
L 73.836369 -69.828322 
L 73.836356 -69.828314 
L 73.836343 -69.828306 
L 73.83633 -69.828298 
L 73.836317 -69.82829 
L 73.836303 -69.828282 
L 73.83629 -69.828274 
L 73.836277 -69.828266 
L 73.836264 -69.828258 
L 73.836251 -69.828251 
L 73.836238 -69.828243 
L 73.836224 -69.828235 
L 73.836211 -69.828227 
L 73.836198 -69.828219 
L 73.836185 -69.828211 
L 73.836172 -69.828203 
L 73.836159 -69.828195 
L 73.836146 -69.828187 
L 73.836132 -69.828179 
L 73.836119 -69.828172 
L 73.836106 -69.828164 
L 73.836093 -69.828156 
L 73.83608 -69.828148 
L 73.836067 -69.82814 
L 73.836054 -69.828132 
L 73.83604 -69.828124 
L 73.836027 -69.828116 
L 73.836014 -69.828108 
L 73.836001 -69.828101 
L 73.835988 -69.828093 
L 73.835975 -69.828085 
L 73.835962 -69.828077 
L 73.835948 -69.828069 
L 73.835935 -69.828061 
L 73.835922 -69.828053 
L 73.835909 -69.828045 
L 73.835896 -69.828037 
L 73.835883 -69.828029 
L 73.835869 -69.828022 
L 73.835856 -69.828014 
L 73.835843 -69.828006 
L 73.83583 -69.827998 
L 73.835817 -69.82799 
L 73.835804 -69.827982 
L 73.835791 -69.827974 
L 73.835777 -69.827966 
L 73.835764 -69.827958 
L 73.835751 -69.827951 
L 73.835738 -69.827943 
L 73.835725 -69.827935 
L 73.835712 -69.827927 
L 73.835699 -69.827919 
L 73.835685 -69.827911 
L 73.835672 -69.827903 
L 73.835659 -69.827895 
L 73.835646 -69.827887 
L 73.835633 -69.827879 
L 73.83562 -69.827872 
L 73.835607 -69.827864 
L 73.835593 -69.827856 
L 73.83558 -69.827848 
L 73.835567 -69.82784 
L 73.835554 -69.827832 
L 73.835541 -69.827824 
L 73.835528 -69.827816 
L 73.835515 -69.827808 
L 73.835501 -69.827801 
L 73.835488 -69.827793 
L 73.835475 -69.827785 
L 73.835462 -69.827777 
L 73.835449 -69.827769 
L 73.835436 -69.827761 
L 73.835422 -69.827753 
L 73.835409 -69.827745 
L 73.835396 -69.827737 
L 73.835383 -69.827729 
L 73.83537 -69.827722 
L 73.835357 -69.827714 
L 73.835344 -69.827706 
L 73.83533 -69.827698 
L 73.835317 -69.82769 
L 73.835304 -69.827682 
L 73.835291 -69.827674 
L 73.835278 -69.827666 
L 73.835265 -69.827658 
L 73.835252 -69.827651 
L 73.835238 -69.827643 
L 73.835225 -69.827635 
L 73.835212 -69.827627 
L 73.835199 -69.827619 
L 73.835186 -69.827611 
L 73.835173 -69.827603 
L 73.83516 -69.827595 
L 73.835146 -69.827587 
L 73.835133 -69.827579 
L 73.83512 -69.827572 
L 73.835107 -69.827564 
L 73.835094 -69.827556 
L 73.835081 -69.827548 
L 73.835068 -69.82754 
L 73.835054 -69.827532 
L 73.835041 -69.827524 
L 73.835028 -69.827516 
L 73.835015 -69.827508 
L 73.835002 -69.827501 
L 73.834989 -69.827493 
L 73.834975 -69.827485 
L 73.834962 -69.827477 
L 73.834949 -69.827469 
L 73.834936 -69.827461 
L 73.834923 -69.827453 
L 73.83491 -69.827445 
L 73.834897 -69.827437 
L 73.834883 -69.827429 
L 73.83487 -69.827422 
L 73.834857 -69.827414 
L 73.834844 -69.827406 
L 73.834831 -69.827398 
L 73.834818 -69.82739 
L 73.834805 -69.827382 
L 73.834791 -69.827374 
L 73.834778 -69.827366 
L 73.834765 -69.827358 
L 73.834752 -69.827351 
L 73.834739 -69.827343 
L 73.834726 -69.827335 
L 73.834713 -69.827327 
L 73.834699 -69.827319 
L 73.834686 -69.827311 
L 73.834673 -69.827303 
L 73.83466 -69.827295 
L 73.834647 -69.827287 
L 73.834634 -69.827279 
L 73.83462 -69.827272 
L 73.834607 -69.827264 
L 73.834594 -69.827256 
L 73.834581 -69.827248 
L 73.834568 -69.82724 
L 73.834555 -69.827232 
L 73.834542 -69.827224 
L 73.834528 -69.827216 
L 73.834515 -69.827208 
L 73.834502 -69.827201 
L 73.834489 -69.827193 
L 73.834476 -69.827185 
L 73.834463 -69.827177 
L 73.83445 -69.827169 
L 73.834436 -69.827161 
L 73.834423 -69.827153 
L 73.83441 -69.827145 
L 73.834397 -69.827137 
L 73.834384 -69.827129 
L 73.834371 -69.827122 
L 73.834358 -69.827114 
L 73.834344 -69.827106 
L 73.834331 -69.827098 
L 73.834318 -69.82709 
L 73.834305 -69.827082 
L 73.834292 -69.827074 
L 73.834279 -69.827066 
L 73.834266 -69.827058 
L 73.834252 -69.827051 
L 73.834239 -69.827043 
L 73.834226 -69.827035 
L 73.834213 -69.827027 
L 73.8342 -69.827019 
L 73.834187 -69.827011 
L 73.834173 -69.827003 
L 73.83416 -69.826995 
L 73.834147 -69.826987 
L 73.834134 -69.826979 
L 73.834121 -69.826972 
L 73.834108 -69.826964 
L 73.834095 -69.826956 
L 73.834081 -69.826948 
L 73.834068 -69.82694 
L 73.834055 -69.826932 
L 73.834042 -69.826924 
L 73.834029 -69.826916 
L 73.834016 -69.826908 
L 73.834003 -69.826901 
L 73.833989 -69.826893 
L 73.833976 -69.826885 
L 73.833963 -69.826877 
L 73.83395 -69.826869 
L 73.833937 -69.826861 
L 73.833924 -69.826853 
L 73.833911 -69.826845 
L 73.833897 -69.826837 
L 73.833884 -69.826829 
L 73.833871 -69.826822 
L 73.833858 -69.826814 
L 73.833845 -69.826806 
L 73.833832 -69.826798 
L 73.833819 -69.82679 
L 73.833805 -69.826782 
L 73.833792 -69.826774 
L 73.833779 -69.826766 
L 73.833766 -69.826758 
L 73.833753 -69.826751 
L 73.83374 -69.826743 
L 73.833726 -69.826735 
L 73.833713 -69.826727 
L 73.8337 -69.826719 
L 73.833687 -69.826711 
L 73.833674 -69.826703 
L 73.833661 -69.826695 
L 73.833648 -69.826687 
L 73.833634 -69.826679 
L 73.833621 -69.826672 
L 73.833608 -69.826664 
L 73.833595 -69.826656 
L 73.833582 -69.826648 
L 73.833569 -69.82664 
L 73.833556 -69.826632 
L 73.833542 -69.826624 
L 73.833529 -69.826616 
L 73.833516 -69.826608 
L 73.833503 -69.826601 
L 73.83349 -69.826593 
L 73.833477 -69.826585 
L 73.833464 -69.826577 
L 73.83345 -69.826569 
L 73.833437 -69.826561 
L 73.833424 -69.826553 
L 73.833411 -69.826545 
L 73.833398 -69.826537 
L 73.833385 -69.826529 
L 73.833371 -69.826522 
L 73.833358 -69.826514 
L 73.833345 -69.826506 
L 73.833332 -69.826498 
L 73.833319 -69.82649 
L 73.833306 -69.826482 
L 73.833293 -69.826474 
L 73.833279 -69.826466 
L 73.833266 -69.826458 
L 73.833253 -69.826451 
L 73.83324 -69.826443 
L 73.833227 -69.826435 
L 73.833214 -69.826427 
L 73.833201 -69.826419 
L 73.833187 -69.826411 
L 73.833174 -69.826403 
L 73.833161 -69.826395 
L 73.833148 -69.826387 
L 73.833135 -69.826379 
L 73.833122 -69.826372 
L 73.833109 -69.826364 
L 73.833095 -69.826356 
L 73.833082 -69.826348 
L 73.833069 -69.82634 
L 73.833056 -69.826332 
L 73.833043 -69.826324 
L 73.83303 -69.826316 
L 73.833017 -69.826308 
L 73.833003 -69.826301 
L 73.83299 -69.826293 
L 73.832977 -69.826285 
L 73.832964 -69.826277 
L 73.832951 -69.826269 
L 73.832938 -69.826261 
L 73.832924 -69.826253 
L 73.832911 -69.826245 
L 73.832898 -69.826237 
L 73.832885 -69.826229 
L 73.832872 -69.826222 
L 73.832859 -69.826214 
L 73.832846 -69.826206 
L 73.832832 -69.826198 
L 73.832819 -69.82619 
L 73.832806 -69.826182 
L 73.832793 -69.826174 
L 73.83278 -69.826166 
L 73.832767 -69.826158 
L 73.832754 -69.826151 
L 73.83274 -69.826143 
L 73.832727 -69.826135 
z
" style="stroke: #1f77b4; stroke-opacity: 0.5"/>
    </defs>
    <g clip-path="url(#pcd9580d860)">
     <use xlink:href="#ma078c8cc03" x="0" y="345.6" style="fill: #1f77b4; fill-opacity: 0.5; stroke: #1f77b4; stroke-opacity: 0.5"/>
    </g>
   </g>
   <g id="line2d_27">
    <path d="M 73.832727 285.630933 
L 73.845861 285.622104 
L 73.845861 285.622104 
" clip-path="url(#pcd9580d860)" style="fill: none; stroke: #1f77b4; stroke-linecap: square"/>
   </g>
   <g id="LineCollection_1">
    <path d="M 192.126176 208.98846 
L 192.126176 203.509598 
" clip-path="url(#pcd9580d860)" style="fill: none; stroke: #ff7f0e"/>
    <path d="M 278.267735 155.462713 
L 278.267735 133.559507 
" clip-path="url(#pcd9580d860)" style="fill: none; stroke: #ff7f0e"/>
    <path d="M 398.487273 89.573502 
L 398.487273 53.568 
" clip-path="url(#pcd9580d860)" style="fill: none; stroke: #ff7f0e"/>
   </g>
   <g id="line2d_28">
    <defs>
     <path id="m5660c7d1a9" d="M 1.5 0 
L -1.5 -0 
" style="stroke: #ff7f0e"/>
    </defs>
    <g clip-path="url(#pcd9580d860)">
     <use xlink:href="#m5660c7d1a9" x="192.126176" y="208.98846" style="fill: #ff7f0e; stroke: #ff7f0e"/>
     <use xlink:href="#m5660c7d1a9" x="278.267735" y="155.462713" style="fill: #ff7f0e; stroke: #ff7f0e"/>
     <use xlink:href="#m5660c7d1a9" x="398.487273" y="89.573502" style="fill: #ff7f0e; stroke: #ff7f0e"/>
    </g>
   </g>
   <g id="line2d_29">
    <g clip-path="url(#pcd9580d860)">
     <use xlink:href="#m5660c7d1a9" x="192.126176" y="203.509598" style="fill: #ff7f0e; stroke: #ff7f0e"/>
     <use xlink:href="#m5660c7d1a9" x="278.267735" y="133.559507" style="fill: #ff7f0e; stroke: #ff7f0e"/>
     <use xlink:href="#m5660c7d1a9" x="398.487273" y="53.568" style="fill: #ff7f0e; stroke: #ff7f0e"/>
    </g>
   </g>
   <g id="line2d_30">
    <defs>
     <path id="mb87c2136ba" d="M 0 4 
C 1.060812 4 2.078319 3.578535 2.828427 2.828427 
C 3.578535 2.078319 4 1.060812 4 0 
C 4 -1.060812 3.578535 -2.078319 2.828427 -2.828427 
C 2.078319 -3.578535 1.060812 -4 0 -4 
C -1.060812 -4 -2.078319 -3.578535 -2.828427 -2.828427 
C -3.578535 -2.078319 -4 -1.060812 -4 0 
C -4 1.060812 -3.578535 2.078319 -2.828427 2.828427 
C -2.078319 3.578535 -1.060812 4 0 4 
z
" style="stroke: #ff7f0e"/>
    </defs>
    <g clip-path="url(#pcd9580d860)">
     <use xlink:href="#mb87c2136ba" x="192.126176" y="206.249029" style="fill-opacity: 0; stroke: #ff7f0e"/>
     <use xlink:href="#mb87c2136ba" x="278.267735" y="144.51111" style="fill-opacity: 0; stroke: #ff7f0e"/>
     <use xlink:href="#mb87c2136ba" x="398.487273" y="71.570751" style="fill-opacity: 0; stroke: #ff7f0e"/>
    </g>
   </g>
  </g>
 </g>
 <defs>
  <clipPath id="pcd9580d860">
   <rect x="57.6" y="41.472" width="357.12" height="266.112"/>
  </clipPath>
 </defs>
</svg>
