<?xml version="1.0" encoding="utf-8" standalone="no"?>
<!DOCTYPE svg PUBLIC "-//W3C//DTD SVG 1.1//EN"
  "http://www.w3.org/Graphics/SVG/1.1/DTD/svg11.dtd">
<svg xmlns:xlink="http://www.w3.org/1999/xlink" width="460.8pt" height="345.6pt" viewBox="0 0 460.8 345.6" xmlns="http://www.w3.org/2000/svg" version="1.1">
 <metadata>
  <rdf:RDF xmlns:dc="http://purl.org/dc/elements/1.1/" xmlns:cc="http://creativecommons.org/ns#" xmlns:rdf="http://www.w3.org/1999/02/22-rdf-syntax-ns#">
   <cc:Work>
    <dc:type rdf:resource="http://purl.org/dc/dcmitype/StillImage"/>
    <dc:date>2024-08-09T13:03:52.213547</dc:date>
    <dc:format>image/svg+xml</dc:format>
    <dc:creator>
     <cc:Agent>
      <dc:title>Matplotlib v3.9.1.post1, https://matplotlib.org/</dc:title>
     </cc:Agent>
    </dc:creator>
   </cc:Work>
  </rdf:RDF>
 </metadata>
 <defs>
  <style type="text/css">*{stroke-linejoin: round; stroke-linecap: butt}</style>
 </defs>
 <g id="figure_1">
  <g id="patch_1">
   <path d="M 0 345.6 
L 460.8 345.6 
L 460.8 0 
L 0 0 
z
" style="fill: #ffffff"/>
  </g>
  <g id="axes_1">
   <g id="patch_2">
    <path d="M 57.6 307.584 
L 414.72 307.584 
L 414.72 41.472 
L 57.6 41.472 
z
" style="fill: #ffffff"/>
   </g>
   <g id="patch_3">
    <path d="M 213.758836 307.584 
L 214.408145 307.584 
L 214.408145 41.472 
L 213.758836 41.472 
z
" clip-path="url(#p0ea705d21b)" style="fill: #440154; opacity: 0.3; stroke: #440154; stroke-linejoin: miter"/>
   </g>
   <g id="matplotlib.axis_1">
    <g id="xtick_1">
     <g id="line2d_1">
      <defs>
       <path id="m35589b6067" d="M 0 0 
L 0 -3.5 
" style="stroke: #000000; stroke-width: 0.8"/>
      </defs>
      <g>
       <use xlink:href="#m35589b6067" x="76.051781" y="307.584" style="stroke: #000000; stroke-width: 0.8"/>
      </g>
     </g>
     <g id="line2d_2">
      <defs>
       <path id="m042d564cbe" d="M 0 0 
L 0 3.5 
" style="stroke: #000000; stroke-width: 0.8"/>
      </defs>
      <g>
       <use xlink:href="#m042d564cbe" x="76.051781" y="41.472" style="stroke: #000000; stroke-width: 0.8"/>
      </g>
     </g>
     <g id="text_1">
      <!-- 200 -->
      <g transform="translate(64.599281 320.202125) scale(0.12 -0.12)">
       <defs>
        <path id="DejaVuSans-32" d="M 1228 531 
L 3431 531 
L 3431 0 
L 469 0 
L 469 531 
Q 828 903 1448 1529 
Q 2069 2156 2228 2338 
Q 2531 2678 2651 2914 
Q 2772 3150 2772 3378 
Q 2772 3750 2511 3984 
Q 2250 4219 1831 4219 
Q 1534 4219 1204 4116 
Q 875 4013 500 3803 
L 500 4441 
Q 881 4594 1212 4672 
Q 1544 4750 1819 4750 
Q 2544 4750 2975 4387 
Q 3406 4025 3406 3419 
Q 3406 3131 3298 2873 
Q 3191 2616 2906 2266 
Q 2828 2175 2409 1742 
Q 1991 1309 1228 531 
z
" transform="scale(0.015625)"/>
        <path id="DejaVuSans-30" d="M 2034 4250 
Q 1547 4250 1301 3770 
Q 1056 3291 1056 2328 
Q 1056 1369 1301 889 
Q 1547 409 2034 409 
Q 2525 409 2770 889 
Q 3016 1369 3016 2328 
Q 3016 3291 2770 3770 
Q 2525 4250 2034 4250 
z
M 2034 4750 
Q 2819 4750 3233 4129 
Q 3647 3509 3647 2328 
Q 3647 1150 3233 529 
Q 2819 -91 2034 -91 
Q 1250 -91 836 529 
Q 422 1150 422 2328 
Q 422 3509 836 4129 
Q 1250 4750 2034 4750 
z
" transform="scale(0.015625)"/>
       </defs>
       <use xlink:href="#DejaVuSans-32"/>
       <use xlink:href="#DejaVuSans-30" x="63.623047"/>
       <use xlink:href="#DejaVuSans-30" x="127.246094"/>
      </g>
     </g>
    </g>
    <g id="xtick_2">
     <g id="line2d_3">
      <g>
       <use xlink:href="#m35589b6067" x="134.244071" y="307.584" style="stroke: #000000; stroke-width: 0.8"/>
      </g>
     </g>
     <g id="line2d_4">
      <g>
       <use xlink:href="#m042d564cbe" x="134.244071" y="41.472" style="stroke: #000000; stroke-width: 0.8"/>
      </g>
     </g>
     <g id="text_2">
      <!-- 250 -->
      <g transform="translate(122.791571 320.202125) scale(0.12 -0.12)">
       <defs>
        <path id="DejaVuSans-35" d="M 691 4666 
L 3169 4666 
L 3169 4134 
L 1269 4134 
L 1269 2991 
Q 1406 3038 1543 3061 
Q 1681 3084 1819 3084 
Q 2600 3084 3056 2656 
Q 3513 2228 3513 1497 
Q 3513 744 3044 326 
Q 2575 -91 1722 -91 
Q 1428 -91 1123 -41 
Q 819 9 494 109 
L 494 744 
Q 775 591 1075 516 
Q 1375 441 1709 441 
Q 2250 441 2565 725 
Q 2881 1009 2881 1497 
Q 2881 1984 2565 2268 
Q 2250 2553 1709 2553 
Q 1456 2553 1204 2497 
Q 953 2441 691 2322 
L 691 4666 
z
" transform="scale(0.015625)"/>
       </defs>
       <use xlink:href="#DejaVuSans-32"/>
       <use xlink:href="#DejaVuSans-35" x="63.623047"/>
       <use xlink:href="#DejaVuSans-30" x="127.246094"/>
      </g>
     </g>
    </g>
    <g id="xtick_3">
     <g id="line2d_5">
      <g>
       <use xlink:href="#m35589b6067" x="192.436361" y="307.584" style="stroke: #000000; stroke-width: 0.8"/>
      </g>
     </g>
     <g id="line2d_6">
      <g>
       <use xlink:href="#m042d564cbe" x="192.436361" y="41.472" style="stroke: #000000; stroke-width: 0.8"/>
      </g>
     </g>
     <g id="text_3">
      <!-- 300 -->
      <g transform="translate(180.983861 320.202125) scale(0.12 -0.12)">
       <defs>
        <path id="DejaVuSans-33" d="M 2597 2516 
Q 3050 2419 3304 2112 
Q 3559 1806 3559 1356 
Q 3559 666 3084 287 
Q 2609 -91 1734 -91 
Q 1441 -91 1130 -33 
Q 819 25 488 141 
L 488 750 
Q 750 597 1062 519 
Q 1375 441 1716 441 
Q 2309 441 2620 675 
Q 2931 909 2931 1356 
Q 2931 1769 2642 2001 
Q 2353 2234 1838 2234 
L 1294 2234 
L 1294 2753 
L 1863 2753 
Q 2328 2753 2575 2939 
Q 2822 3125 2822 3475 
Q 2822 3834 2567 4026 
Q 2313 4219 1838 4219 
Q 1578 4219 1281 4162 
Q 984 4106 628 3988 
L 628 4550 
Q 988 4650 1302 4700 
Q 1616 4750 1894 4750 
Q 2613 4750 3031 4423 
Q 3450 4097 3450 3541 
Q 3450 3153 3228 2886 
Q 3006 2619 2597 2516 
z
" transform="scale(0.015625)"/>
       </defs>
       <use xlink:href="#DejaVuSans-33"/>
       <use xlink:href="#DejaVuSans-30" x="63.623047"/>
       <use xlink:href="#DejaVuSans-30" x="127.246094"/>
      </g>
     </g>
    </g>
    <g id="xtick_4">
     <g id="line2d_7">
      <g>
       <use xlink:href="#m35589b6067" x="250.628652" y="307.584" style="stroke: #000000; stroke-width: 0.8"/>
      </g>
     </g>
     <g id="line2d_8">
      <g>
       <use xlink:href="#m042d564cbe" x="250.628652" y="41.472" style="stroke: #000000; stroke-width: 0.8"/>
      </g>
     </g>
     <g id="text_4">
      <!-- 350 -->
      <g transform="translate(239.176152 320.202125) scale(0.12 -0.12)">
       <use xlink:href="#DejaVuSans-33"/>
       <use xlink:href="#DejaVuSans-35" x="63.623047"/>
       <use xlink:href="#DejaVuSans-30" x="127.246094"/>
      </g>
     </g>
    </g>
    <g id="xtick_5">
     <g id="line2d_9">
      <g>
       <use xlink:href="#m35589b6067" x="308.820942" y="307.584" style="stroke: #000000; stroke-width: 0.8"/>
      </g>
     </g>
     <g id="line2d_10">
      <g>
       <use xlink:href="#m042d564cbe" x="308.820942" y="41.472" style="stroke: #000000; stroke-width: 0.8"/>
      </g>
     </g>
     <g id="text_5">
      <!-- 400 -->
      <g transform="translate(297.368442 320.202125) scale(0.12 -0.12)">
       <defs>
        <path id="DejaVuSans-34" d="M 2419 4116 
L 825 1625 
L 2419 1625 
L 2419 4116 
z
M 2253 4666 
L 3047 4666 
L 3047 1625 
L 3713 1625 
L 3713 1100 
L 3047 1100 
L 3047 0 
L 2419 0 
L 2419 1100 
L 313 1100 
L 313 1709 
L 2253 4666 
z
" transform="scale(0.015625)"/>
       </defs>
       <use xlink:href="#DejaVuSans-34"/>
       <use xlink:href="#DejaVuSans-30" x="63.623047"/>
       <use xlink:href="#DejaVuSans-30" x="127.246094"/>
      </g>
     </g>
    </g>
    <g id="xtick_6">
     <g id="line2d_11">
      <g>
       <use xlink:href="#m35589b6067" x="367.013232" y="307.584" style="stroke: #000000; stroke-width: 0.8"/>
      </g>
     </g>
     <g id="line2d_12">
      <g>
       <use xlink:href="#m042d564cbe" x="367.013232" y="41.472" style="stroke: #000000; stroke-width: 0.8"/>
      </g>
     </g>
     <g id="text_6">
      <!-- 450 -->
      <g transform="translate(355.560732 320.202125) scale(0.12 -0.12)">
       <use xlink:href="#DejaVuSans-34"/>
       <use xlink:href="#DejaVuSans-35" x="63.623047"/>
       <use xlink:href="#DejaVuSans-30" x="127.246094"/>
      </g>
     </g>
    </g>
   </g>
   <g id="matplotlib.axis_2">
    <g id="ytick_1">
     <g id="line2d_13">
      <defs>
       <path id="m8a367bc530" d="M 0 0 
L 3.5 0 
" style="stroke: #000000; stroke-width: 0.8"/>
      </defs>
      <g>
       <use xlink:href="#m8a367bc530" x="57.6" y="261.671285" style="stroke: #000000; stroke-width: 0.8"/>
      </g>
     </g>
     <g id="line2d_14">
      <defs>
       <path id="m218ecbd627" d="M 0 0 
L -3.5 0 
" style="stroke: #000000; stroke-width: 0.8"/>
      </defs>
      <g>
       <use xlink:href="#m218ecbd627" x="414.72" y="261.671285" style="stroke: #000000; stroke-width: 0.8"/>
      </g>
     </g>
     <g id="text_7">
      <!-- 0.005 -->
      <g transform="translate(19.74625 266.230348) scale(0.12 -0.12)">
       <defs>
        <path id="DejaVuSans-2e" d="M 684 794 
L 1344 794 
L 1344 0 
L 684 0 
L 684 794 
z
" transform="scale(0.015625)"/>
       </defs>
       <use xlink:href="#DejaVuSans-30"/>
       <use xlink:href="#DejaVuSans-2e" x="63.623047"/>
       <use xlink:href="#DejaVuSans-30" x="95.410156"/>
       <use xlink:href="#DejaVuSans-30" x="159.033203"/>
       <use xlink:href="#DejaVuSans-35" x="222.65625"/>
      </g>
     </g>
    </g>
    <g id="ytick_2">
     <g id="line2d_15">
      <g>
       <use xlink:href="#m8a367bc530" x="57.6" y="213.205118" style="stroke: #000000; stroke-width: 0.8"/>
      </g>
     </g>
     <g id="line2d_16">
      <g>
       <use xlink:href="#m218ecbd627" x="414.72" y="213.205118" style="stroke: #000000; stroke-width: 0.8"/>
      </g>
     </g>
     <g id="text_8">
      <!-- 0.010 -->
      <g transform="translate(19.74625 217.76418) scale(0.12 -0.12)">
       <defs>
        <path id="DejaVuSans-31" d="M 794 531 
L 1825 531 
L 1825 4091 
L 703 3866 
L 703 4441 
L 1819 4666 
L 2450 4666 
L 2450 531 
L 3481 531 
L 3481 0 
L 794 0 
L 794 531 
z
" transform="scale(0.015625)"/>
       </defs>
       <use xlink:href="#DejaVuSans-30"/>
       <use xlink:href="#DejaVuSans-2e" x="63.623047"/>
       <use xlink:href="#DejaVuSans-30" x="95.410156"/>
       <use xlink:href="#DejaVuSans-31" x="159.033203"/>
       <use xlink:href="#DejaVuSans-30" x="222.65625"/>
      </g>
     </g>
    </g>
    <g id="ytick_3">
     <g id="line2d_17">
      <g>
       <use xlink:href="#m8a367bc530" x="57.6" y="164.738951" style="stroke: #000000; stroke-width: 0.8"/>
      </g>
     </g>
     <g id="line2d_18">
      <g>
       <use xlink:href="#m218ecbd627" x="414.72" y="164.738951" style="stroke: #000000; stroke-width: 0.8"/>
      </g>
     </g>
     <g id="text_9">
      <!-- 0.015 -->
      <g transform="translate(19.74625 169.298013) scale(0.12 -0.12)">
       <use xlink:href="#DejaVuSans-30"/>
       <use xlink:href="#DejaVuSans-2e" x="63.623047"/>
       <use xlink:href="#DejaVuSans-30" x="95.410156"/>
       <use xlink:href="#DejaVuSans-31" x="159.033203"/>
       <use xlink:href="#DejaVuSans-35" x="222.65625"/>
      </g>
     </g>
    </g>
    <g id="ytick_4">
     <g id="line2d_19">
      <g>
       <use xlink:href="#m8a367bc530" x="57.6" y="116.272784" style="stroke: #000000; stroke-width: 0.8"/>
      </g>
     </g>
     <g id="line2d_20">
      <g>
       <use xlink:href="#m218ecbd627" x="414.72" y="116.272784" style="stroke: #000000; stroke-width: 0.8"/>
      </g>
     </g>
     <g id="text_10">
      <!-- 0.020 -->
      <g transform="translate(19.74625 120.831846) scale(0.12 -0.12)">
       <use xlink:href="#DejaVuSans-30"/>
       <use xlink:href="#DejaVuSans-2e" x="63.623047"/>
       <use xlink:href="#DejaVuSans-30" x="95.410156"/>
       <use xlink:href="#DejaVuSans-32" x="159.033203"/>
       <use xlink:href="#DejaVuSans-30" x="222.65625"/>
      </g>
     </g>
    </g>
    <g id="ytick_5">
     <g id="line2d_21">
      <g>
       <use xlink:href="#m8a367bc530" x="57.6" y="67.806617" style="stroke: #000000; stroke-width: 0.8"/>
      </g>
     </g>
     <g id="line2d_22">
      <g>
       <use xlink:href="#m218ecbd627" x="414.72" y="67.806617" style="stroke: #000000; stroke-width: 0.8"/>
      </g>
     </g>
     <g id="text_11">
      <!-- 0.025 -->
      <g transform="translate(19.74625 72.365679) scale(0.12 -0.12)">
       <use xlink:href="#DejaVuSans-30"/>
       <use xlink:href="#DejaVuSans-2e" x="63.623047"/>
       <use xlink:href="#DejaVuSans-30" x="95.410156"/>
       <use xlink:href="#DejaVuSans-32" x="159.033203"/>
       <use xlink:href="#DejaVuSans-35" x="222.65625"/>
      </g>
     </g>
    </g>
   </g>
   <g id="patch_4">
    <path d="M 57.6 307.584 
L 57.6 41.472 
" style="fill: none; stroke: #000000; stroke-width: 0.8; stroke-linejoin: miter; stroke-linecap: square"/>
   </g>
   <g id="patch_5">
    <path d="M 414.72 307.584 
L 414.72 41.472 
" style="fill: none; stroke: #000000; stroke-width: 0.8; stroke-linejoin: miter; stroke-linecap: square"/>
   </g>
   <g id="patch_6">
    <path d="M 57.6 307.584 
L 414.72 307.584 
" style="fill: none; stroke: #000000; stroke-width: 0.8; stroke-linejoin: miter; stroke-linecap: square"/>
   </g>
   <g id="patch_7">
    <path d="M 57.6 41.472 
L 414.72 41.472 
" style="fill: none; stroke: #000000; stroke-width: 0.8; stroke-linejoin: miter; stroke-linecap: square"/>
   </g>
   <g id="line2d_23"/>
   <g id="line2d_24">
    <path d="M 73.832727 295.411703 
L 95.259927 294.911422 
L 106.622836 294.420693 
L 116.362473 293.77817 
L 124.803491 293.005037 
L 132.5952 292.077482 
L 147.204655 290.022565 
L 155.321018 289.03428 
L 165.385309 287.904872 
L 168.631855 287.241727 
L 171.229091 286.494509 
L 173.826327 285.501946 
L 176.098909 284.393937 
L 178.371491 283.028225 
L 180.644073 281.372207 
L 182.592 279.696993 
L 184.864582 277.419272 
L 187.137164 274.792002 
L 189.409745 271.823149 
L 192.006982 268.022172 
L 194.604218 263.797436 
L 197.201455 259.160881 
L 200.123345 253.467373 
L 203.045236 247.284771 
L 206.291782 239.862263 
L 209.538327 231.882432 
L 214.408145 219.220442 
L 219.602618 205.843223 
L 222.524509 198.85075 
L 225.121745 193.193116 
L 227.394327 188.771112 
L 229.666909 184.817291 
L 231.939491 181.285558 
L 234.212073 178.129822 
L 236.809309 174.924542 
L 239.406545 172.081353 
L 242.328436 169.229909 
L 245.574982 166.377833 
L 250.4448 162.438245 
L 266.028218 150.220763 
L 282.5856 137.523849 
L 300.4416 124.117831 
L 319.920873 109.779645 
L 341.672727 94.050672 
L 368.2944 75.087506 
L 398.487273 53.781549 
L 398.487273 53.781549 
" clip-path="url(#p0ea705d21b)" style="fill: none; stroke: #440154; stroke-linecap: square"/>
   </g>
   <g id="LineCollection_1">
    <path d="M 73.832727 295.488 
L 73.832727 295.335406 
" clip-path="url(#p0ea705d21b)" style="fill: none; stroke: #440154"/>
    <path d="M 130.179521 292.470432 
L 130.179521 292.306412 
" clip-path="url(#p0ea705d21b)" style="fill: none; stroke: #440154"/>
    <path d="M 156.082558 289.078936 
L 156.082558 288.834767 
" clip-path="url(#p0ea705d21b)" style="fill: none; stroke: #440154"/>
    <path d="M 182.968687 279.495217 
L 182.968687 279.192655 
" clip-path="url(#p0ea705d21b)" style="fill: none; stroke: #440154"/>
    <path d="M 208.385149 235.27373 
L 208.385149 234.282435 
" clip-path="url(#p0ea705d21b)" style="fill: none; stroke: #440154"/>
    <path d="M 224.875603 194.003834 
L 224.875603 193.400377 
" clip-path="url(#p0ea705d21b)" style="fill: none; stroke: #440154"/>
    <path d="M 250.172501 162.813226 
L 250.172501 162.495219 
" clip-path="url(#p0ea705d21b)" style="fill: none; stroke: #440154"/>
    <path d="M 398.487273 53.995098 
L 398.487273 53.568 
" clip-path="url(#p0ea705d21b)" style="fill: none; stroke: #440154"/>
   </g>
   <g id="line2d_25">
    <defs>
     <path id="m216c1d4f5a" d="M 1.5 0 
L -1.5 -0 
" style="stroke: #440154"/>
    </defs>
    <g clip-path="url(#p0ea705d21b)">
     <use xlink:href="#m216c1d4f5a" x="73.832727" y="295.488" style="fill: #440154; stroke: #440154"/>
     <use xlink:href="#m216c1d4f5a" x="130.179521" y="292.470432" style="fill: #440154; stroke: #440154"/>
     <use xlink:href="#m216c1d4f5a" x="156.082558" y="289.078936" style="fill: #440154; stroke: #440154"/>
     <use xlink:href="#m216c1d4f5a" x="182.968687" y="279.495217" style="fill: #440154; stroke: #440154"/>
     <use xlink:href="#m216c1d4f5a" x="208.385149" y="235.27373" style="fill: #440154; stroke: #440154"/>
     <use xlink:href="#m216c1d4f5a" x="224.875603" y="194.003834" style="fill: #440154; stroke: #440154"/>
     <use xlink:href="#m216c1d4f5a" x="250.172501" y="162.813226" style="fill: #440154; stroke: #440154"/>
     <use xlink:href="#m216c1d4f5a" x="398.487273" y="53.995098" style="fill: #440154; stroke: #440154"/>
    </g>
   </g>
   <g id="line2d_26">
    <g clip-path="url(#p0ea705d21b)">
     <use xlink:href="#m216c1d4f5a" x="73.832727" y="295.335406" style="fill: #440154; stroke: #440154"/>
     <use xlink:href="#m216c1d4f5a" x="130.179521" y="292.306412" style="fill: #440154; stroke: #440154"/>
     <use xlink:href="#m216c1d4f5a" x="156.082558" y="288.834767" style="fill: #440154; stroke: #440154"/>
     <use xlink:href="#m216c1d4f5a" x="182.968687" y="279.192655" style="fill: #440154; stroke: #440154"/>
     <use xlink:href="#m216c1d4f5a" x="208.385149" y="234.282435" style="fill: #440154; stroke: #440154"/>
     <use xlink:href="#m216c1d4f5a" x="224.875603" y="193.400377" style="fill: #440154; stroke: #440154"/>
     <use xlink:href="#m216c1d4f5a" x="250.172501" y="162.495219" style="fill: #440154; stroke: #440154"/>
     <use xlink:href="#m216c1d4f5a" x="398.487273" y="53.568" style="fill: #440154; stroke: #440154"/>
    </g>
   </g>
   <g id="line2d_27">
    <defs>
     <path id="ma7a89e5a67" d="M 0 4 
C 1.060812 4 2.078319 3.578535 2.828427 2.828427 
C 3.578535 2.078319 4 1.060812 4 0 
C 4 -1.060812 3.578535 -2.078319 2.828427 -2.828427 
C 2.078319 -3.578535 1.060812 -4 0 -4 
C -1.060812 -4 -2.078319 -3.578535 -2.828427 -2.828427 
C -3.578535 -2.078319 -4 -1.060812 -4 0 
C -4 1.060812 -3.578535 2.078319 -2.828427 2.828427 
C -2.078319 3.578535 -1.060812 4 0 4 
z
" style="stroke: #440154"/>
    </defs>
    <g clip-path="url(#p0ea705d21b)">
     <use xlink:href="#ma7a89e5a67" x="73.832727" y="295.411703" style="fill-opacity: 0; stroke: #440154"/>
     <use xlink:href="#ma7a89e5a67" x="130.179521" y="292.388422" style="fill-opacity: 0; stroke: #440154"/>
     <use xlink:href="#ma7a89e5a67" x="156.082558" y="288.956851" style="fill-opacity: 0; stroke: #440154"/>
     <use xlink:href="#ma7a89e5a67" x="182.968687" y="279.343936" style="fill-opacity: 0; stroke: #440154"/>
     <use xlink:href="#ma7a89e5a67" x="208.385149" y="234.778082" style="fill-opacity: 0; stroke: #440154"/>
     <use xlink:href="#ma7a89e5a67" x="224.875603" y="193.702105" style="fill-opacity: 0; stroke: #440154"/>
     <use xlink:href="#ma7a89e5a67" x="250.172501" y="162.654222" style="fill-opacity: 0; stroke: #440154"/>
     <use xlink:href="#ma7a89e5a67" x="398.487273" y="53.781549" style="fill-opacity: 0; stroke: #440154"/>
    </g>
   </g>
   <g id="text_12">
    <g id="patch_8">
     <path d="M 346.344 304.358976 
L 400.824 304.358976 
L 400.824 284.825226 
L 346.344 284.825226 
L 346.344 304.358976 
z
" style="fill: none; opacity: 0"/>
    </g>
    <!-- $T$ [MeV] -->
    <g transform="translate(350.304 297.903351) scale(0.12 -0.12)">
     <defs>
      <path id="DejaVuSans-Oblique-54" d="M 378 4666 
L 4325 4666 
L 4225 4134 
L 2559 4134 
L 1759 0 
L 1125 0 
L 1925 4134 
L 275 4134 
L 378 4666 
z
" transform="scale(0.015625)"/>
      <path id="DejaVuSans-20" transform="scale(0.015625)"/>
      <path id="DejaVuSans-5b" d="M 550 4863 
L 1875 4863 
L 1875 4416 
L 1125 4416 
L 1125 -397 
L 1875 -397 
L 1875 -844 
L 550 -844 
L 550 4863 
z
" transform="scale(0.015625)"/>
      <path id="DejaVuSans-4d" d="M 628 4666 
L 1569 4666 
L 2759 1491 
L 3956 4666 
L 4897 4666 
L 4897 0 
L 4281 0 
L 4281 4097 
L 3078 897 
L 2444 897 
L 1241 4097 
L 1241 0 
L 628 0 
L 628 4666 
z
" transform="scale(0.015625)"/>
      <path id="DejaVuSans-65" d="M 3597 1894 
L 3597 1613 
L 953 1613 
Q 991 1019 1311 708 
Q 1631 397 2203 397 
Q 2534 397 2845 478 
Q 3156 559 3463 722 
L 3463 178 
Q 3153 47 2828 -22 
Q 2503 -91 2169 -91 
Q 1331 -91 842 396 
Q 353 884 353 1716 
Q 353 2575 817 3079 
Q 1281 3584 2069 3584 
Q 2775 3584 3186 3129 
Q 3597 2675 3597 1894 
z
M 3022 2063 
Q 3016 2534 2758 2815 
Q 2500 3097 2075 3097 
Q 1594 3097 1305 2825 
Q 1016 2553 972 2059 
L 3022 2063 
z
" transform="scale(0.015625)"/>
      <path id="DejaVuSans-56" d="M 1831 0 
L 50 4666 
L 709 4666 
L 2188 738 
L 3669 4666 
L 4325 4666 
L 2547 0 
L 1831 0 
z
" transform="scale(0.015625)"/>
      <path id="DejaVuSans-5d" d="M 1947 4863 
L 1947 -844 
L 622 -844 
L 622 -397 
L 1369 -397 
L 1369 4416 
L 622 4416 
L 622 4863 
L 1947 4863 
z
" transform="scale(0.015625)"/>
     </defs>
     <use xlink:href="#DejaVuSans-Oblique-54" transform="translate(0 0.015625)"/>
     <use xlink:href="#DejaVuSans-20" transform="translate(61.083984 0.015625)"/>
     <use xlink:href="#DejaVuSans-5b" transform="translate(92.871094 0.015625)"/>
     <use xlink:href="#DejaVuSans-4d" transform="translate(131.884766 0.015625)"/>
     <use xlink:href="#DejaVuSans-65" transform="translate(218.164062 0.015625)"/>
     <use xlink:href="#DejaVuSans-56" transform="translate(279.6875 0.015625)"/>
     <use xlink:href="#DejaVuSans-5d" transform="translate(348.095703 0.015625)"/>
    </g>
   </g>
   <g id="text_13">
    <g id="patch_9">
     <path d="M 62.568 65.003136 
L 95.208 65.003136 
L 95.208 44.963136 
L 62.568 44.963136 
L 62.568 65.003136 
z
" style="fill: none; opacity: 0"/>
    </g>
    <!-- $\langle|P|\rangle$ -->
    <g transform="translate(66.528 58.163136) scale(0.12 -0.12)">
     <defs>
      <path id="DejaVuSans-27e8" d="M 572 2006 
L 1453 4856 
L 1984 4856 
L 1103 2006 
L 1984 -844 
L 1453 -844 
L 572 2006 
z
" transform="scale(0.015625)"/>
      <path id="DejaVuSans-7c" d="M 1344 4891 
L 1344 -1509 
L 813 -1509 
L 813 4891 
L 1344 4891 
z
" transform="scale(0.015625)"/>
      <path id="DejaVuSans-Oblique-50" d="M 1081 4666 
L 2541 4666 
Q 3178 4666 3512 4369 
Q 3847 4072 3847 3500 
Q 3847 2731 3353 2303 
Q 2859 1875 1966 1875 
L 1172 1875 
L 806 0 
L 172 0 
L 1081 4666 
z
M 1613 4147 
L 1275 2394 
L 2069 2394 
Q 2606 2394 2893 2669 
Q 3181 2944 3181 3456 
Q 3181 3784 2986 3965 
Q 2791 4147 2438 4147 
L 1613 4147 
z
" transform="scale(0.015625)"/>
      <path id="DejaVuSans-27e9" d="M 1925 2006 
L 1044 -844 
L 513 -844 
L 1394 2006 
L 513 4856 
L 1044 4856 
L 1925 2006 
z
" transform="scale(0.015625)"/>
     </defs>
     <use xlink:href="#DejaVuSans-27e8" transform="translate(0 0.578125)"/>
     <use xlink:href="#DejaVuSans-7c" transform="translate(39.013672 0.578125)"/>
     <use xlink:href="#DejaVuSans-Oblique-50" transform="translate(72.705078 0.578125)"/>
     <use xlink:href="#DejaVuSans-7c" transform="translate(133.007812 0.578125)"/>
     <use xlink:href="#DejaVuSans-27e9" transform="translate(166.699219 0.578125)"/>
    </g>
   </g>
   <g id="legend_1">
    <g id="patch_10">
     <path d="M 66 185.134875 
L 141.6 185.134875 
Q 144 185.134875 144 182.734875 
L 144 166.321125 
Q 144 163.921125 141.6 163.921125 
L 66 163.921125 
Q 63.6 163.921125 63.6 166.321125 
L 63.6 182.734875 
Q 63.6 185.134875 66 185.134875 
z
" style="fill: #ffffff; stroke: #cccccc; stroke-linejoin: miter"/>
    </g>
    <g id="line2d_28">
     <path d="M 68.4 173.63925 
L 92.4 173.63925 
" style="fill: none; stroke: #440154; stroke-linecap: square"/>
    </g>
    <g id="line2d_29"/>
    <g id="line2d_30"/>
    <g id="line2d_31"/>
    <g id="text_14">
     <!-- $N_\tau=12$ -->
     <g transform="translate(94.8 177.83925) scale(0.12 -0.12)">
      <defs>
       <path id="DejaVuSans-Oblique-4e" d="M 1081 4666 
L 1931 4666 
L 3219 666 
L 4000 4666 
L 4616 4666 
L 3706 0 
L 2853 0 
L 1569 4025 
L 788 0 
L 172 0 
L 1081 4666 
z
" transform="scale(0.015625)"/>
       <path id="DejaVuSans-Oblique-3c4" d="M 2103 638 
Q 2188 488 2525 488 
L 2800 488 
L 2706 0 
L 2363 0 
Q 1800 0 1600 300 
Q 1403 606 1534 1269 
L 1856 2925 
L 541 2925 
L 653 3500 
L 3881 3500 
L 3769 2925 
L 2444 2925 
L 2113 1234 
Q 2025 781 2103 638 
z
" transform="scale(0.015625)"/>
       <path id="DejaVuSans-3d" d="M 678 2906 
L 4684 2906 
L 4684 2381 
L 678 2381 
L 678 2906 
z
M 678 1631 
L 4684 1631 
L 4684 1100 
L 678 1100 
L 678 1631 
z
" transform="scale(0.015625)"/>
      </defs>
      <use xlink:href="#DejaVuSans-Oblique-4e" transform="translate(0 0.78125)"/>
      <use xlink:href="#DejaVuSans-Oblique-3c4" transform="translate(74.804688 -15.625) scale(0.7)"/>
      <use xlink:href="#DejaVuSans-3d" transform="translate(139.165039 0.78125)"/>
      <use xlink:href="#DejaVuSans-31" transform="translate(242.436523 0.78125)"/>
      <use xlink:href="#DejaVuSans-32" transform="translate(306.05957 0.78125)"/>
     </g>
    </g>
   </g>
  </g>
 </g>
 <defs>
  <clipPath id="p0ea705d21b">
   <rect x="57.6" y="41.472" width="357.12" height="266.112"/>
  </clipPath>
 </defs>
</svg>
