<?xml version="1.0" encoding="utf-8" standalone="no"?>
<!DOCTYPE svg PUBLIC "-//W3C//DTD SVG 1.1//EN"
  "http://www.w3.org/Graphics/SVG/1.1/DTD/svg11.dtd">
<svg xmlns:xlink="http://www.w3.org/1999/xlink" width="460.8pt" height="345.6pt" viewBox="0 0 460.8 345.6" xmlns="http://www.w3.org/2000/svg" version="1.1">
 <metadata>
  <rdf:RDF xmlns:dc="http://purl.org/dc/elements/1.1/" xmlns:cc="http://creativecommons.org/ns#" xmlns:rdf="http://www.w3.org/1999/02/22-rdf-syntax-ns#">
   <cc:Work>
    <dc:type rdf:resource="http://purl.org/dc/dcmitype/StillImage"/>
    <dc:date>2024-07-11T16:56:47.396034</dc:date>
    <dc:format>image/svg+xml</dc:format>
    <dc:creator>
     <cc:Agent>
      <dc:title>Matplotlib v3.9.1, https://matplotlib.org/</dc:title>
     </cc:Agent>
    </dc:creator>
   </cc:Work>
  </rdf:RDF>
 </metadata>
 <defs>
  <style type="text/css">*{stroke-linejoin: round; stroke-linecap: butt}</style>
 </defs>
 <g id="figure_1">
  <g id="patch_1">
   <path d="M 0 345.6 
L 460.8 345.6 
L 460.8 0 
L 0 0 
z
" style="fill: #ffffff"/>
  </g>
  <g id="axes_1">
   <g id="patch_2">
    <path d="M 57.6 307.584 
L 414.72 307.584 
L 414.72 41.472 
L 57.6 41.472 
z
" style="fill: #ffffff"/>
   </g>
   <g id="matplotlib.axis_1">
    <g id="xtick_1">
     <g id="line2d_1">
      <defs>
       <path id="mbba73e75ae" d="M 0 0 
L 0 -3.5 
" style="stroke: #000000; stroke-width: 0.8"/>
      </defs>
      <g>
       <use xlink:href="#mbba73e75ae" x="80.243612" y="307.584" style="stroke: #000000; stroke-width: 0.8"/>
      </g>
     </g>
     <g id="line2d_2">
      <defs>
       <path id="mf71bcb3b23" d="M 0 0 
L 0 3.5 
" style="stroke: #000000; stroke-width: 0.8"/>
      </defs>
      <g>
       <use xlink:href="#mf71bcb3b23" x="80.243612" y="41.472" style="stroke: #000000; stroke-width: 0.8"/>
      </g>
     </g>
     <g id="text_1">
      <!-- 50000 -->
      <g transform="translate(65.368977 338.068028) rotate(-30) scale(0.12 -0.12)">
       <defs>
        <path id="DejaVuSans-35" d="M 691 4666 
L 3169 4666 
L 3169 4134 
L 1269 4134 
L 1269 2991 
Q 1406 3038 1543 3061 
Q 1681 3084 1819 3084 
Q 2600 3084 3056 2656 
Q 3513 2228 3513 1497 
Q 3513 744 3044 326 
Q 2575 -91 1722 -91 
Q 1428 -91 1123 -41 
Q 819 9 494 109 
L 494 744 
Q 775 591 1075 516 
Q 1375 441 1709 441 
Q 2250 441 2565 725 
Q 2881 1009 2881 1497 
Q 2881 1984 2565 2268 
Q 2250 2553 1709 2553 
Q 1456 2553 1204 2497 
Q 953 2441 691 2322 
L 691 4666 
z
" transform="scale(0.015625)"/>
        <path id="DejaVuSans-30" d="M 2034 4250 
Q 1547 4250 1301 3770 
Q 1056 3291 1056 2328 
Q 1056 1369 1301 889 
Q 1547 409 2034 409 
Q 2525 409 2770 889 
Q 3016 1369 3016 2328 
Q 3016 3291 2770 3770 
Q 2525 4250 2034 4250 
z
M 2034 4750 
Q 2819 4750 3233 4129 
Q 3647 3509 3647 2328 
Q 3647 1150 3233 529 
Q 2819 -91 2034 -91 
Q 1250 -91 836 529 
Q 422 1150 422 2328 
Q 422 3509 836 4129 
Q 1250 4750 2034 4750 
z
" transform="scale(0.015625)"/>
       </defs>
       <use xlink:href="#DejaVuSans-35"/>
       <use xlink:href="#DejaVuSans-30" x="63.623047"/>
       <use xlink:href="#DejaVuSans-30" x="127.246094"/>
       <use xlink:href="#DejaVuSans-30" x="190.869141"/>
       <use xlink:href="#DejaVuSans-30" x="254.492188"/>
      </g>
     </g>
    </g>
    <g id="xtick_2">
     <g id="line2d_3">
      <g>
       <use xlink:href="#mbba73e75ae" x="128.171874" y="307.584" style="stroke: #000000; stroke-width: 0.8"/>
      </g>
     </g>
     <g id="line2d_4">
      <g>
       <use xlink:href="#mf71bcb3b23" x="128.171874" y="41.472" style="stroke: #000000; stroke-width: 0.8"/>
      </g>
     </g>
     <g id="text_2">
      <!-- 75000 -->
      <g transform="translate(113.297239 338.068028) rotate(-30) scale(0.12 -0.12)">
       <defs>
        <path id="DejaVuSans-37" d="M 525 4666 
L 3525 4666 
L 3525 4397 
L 1831 0 
L 1172 0 
L 2766 4134 
L 525 4134 
L 525 4666 
z
" transform="scale(0.015625)"/>
       </defs>
       <use xlink:href="#DejaVuSans-37"/>
       <use xlink:href="#DejaVuSans-35" x="63.623047"/>
       <use xlink:href="#DejaVuSans-30" x="127.246094"/>
       <use xlink:href="#DejaVuSans-30" x="190.869141"/>
       <use xlink:href="#DejaVuSans-30" x="254.492188"/>
      </g>
     </g>
    </g>
    <g id="xtick_3">
     <g id="line2d_5">
      <g>
       <use xlink:href="#mbba73e75ae" x="176.100136" y="307.584" style="stroke: #000000; stroke-width: 0.8"/>
      </g>
     </g>
     <g id="line2d_6">
      <g>
       <use xlink:href="#mf71bcb3b23" x="176.100136" y="41.472" style="stroke: #000000; stroke-width: 0.8"/>
      </g>
     </g>
     <g id="text_3">
      <!-- 100000 -->
      <g transform="translate(157.919449 341.885528) rotate(-30) scale(0.12 -0.12)">
       <defs>
        <path id="DejaVuSans-31" d="M 794 531 
L 1825 531 
L 1825 4091 
L 703 3866 
L 703 4441 
L 1819 4666 
L 2450 4666 
L 2450 531 
L 3481 531 
L 3481 0 
L 794 0 
L 794 531 
z
" transform="scale(0.015625)"/>
       </defs>
       <use xlink:href="#DejaVuSans-31"/>
       <use xlink:href="#DejaVuSans-30" x="63.623047"/>
       <use xlink:href="#DejaVuSans-30" x="127.246094"/>
       <use xlink:href="#DejaVuSans-30" x="190.869141"/>
       <use xlink:href="#DejaVuSans-30" x="254.492188"/>
       <use xlink:href="#DejaVuSans-30" x="318.115234"/>
      </g>
     </g>
    </g>
    <g id="xtick_4">
     <g id="line2d_7">
      <g>
       <use xlink:href="#mbba73e75ae" x="224.028398" y="307.584" style="stroke: #000000; stroke-width: 0.8"/>
      </g>
     </g>
     <g id="line2d_8">
      <g>
       <use xlink:href="#mf71bcb3b23" x="224.028398" y="41.472" style="stroke: #000000; stroke-width: 0.8"/>
      </g>
     </g>
     <g id="text_4">
      <!-- 125000 -->
      <g transform="translate(205.847711 341.885528) rotate(-30) scale(0.12 -0.12)">
       <defs>
        <path id="DejaVuSans-32" d="M 1228 531 
L 3431 531 
L 3431 0 
L 469 0 
L 469 531 
Q 828 903 1448 1529 
Q 2069 2156 2228 2338 
Q 2531 2678 2651 2914 
Q 2772 3150 2772 3378 
Q 2772 3750 2511 3984 
Q 2250 4219 1831 4219 
Q 1534 4219 1204 4116 
Q 875 4013 500 3803 
L 500 4441 
Q 881 4594 1212 4672 
Q 1544 4750 1819 4750 
Q 2544 4750 2975 4387 
Q 3406 4025 3406 3419 
Q 3406 3131 3298 2873 
Q 3191 2616 2906 2266 
Q 2828 2175 2409 1742 
Q 1991 1309 1228 531 
z
" transform="scale(0.015625)"/>
       </defs>
       <use xlink:href="#DejaVuSans-31"/>
       <use xlink:href="#DejaVuSans-32" x="63.623047"/>
       <use xlink:href="#DejaVuSans-35" x="127.246094"/>
       <use xlink:href="#DejaVuSans-30" x="190.869141"/>
       <use xlink:href="#DejaVuSans-30" x="254.492188"/>
       <use xlink:href="#DejaVuSans-30" x="318.115234"/>
      </g>
     </g>
    </g>
    <g id="xtick_5">
     <g id="line2d_9">
      <g>
       <use xlink:href="#mbba73e75ae" x="271.95666" y="307.584" style="stroke: #000000; stroke-width: 0.8"/>
      </g>
     </g>
     <g id="line2d_10">
      <g>
       <use xlink:href="#mf71bcb3b23" x="271.95666" y="41.472" style="stroke: #000000; stroke-width: 0.8"/>
      </g>
     </g>
     <g id="text_5">
      <!-- 150000 -->
      <g transform="translate(253.775974 341.885528) rotate(-30) scale(0.12 -0.12)">
       <use xlink:href="#DejaVuSans-31"/>
       <use xlink:href="#DejaVuSans-35" x="63.623047"/>
       <use xlink:href="#DejaVuSans-30" x="127.246094"/>
       <use xlink:href="#DejaVuSans-30" x="190.869141"/>
       <use xlink:href="#DejaVuSans-30" x="254.492188"/>
       <use xlink:href="#DejaVuSans-30" x="318.115234"/>
      </g>
     </g>
    </g>
    <g id="xtick_6">
     <g id="line2d_11">
      <g>
       <use xlink:href="#mbba73e75ae" x="319.884923" y="307.584" style="stroke: #000000; stroke-width: 0.8"/>
      </g>
     </g>
     <g id="line2d_12">
      <g>
       <use xlink:href="#mf71bcb3b23" x="319.884923" y="41.472" style="stroke: #000000; stroke-width: 0.8"/>
      </g>
     </g>
     <g id="text_6">
      <!-- 175000 -->
      <g transform="translate(301.704236 341.885528) rotate(-30) scale(0.12 -0.12)">
       <use xlink:href="#DejaVuSans-31"/>
       <use xlink:href="#DejaVuSans-37" x="63.623047"/>
       <use xlink:href="#DejaVuSans-35" x="127.246094"/>
       <use xlink:href="#DejaVuSans-30" x="190.869141"/>
       <use xlink:href="#DejaVuSans-30" x="254.492188"/>
       <use xlink:href="#DejaVuSans-30" x="318.115234"/>
      </g>
     </g>
    </g>
    <g id="xtick_7">
     <g id="line2d_13">
      <g>
       <use xlink:href="#mbba73e75ae" x="367.813185" y="307.584" style="stroke: #000000; stroke-width: 0.8"/>
      </g>
     </g>
     <g id="line2d_14">
      <g>
       <use xlink:href="#mf71bcb3b23" x="367.813185" y="41.472" style="stroke: #000000; stroke-width: 0.8"/>
      </g>
     </g>
     <g id="text_7">
      <!-- 200000 -->
      <g transform="translate(349.632498 341.885528) rotate(-30) scale(0.12 -0.12)">
       <use xlink:href="#DejaVuSans-32"/>
       <use xlink:href="#DejaVuSans-30" x="63.623047"/>
       <use xlink:href="#DejaVuSans-30" x="127.246094"/>
       <use xlink:href="#DejaVuSans-30" x="190.869141"/>
       <use xlink:href="#DejaVuSans-30" x="254.492188"/>
       <use xlink:href="#DejaVuSans-30" x="318.115234"/>
      </g>
     </g>
    </g>
    <g id="text_8">
     <!-- $N_s^3$ -->
     <g transform="translate(228.36 358.966803) scale(0.12 -0.12)">
      <defs>
       <path id="DejaVuSans-Oblique-4e" d="M 1081 4666 
L 1931 4666 
L 3219 666 
L 4000 4666 
L 4616 4666 
L 3706 0 
L 2853 0 
L 1569 4025 
L 788 0 
L 172 0 
L 1081 4666 
z
" transform="scale(0.015625)"/>
       <path id="DejaVuSans-33" d="M 2597 2516 
Q 3050 2419 3304 2112 
Q 3559 1806 3559 1356 
Q 3559 666 3084 287 
Q 2609 -91 1734 -91 
Q 1441 -91 1130 -33 
Q 819 25 488 141 
L 488 750 
Q 750 597 1062 519 
Q 1375 441 1716 441 
Q 2309 441 2620 675 
Q 2931 909 2931 1356 
Q 2931 1769 2642 2001 
Q 2353 2234 1838 2234 
L 1294 2234 
L 1294 2753 
L 1863 2753 
Q 2328 2753 2575 2939 
Q 2822 3125 2822 3475 
Q 2822 3834 2567 4026 
Q 2313 4219 1838 4219 
Q 1578 4219 1281 4162 
Q 984 4106 628 3988 
L 628 4550 
Q 988 4650 1302 4700 
Q 1616 4750 1894 4750 
Q 2613 4750 3031 4423 
Q 3450 4097 3450 3541 
Q 3450 3153 3228 2886 
Q 3006 2619 2597 2516 
z
" transform="scale(0.015625)"/>
       <path id="DejaVuSans-Oblique-73" d="M 3200 3397 
L 3091 2853 
Q 2863 2978 2609 3040 
Q 2356 3103 2088 3103 
Q 1634 3103 1373 2948 
Q 1113 2794 1113 2528 
Q 1113 2219 1719 2053 
Q 1766 2041 1788 2034 
L 1972 1978 
Q 2547 1819 2739 1644 
Q 2931 1469 2931 1166 
Q 2931 609 2489 259 
Q 2047 -91 1331 -91 
Q 1053 -91 747 -37 
Q 441 16 72 128 
L 184 722 
Q 500 559 806 475 
Q 1113 391 1394 391 
Q 1816 391 2080 572 
Q 2344 753 2344 1031 
Q 2344 1331 1650 1516 
L 1591 1531 
L 1394 1581 
Q 956 1697 753 1886 
Q 550 2075 550 2369 
Q 550 2928 970 3256 
Q 1391 3584 2113 3584 
Q 2397 3584 2667 3537 
Q 2938 3491 3200 3397 
z
" transform="scale(0.015625)"/>
      </defs>
      <use xlink:href="#DejaVuSans-Oblique-4e" transform="translate(0 0.765625)"/>
      <use xlink:href="#DejaVuSans-33" transform="translate(81.821458 39.046875) scale(0.7)"/>
      <use xlink:href="#DejaVuSans-Oblique-73" transform="translate(74.804688 -26.578125) scale(0.7)"/>
     </g>
    </g>
   </g>
   <g id="matplotlib.axis_2">
    <g id="ytick_1">
     <g id="line2d_15">
      <defs>
       <path id="m987afc44a0" d="M 0 0 
L 3.5 0 
" style="stroke: #000000; stroke-width: 0.8"/>
      </defs>
      <g>
       <use xlink:href="#m987afc44a0" x="57.6" y="295.848346" style="stroke: #000000; stroke-width: 0.8"/>
      </g>
     </g>
     <g id="line2d_16">
      <defs>
       <path id="m8a68eade60" d="M 0 0 
L -3.5 0 
" style="stroke: #000000; stroke-width: 0.8"/>
      </defs>
      <g>
       <use xlink:href="#m8a68eade60" x="414.72" y="295.848346" style="stroke: #000000; stroke-width: 0.8"/>
      </g>
     </g>
     <g id="text_9">
      <!-- 0.6 -->
      <g transform="translate(35.01625 300.407409) scale(0.12 -0.12)">
       <defs>
        <path id="DejaVuSans-2e" d="M 684 794 
L 1344 794 
L 1344 0 
L 684 0 
L 684 794 
z
" transform="scale(0.015625)"/>
        <path id="DejaVuSans-36" d="M 2113 2584 
Q 1688 2584 1439 2293 
Q 1191 2003 1191 1497 
Q 1191 994 1439 701 
Q 1688 409 2113 409 
Q 2538 409 2786 701 
Q 3034 994 3034 1497 
Q 3034 2003 2786 2293 
Q 2538 2584 2113 2584 
z
M 3366 4563 
L 3366 3988 
Q 3128 4100 2886 4159 
Q 2644 4219 2406 4219 
Q 1781 4219 1451 3797 
Q 1122 3375 1075 2522 
Q 1259 2794 1537 2939 
Q 1816 3084 2150 3084 
Q 2853 3084 3261 2657 
Q 3669 2231 3669 1497 
Q 3669 778 3244 343 
Q 2819 -91 2113 -91 
Q 1303 -91 875 529 
Q 447 1150 447 2328 
Q 447 3434 972 4092 
Q 1497 4750 2381 4750 
Q 2619 4750 2861 4703 
Q 3103 4656 3366 4563 
z
" transform="scale(0.015625)"/>
       </defs>
       <use xlink:href="#DejaVuSans-30"/>
       <use xlink:href="#DejaVuSans-2e" x="63.623047"/>
       <use xlink:href="#DejaVuSans-36" x="95.410156"/>
      </g>
     </g>
    </g>
    <g id="ytick_2">
     <g id="line2d_17">
      <g>
       <use xlink:href="#m987afc44a0" x="57.6" y="266.189196" style="stroke: #000000; stroke-width: 0.8"/>
      </g>
     </g>
     <g id="line2d_18">
      <g>
       <use xlink:href="#m8a68eade60" x="414.72" y="266.189196" style="stroke: #000000; stroke-width: 0.8"/>
      </g>
     </g>
     <g id="text_10">
      <!-- 0.8 -->
      <g transform="translate(35.01625 270.748259) scale(0.12 -0.12)">
       <defs>
        <path id="DejaVuSans-38" d="M 2034 2216 
Q 1584 2216 1326 1975 
Q 1069 1734 1069 1313 
Q 1069 891 1326 650 
Q 1584 409 2034 409 
Q 2484 409 2743 651 
Q 3003 894 3003 1313 
Q 3003 1734 2745 1975 
Q 2488 2216 2034 2216 
z
M 1403 2484 
Q 997 2584 770 2862 
Q 544 3141 544 3541 
Q 544 4100 942 4425 
Q 1341 4750 2034 4750 
Q 2731 4750 3128 4425 
Q 3525 4100 3525 3541 
Q 3525 3141 3298 2862 
Q 3072 2584 2669 2484 
Q 3125 2378 3379 2068 
Q 3634 1759 3634 1313 
Q 3634 634 3220 271 
Q 2806 -91 2034 -91 
Q 1263 -91 848 271 
Q 434 634 434 1313 
Q 434 1759 690 2068 
Q 947 2378 1403 2484 
z
M 1172 3481 
Q 1172 3119 1398 2916 
Q 1625 2713 2034 2713 
Q 2441 2713 2670 2916 
Q 2900 3119 2900 3481 
Q 2900 3844 2670 4047 
Q 2441 4250 2034 4250 
Q 1625 4250 1398 4047 
Q 1172 3844 1172 3481 
z
" transform="scale(0.015625)"/>
       </defs>
       <use xlink:href="#DejaVuSans-30"/>
       <use xlink:href="#DejaVuSans-2e" x="63.623047"/>
       <use xlink:href="#DejaVuSans-38" x="95.410156"/>
      </g>
     </g>
    </g>
    <g id="ytick_3">
     <g id="line2d_19">
      <g>
       <use xlink:href="#m987afc44a0" x="57.6" y="236.530046" style="stroke: #000000; stroke-width: 0.8"/>
      </g>
     </g>
     <g id="line2d_20">
      <g>
       <use xlink:href="#m8a68eade60" x="414.72" y="236.530046" style="stroke: #000000; stroke-width: 0.8"/>
      </g>
     </g>
     <g id="text_11">
      <!-- 1.0 -->
      <g transform="translate(35.01625 241.089109) scale(0.12 -0.12)">
       <use xlink:href="#DejaVuSans-31"/>
       <use xlink:href="#DejaVuSans-2e" x="63.623047"/>
       <use xlink:href="#DejaVuSans-30" x="95.410156"/>
      </g>
     </g>
    </g>
    <g id="ytick_4">
     <g id="line2d_21">
      <g>
       <use xlink:href="#m987afc44a0" x="57.6" y="206.870896" style="stroke: #000000; stroke-width: 0.8"/>
      </g>
     </g>
     <g id="line2d_22">
      <g>
       <use xlink:href="#m8a68eade60" x="414.72" y="206.870896" style="stroke: #000000; stroke-width: 0.8"/>
      </g>
     </g>
     <g id="text_12">
      <!-- 1.2 -->
      <g transform="translate(35.01625 211.429959) scale(0.12 -0.12)">
       <use xlink:href="#DejaVuSans-31"/>
       <use xlink:href="#DejaVuSans-2e" x="63.623047"/>
       <use xlink:href="#DejaVuSans-32" x="95.410156"/>
      </g>
     </g>
    </g>
    <g id="ytick_5">
     <g id="line2d_23">
      <g>
       <use xlink:href="#m987afc44a0" x="57.6" y="177.211746" style="stroke: #000000; stroke-width: 0.8"/>
      </g>
     </g>
     <g id="line2d_24">
      <g>
       <use xlink:href="#m8a68eade60" x="414.72" y="177.211746" style="stroke: #000000; stroke-width: 0.8"/>
      </g>
     </g>
     <g id="text_13">
      <!-- 1.4 -->
      <g transform="translate(35.01625 181.770809) scale(0.12 -0.12)">
       <defs>
        <path id="DejaVuSans-34" d="M 2419 4116 
L 825 1625 
L 2419 1625 
L 2419 4116 
z
M 2253 4666 
L 3047 4666 
L 3047 1625 
L 3713 1625 
L 3713 1100 
L 3047 1100 
L 3047 0 
L 2419 0 
L 2419 1100 
L 313 1100 
L 313 1709 
L 2253 4666 
z
" transform="scale(0.015625)"/>
       </defs>
       <use xlink:href="#DejaVuSans-31"/>
       <use xlink:href="#DejaVuSans-2e" x="63.623047"/>
       <use xlink:href="#DejaVuSans-34" x="95.410156"/>
      </g>
     </g>
    </g>
    <g id="ytick_6">
     <g id="line2d_25">
      <g>
       <use xlink:href="#m987afc44a0" x="57.6" y="147.552596" style="stroke: #000000; stroke-width: 0.8"/>
      </g>
     </g>
     <g id="line2d_26">
      <g>
       <use xlink:href="#m8a68eade60" x="414.72" y="147.552596" style="stroke: #000000; stroke-width: 0.8"/>
      </g>
     </g>
     <g id="text_14">
      <!-- 1.6 -->
      <g transform="translate(35.01625 152.111659) scale(0.12 -0.12)">
       <use xlink:href="#DejaVuSans-31"/>
       <use xlink:href="#DejaVuSans-2e" x="63.623047"/>
       <use xlink:href="#DejaVuSans-36" x="95.410156"/>
      </g>
     </g>
    </g>
    <g id="ytick_7">
     <g id="line2d_27">
      <g>
       <use xlink:href="#m987afc44a0" x="57.6" y="117.893446" style="stroke: #000000; stroke-width: 0.8"/>
      </g>
     </g>
     <g id="line2d_28">
      <g>
       <use xlink:href="#m8a68eade60" x="414.72" y="117.893446" style="stroke: #000000; stroke-width: 0.8"/>
      </g>
     </g>
     <g id="text_15">
      <!-- 1.8 -->
      <g transform="translate(35.01625 122.452509) scale(0.12 -0.12)">
       <use xlink:href="#DejaVuSans-31"/>
       <use xlink:href="#DejaVuSans-2e" x="63.623047"/>
       <use xlink:href="#DejaVuSans-38" x="95.410156"/>
      </g>
     </g>
    </g>
    <g id="ytick_8">
     <g id="line2d_29">
      <g>
       <use xlink:href="#m987afc44a0" x="57.6" y="88.234296" style="stroke: #000000; stroke-width: 0.8"/>
      </g>
     </g>
     <g id="line2d_30">
      <g>
       <use xlink:href="#m8a68eade60" x="414.72" y="88.234296" style="stroke: #000000; stroke-width: 0.8"/>
      </g>
     </g>
     <g id="text_16">
      <!-- 2.0 -->
      <g transform="translate(35.01625 92.793359) scale(0.12 -0.12)">
       <use xlink:href="#DejaVuSans-32"/>
       <use xlink:href="#DejaVuSans-2e" x="63.623047"/>
       <use xlink:href="#DejaVuSans-30" x="95.410156"/>
      </g>
     </g>
    </g>
    <g id="ytick_9">
     <g id="line2d_31">
      <g>
       <use xlink:href="#m987afc44a0" x="57.6" y="58.575146" style="stroke: #000000; stroke-width: 0.8"/>
      </g>
     </g>
     <g id="line2d_32">
      <g>
       <use xlink:href="#m8a68eade60" x="414.72" y="58.575146" style="stroke: #000000; stroke-width: 0.8"/>
      </g>
     </g>
     <g id="text_17">
      <!-- 2.2 -->
      <g transform="translate(35.01625 63.134209) scale(0.12 -0.12)">
       <use xlink:href="#DejaVuSans-32"/>
       <use xlink:href="#DejaVuSans-2e" x="63.623047"/>
       <use xlink:href="#DejaVuSans-32" x="95.410156"/>
      </g>
     </g>
    </g>
    <g id="text_18">
     <!-- $\chi_{max}$ -->
     <g transform="translate(28.49625 187.428) rotate(-90) scale(0.12 -0.12)">
      <defs>
       <path id="DejaVuSans-Oblique-3c7" d="M 1922 -781 
L 1691 416 
L 394 -1334 
L -284 -1334 
L 1553 1141 
L 1269 2613 
Q 1194 3006 713 3006 
L 559 3006 
L 653 3500 
L 872 3494 
Q 1675 3472 1775 2950 
L 2006 1753 
L 3303 3503 
L 3981 3503 
L 2144 1028 
L 2428 -444 
Q 2503 -838 2984 -838 
L 3138 -838 
L 3044 -1331 
L 2825 -1325 
Q 2022 -1303 1922 -781 
z
" transform="scale(0.015625)"/>
       <path id="DejaVuSans-Oblique-6d" d="M 5747 2113 
L 5338 0 
L 4763 0 
L 5166 2094 
Q 5191 2228 5203 2325 
Q 5216 2422 5216 2491 
Q 5216 2772 5059 2928 
Q 4903 3084 4622 3084 
Q 4203 3084 3875 2770 
Q 3547 2456 3450 1953 
L 3066 0 
L 2491 0 
L 2900 2094 
Q 2925 2209 2937 2307 
Q 2950 2406 2950 2484 
Q 2950 2769 2794 2926 
Q 2638 3084 2363 3084 
Q 1938 3084 1609 2770 
Q 1281 2456 1184 1953 
L 800 0 
L 225 0 
L 909 3500 
L 1484 3500 
L 1375 2956 
Q 1609 3263 1923 3423 
Q 2238 3584 2597 3584 
Q 2978 3584 3223 3384 
Q 3469 3184 3519 2828 
Q 3781 3197 4126 3390 
Q 4472 3584 4856 3584 
Q 5306 3584 5551 3325 
Q 5797 3066 5797 2591 
Q 5797 2488 5784 2364 
Q 5772 2241 5747 2113 
z
" transform="scale(0.015625)"/>
       <path id="DejaVuSans-Oblique-61" d="M 3438 1997 
L 3047 0 
L 2472 0 
L 2578 531 
Q 2325 219 2001 64 
Q 1678 -91 1281 -91 
Q 834 -91 548 182 
Q 263 456 263 884 
Q 263 1497 752 1853 
Q 1241 2209 2100 2209 
L 2900 2209 
L 2931 2363 
Q 2938 2388 2941 2417 
Q 2944 2447 2944 2509 
Q 2944 2788 2717 2942 
Q 2491 3097 2081 3097 
Q 1800 3097 1504 3025 
Q 1209 2953 897 2809 
L 997 3341 
Q 1322 3463 1633 3523 
Q 1944 3584 2234 3584 
Q 2853 3584 3176 3315 
Q 3500 3047 3500 2534 
Q 3500 2431 3484 2292 
Q 3469 2153 3438 1997 
z
M 2816 1759 
L 2241 1759 
Q 1534 1759 1195 1570 
Q 856 1381 856 984 
Q 856 709 1029 553 
Q 1203 397 1509 397 
Q 1978 397 2328 733 
Q 2678 1069 2791 1631 
L 2816 1759 
z
" transform="scale(0.015625)"/>
       <path id="DejaVuSans-Oblique-78" d="M 3841 3500 
L 2234 1784 
L 3219 0 
L 2559 0 
L 1819 1388 
L 531 0 
L -166 0 
L 1556 1844 
L 641 3500 
L 1300 3500 
L 1972 2234 
L 3144 3500 
L 3841 3500 
z
" transform="scale(0.015625)"/>
      </defs>
      <use xlink:href="#DejaVuSans-Oblique-3c7" transform="translate(0 0.265625)"/>
      <use xlink:href="#DejaVuSans-Oblique-6d" transform="translate(59.179688 -16.140625) scale(0.7)"/>
      <use xlink:href="#DejaVuSans-Oblique-61" transform="translate(127.368164 -16.140625) scale(0.7)"/>
      <use xlink:href="#DejaVuSans-Oblique-78" transform="translate(170.263672 -16.140625) scale(0.7)"/>
     </g>
    </g>
   </g>
   <g id="patch_3">
    <path d="M 57.6 307.584 
L 57.6 41.472 
" style="fill: none; stroke: #000000; stroke-width: 0.8; stroke-linejoin: miter; stroke-linecap: square"/>
   </g>
   <g id="patch_4">
    <path d="M 414.72 307.584 
L 414.72 41.472 
" style="fill: none; stroke: #000000; stroke-width: 0.8; stroke-linejoin: miter; stroke-linecap: square"/>
   </g>
   <g id="patch_5">
    <path d="M 57.6 307.584 
L 414.72 307.584 
" style="fill: none; stroke: #000000; stroke-width: 0.8; stroke-linejoin: miter; stroke-linecap: square"/>
   </g>
   <g id="patch_6">
    <path d="M 57.6 41.472 
L 414.72 41.472 
" style="fill: none; stroke: #000000; stroke-width: 0.8; stroke-linejoin: miter; stroke-linecap: square"/>
   </g>
   <g id="text_19">
    <!-- Linear Fit of $\chi_{max}$ vs $N_s^3$ (Reweighting) -->
    <g transform="translate(123.42 35.472) scale(0.12 -0.12)">
     <defs>
      <path id="DejaVuSans-4c" d="M 628 4666 
L 1259 4666 
L 1259 531 
L 3531 531 
L 3531 0 
L 628 0 
L 628 4666 
z
" transform="scale(0.015625)"/>
      <path id="DejaVuSans-69" d="M 603 3500 
L 1178 3500 
L 1178 0 
L 603 0 
L 603 3500 
z
M 603 4863 
L 1178 4863 
L 1178 4134 
L 603 4134 
L 603 4863 
z
" transform="scale(0.015625)"/>
      <path id="DejaVuSans-6e" d="M 3513 2113 
L 3513 0 
L 2938 0 
L 2938 2094 
Q 2938 2591 2744 2837 
Q 2550 3084 2163 3084 
Q 1697 3084 1428 2787 
Q 1159 2491 1159 1978 
L 1159 0 
L 581 0 
L 581 3500 
L 1159 3500 
L 1159 2956 
Q 1366 3272 1645 3428 
Q 1925 3584 2291 3584 
Q 2894 3584 3203 3211 
Q 3513 2838 3513 2113 
z
" transform="scale(0.015625)"/>
      <path id="DejaVuSans-65" d="M 3597 1894 
L 3597 1613 
L 953 1613 
Q 991 1019 1311 708 
Q 1631 397 2203 397 
Q 2534 397 2845 478 
Q 3156 559 3463 722 
L 3463 178 
Q 3153 47 2828 -22 
Q 2503 -91 2169 -91 
Q 1331 -91 842 396 
Q 353 884 353 1716 
Q 353 2575 817 3079 
Q 1281 3584 2069 3584 
Q 2775 3584 3186 3129 
Q 3597 2675 3597 1894 
z
M 3022 2063 
Q 3016 2534 2758 2815 
Q 2500 3097 2075 3097 
Q 1594 3097 1305 2825 
Q 1016 2553 972 2059 
L 3022 2063 
z
" transform="scale(0.015625)"/>
      <path id="DejaVuSans-61" d="M 2194 1759 
Q 1497 1759 1228 1600 
Q 959 1441 959 1056 
Q 959 750 1161 570 
Q 1363 391 1709 391 
Q 2188 391 2477 730 
Q 2766 1069 2766 1631 
L 2766 1759 
L 2194 1759 
z
M 3341 1997 
L 3341 0 
L 2766 0 
L 2766 531 
Q 2569 213 2275 61 
Q 1981 -91 1556 -91 
Q 1019 -91 701 211 
Q 384 513 384 1019 
Q 384 1609 779 1909 
Q 1175 2209 1959 2209 
L 2766 2209 
L 2766 2266 
Q 2766 2663 2505 2880 
Q 2244 3097 1772 3097 
Q 1472 3097 1187 3025 
Q 903 2953 641 2809 
L 641 3341 
Q 956 3463 1253 3523 
Q 1550 3584 1831 3584 
Q 2591 3584 2966 3190 
Q 3341 2797 3341 1997 
z
" transform="scale(0.015625)"/>
      <path id="DejaVuSans-72" d="M 2631 2963 
Q 2534 3019 2420 3045 
Q 2306 3072 2169 3072 
Q 1681 3072 1420 2755 
Q 1159 2438 1159 1844 
L 1159 0 
L 581 0 
L 581 3500 
L 1159 3500 
L 1159 2956 
Q 1341 3275 1631 3429 
Q 1922 3584 2338 3584 
Q 2397 3584 2469 3576 
Q 2541 3569 2628 3553 
L 2631 2963 
z
" transform="scale(0.015625)"/>
      <path id="DejaVuSans-20" transform="scale(0.015625)"/>
      <path id="DejaVuSans-46" d="M 628 4666 
L 3309 4666 
L 3309 4134 
L 1259 4134 
L 1259 2759 
L 3109 2759 
L 3109 2228 
L 1259 2228 
L 1259 0 
L 628 0 
L 628 4666 
z
" transform="scale(0.015625)"/>
      <path id="DejaVuSans-74" d="M 1172 4494 
L 1172 3500 
L 2356 3500 
L 2356 3053 
L 1172 3053 
L 1172 1153 
Q 1172 725 1289 603 
Q 1406 481 1766 481 
L 2356 481 
L 2356 0 
L 1766 0 
Q 1100 0 847 248 
Q 594 497 594 1153 
L 594 3053 
L 172 3053 
L 172 3500 
L 594 3500 
L 594 4494 
L 1172 4494 
z
" transform="scale(0.015625)"/>
      <path id="DejaVuSans-6f" d="M 1959 3097 
Q 1497 3097 1228 2736 
Q 959 2375 959 1747 
Q 959 1119 1226 758 
Q 1494 397 1959 397 
Q 2419 397 2687 759 
Q 2956 1122 2956 1747 
Q 2956 2369 2687 2733 
Q 2419 3097 1959 3097 
z
M 1959 3584 
Q 2709 3584 3137 3096 
Q 3566 2609 3566 1747 
Q 3566 888 3137 398 
Q 2709 -91 1959 -91 
Q 1206 -91 779 398 
Q 353 888 353 1747 
Q 353 2609 779 3096 
Q 1206 3584 1959 3584 
z
" transform="scale(0.015625)"/>
      <path id="DejaVuSans-66" d="M 2375 4863 
L 2375 4384 
L 1825 4384 
Q 1516 4384 1395 4259 
Q 1275 4134 1275 3809 
L 1275 3500 
L 2222 3500 
L 2222 3053 
L 1275 3053 
L 1275 0 
L 697 0 
L 697 3053 
L 147 3053 
L 147 3500 
L 697 3500 
L 697 3744 
Q 697 4328 969 4595 
Q 1241 4863 1831 4863 
L 2375 4863 
z
" transform="scale(0.015625)"/>
      <path id="DejaVuSans-76" d="M 191 3500 
L 800 3500 
L 1894 563 
L 2988 3500 
L 3597 3500 
L 2284 0 
L 1503 0 
L 191 3500 
z
" transform="scale(0.015625)"/>
      <path id="DejaVuSans-73" d="M 2834 3397 
L 2834 2853 
Q 2591 2978 2328 3040 
Q 2066 3103 1784 3103 
Q 1356 3103 1142 2972 
Q 928 2841 928 2578 
Q 928 2378 1081 2264 
Q 1234 2150 1697 2047 
L 1894 2003 
Q 2506 1872 2764 1633 
Q 3022 1394 3022 966 
Q 3022 478 2636 193 
Q 2250 -91 1575 -91 
Q 1294 -91 989 -36 
Q 684 19 347 128 
L 347 722 
Q 666 556 975 473 
Q 1284 391 1588 391 
Q 1994 391 2212 530 
Q 2431 669 2431 922 
Q 2431 1156 2273 1281 
Q 2116 1406 1581 1522 
L 1381 1569 
Q 847 1681 609 1914 
Q 372 2147 372 2553 
Q 372 3047 722 3315 
Q 1072 3584 1716 3584 
Q 2034 3584 2315 3537 
Q 2597 3491 2834 3397 
z
" transform="scale(0.015625)"/>
      <path id="DejaVuSans-28" d="M 1984 4856 
Q 1566 4138 1362 3434 
Q 1159 2731 1159 2009 
Q 1159 1288 1364 580 
Q 1569 -128 1984 -844 
L 1484 -844 
Q 1016 -109 783 600 
Q 550 1309 550 2009 
Q 550 2706 781 3412 
Q 1013 4119 1484 4856 
L 1984 4856 
z
" transform="scale(0.015625)"/>
      <path id="DejaVuSans-52" d="M 2841 2188 
Q 3044 2119 3236 1894 
Q 3428 1669 3622 1275 
L 4263 0 
L 3584 0 
L 2988 1197 
Q 2756 1666 2539 1819 
Q 2322 1972 1947 1972 
L 1259 1972 
L 1259 0 
L 628 0 
L 628 4666 
L 2053 4666 
Q 2853 4666 3247 4331 
Q 3641 3997 3641 3322 
Q 3641 2881 3436 2590 
Q 3231 2300 2841 2188 
z
M 1259 4147 
L 1259 2491 
L 2053 2491 
Q 2509 2491 2742 2702 
Q 2975 2913 2975 3322 
Q 2975 3731 2742 3939 
Q 2509 4147 2053 4147 
L 1259 4147 
z
" transform="scale(0.015625)"/>
      <path id="DejaVuSans-77" d="M 269 3500 
L 844 3500 
L 1563 769 
L 2278 3500 
L 2956 3500 
L 3675 769 
L 4391 3500 
L 4966 3500 
L 4050 0 
L 3372 0 
L 2619 2869 
L 1863 0 
L 1184 0 
L 269 3500 
z
" transform="scale(0.015625)"/>
      <path id="DejaVuSans-67" d="M 2906 1791 
Q 2906 2416 2648 2759 
Q 2391 3103 1925 3103 
Q 1463 3103 1205 2759 
Q 947 2416 947 1791 
Q 947 1169 1205 825 
Q 1463 481 1925 481 
Q 2391 481 2648 825 
Q 2906 1169 2906 1791 
z
M 3481 434 
Q 3481 -459 3084 -895 
Q 2688 -1331 1869 -1331 
Q 1566 -1331 1297 -1286 
Q 1028 -1241 775 -1147 
L 775 -588 
Q 1028 -725 1275 -790 
Q 1522 -856 1778 -856 
Q 2344 -856 2625 -561 
Q 2906 -266 2906 331 
L 2906 616 
Q 2728 306 2450 153 
Q 2172 0 1784 0 
Q 1141 0 747 490 
Q 353 981 353 1791 
Q 353 2603 747 3093 
Q 1141 3584 1784 3584 
Q 2172 3584 2450 3431 
Q 2728 3278 2906 2969 
L 2906 3500 
L 3481 3500 
L 3481 434 
z
" transform="scale(0.015625)"/>
      <path id="DejaVuSans-68" d="M 3513 2113 
L 3513 0 
L 2938 0 
L 2938 2094 
Q 2938 2591 2744 2837 
Q 2550 3084 2163 3084 
Q 1697 3084 1428 2787 
Q 1159 2491 1159 1978 
L 1159 0 
L 581 0 
L 581 4863 
L 1159 4863 
L 1159 2956 
Q 1366 3272 1645 3428 
Q 1925 3584 2291 3584 
Q 2894 3584 3203 3211 
Q 3513 2838 3513 2113 
z
" transform="scale(0.015625)"/>
      <path id="DejaVuSans-29" d="M 513 4856 
L 1013 4856 
Q 1481 4119 1714 3412 
Q 1947 2706 1947 2009 
Q 1947 1309 1714 600 
Q 1481 -109 1013 -844 
L 513 -844 
Q 928 -128 1133 580 
Q 1338 1288 1338 2009 
Q 1338 2731 1133 3434 
Q 928 4138 513 4856 
z
" transform="scale(0.015625)"/>
     </defs>
     <use xlink:href="#DejaVuSans-4c" transform="translate(0 0.765625)"/>
     <use xlink:href="#DejaVuSans-69" transform="translate(55.712891 0.765625)"/>
     <use xlink:href="#DejaVuSans-6e" transform="translate(83.496094 0.765625)"/>
     <use xlink:href="#DejaVuSans-65" transform="translate(146.875 0.765625)"/>
     <use xlink:href="#DejaVuSans-61" transform="translate(208.398438 0.765625)"/>
     <use xlink:href="#DejaVuSans-72" transform="translate(269.677734 0.765625)"/>
     <use xlink:href="#DejaVuSans-20" transform="translate(310.791016 0.765625)"/>
     <use xlink:href="#DejaVuSans-46" transform="translate(342.578125 0.765625)"/>
     <use xlink:href="#DejaVuSans-69" transform="translate(400.097656 0.765625)"/>
     <use xlink:href="#DejaVuSans-74" transform="translate(427.880859 0.765625)"/>
     <use xlink:href="#DejaVuSans-20" transform="translate(467.089844 0.765625)"/>
     <use xlink:href="#DejaVuSans-6f" transform="translate(498.876953 0.765625)"/>
     <use xlink:href="#DejaVuSans-66" transform="translate(560.058594 0.765625)"/>
     <use xlink:href="#DejaVuSans-20" transform="translate(595.263672 0.765625)"/>
     <use xlink:href="#DejaVuSans-Oblique-3c7" transform="translate(627.050781 0.765625)"/>
     <use xlink:href="#DejaVuSans-Oblique-6d" transform="translate(686.230469 -15.640625) scale(0.7)"/>
     <use xlink:href="#DejaVuSans-Oblique-61" transform="translate(754.418945 -15.640625) scale(0.7)"/>
     <use xlink:href="#DejaVuSans-Oblique-78" transform="translate(797.314453 -15.640625) scale(0.7)"/>
     <use xlink:href="#DejaVuSans-20" transform="translate(841.474609 0.765625)"/>
     <use xlink:href="#DejaVuSans-76" transform="translate(873.261719 0.765625)"/>
     <use xlink:href="#DejaVuSans-73" transform="translate(932.441406 0.765625)"/>
     <use xlink:href="#DejaVuSans-20" transform="translate(984.541016 0.765625)"/>
     <use xlink:href="#DejaVuSans-Oblique-4e" transform="translate(1016.328125 0.765625)"/>
     <use xlink:href="#DejaVuSans-33" transform="translate(1098.149583 39.046875) scale(0.7)"/>
     <use xlink:href="#DejaVuSans-Oblique-73" transform="translate(1091.132812 -26.578125) scale(0.7)"/>
     <use xlink:href="#DejaVuSans-20" transform="translate(1145.420091 0.765625)"/>
     <use xlink:href="#DejaVuSans-28" transform="translate(1177.207201 0.765625)"/>
     <use xlink:href="#DejaVuSans-52" transform="translate(1216.220872 0.765625)"/>
     <use xlink:href="#DejaVuSans-65" transform="translate(1285.703294 0.765625)"/>
     <use xlink:href="#DejaVuSans-77" transform="translate(1347.226732 0.765625)"/>
     <use xlink:href="#DejaVuSans-65" transform="translate(1429.013841 0.765625)"/>
     <use xlink:href="#DejaVuSans-69" transform="translate(1490.537279 0.765625)"/>
     <use xlink:href="#DejaVuSans-67" transform="translate(1518.320482 0.765625)"/>
     <use xlink:href="#DejaVuSans-68" transform="translate(1581.797044 0.765625)"/>
     <use xlink:href="#DejaVuSans-74" transform="translate(1645.175951 0.765625)"/>
     <use xlink:href="#DejaVuSans-69" transform="translate(1684.384935 0.765625)"/>
     <use xlink:href="#DejaVuSans-6e" transform="translate(1712.168138 0.765625)"/>
     <use xlink:href="#DejaVuSans-67" transform="translate(1775.547044 0.765625)"/>
     <use xlink:href="#DejaVuSans-29" transform="translate(1839.023607 0.765625)"/>
    </g>
   </g>
   <g id="PolyCollection_1">
    <defs>
     <path id="mfbae9f54c7" d="M 73.832727 -53.601733 
L 73.832727 -50.178361 
L 74.157382 -50.410689 
L 74.482036 -50.642957 
L 74.806691 -50.875166 
L 75.131345 -51.107314 
L 75.456 -51.339402 
L 75.780655 -51.571429 
L 76.105309 -51.803396 
L 76.429964 -52.035301 
L 76.754618 -52.267145 
L 77.079273 -52.498928 
L 77.403927 -52.730649 
L 77.728582 -52.962308 
L 78.053236 -53.193905 
L 78.377891 -53.42544 
L 78.702545 -53.656913 
L 79.0272 -53.888322 
L 79.351855 -54.119669 
L 79.676509 -54.350954 
L 80.001164 -54.582175 
L 80.325818 -54.813332 
L 80.650473 -55.044427 
L 80.975127 -55.275458 
L 81.299782 -55.506425 
L 81.624436 -55.737328 
L 81.949091 -55.968168 
L 82.273745 -56.198944 
L 82.5984 -56.429655 
L 82.923055 -56.660303 
L 83.247709 -56.890886 
L 83.572364 -57.121404 
L 83.897018 -57.351859 
L 84.221673 -57.582249 
L 84.546327 -57.812574 
L 84.870982 -58.042835 
L 85.195636 -58.273031 
L 85.520291 -58.503163 
L 85.844945 -58.733229 
L 86.1696 -58.963232 
L 86.494255 -59.193169 
L 86.818909 -59.423042 
L 87.143564 -59.65285 
L 87.468218 -59.882593 
L 87.792873 -60.112272 
L 88.117527 -60.341886 
L 88.442182 -60.571435 
L 88.766836 -60.80092 
L 89.091491 -61.030341 
L 89.416145 -61.259696 
L 89.7408 -61.488988 
L 90.065455 -61.718215 
L 90.390109 -61.947378 
L 90.714764 -62.176477 
L 91.039418 -62.405511 
L 91.364073 -62.634482 
L 91.688727 -62.863389 
L 92.013382 -63.092232 
L 92.338036 -63.321012 
L 92.662691 -63.549728 
L 92.987345 -63.77838 
L 93.312 -64.00697 
L 93.636655 -64.235496 
L 93.961309 -64.463959 
L 94.285964 -64.69236 
L 94.610618 -64.920698 
L 94.935273 -65.148974 
L 95.259927 -65.377188 
L 95.584582 -65.605339 
L 95.909236 -65.833429 
L 96.233891 -66.061457 
L 96.558545 -66.289423 
L 96.8832 -66.517328 
L 97.207855 -66.745173 
L 97.532509 -66.972956 
L 97.857164 -67.200679 
L 98.181818 -67.428342 
L 98.506473 -67.655944 
L 98.831127 -67.883487 
L 99.155782 -68.11097 
L 99.480436 -68.338394 
L 99.805091 -68.565759 
L 100.129745 -68.793065 
L 100.4544 -69.020312 
L 100.779055 -69.247501 
L 101.103709 -69.474632 
L 101.428364 -69.701705 
L 101.753018 -69.928721 
L 102.077673 -70.15568 
L 102.402327 -70.382582 
L 102.726982 -70.609427 
L 103.051636 -70.836216 
L 103.376291 -71.062949 
L 103.700945 -71.289626 
L 104.0256 -71.516248 
L 104.350255 -71.742815 
L 104.674909 -71.969327 
L 104.999564 -72.195785 
L 105.324218 -72.422189 
L 105.648873 -72.648539 
L 105.973527 -72.874835 
L 106.298182 -73.101078 
L 106.622836 -73.327269 
L 106.947491 -73.553407 
L 107.272145 -73.779493 
L 107.5968 -74.005527 
L 107.921455 -74.231509 
L 108.246109 -74.457441 
L 108.570764 -74.683322 
L 108.895418 -74.909152 
L 109.220073 -75.134932 
L 109.544727 -75.360662 
L 109.869382 -75.586343 
L 110.194036 -75.811975 
L 110.518691 -76.037558 
L 110.843345 -76.263092 
L 111.168 -76.488579 
L 111.492655 -76.714018 
L 111.817309 -76.939409 
L 112.141964 -77.164753 
L 112.466618 -77.390051 
L 112.791273 -77.615302 
L 113.115927 -77.840508 
L 113.440582 -78.065668 
L 113.765236 -78.290782 
L 114.089891 -78.515852 
L 114.414545 -78.740877 
L 114.7392 -78.965857 
L 115.063855 -79.190794 
L 115.388509 -79.415687 
L 115.713164 -79.640537 
L 116.037818 -79.865344 
L 116.362473 -80.090109 
L 116.687127 -80.314831 
L 117.011782 -80.539512 
L 117.336436 -80.764151 
L 117.661091 -80.988749 
L 117.985745 -81.213306 
L 118.3104 -81.437822 
L 118.635055 -81.662298 
L 118.959709 -81.886735 
L 119.284364 -82.111132 
L 119.609018 -82.33549 
L 119.933673 -82.559809 
L 120.258327 -82.784089 
L 120.582982 -83.008331 
L 120.907636 -83.232536 
L 121.232291 -83.456703 
L 121.556945 -83.680832 
L 121.8816 -83.904925 
L 122.206255 -84.128981 
L 122.530909 -84.353001 
L 122.855564 -84.576985 
L 123.180218 -84.800934 
L 123.504873 -85.024847 
L 123.829527 -85.248725 
L 124.154182 -85.472568 
L 124.478836 -85.696377 
L 124.803491 -85.920152 
L 125.128145 -86.143893 
L 125.4528 -86.367601 
L 125.777455 -86.591275 
L 126.102109 -86.814917 
L 126.426764 -87.038526 
L 126.751418 -87.262102 
L 127.076073 -87.485647 
L 127.400727 -87.70916 
L 127.725382 -87.932641 
L 128.050036 -88.156092 
L 128.374691 -88.379511 
L 128.699345 -88.6029 
L 129.024 -88.826259 
L 129.348655 -89.049588 
L 129.673309 -89.272886 
L 129.997964 -89.496156 
L 130.322618 -89.719396 
L 130.647273 -89.942607 
L 130.971927 -90.16579 
L 131.296582 -90.388944 
L 131.621236 -90.61207 
L 131.945891 -90.835168 
L 132.270545 -91.058238 
L 132.5952 -91.281281 
L 132.919855 -91.504297 
L 133.244509 -91.727286 
L 133.569164 -91.950249 
L 133.893818 -92.173185 
L 134.218473 -92.396095 
L 134.543127 -92.618979 
L 134.867782 -92.841837 
L 135.192436 -93.06467 
L 135.517091 -93.287478 
L 135.841745 -93.510261 
L 136.1664 -93.733019 
L 136.491055 -93.955753 
L 136.815709 -94.178462 
L 137.140364 -94.401147 
L 137.465018 -94.623809 
L 137.789673 -94.846447 
L 138.114327 -95.069061 
L 138.438982 -95.291653 
L 138.763636 -95.514221 
L 139.088291 -95.736767 
L 139.412945 -95.95929 
L 139.7376 -96.181791 
L 140.062255 -96.40427 
L 140.386909 -96.626727 
L 140.711564 -96.849163 
L 141.036218 -97.071577 
L 141.360873 -97.293969 
L 141.685527 -97.516341 
L 142.010182 -97.738691 
L 142.334836 -97.961021 
L 142.659491 -98.183331 
L 142.984145 -98.40562 
L 143.3088 -98.627889 
L 143.633455 -98.850138 
L 143.958109 -99.072367 
L 144.282764 -99.294577 
L 144.607418 -99.516767 
L 144.932073 -99.738938 
L 145.256727 -99.961091 
L 145.581382 -100.183224 
L 145.906036 -100.405338 
L 146.230691 -100.627435 
L 146.555345 -100.849512 
L 146.88 -101.071572 
L 147.204655 -101.293614 
L 147.529309 -101.515637 
L 147.853964 -101.737643 
L 148.178618 -101.959632 
L 148.503273 -102.181603 
L 148.827927 -102.403557 
L 149.152582 -102.625494 
L 149.477236 -102.847415 
L 149.801891 -103.069318 
L 150.126545 -103.291205 
L 150.4512 -103.513075 
L 150.775855 -103.73493 
L 151.100509 -103.956768 
L 151.425164 -104.17859 
L 151.749818 -104.400396 
L 152.074473 -104.622187 
L 152.399127 -104.843962 
L 152.723782 -105.065722 
L 153.048436 -105.287466 
L 153.373091 -105.509195 
L 153.697745 -105.73091 
L 154.0224 -105.952609 
L 154.347055 -106.174294 
L 154.671709 -106.395964 
L 154.996364 -106.61762 
L 155.321018 -106.839261 
L 155.645673 -107.060889 
L 155.970327 -107.282502 
L 156.294982 -107.504101 
L 156.619636 -107.725687 
L 156.944291 -107.947258 
L 157.268945 -108.168816 
L 157.5936 -108.390361 
L 157.918255 -108.611893 
L 158.242909 -108.833411 
L 158.567564 -109.054916 
L 158.892218 -109.276408 
L 159.216873 -109.497887 
L 159.541527 -109.719354 
L 159.866182 -109.940808 
L 160.190836 -110.162249 
L 160.515491 -110.383678 
L 160.840145 -110.605094 
L 161.1648 -110.826499 
L 161.489455 -111.047891 
L 161.814109 -111.269271 
L 162.138764 -111.49064 
L 162.463418 -111.711996 
L 162.788073 -111.933341 
L 163.112727 -112.154675 
L 163.437382 -112.375997 
L 163.762036 -112.597307 
L 164.086691 -112.818607 
L 164.411345 -113.039895 
L 164.736 -113.261172 
L 165.060655 -113.482438 
L 165.385309 -113.703693 
L 165.709964 -113.924937 
L 166.034618 -114.146171 
L 166.359273 -114.367394 
L 166.683927 -114.588606 
L 167.008582 -114.809808 
L 167.333236 -115.031 
L 167.657891 -115.252182 
L 167.982545 -115.473353 
L 168.3072 -115.694514 
L 168.631855 -115.915665 
L 168.956509 -116.136806 
L 169.281164 -116.357938 
L 169.605818 -116.579059 
L 169.930473 -116.800171 
L 170.255127 -117.021274 
L 170.579782 -117.242367 
L 170.904436 -117.46345 
L 171.229091 -117.684524 
L 171.553745 -117.905589 
L 171.8784 -118.126645 
L 172.203055 -118.347691 
L 172.527709 -118.568729 
L 172.852364 -118.789757 
L 173.177018 -119.010777 
L 173.501673 -119.231788 
L 173.826327 -119.45279 
L 174.150982 -119.673783 
L 174.475636 -119.894768 
L 174.800291 -120.115744 
L 175.124945 -120.336712 
L 175.4496 -120.557671 
L 175.774255 -120.778622 
L 176.098909 -120.999565 
L 176.423564 -121.2205 
L 176.748218 -121.441426 
L 177.072873 -121.662344 
L 177.397527 -121.883255 
L 177.722182 -122.104157 
L 178.046836 -122.325052 
L 178.371491 -122.545939 
L 178.696145 -122.766818 
L 179.0208 -122.987689 
L 179.345455 -123.208553 
L 179.670109 -123.429409 
L 179.994764 -123.650257 
L 180.319418 -123.871099 
L 180.644073 -124.091932 
L 180.968727 -124.312759 
L 181.293382 -124.533578 
L 181.618036 -124.75439 
L 181.942691 -124.975195 
L 182.267345 -125.195993 
L 182.592 -125.416784 
L 182.916655 -125.637567 
L 183.241309 -125.858344 
L 183.565964 -126.079114 
L 183.890618 -126.299877 
L 184.215273 -126.520633 
L 184.539927 -126.741383 
L 184.864582 -126.962126 
L 185.189236 -127.182862 
L 185.513891 -127.403592 
L 185.838545 -127.624315 
L 186.1632 -127.845032 
L 186.487855 -128.065742 
L 186.812509 -128.286446 
L 187.137164 -128.507144 
L 187.461818 -128.727836 
L 187.786473 -128.948521 
L 188.111127 -129.1692 
L 188.435782 -129.389873 
L 188.760436 -129.610539 
L 189.085091 -129.8312 
L 189.409745 -130.051855 
L 189.7344 -130.272504 
L 190.059055 -130.493147 
L 190.383709 -130.713784 
L 190.708364 -130.934415 
L 191.033018 -131.155041 
L 191.357673 -131.37566 
L 191.682327 -131.596274 
L 192.006982 -131.816883 
L 192.331636 -132.037486 
L 192.656291 -132.258083 
L 192.980945 -132.478675 
L 193.3056 -132.699261 
L 193.630255 -132.919842 
L 193.954909 -133.140417 
L 194.279564 -133.360988 
L 194.604218 -133.581552 
L 194.928873 -133.802112 
L 195.253527 -134.022666 
L 195.578182 -134.243215 
L 195.902836 -134.463759 
L 196.227491 -134.684298 
L 196.552145 -134.904831 
L 196.8768 -135.12536 
L 197.201455 -135.345884 
L 197.526109 -135.566402 
L 197.850764 -135.786916 
L 198.175418 -136.007425 
L 198.500073 -136.227929 
L 198.824727 -136.448428 
L 199.149382 -136.668922 
L 199.474036 -136.889411 
L 199.798691 -137.109896 
L 200.123345 -137.330376 
L 200.448 -137.550851 
L 200.772655 -137.771322 
L 201.097309 -137.991788 
L 201.421964 -138.21225 
L 201.746618 -138.432707 
L 202.071273 -138.653159 
L 202.395927 -138.873607 
L 202.720582 -139.094051 
L 203.045236 -139.31449 
L 203.369891 -139.534925 
L 203.694545 -139.755355 
L 204.0192 -139.975781 
L 204.343855 -140.196203 
L 204.668509 -140.41662 
L 204.993164 -140.637034 
L 205.317818 -140.857443 
L 205.642473 -141.077848 
L 205.967127 -141.298248 
L 206.291782 -141.518645 
L 206.616436 -141.739038 
L 206.941091 -141.959426 
L 207.265745 -142.17981 
L 207.5904 -142.400191 
L 207.915055 -142.620567 
L 208.239709 -142.84094 
L 208.564364 -143.061308 
L 208.889018 -143.281673 
L 209.213673 -143.502034 
L 209.538327 -143.722391 
L 209.862982 -143.942744 
L 210.187636 -144.163093 
L 210.512291 -144.383438 
L 210.836945 -144.60378 
L 211.1616 -144.824118 
L 211.486255 -145.044453 
L 211.810909 -145.264783 
L 212.135564 -145.48511 
L 212.460218 -145.705434 
L 212.784873 -145.925754 
L 213.109527 -146.14607 
L 213.434182 -146.366382 
L 213.758836 -146.586692 
L 214.083491 -146.806997 
L 214.408145 -147.027299 
L 214.7328 -147.247598 
L 215.057455 -147.467893 
L 215.382109 -147.688185 
L 215.706764 -147.908473 
L 216.031418 -148.128758 
L 216.356073 -148.34904 
L 216.680727 -148.569318 
L 217.005382 -148.789594 
L 217.330036 -149.009865 
L 217.654691 -149.230134 
L 217.979345 -149.450399 
L 218.304 -149.670661 
L 218.628655 -149.89092 
L 218.953309 -150.111175 
L 219.277964 -150.331428 
L 219.602618 -150.551677 
L 219.927273 -150.771923 
L 220.251927 -150.992167 
L 220.576582 -151.212407 
L 220.901236 -151.432643 
L 221.225891 -151.652877 
L 221.550545 -151.873108 
L 221.8752 -152.093336 
L 222.199855 -152.313561 
L 222.524509 -152.533783 
L 222.849164 -152.754002 
L 223.173818 -152.974218 
L 223.498473 -153.194431 
L 223.823127 -153.414641 
L 224.147782 -153.634848 
L 224.472436 -153.855053 
L 224.797091 -154.075255 
L 225.121745 -154.295453 
L 225.4464 -154.515649 
L 225.771055 -154.735843 
L 226.095709 -154.956033 
L 226.420364 -155.176221 
L 226.745018 -155.396406 
L 227.069673 -155.616588 
L 227.394327 -155.836767 
L 227.718982 -156.056944 
L 228.043636 -156.277118 
L 228.368291 -156.49729 
L 228.692945 -156.717458 
L 229.0176 -156.937625 
L 229.342255 -157.157788 
L 229.666909 -157.377949 
L 229.991564 -157.598107 
L 230.316218 -157.818263 
L 230.640873 -158.038417 
L 230.965527 -158.258567 
L 231.290182 -158.478716 
L 231.614836 -158.698861 
L 231.939491 -158.919005 
L 232.264145 -159.139145 
L 232.5888 -159.359284 
L 232.913455 -159.57942 
L 233.238109 -159.799553 
L 233.562764 -160.019684 
L 233.887418 -160.239813 
L 234.212073 -160.459939 
L 234.536727 -160.680063 
L 234.861382 -160.900184 
L 235.186036 -161.120303 
L 235.510691 -161.34042 
L 235.835345 -161.560535 
L 236.16 -161.780647 
L 236.484655 -162.000757 
L 236.809309 -162.220864 
L 237.133964 -162.44097 
L 237.458618 -162.661073 
L 237.783273 -162.881174 
L 238.107927 -163.101272 
L 238.432582 -163.321369 
L 238.757236 -163.541463 
L 239.081891 -163.761555 
L 239.406545 -163.981645 
L 239.7312 -164.201732 
L 240.055855 -164.421818 
L 240.380509 -164.641901 
L 240.705164 -164.861982 
L 241.029818 -165.082062 
L 241.354473 -165.302139 
L 241.679127 -165.522214 
L 242.003782 -165.742286 
L 242.328436 -165.962357 
L 242.653091 -166.182426 
L 242.977745 -166.402493 
L 243.3024 -166.622557 
L 243.627055 -166.84262 
L 243.951709 -167.062681 
L 244.276364 -167.282739 
L 244.601018 -167.502796 
L 244.925673 -167.722851 
L 245.250327 -167.942903 
L 245.574982 -168.162954 
L 245.899636 -168.383003 
L 246.224291 -168.60305 
L 246.548945 -168.823095 
L 246.8736 -169.043138 
L 247.198255 -169.263179 
L 247.522909 -169.483218 
L 247.847564 -169.703255 
L 248.172218 -169.923291 
L 248.496873 -170.143324 
L 248.821527 -170.363356 
L 249.146182 -170.583386 
L 249.470836 -170.803414 
L 249.795491 -171.02344 
L 250.120145 -171.243465 
L 250.4448 -171.463488 
L 250.769455 -171.683508 
L 251.094109 -171.903528 
L 251.418764 -172.123545 
L 251.743418 -172.34356 
L 252.068073 -172.563574 
L 252.392727 -172.783586 
L 252.717382 -173.003596 
L 253.042036 -173.223605 
L 253.366691 -173.443612 
L 253.691345 -173.663617 
L 254.016 -173.883621 
L 254.340655 -174.103622 
L 254.665309 -174.323622 
L 254.989964 -174.543621 
L 255.314618 -174.763618 
L 255.639273 -174.983613 
L 255.963927 -175.203606 
L 256.288582 -175.423598 
L 256.613236 -175.643588 
L 256.937891 -175.863577 
L 257.262545 -176.083564 
L 257.5872 -176.303549 
L 257.911855 -176.523533 
L 258.236509 -176.743515 
L 258.561164 -176.963496 
L 258.885818 -177.183475 
L 259.210473 -177.403452 
L 259.535127 -177.623428 
L 259.859782 -177.843402 
L 260.184436 -178.063375 
L 260.509091 -178.283346 
L 260.833745 -178.503316 
L 261.1584 -178.723284 
L 261.483055 -178.943251 
L 261.807709 -179.163216 
L 262.132364 -179.38318 
L 262.457018 -179.603142 
L 262.781673 -179.823103 
L 263.106327 -180.043063 
L 263.430982 -180.26302 
L 263.755636 -180.482977 
L 264.080291 -180.702932 
L 264.404945 -180.922885 
L 264.7296 -181.142837 
L 265.054255 -181.362788 
L 265.378909 -181.582737 
L 265.703564 -181.802685 
L 266.028218 -182.022632 
L 266.352873 -182.242577 
L 266.677527 -182.46252 
L 267.002182 -182.682463 
L 267.326836 -182.902403 
L 267.651491 -183.122343 
L 267.976145 -183.342281 
L 268.3008 -183.562218 
L 268.625455 -183.782153 
L 268.950109 -184.002087 
L 269.274764 -184.22202 
L 269.599418 -184.441952 
L 269.924073 -184.661882 
L 270.248727 -184.881811 
L 270.573382 -185.101738 
L 270.898036 -185.321664 
L 271.222691 -185.541589 
L 271.547345 -185.761513 
L 271.872 -185.981435 
L 272.196655 -186.201356 
L 272.521309 -186.421276 
L 272.845964 -186.641195 
L 273.170618 -186.861112 
L 273.495273 -187.081028 
L 273.819927 -187.300943 
L 274.144582 -187.520856 
L 274.469236 -187.740768 
L 274.793891 -187.960679 
L 275.118545 -188.180589 
L 275.4432 -188.400498 
L 275.767855 -188.620405 
L 276.092509 -188.840311 
L 276.417164 -189.060216 
L 276.741818 -189.28012 
L 277.066473 -189.500023 
L 277.391127 -189.719924 
L 277.715782 -189.939824 
L 278.040436 -190.159723 
L 278.365091 -190.379621 
L 278.689745 -190.599518 
L 279.0144 -190.819414 
L 279.339055 -191.039308 
L 279.663709 -191.259201 
L 279.988364 -191.479094 
L 280.313018 -191.698985 
L 280.637673 -191.918874 
L 280.962327 -192.138763 
L 281.286982 -192.358651 
L 281.611636 -192.578537 
L 281.936291 -192.798423 
L 282.260945 -193.018307 
L 282.5856 -193.23819 
L 282.910255 -193.458073 
L 283.234909 -193.677954 
L 283.559564 -193.897834 
L 283.884218 -194.117712 
L 284.208873 -194.33759 
L 284.533527 -194.557467 
L 284.858182 -194.777343 
L 285.182836 -194.997217 
L 285.507491 -195.217091 
L 285.832145 -195.436963 
L 286.1568 -195.656835 
L 286.481455 -195.876705 
L 286.806109 -196.096575 
L 287.130764 -196.316443 
L 287.455418 -196.536311 
L 287.780073 -196.756177 
L 288.104727 -196.976042 
L 288.429382 -197.195907 
L 288.754036 -197.41577 
L 289.078691 -197.635632 
L 289.403345 -197.855493 
L 289.728 -198.075354 
L 290.052655 -198.295213 
L 290.377309 -198.515071 
L 290.701964 -198.734929 
L 291.026618 -198.954785 
L 291.351273 -199.174641 
L 291.675927 -199.394495 
L 292.000582 -199.614349 
L 292.325236 -199.834201 
L 292.649891 -200.054053 
L 292.974545 -200.273903 
L 293.2992 -200.493753 
L 293.623855 -200.713602 
L 293.948509 -200.93345 
L 294.273164 -201.153296 
L 294.597818 -201.373142 
L 294.922473 -201.592987 
L 295.247127 -201.812832 
L 295.571782 -202.032675 
L 295.896436 -202.252517 
L 296.221091 -202.472358 
L 296.545745 -202.692199 
L 296.8704 -202.912038 
L 297.195055 -203.131877 
L 297.519709 -203.351715 
L 297.844364 -203.571552 
L 298.169018 -203.791388 
L 298.493673 -204.011223 
L 298.818327 -204.231057 
L 299.142982 -204.45089 
L 299.467636 -204.670723 
L 299.792291 -204.890555 
L 300.116945 -205.110385 
L 300.4416 -205.330215 
L 300.766255 -205.550044 
L 301.090909 -205.769873 
L 301.415564 -205.9897 
L 301.740218 -206.209526 
L 302.064873 -206.429352 
L 302.389527 -206.649177 
L 302.714182 -206.869001 
L 303.038836 -207.088824 
L 303.363491 -207.308647 
L 303.688145 -207.528468 
L 304.0128 -207.748289 
L 304.337455 -207.968109 
L 304.662109 -208.187928 
L 304.986764 -208.407746 
L 305.311418 -208.627564 
L 305.636073 -208.84738 
L 305.960727 -209.067196 
L 306.285382 -209.287011 
L 306.610036 -209.506825 
L 306.934691 -209.726639 
L 307.259345 -209.946452 
L 307.584 -210.166264 
L 307.908655 -210.386075 
L 308.233309 -210.605885 
L 308.557964 -210.825695 
L 308.882618 -211.045504 
L 309.207273 -211.265312 
L 309.531927 -211.485119 
L 309.856582 -211.704926 
L 310.181236 -211.924731 
L 310.505891 -212.144536 
L 310.830545 -212.364341 
L 311.1552 -212.584144 
L 311.479855 -212.803947 
L 311.804509 -213.023749 
L 312.129164 -213.24355 
L 312.453818 -213.463351 
L 312.778473 -213.683151 
L 313.103127 -213.90295 
L 313.427782 -214.122748 
L 313.752436 -214.342546 
L 314.077091 -214.562343 
L 314.401745 -214.782139 
L 314.7264 -215.001935 
L 315.051055 -215.22173 
L 315.375709 -215.441524 
L 315.700364 -215.661317 
L 316.025018 -215.88111 
L 316.349673 -216.100902 
L 316.674327 -216.320693 
L 316.998982 -216.540484 
L 317.323636 -216.760274 
L 317.648291 -216.980063 
L 317.972945 -217.199851 
L 318.2976 -217.419639 
L 318.622255 -217.639426 
L 318.946909 -217.859213 
L 319.271564 -218.078999 
L 319.596218 -218.298784 
L 319.920873 -218.518568 
L 320.245527 -218.738352 
L 320.570182 -218.958135 
L 320.894836 -219.177918 
L 321.219491 -219.3977 
L 321.544145 -219.617481 
L 321.8688 -219.837261 
L 322.193455 -220.057041 
L 322.518109 -220.276821 
L 322.842764 -220.496599 
L 323.167418 -220.716377 
L 323.492073 -220.936154 
L 323.816727 -221.155931 
L 324.141382 -221.375707 
L 324.466036 -221.595482 
L 324.790691 -221.815257 
L 325.115345 -222.035031 
L 325.44 -222.254805 
L 325.764655 -222.474578 
L 326.089309 -222.69435 
L 326.413964 -222.914122 
L 326.738618 -223.133893 
L 327.063273 -223.353663 
L 327.387927 -223.573433 
L 327.712582 -223.793202 
L 328.037236 -224.012971 
L 328.361891 -224.232738 
L 328.686545 -224.452506 
L 329.0112 -224.672273 
L 329.335855 -224.892039 
L 329.660509 -225.111804 
L 329.985164 -225.331569 
L 330.309818 -225.551334 
L 330.634473 -225.771098 
L 330.959127 -225.990861 
L 331.283782 -226.210623 
L 331.608436 -226.430385 
L 331.933091 -226.650147 
L 332.257745 -226.869908 
L 332.5824 -227.089668 
L 332.907055 -227.309428 
L 333.231709 -227.529187 
L 333.556364 -227.748946 
L 333.881018 -227.968704 
L 334.205673 -228.188461 
L 334.530327 -228.408218 
L 334.854982 -228.627974 
L 335.179636 -228.84773 
L 335.504291 -229.067485 
L 335.828945 -229.28724 
L 336.1536 -229.506994 
L 336.478255 -229.726748 
L 336.802909 -229.946501 
L 337.127564 -230.166253 
L 337.452218 -230.386005 
L 337.776873 -230.605757 
L 338.101527 -230.825508 
L 338.426182 -231.045258 
L 338.750836 -231.265008 
L 339.075491 -231.484757 
L 339.400145 -231.704506 
L 339.7248 -231.924254 
L 340.049455 -232.144001 
L 340.374109 -232.363749 
L 340.698764 -232.583495 
L 341.023418 -232.803241 
L 341.348073 -233.022987 
L 341.672727 -233.242732 
L 341.997382 -233.462476 
L 342.322036 -233.68222 
L 342.646691 -233.901964 
L 342.971345 -234.121707 
L 343.296 -234.341449 
L 343.620655 -234.561191 
L 343.945309 -234.780933 
L 344.269964 -235.000674 
L 344.594618 -235.220414 
L 344.919273 -235.440154 
L 345.243927 -235.659894 
L 345.568582 -235.879633 
L 345.893236 -236.099371 
L 346.217891 -236.319109 
L 346.542545 -236.538847 
L 346.8672 -236.758584 
L 347.191855 -236.97832 
L 347.516509 -237.198056 
L 347.841164 -237.417792 
L 348.165818 -237.637527 
L 348.490473 -237.857261 
L 348.815127 -238.076996 
L 349.139782 -238.296729 
L 349.464436 -238.516462 
L 349.789091 -238.736195 
L 350.113745 -238.955927 
L 350.4384 -239.175659 
L 350.763055 -239.39539 
L 351.087709 -239.615121 
L 351.412364 -239.834851 
L 351.737018 -240.054581 
L 352.061673 -240.274311 
L 352.386327 -240.49404 
L 352.710982 -240.713768 
L 353.035636 -240.933496 
L 353.360291 -241.153224 
L 353.684945 -241.372951 
L 354.0096 -241.592678 
L 354.334255 -241.812404 
L 354.658909 -242.03213 
L 354.983564 -242.251855 
L 355.308218 -242.47158 
L 355.632873 -242.691304 
L 355.957527 -242.911028 
L 356.282182 -243.130752 
L 356.606836 -243.350475 
L 356.931491 -243.570198 
L 357.256145 -243.78992 
L 357.5808 -244.009642 
L 357.905455 -244.229363 
L 358.230109 -244.449084 
L 358.554764 -244.668804 
L 358.879418 -244.888525 
L 359.204073 -245.108244 
L 359.528727 -245.327963 
L 359.853382 -245.547682 
L 360.178036 -245.767401 
L 360.502691 -245.987119 
L 360.827345 -246.206836 
L 361.152 -246.426553 
L 361.476655 -246.64627 
L 361.801309 -246.865986 
L 362.125964 -247.085702 
L 362.450618 -247.305417 
L 362.775273 -247.525133 
L 363.099927 -247.744847 
L 363.424582 -247.964561 
L 363.749236 -248.184275 
L 364.073891 -248.403989 
L 364.398545 -248.623702 
L 364.7232 -248.843414 
L 365.047855 -249.063126 
L 365.372509 -249.282838 
L 365.697164 -249.50255 
L 366.021818 -249.722261 
L 366.346473 -249.941971 
L 366.671127 -250.161681 
L 366.995782 -250.381391 
L 367.320436 -250.601101 
L 367.645091 -250.82081 
L 367.969745 -251.040518 
L 368.2944 -251.260227 
L 368.619055 -251.479934 
L 368.943709 -251.699642 
L 369.268364 -251.919349 
L 369.593018 -252.139056 
L 369.917673 -252.358762 
L 370.242327 -252.578468 
L 370.566982 -252.798173 
L 370.891636 -253.017879 
L 371.216291 -253.237583 
L 371.540945 -253.457288 
L 371.8656 -253.676992 
L 372.190255 -253.896696 
L 372.514909 -254.116399 
L 372.839564 -254.336102 
L 373.164218 -254.555804 
L 373.488873 -254.775507 
L 373.813527 -254.995208 
L 374.138182 -255.21491 
L 374.462836 -255.434611 
L 374.787491 -255.654312 
L 375.112145 -255.874012 
L 375.4368 -256.093712 
L 375.761455 -256.313412 
L 376.086109 -256.533111 
L 376.410764 -256.75281 
L 376.735418 -256.972509 
L 377.060073 -257.192207 
L 377.384727 -257.411905 
L 377.709382 -257.631602 
L 378.034036 -257.851299 
L 378.358691 -258.070996 
L 378.683345 -258.290693 
L 379.008 -258.510389 
L 379.332655 -258.730084 
L 379.657309 -258.94978 
L 379.981964 -259.169475 
L 380.306618 -259.38917 
L 380.631273 -259.608864 
L 380.955927 -259.828558 
L 381.280582 -260.048252 
L 381.605236 -260.267945 
L 381.929891 -260.487638 
L 382.254545 -260.707331 
L 382.5792 -260.927023 
L 382.903855 -261.146715 
L 383.228509 -261.366407 
L 383.553164 -261.586098 
L 383.877818 -261.805789 
L 384.202473 -262.02548 
L 384.527127 -262.24517 
L 384.851782 -262.46486 
L 385.176436 -262.68455 
L 385.501091 -262.904239 
L 385.825745 -263.123928 
L 386.1504 -263.343617 
L 386.475055 -263.563305 
L 386.799709 -263.782993 
L 387.124364 -264.002681 
L 387.449018 -264.222369 
L 387.773673 -264.442056 
L 388.098327 -264.661742 
L 388.422982 -264.881429 
L 388.747636 -265.101115 
L 389.072291 -265.320801 
L 389.396945 -265.540486 
L 389.7216 -265.760171 
L 390.046255 -265.979856 
L 390.370909 -266.199541 
L 390.695564 -266.419225 
L 391.020218 -266.638909 
L 391.344873 -266.858593 
L 391.669527 -267.078276 
L 391.994182 -267.297959 
L 392.318836 -267.517642 
L 392.643491 -267.737324 
L 392.968145 -267.957006 
L 393.2928 -268.176688 
L 393.617455 -268.39637 
L 393.942109 -268.616051 
L 394.266764 -268.835732 
L 394.591418 -269.055412 
L 394.916073 -269.275093 
L 395.240727 -269.494773 
L 395.565382 -269.714452 
L 395.890036 -269.934132 
L 396.214691 -270.153811 
L 396.539345 -270.37349 
L 396.864 -270.593168 
L 397.188655 -270.812846 
L 397.513309 -271.032524 
L 397.837964 -271.252202 
L 398.162618 -271.471879 
L 398.162618 -291.66872 
L 398.162618 -291.66872 
L 397.837964 -291.428577 
L 397.513309 -291.188434 
L 397.188655 -290.948292 
L 396.864 -290.70815 
L 396.539345 -290.468008 
L 396.214691 -290.227866 
L 395.890036 -289.987725 
L 395.565382 -289.747584 
L 395.240727 -289.507443 
L 394.916073 -289.267303 
L 394.591418 -289.027163 
L 394.266764 -288.787023 
L 393.942109 -288.546884 
L 393.617455 -288.306745 
L 393.2928 -288.066606 
L 392.968145 -287.826467 
L 392.643491 -287.586329 
L 392.318836 -287.346191 
L 391.994182 -287.106054 
L 391.669527 -286.865916 
L 391.344873 -286.625779 
L 391.020218 -286.385643 
L 390.695564 -286.145506 
L 390.370909 -285.90537 
L 390.046255 -285.665235 
L 389.7216 -285.425099 
L 389.396945 -285.184964 
L 389.072291 -284.944829 
L 388.747636 -284.704695 
L 388.422982 -284.46456 
L 388.098327 -284.224427 
L 387.773673 -283.984293 
L 387.449018 -283.74416 
L 387.124364 -283.504027 
L 386.799709 -283.263894 
L 386.475055 -283.023762 
L 386.1504 -282.78363 
L 385.825745 -282.543498 
L 385.501091 -282.303367 
L 385.176436 -282.063236 
L 384.851782 -281.823106 
L 384.527127 -281.582975 
L 384.202473 -281.342845 
L 383.877818 -281.102716 
L 383.553164 -280.862586 
L 383.228509 -280.622457 
L 382.903855 -280.382329 
L 382.5792 -280.1422 
L 382.254545 -279.902072 
L 381.929891 -279.661945 
L 381.605236 -279.421817 
L 381.280582 -279.18169 
L 380.955927 -278.941564 
L 380.631273 -278.701437 
L 380.306618 -278.461312 
L 379.981964 -278.221186 
L 379.657309 -277.981061 
L 379.332655 -277.740936 
L 379.008 -277.500811 
L 378.683345 -277.260687 
L 378.358691 -277.020563 
L 378.034036 -276.78044 
L 377.709382 -276.540316 
L 377.384727 -276.300194 
L 377.060073 -276.060071 
L 376.735418 -275.819949 
L 376.410764 -275.579827 
L 376.086109 -275.339706 
L 375.761455 -275.099585 
L 375.4368 -274.859464 
L 375.112145 -274.619344 
L 374.787491 -274.379224 
L 374.462836 -274.139104 
L 374.138182 -273.898985 
L 373.813527 -273.658866 
L 373.488873 -273.418748 
L 373.164218 -273.17863 
L 372.839564 -272.938512 
L 372.514909 -272.698394 
L 372.190255 -272.458277 
L 371.8656 -272.218161 
L 371.540945 -271.978044 
L 371.216291 -271.737929 
L 370.891636 -271.497813 
L 370.566982 -271.257698 
L 370.242327 -271.017583 
L 369.917673 -270.777469 
L 369.593018 -270.537355 
L 369.268364 -270.297241 
L 368.943709 -270.057128 
L 368.619055 -269.817015 
L 368.2944 -269.576903 
L 367.969745 -269.33679 
L 367.645091 -269.096679 
L 367.320436 -268.856567 
L 366.995782 -268.616457 
L 366.671127 -268.376346 
L 366.346473 -268.136236 
L 366.021818 -267.896126 
L 365.697164 -267.656017 
L 365.372509 -267.415908 
L 365.047855 -267.175799 
L 364.7232 -266.935691 
L 364.398545 -266.695584 
L 364.073891 -266.455476 
L 363.749236 -266.215369 
L 363.424582 -265.975263 
L 363.099927 -265.735157 
L 362.775273 -265.495051 
L 362.450618 -265.254946 
L 362.125964 -265.014841 
L 361.801309 -264.774736 
L 361.476655 -264.534632 
L 361.152 -264.294529 
L 360.827345 -264.054426 
L 360.502691 -263.814323 
L 360.178036 -263.57422 
L 359.853382 -263.334118 
L 359.528727 -263.094017 
L 359.204073 -262.853916 
L 358.879418 -262.613815 
L 358.554764 -262.373715 
L 358.230109 -262.133615 
L 357.905455 -261.893516 
L 357.5808 -261.653417 
L 357.256145 -261.413318 
L 356.931491 -261.17322 
L 356.606836 -260.933122 
L 356.282182 -260.693025 
L 355.957527 -260.452928 
L 355.632873 -260.212832 
L 355.308218 -259.972736 
L 354.983564 -259.732641 
L 354.658909 -259.492546 
L 354.334255 -259.252451 
L 354.0096 -259.012357 
L 353.684945 -258.772264 
L 353.360291 -258.53217 
L 353.035636 -258.292078 
L 352.710982 -258.051985 
L 352.386327 -257.811893 
L 352.061673 -257.571802 
L 351.737018 -257.331711 
L 351.412364 -257.091621 
L 351.087709 -256.851531 
L 350.763055 -256.611441 
L 350.4384 -256.371352 
L 350.113745 -256.131264 
L 349.789091 -255.891175 
L 349.464436 -255.651088 
L 349.139782 -255.411001 
L 348.815127 -255.170914 
L 348.490473 -254.930828 
L 348.165818 -254.690742 
L 347.841164 -254.450657 
L 347.516509 -254.210572 
L 347.191855 -253.970488 
L 346.8672 -253.730404 
L 346.542545 -253.490321 
L 346.217891 -253.250238 
L 345.893236 -253.010155 
L 345.568582 -252.770074 
L 345.243927 -252.529992 
L 344.919273 -252.289911 
L 344.594618 -252.049831 
L 344.269964 -251.809751 
L 343.945309 -251.569672 
L 343.620655 -251.329593 
L 343.296 -251.089515 
L 342.971345 -250.849437 
L 342.646691 -250.609359 
L 342.322036 -250.369283 
L 341.997382 -250.129206 
L 341.672727 -249.88913 
L 341.348073 -249.649055 
L 341.023418 -249.40898 
L 340.698764 -249.168906 
L 340.374109 -248.928833 
L 340.049455 -248.688759 
L 339.7248 -248.448687 
L 339.400145 -248.208615 
L 339.075491 -247.968543 
L 338.750836 -247.728472 
L 338.426182 -247.488401 
L 338.101527 -247.248331 
L 337.776873 -247.008262 
L 337.452218 -246.768193 
L 337.127564 -246.528125 
L 336.802909 -246.288057 
L 336.478255 -246.047989 
L 336.1536 -245.807923 
L 335.828945 -245.567856 
L 335.504291 -245.327791 
L 335.179636 -245.087726 
L 334.854982 -244.847661 
L 334.530327 -244.607597 
L 334.205673 -244.367534 
L 333.881018 -244.127471 
L 333.556364 -243.887409 
L 333.231709 -243.647347 
L 332.907055 -243.407286 
L 332.5824 -243.167225 
L 332.257745 -242.927165 
L 331.933091 -242.687106 
L 331.608436 -242.447047 
L 331.283782 -242.206989 
L 330.959127 -241.966931 
L 330.634473 -241.726874 
L 330.309818 -241.486817 
L 329.985164 -241.246761 
L 329.660509 -241.006706 
L 329.335855 -240.766651 
L 329.0112 -240.526597 
L 328.686545 -240.286544 
L 328.361891 -240.046491 
L 328.037236 -239.806438 
L 327.712582 -239.566386 
L 327.387927 -239.326335 
L 327.063273 -239.086285 
L 326.738618 -238.846235 
L 326.413964 -238.606186 
L 326.089309 -238.366137 
L 325.764655 -238.126089 
L 325.44 -237.886041 
L 325.115345 -237.645994 
L 324.790691 -237.405948 
L 324.466036 -237.165903 
L 324.141382 -236.925858 
L 323.816727 -236.685813 
L 323.492073 -236.44577 
L 323.167418 -236.205727 
L 322.842764 -235.965684 
L 322.518109 -235.725643 
L 322.193455 -235.485602 
L 321.8688 -235.245561 
L 321.544145 -235.005521 
L 321.219491 -234.765482 
L 320.894836 -234.525444 
L 320.570182 -234.285406 
L 320.245527 -234.045369 
L 319.920873 -233.805332 
L 319.596218 -233.565296 
L 319.271564 -233.325261 
L 318.946909 -233.085227 
L 318.622255 -232.845193 
L 318.2976 -232.60516 
L 317.972945 -232.365127 
L 317.648291 -232.125095 
L 317.323636 -231.885064 
L 316.998982 -231.645034 
L 316.674327 -231.405004 
L 316.349673 -231.164975 
L 316.025018 -230.924947 
L 315.700364 -230.684919 
L 315.375709 -230.444892 
L 315.051055 -230.204866 
L 314.7264 -229.964841 
L 314.401745 -229.724816 
L 314.077091 -229.484792 
L 313.752436 -229.244768 
L 313.427782 -229.004746 
L 313.103127 -228.764724 
L 312.778473 -228.524703 
L 312.453818 -228.284682 
L 312.129164 -228.044662 
L 311.804509 -227.804643 
L 311.479855 -227.564625 
L 311.1552 -227.324608 
L 310.830545 -227.084591 
L 310.505891 -226.844575 
L 310.181236 -226.604559 
L 309.856582 -226.364545 
L 309.531927 -226.124531 
L 309.207273 -225.884518 
L 308.882618 -225.644506 
L 308.557964 -225.404494 
L 308.233309 -225.164484 
L 307.908655 -224.924474 
L 307.584 -224.684465 
L 307.259345 -224.444456 
L 306.934691 -224.204449 
L 306.610036 -223.964442 
L 306.285382 -223.724436 
L 305.960727 -223.48443 
L 305.636073 -223.244426 
L 305.311418 -223.004422 
L 304.986764 -222.764419 
L 304.662109 -222.524417 
L 304.337455 -222.284416 
L 304.0128 -222.044416 
L 303.688145 -221.804416 
L 303.363491 -221.564417 
L 303.038836 -221.324419 
L 302.714182 -221.084422 
L 302.389527 -220.844426 
L 302.064873 -220.60443 
L 301.740218 -220.364436 
L 301.415564 -220.124442 
L 301.090909 -219.884449 
L 300.766255 -219.644457 
L 300.4416 -219.404466 
L 300.116945 -219.164475 
L 299.792291 -218.924486 
L 299.467636 -218.684497 
L 299.142982 -218.444509 
L 298.818327 -218.204522 
L 298.493673 -217.964536 
L 298.169018 -217.724551 
L 297.844364 -217.484567 
L 297.519709 -217.244583 
L 297.195055 -217.004601 
L 296.8704 -216.764619 
L 296.545745 -216.524638 
L 296.221091 -216.284658 
L 295.896436 -216.044679 
L 295.571782 -215.804701 
L 295.247127 -215.564724 
L 294.922473 -215.324748 
L 294.597818 -215.084773 
L 294.273164 -214.844798 
L 293.948509 -214.604825 
L 293.623855 -214.364852 
L 293.2992 -214.124881 
L 292.974545 -213.88491 
L 292.649891 -213.644941 
L 292.325236 -213.404972 
L 292.000582 -213.165004 
L 291.675927 -212.925037 
L 291.351273 -212.685071 
L 291.026618 -212.445106 
L 290.701964 -212.205142 
L 290.377309 -211.96518 
L 290.052655 -211.725218 
L 289.728 -211.485257 
L 289.403345 -211.245297 
L 289.078691 -211.005338 
L 288.754036 -210.765379 
L 288.429382 -210.525422 
L 288.104727 -210.285466 
L 287.780073 -210.045511 
L 287.455418 -209.805557 
L 287.130764 -209.565605 
L 286.806109 -209.325653 
L 286.481455 -209.085702 
L 286.1568 -208.845752 
L 285.832145 -208.605803 
L 285.507491 -208.365855 
L 285.182836 -208.125908 
L 284.858182 -207.885963 
L 284.533527 -207.646018 
L 284.208873 -207.406074 
L 283.884218 -207.166132 
L 283.559564 -206.926191 
L 283.234909 -206.68625 
L 282.910255 -206.446311 
L 282.5856 -206.206373 
L 282.260945 -205.966436 
L 281.936291 -205.7265 
L 281.611636 -205.486565 
L 281.286982 -205.246631 
L 280.962327 -205.006698 
L 280.637673 -204.766767 
L 280.313018 -204.526836 
L 279.988364 -204.286907 
L 279.663709 -204.046979 
L 279.339055 -203.807052 
L 279.0144 -203.567126 
L 278.689745 -203.327201 
L 278.365091 -203.087278 
L 278.040436 -202.847355 
L 277.715782 -202.607434 
L 277.391127 -202.367514 
L 277.066473 -202.127595 
L 276.741818 -201.887677 
L 276.417164 -201.647761 
L 276.092509 -201.407845 
L 275.767855 -201.167931 
L 275.4432 -200.928018 
L 275.118545 -200.688106 
L 274.793891 -200.448196 
L 274.469236 -200.208287 
L 274.144582 -199.968379 
L 273.819927 -199.728472 
L 273.495273 -199.488566 
L 273.170618 -199.248662 
L 272.845964 -199.008759 
L 272.521309 -198.768857 
L 272.196655 -198.528956 
L 271.872 -198.289057 
L 271.547345 -198.049159 
L 271.222691 -197.809262 
L 270.898036 -197.569367 
L 270.573382 -197.329473 
L 270.248727 -197.08958 
L 269.924073 -196.849689 
L 269.599418 -196.609798 
L 269.274764 -196.36991 
L 268.950109 -196.130022 
L 268.625455 -195.890136 
L 268.3008 -195.650251 
L 267.976145 -195.410367 
L 267.651491 -195.170485 
L 267.326836 -194.930604 
L 267.002182 -194.690725 
L 266.677527 -194.450847 
L 266.352873 -194.21097 
L 266.028218 -193.971095 
L 265.703564 -193.731221 
L 265.378909 -193.491349 
L 265.054255 -193.251477 
L 264.7296 -193.011608 
L 264.404945 -192.77174 
L 264.080291 -192.531873 
L 263.755636 -192.292007 
L 263.430982 -192.052144 
L 263.106327 -191.812281 
L 262.781673 -191.57242 
L 262.457018 -191.332561 
L 262.132364 -191.092702 
L 261.807709 -190.852846 
L 261.483055 -190.612991 
L 261.1584 -190.373137 
L 260.833745 -190.133285 
L 260.509091 -189.893435 
L 260.184436 -189.653586 
L 259.859782 -189.413738 
L 259.535127 -189.173892 
L 259.210473 -188.934048 
L 258.885818 -188.694205 
L 258.561164 -188.454364 
L 258.236509 -188.214524 
L 257.911855 -187.974686 
L 257.5872 -187.734849 
L 257.262545 -187.495014 
L 256.937891 -187.255181 
L 256.613236 -187.015349 
L 256.288582 -186.775519 
L 255.963927 -186.53569 
L 255.639273 -186.295863 
L 255.314618 -186.056038 
L 254.989964 -185.816215 
L 254.665309 -185.576393 
L 254.340655 -185.336572 
L 254.016 -185.096754 
L 253.691345 -184.856937 
L 253.366691 -184.617122 
L 253.042036 -184.377308 
L 252.717382 -184.137497 
L 252.392727 -183.897687 
L 252.068073 -183.657878 
L 251.743418 -183.418072 
L 251.418764 -183.178267 
L 251.094109 -182.938464 
L 250.769455 -182.698663 
L 250.4448 -182.458863 
L 250.120145 -182.219066 
L 249.795491 -181.97927 
L 249.470836 -181.739476 
L 249.146182 -181.499683 
L 248.821527 -181.259893 
L 248.496873 -181.020105 
L 248.172218 -180.780318 
L 247.847564 -180.540533 
L 247.522909 -180.30075 
L 247.198255 -180.060969 
L 246.8736 -179.82119 
L 246.548945 -179.581412 
L 246.224291 -179.341637 
L 245.899636 -179.101864 
L 245.574982 -178.862092 
L 245.250327 -178.622322 
L 244.925673 -178.382555 
L 244.601018 -178.142789 
L 244.276364 -177.903025 
L 243.951709 -177.663264 
L 243.627055 -177.423504 
L 243.3024 -177.183746 
L 242.977745 -176.943991 
L 242.653091 -176.704237 
L 242.328436 -176.464485 
L 242.003782 -176.224736 
L 241.679127 -175.984988 
L 241.354473 -175.745243 
L 241.029818 -175.5055 
L 240.705164 -175.265759 
L 240.380509 -175.02602 
L 240.055855 -174.786283 
L 239.7312 -174.546548 
L 239.406545 -174.306815 
L 239.081891 -174.067085 
L 238.757236 -173.827356 
L 238.432582 -173.58763 
L 238.107927 -173.347906 
L 237.783273 -173.108185 
L 237.458618 -172.868465 
L 237.133964 -172.628748 
L 236.809309 -172.389033 
L 236.484655 -172.14932 
L 236.16 -171.90961 
L 235.835345 -171.669902 
L 235.510691 -171.430196 
L 235.186036 -171.190492 
L 234.861382 -170.950791 
L 234.536727 -170.711092 
L 234.212073 -170.471396 
L 233.887418 -170.231702 
L 233.562764 -169.99201 
L 233.238109 -169.752321 
L 232.913455 -169.512634 
L 232.5888 -169.272949 
L 232.264145 -169.033267 
L 231.939491 -168.793588 
L 231.614836 -168.553911 
L 231.290182 -168.314236 
L 230.965527 -168.074564 
L 230.640873 -167.834894 
L 230.316218 -167.595227 
L 229.991564 -167.355563 
L 229.666909 -167.115901 
L 229.342255 -166.876242 
L 229.0176 -166.636585 
L 228.692945 -166.396931 
L 228.368291 -166.157279 
L 228.043636 -165.91763 
L 227.718982 -165.677984 
L 227.394327 -165.438341 
L 227.069673 -165.1987 
L 226.745018 -164.959062 
L 226.420364 -164.719426 
L 226.095709 -164.479794 
L 225.771055 -164.240164 
L 225.4464 -164.000536 
L 225.121745 -163.760912 
L 224.797091 -163.521291 
L 224.472436 -163.281672 
L 224.147782 -163.042056 
L 223.823127 -162.802443 
L 223.498473 -162.562833 
L 223.173818 -162.323226 
L 222.849164 -162.083621 
L 222.524509 -161.84402 
L 222.199855 -161.604422 
L 221.8752 -161.364826 
L 221.550545 -161.125234 
L 221.225891 -160.885644 
L 220.901236 -160.646058 
L 220.576582 -160.406474 
L 220.251927 -160.166894 
L 219.927273 -159.927317 
L 219.602618 -159.687743 
L 219.277964 -159.448172 
L 218.953309 -159.208604 
L 218.628655 -158.969039 
L 218.304 -158.729478 
L 217.979345 -158.489919 
L 217.654691 -158.250364 
L 217.330036 -158.010812 
L 217.005382 -157.771264 
L 216.680727 -157.531719 
L 216.356073 -157.292177 
L 216.031418 -157.052638 
L 215.706764 -156.813103 
L 215.382109 -156.573571 
L 215.057455 -156.334042 
L 214.7328 -156.094517 
L 214.408145 -155.854995 
L 214.083491 -155.615477 
L 213.758836 -155.375963 
L 213.434182 -155.136451 
L 213.109527 -154.896944 
L 212.784873 -154.65744 
L 212.460218 -154.417939 
L 212.135564 -154.178442 
L 211.810909 -153.938949 
L 211.486255 -153.699459 
L 211.1616 -153.459973 
L 210.836945 -153.220491 
L 210.512291 -152.981012 
L 210.187636 -152.741538 
L 209.862982 -152.502067 
L 209.538327 -152.262599 
L 209.213673 -152.023136 
L 208.889018 -151.783676 
L 208.564364 -151.544221 
L 208.239709 -151.304769 
L 207.915055 -151.065321 
L 207.5904 -150.825877 
L 207.265745 -150.586437 
L 206.941091 -150.347001 
L 206.616436 -150.107569 
L 206.291782 -149.868142 
L 205.967127 -149.628718 
L 205.642473 -149.389298 
L 205.317818 -149.149883 
L 204.993164 -148.910472 
L 204.668509 -148.671065 
L 204.343855 -148.431662 
L 204.0192 -148.192263 
L 203.694545 -147.952869 
L 203.369891 -147.713479 
L 203.045236 -147.474093 
L 202.720582 -147.234712 
L 202.395927 -146.995336 
L 202.071273 -146.755963 
L 201.746618 -146.516595 
L 201.421964 -146.277232 
L 201.097309 -146.037873 
L 200.772655 -145.798519 
L 200.448 -145.559169 
L 200.123345 -145.319824 
L 199.798691 -145.080484 
L 199.474036 -144.841148 
L 199.149382 -144.601818 
L 198.824727 -144.362492 
L 198.500073 -144.12317 
L 198.175418 -143.883854 
L 197.850764 -143.644542 
L 197.526109 -143.405236 
L 197.201455 -143.165934 
L 196.8768 -142.926637 
L 196.552145 -142.687345 
L 196.227491 -142.448059 
L 195.902836 -142.208777 
L 195.578182 -141.969501 
L 195.253527 -141.730229 
L 194.928873 -141.490963 
L 194.604218 -141.251703 
L 194.279564 -141.012447 
L 193.954909 -140.773197 
L 193.630255 -140.533952 
L 193.3056 -140.294712 
L 192.980945 -140.055478 
L 192.656291 -139.81625 
L 192.331636 -139.577027 
L 192.006982 -139.337809 
L 191.682327 -139.098597 
L 191.357673 -138.859391 
L 191.033018 -138.620191 
L 190.708364 -138.380996 
L 190.383709 -138.141807 
L 190.059055 -137.902624 
L 189.7344 -137.663446 
L 189.409745 -137.424275 
L 189.085091 -137.185109 
L 188.760436 -136.94595 
L 188.435782 -136.706796 
L 188.111127 -136.467649 
L 187.786473 -136.228507 
L 187.461818 -135.989372 
L 187.137164 -135.750243 
L 186.812509 -135.511121 
L 186.487855 -135.272004 
L 186.1632 -135.032894 
L 185.838545 -134.793791 
L 185.513891 -134.554694 
L 185.189236 -134.315603 
L 184.864582 -134.076519 
L 184.539927 -133.837442 
L 184.215273 -133.598371 
L 183.890618 -133.359307 
L 183.565964 -133.12025 
L 183.241309 -132.881199 
L 182.916655 -132.642156 
L 182.592 -132.403119 
L 182.267345 -132.16409 
L 181.942691 -131.925067 
L 181.618036 -131.686052 
L 181.293382 -131.447043 
L 180.968727 -131.208042 
L 180.644073 -130.969048 
L 180.319418 -130.730062 
L 179.994764 -130.491083 
L 179.670109 -130.252111 
L 179.345455 -130.013147 
L 179.0208 -129.77419 
L 178.696145 -129.535241 
L 178.371491 -129.2963 
L 178.046836 -129.057366 
L 177.722182 -128.818441 
L 177.397527 -128.579523 
L 177.072873 -128.340613 
L 176.748218 -128.101711 
L 176.423564 -127.862817 
L 176.098909 -127.623931 
L 175.774255 -127.385054 
L 175.4496 -127.146184 
L 175.124945 -126.907323 
L 174.800291 -126.668471 
L 174.475636 -126.429627 
L 174.150982 -126.190791 
L 173.826327 -125.951964 
L 173.501673 -125.713146 
L 173.177018 -125.474336 
L 172.852364 -125.235536 
L 172.527709 -124.996744 
L 172.203055 -124.757961 
L 171.8784 -124.519187 
L 171.553745 -124.280423 
L 171.229091 -124.041667 
L 170.904436 -123.802921 
L 170.579782 -123.564184 
L 170.255127 -123.325457 
L 169.930473 -123.086739 
L 169.605818 -122.84803 
L 169.281164 -122.609332 
L 168.956509 -122.370643 
L 168.631855 -122.131964 
L 168.3072 -121.893295 
L 167.982545 -121.654635 
L 167.657891 -121.415986 
L 167.333236 -121.177347 
L 167.008582 -120.938719 
L 166.683927 -120.700101 
L 166.359273 -120.461493 
L 166.034618 -120.222895 
L 165.709964 -119.984309 
L 165.385309 -119.745733 
L 165.060655 -119.507167 
L 164.736 -119.268613 
L 164.411345 -119.03007 
L 164.086691 -118.791538 
L 163.762036 -118.553017 
L 163.437382 -118.314507 
L 163.112727 -118.076008 
L 162.788073 -117.837521 
L 162.463418 -117.599046 
L 162.138764 -117.360582 
L 161.814109 -117.122131 
L 161.489455 -116.883691 
L 161.1648 -116.645263 
L 160.840145 -116.406847 
L 160.515491 -116.168443 
L 160.190836 -115.930052 
L 159.866182 -115.691673 
L 159.541527 -115.453306 
L 159.216873 -115.214952 
L 158.892218 -114.976611 
L 158.567564 -114.738283 
L 158.242909 -114.499968 
L 157.918255 -114.261666 
L 157.5936 -114.023377 
L 157.268945 -113.785101 
L 156.944291 -113.546839 
L 156.619636 -113.30859 
L 156.294982 -113.070355 
L 155.970327 -112.832134 
L 155.645673 -112.593927 
L 155.321018 -112.355734 
L 154.996364 -112.117555 
L 154.671709 -111.879391 
L 154.347055 -111.64124 
L 154.0224 -111.403105 
L 153.697745 -111.164984 
L 153.373091 -110.926878 
L 153.048436 -110.688787 
L 152.723782 -110.450711 
L 152.399127 -110.212651 
L 152.074473 -109.974605 
L 151.749818 -109.736576 
L 151.425164 -109.498562 
L 151.100509 -109.260563 
L 150.775855 -109.022581 
L 150.4512 -108.784615 
L 150.126545 -108.546665 
L 149.801891 -108.308732 
L 149.477236 -108.070815 
L 149.152582 -107.832915 
L 148.827927 -107.595032 
L 148.503273 -107.357165 
L 148.178618 -107.119316 
L 147.853964 -106.881485 
L 147.529309 -106.64367 
L 147.204655 -106.405874 
L 146.88 -106.168095 
L 146.555345 -105.930334 
L 146.230691 -105.692592 
L 145.906036 -105.454868 
L 145.581382 -105.217162 
L 145.256727 -104.979475 
L 144.932073 -104.741807 
L 144.607418 -104.504158 
L 144.282764 -104.266528 
L 143.958109 -104.028917 
L 143.633455 -103.791326 
L 143.3088 -103.553755 
L 142.984145 -103.316203 
L 142.659491 -103.078672 
L 142.334836 -102.841161 
L 142.010182 -102.603671 
L 141.685527 -102.366201 
L 141.360873 -102.128752 
L 141.036218 -101.891325 
L 140.711564 -101.653918 
L 140.386909 -101.416533 
L 140.062255 -101.17917 
L 139.7376 -100.941828 
L 139.412945 -100.704509 
L 139.088291 -100.467212 
L 138.763636 -100.229938 
L 138.438982 -99.992686 
L 138.114327 -99.755457 
L 137.789673 -99.518251 
L 137.465018 -99.281069 
L 137.140364 -99.04391 
L 136.815709 -98.806775 
L 136.491055 -98.569664 
L 136.1664 -98.332577 
L 135.841745 -98.095515 
L 135.517091 -97.858478 
L 135.192436 -97.621465 
L 134.867782 -97.384478 
L 134.543127 -97.147516 
L 134.218473 -96.91058 
L 133.893818 -96.673669 
L 133.569164 -96.436785 
L 133.244509 -96.199927 
L 132.919855 -95.963096 
L 132.5952 -95.726291 
L 132.270545 -95.489514 
L 131.945891 -95.252764 
L 131.621236 -95.016042 
L 131.296582 -94.779348 
L 130.971927 -94.542681 
L 130.647273 -94.306044 
L 130.322618 -94.069435 
L 129.997964 -93.832854 
L 129.673309 -93.596303 
L 129.348655 -93.359782 
L 129.024 -93.12329 
L 128.699345 -92.886829 
L 128.374691 -92.650397 
L 128.050036 -92.413996 
L 127.725382 -92.177626 
L 127.400727 -91.941288 
L 127.076073 -91.70498 
L 126.751418 -91.468705 
L 126.426764 -91.232461 
L 126.102109 -90.99625 
L 125.777455 -90.760071 
L 125.4528 -90.523925 
L 125.128145 -90.287812 
L 124.803491 -90.051733 
L 124.478836 -89.815688 
L 124.154182 -89.579676 
L 123.829527 -89.343699 
L 123.504873 -89.107757 
L 123.180218 -88.87185 
L 122.855564 -88.635978 
L 122.530909 -88.400141 
L 122.206255 -88.164341 
L 121.8816 -87.928577 
L 121.556945 -87.692849 
L 121.232291 -87.457159 
L 120.907636 -87.221505 
L 120.582982 -86.985889 
L 120.258327 -86.750311 
L 119.933673 -86.514771 
L 119.609018 -86.27927 
L 119.284364 -86.043808 
L 118.959709 -85.808384 
L 118.635055 -85.573 
L 118.3104 -85.337656 
L 117.985745 -85.102352 
L 117.661091 -84.867089 
L 117.336436 -84.631867 
L 117.011782 -84.396685 
L 116.687127 -84.161545 
L 116.362473 -83.926448 
L 116.037818 -83.691392 
L 115.713164 -83.456379 
L 115.388509 -83.221408 
L 115.063855 -82.986481 
L 114.7392 -82.751598 
L 114.414545 -82.516758 
L 114.089891 -82.281962 
L 113.765236 -82.047212 
L 113.440582 -81.812506 
L 113.115927 -81.577845 
L 112.791273 -81.34323 
L 112.466618 -81.108661 
L 112.141964 -80.874139 
L 111.817309 -80.639663 
L 111.492655 -80.405234 
L 111.168 -80.170852 
L 110.843345 -79.936519 
L 110.518691 -79.702233 
L 110.194036 -79.467996 
L 109.869382 -79.233807 
L 109.544727 -78.999668 
L 109.220073 -78.765577 
L 108.895418 -78.531537 
L 108.570764 -78.297547 
L 108.246109 -78.063607 
L 107.921455 -77.829718 
L 107.5968 -77.595881 
L 107.272145 -77.362094 
L 106.947491 -77.12836 
L 106.622836 -76.894678 
L 106.298182 -76.661048 
L 105.973527 -76.427471 
L 105.648873 -76.193947 
L 105.324218 -75.960476 
L 104.999564 -75.72706 
L 104.674909 -75.493697 
L 104.350255 -75.260389 
L 104.0256 -75.027136 
L 103.700945 -74.793937 
L 103.376291 -74.560794 
L 103.051636 -74.327707 
L 102.726982 -74.094676 
L 102.402327 -73.861701 
L 102.077673 -73.628782 
L 101.753018 -73.395921 
L 101.428364 -73.163116 
L 101.103709 -72.930369 
L 100.779055 -72.69768 
L 100.4544 -72.465048 
L 100.129745 -72.232475 
L 99.805091 -71.999961 
L 99.480436 -71.767505 
L 99.155782 -71.535109 
L 98.831127 -71.302772 
L 98.506473 -71.070494 
L 98.181818 -70.838276 
L 97.857164 -70.606119 
L 97.532509 -70.374021 
L 97.207855 -70.141984 
L 96.8832 -69.910008 
L 96.558545 -69.678093 
L 96.233891 -69.44624 
L 95.909236 -69.214447 
L 95.584582 -68.982717 
L 95.259927 -68.751048 
L 94.935273 -68.519441 
L 94.610618 -68.287896 
L 94.285964 -68.056414 
L 93.961309 -67.824995 
L 93.636655 -67.593638 
L 93.312 -67.362344 
L 92.987345 -67.131113 
L 92.662691 -66.899945 
L 92.338036 -66.668841 
L 92.013382 -66.4378 
L 91.688727 -66.206823 
L 91.364073 -65.975909 
L 91.039418 -65.74506 
L 90.714764 -65.514274 
L 90.390109 -65.283552 
L 90.065455 -65.052895 
L 89.7408 -64.822302 
L 89.416145 -64.591773 
L 89.091491 -64.361309 
L 88.766836 -64.130909 
L 88.442182 -63.900573 
L 88.117527 -63.670302 
L 87.792873 -63.440096 
L 87.468218 -63.209954 
L 87.143564 -62.979877 
L 86.818909 -62.749865 
L 86.494255 -62.519917 
L 86.1696 -62.290035 
L 85.844945 -62.060216 
L 85.520291 -61.830463 
L 85.195636 -61.600774 
L 84.870982 -61.37115 
L 84.546327 -61.14159 
L 84.221673 -60.912095 
L 83.897018 -60.682665 
L 83.572364 -60.453299 
L 83.247709 -60.223998 
L 82.923055 -59.99476 
L 82.5984 -59.765587 
L 82.273745 -59.536479 
L 81.949091 -59.307434 
L 81.624436 -59.078453 
L 81.299782 -58.849536 
L 80.975127 -58.620683 
L 80.650473 -58.391894 
L 80.325818 -58.163168 
L 80.001164 -57.934505 
L 79.676509 -57.705906 
L 79.351855 -57.47737 
L 79.0272 -57.248897 
L 78.702545 -57.020486 
L 78.377891 -56.792138 
L 78.053236 -56.563853 
L 77.728582 -56.335629 
L 77.403927 -56.107468 
L 77.079273 -55.879369 
L 76.754618 -55.651331 
L 76.429964 -55.423355 
L 76.105309 -55.19544 
L 75.780655 -54.967586 
L 75.456 -54.739793 
L 75.131345 -54.512061 
L 74.806691 -54.284389 
L 74.482036 -54.056777 
L 74.157382 -53.829225 
L 73.832727 -53.601733 
z
" style="stroke: #1f77b4; stroke-opacity: 0.5"/>
    </defs>
    <g clip-path="url(#pdf9916ad3e)">
     <use xlink:href="#mfbae9f54c7" x="0" y="345.6" style="fill: #1f77b4; fill-opacity: 0.5; stroke: #1f77b4; stroke-opacity: 0.5"/>
    </g>
   </g>
   <g id="line2d_33">
    <path d="M 73.832727 293.709953 
L 398.162618 64.0297 
L 398.162618 64.0297 
" clip-path="url(#pdf9916ad3e)" style="fill: none; stroke: #1f77b4; stroke-linecap: square"/>
   </g>
   <g id="LineCollection_1">
    <path d="M 73.832727 295.488 
L 73.832727 292.038483 
" clip-path="url(#pdf9916ad3e)" style="fill: none; stroke: #ff7f0e"/>
    <path d="M 196.406382 212.762403 
L 196.406382 197.853431 
" clip-path="url(#pdf9916ad3e)" style="fill: none; stroke: #ff7f0e"/>
    <path d="M 398.487273 77.019415 
L 398.487273 53.568 
" clip-path="url(#pdf9916ad3e)" style="fill: none; stroke: #ff7f0e"/>
   </g>
   <g id="line2d_34">
    <defs>
     <path id="mff7c64456c" d="M 1.5 0 
L -1.5 -0 
" style="stroke: #ff7f0e"/>
    </defs>
    <g clip-path="url(#pdf9916ad3e)">
     <use xlink:href="#mff7c64456c" x="73.832727" y="295.488" style="fill: #ff7f0e; stroke: #ff7f0e"/>
     <use xlink:href="#mff7c64456c" x="196.406382" y="212.762403" style="fill: #ff7f0e; stroke: #ff7f0e"/>
     <use xlink:href="#mff7c64456c" x="398.487273" y="77.019415" style="fill: #ff7f0e; stroke: #ff7f0e"/>
    </g>
   </g>
   <g id="line2d_35">
    <g clip-path="url(#pdf9916ad3e)">
     <use xlink:href="#mff7c64456c" x="73.832727" y="292.038483" style="fill: #ff7f0e; stroke: #ff7f0e"/>
     <use xlink:href="#mff7c64456c" x="196.406382" y="197.853431" style="fill: #ff7f0e; stroke: #ff7f0e"/>
     <use xlink:href="#mff7c64456c" x="398.487273" y="53.568" style="fill: #ff7f0e; stroke: #ff7f0e"/>
    </g>
   </g>
   <g id="line2d_36">
    <defs>
     <path id="mee43c53419" d="M 0 4 
C 1.060812 4 2.078319 3.578535 2.828427 2.828427 
C 3.578535 2.078319 4 1.060812 4 0 
C 4 -1.060812 3.578535 -2.078319 2.828427 -2.828427 
C 2.078319 -3.578535 1.060812 -4 0 -4 
C -1.060812 -4 -2.078319 -3.578535 -2.828427 -2.828427 
C -3.578535 -2.078319 -4 -1.060812 -4 0 
C -4 1.060812 -3.578535 2.078319 -2.828427 2.828427 
C -2.078319 3.578535 -1.060812 4 0 4 
z
" style="stroke: #ff7f0e"/>
    </defs>
    <g clip-path="url(#pdf9916ad3e)">
     <use xlink:href="#mee43c53419" x="73.832727" y="293.763242" style="fill-opacity: 0; stroke: #ff7f0e"/>
     <use xlink:href="#mee43c53419" x="196.406382" y="205.307917" style="fill-opacity: 0; stroke: #ff7f0e"/>
     <use xlink:href="#mee43c53419" x="398.487273" y="65.293708" style="fill-opacity: 0; stroke: #ff7f0e"/>
    </g>
   </g>
  </g>
 </g>
 <defs>
  <clipPath id="pdf9916ad3e">
   <rect x="57.6" y="41.472" width="357.12" height="266.112"/>
  </clipPath>
 </defs>
</svg>
