<?xml version="1.0" encoding="utf-8" standalone="no"?>
<!DOCTYPE svg PUBLIC "-//W3C//DTD SVG 1.1//EN"
  "http://www.w3.org/Graphics/SVG/1.1/DTD/svg11.dtd">
<svg xmlns:xlink="http://www.w3.org/1999/xlink" width="460.8pt" height="345.6pt" viewBox="0 0 460.8 345.6" xmlns="http://www.w3.org/2000/svg" version="1.1">
 <metadata>
  <rdf:RDF xmlns:dc="http://purl.org/dc/elements/1.1/" xmlns:cc="http://creativecommons.org/ns#" xmlns:rdf="http://www.w3.org/1999/02/22-rdf-syntax-ns#">
   <cc:Work>
    <dc:type rdf:resource="http://purl.org/dc/dcmitype/StillImage"/>
    <dc:date>2024-08-15T17:39:15.012887</dc:date>
    <dc:format>image/svg+xml</dc:format>
    <dc:creator>
     <cc:Agent>
      <dc:title>Matplotlib v3.9.1.post1, https://matplotlib.org/</dc:title>
     </cc:Agent>
    </dc:creator>
   </cc:Work>
  </rdf:RDF>
 </metadata>
 <defs>
  <style type="text/css">*{stroke-linejoin: round; stroke-linecap: butt}</style>
 </defs>
 <g id="figure_1">
  <g id="patch_1">
   <path d="M 0 345.6 
L 460.8 345.6 
L 460.8 0 
L 0 0 
z
" style="fill: #ffffff"/>
  </g>
  <g id="axes_1">
   <g id="patch_2">
    <path d="M 57.6 307.584 
L 414.72 307.584 
L 414.72 41.472 
L 57.6 41.472 
z
" style="fill: #ffffff"/>
   </g>
   <g id="matplotlib.axis_1">
    <g id="xtick_1">
     <g id="line2d_1">
      <defs>
       <path id="m1babed0860" d="M 0 0 
L 0 -3.5 
" style="stroke: #000000; stroke-width: 0.8"/>
      </defs>
      <g>
       <use xlink:href="#m1babed0860" x="89.292468" y="307.584" style="stroke: #000000; stroke-width: 0.8"/>
      </g>
     </g>
     <g id="line2d_2">
      <defs>
       <path id="mb01fb205b3" d="M 0 0 
L 0 3.5 
" style="stroke: #000000; stroke-width: 0.8"/>
      </defs>
      <g>
       <use xlink:href="#mb01fb205b3" x="89.292468" y="41.472" style="stroke: #000000; stroke-width: 0.8"/>
      </g>
     </g>
     <g id="text_1">
      <!-- 20 -->
      <g transform="translate(84.335989 326.615528) rotate(-30) scale(0.12 -0.12)">
       <defs>
        <path id="DejaVuSans-32" d="M 1228 531 
L 3431 531 
L 3431 0 
L 469 0 
L 469 531 
Q 828 903 1448 1529 
Q 2069 2156 2228 2338 
Q 2531 2678 2651 2914 
Q 2772 3150 2772 3378 
Q 2772 3750 2511 3984 
Q 2250 4219 1831 4219 
Q 1534 4219 1204 4116 
Q 875 4013 500 3803 
L 500 4441 
Q 881 4594 1212 4672 
Q 1544 4750 1819 4750 
Q 2544 4750 2975 4387 
Q 3406 4025 3406 3419 
Q 3406 3131 3298 2873 
Q 3191 2616 2906 2266 
Q 2828 2175 2409 1742 
Q 1991 1309 1228 531 
z
" transform="scale(0.015625)"/>
        <path id="DejaVuSans-30" d="M 2034 4250 
Q 1547 4250 1301 3770 
Q 1056 3291 1056 2328 
Q 1056 1369 1301 889 
Q 1547 409 2034 409 
Q 2525 409 2770 889 
Q 3016 1369 3016 2328 
Q 3016 3291 2770 3770 
Q 2525 4250 2034 4250 
z
M 2034 4750 
Q 2819 4750 3233 4129 
Q 3647 3509 3647 2328 
Q 3647 1150 3233 529 
Q 2819 -91 2034 -91 
Q 1250 -91 836 529 
Q 422 1150 422 2328 
Q 422 3509 836 4129 
Q 1250 4750 2034 4750 
z
" transform="scale(0.015625)"/>
       </defs>
       <use xlink:href="#DejaVuSans-32"/>
       <use xlink:href="#DejaVuSans-30" x="63.623047"/>
      </g>
     </g>
    </g>
    <g id="xtick_2">
     <g id="line2d_3">
      <g>
       <use xlink:href="#m1babed0860" x="166.591169" y="307.584" style="stroke: #000000; stroke-width: 0.8"/>
      </g>
     </g>
     <g id="line2d_4">
      <g>
       <use xlink:href="#mb01fb205b3" x="166.591169" y="41.472" style="stroke: #000000; stroke-width: 0.8"/>
      </g>
     </g>
     <g id="text_2">
      <!-- 30 -->
      <g transform="translate(161.63469 326.615528) rotate(-30) scale(0.12 -0.12)">
       <defs>
        <path id="DejaVuSans-33" d="M 2597 2516 
Q 3050 2419 3304 2112 
Q 3559 1806 3559 1356 
Q 3559 666 3084 287 
Q 2609 -91 1734 -91 
Q 1441 -91 1130 -33 
Q 819 25 488 141 
L 488 750 
Q 750 597 1062 519 
Q 1375 441 1716 441 
Q 2309 441 2620 675 
Q 2931 909 2931 1356 
Q 2931 1769 2642 2001 
Q 2353 2234 1838 2234 
L 1294 2234 
L 1294 2753 
L 1863 2753 
Q 2328 2753 2575 2939 
Q 2822 3125 2822 3475 
Q 2822 3834 2567 4026 
Q 2313 4219 1838 4219 
Q 1578 4219 1281 4162 
Q 984 4106 628 3988 
L 628 4550 
Q 988 4650 1302 4700 
Q 1616 4750 1894 4750 
Q 2613 4750 3031 4423 
Q 3450 4097 3450 3541 
Q 3450 3153 3228 2886 
Q 3006 2619 2597 2516 
z
" transform="scale(0.015625)"/>
       </defs>
       <use xlink:href="#DejaVuSans-33"/>
       <use xlink:href="#DejaVuSans-30" x="63.623047"/>
      </g>
     </g>
    </g>
    <g id="xtick_3">
     <g id="line2d_5">
      <g>
       <use xlink:href="#m1babed0860" x="243.88987" y="307.584" style="stroke: #000000; stroke-width: 0.8"/>
      </g>
     </g>
     <g id="line2d_6">
      <g>
       <use xlink:href="#mb01fb205b3" x="243.88987" y="41.472" style="stroke: #000000; stroke-width: 0.8"/>
      </g>
     </g>
     <g id="text_3">
      <!-- 40 -->
      <g transform="translate(238.933391 326.615528) rotate(-30) scale(0.12 -0.12)">
       <defs>
        <path id="DejaVuSans-34" d="M 2419 4116 
L 825 1625 
L 2419 1625 
L 2419 4116 
z
M 2253 4666 
L 3047 4666 
L 3047 1625 
L 3713 1625 
L 3713 1100 
L 3047 1100 
L 3047 0 
L 2419 0 
L 2419 1100 
L 313 1100 
L 313 1709 
L 2253 4666 
z
" transform="scale(0.015625)"/>
       </defs>
       <use xlink:href="#DejaVuSans-34"/>
       <use xlink:href="#DejaVuSans-30" x="63.623047"/>
      </g>
     </g>
    </g>
    <g id="xtick_4">
     <g id="line2d_7">
      <g>
       <use xlink:href="#m1babed0860" x="321.188571" y="307.584" style="stroke: #000000; stroke-width: 0.8"/>
      </g>
     </g>
     <g id="line2d_8">
      <g>
       <use xlink:href="#mb01fb205b3" x="321.188571" y="41.472" style="stroke: #000000; stroke-width: 0.8"/>
      </g>
     </g>
     <g id="text_4">
      <!-- 50 -->
      <g transform="translate(316.232092 326.615528) rotate(-30) scale(0.12 -0.12)">
       <defs>
        <path id="DejaVuSans-35" d="M 691 4666 
L 3169 4666 
L 3169 4134 
L 1269 4134 
L 1269 2991 
Q 1406 3038 1543 3061 
Q 1681 3084 1819 3084 
Q 2600 3084 3056 2656 
Q 3513 2228 3513 1497 
Q 3513 744 3044 326 
Q 2575 -91 1722 -91 
Q 1428 -91 1123 -41 
Q 819 9 494 109 
L 494 744 
Q 775 591 1075 516 
Q 1375 441 1709 441 
Q 2250 441 2565 725 
Q 2881 1009 2881 1497 
Q 2881 1984 2565 2268 
Q 2250 2553 1709 2553 
Q 1456 2553 1204 2497 
Q 953 2441 691 2322 
L 691 4666 
z
" transform="scale(0.015625)"/>
       </defs>
       <use xlink:href="#DejaVuSans-35"/>
       <use xlink:href="#DejaVuSans-30" x="63.623047"/>
      </g>
     </g>
    </g>
    <g id="xtick_5">
     <g id="line2d_9">
      <g>
       <use xlink:href="#m1babed0860" x="398.487273" y="307.584" style="stroke: #000000; stroke-width: 0.8"/>
      </g>
     </g>
     <g id="line2d_10">
      <g>
       <use xlink:href="#mb01fb205b3" x="398.487273" y="41.472" style="stroke: #000000; stroke-width: 0.8"/>
      </g>
     </g>
     <g id="text_5">
      <!-- 60 -->
      <g transform="translate(393.530794 326.615528) rotate(-30) scale(0.12 -0.12)">
       <defs>
        <path id="DejaVuSans-36" d="M 2113 2584 
Q 1688 2584 1439 2293 
Q 1191 2003 1191 1497 
Q 1191 994 1439 701 
Q 1688 409 2113 409 
Q 2538 409 2786 701 
Q 3034 994 3034 1497 
Q 3034 2003 2786 2293 
Q 2538 2584 2113 2584 
z
M 3366 4563 
L 3366 3988 
Q 3128 4100 2886 4159 
Q 2644 4219 2406 4219 
Q 1781 4219 1451 3797 
Q 1122 3375 1075 2522 
Q 1259 2794 1537 2939 
Q 1816 3084 2150 3084 
Q 2853 3084 3261 2657 
Q 3669 2231 3669 1497 
Q 3669 778 3244 343 
Q 2819 -91 2113 -91 
Q 1303 -91 875 529 
Q 447 1150 447 2328 
Q 447 3434 972 4092 
Q 1497 4750 2381 4750 
Q 2619 4750 2861 4703 
Q 3103 4656 3366 4563 
z
" transform="scale(0.015625)"/>
       </defs>
       <use xlink:href="#DejaVuSans-36"/>
       <use xlink:href="#DejaVuSans-30" x="63.623047"/>
      </g>
     </g>
    </g>
    <g id="text_6">
     <!-- $N_s$ -->
     <g transform="translate(229.26 341.894928) scale(0.12 -0.12)">
      <defs>
       <path id="DejaVuSans-Oblique-4e" d="M 1081 4666 
L 1931 4666 
L 3219 666 
L 4000 4666 
L 4616 4666 
L 3706 0 
L 2853 0 
L 1569 4025 
L 788 0 
L 172 0 
L 1081 4666 
z
" transform="scale(0.015625)"/>
       <path id="DejaVuSans-Oblique-73" d="M 3200 3397 
L 3091 2853 
Q 2863 2978 2609 3040 
Q 2356 3103 2088 3103 
Q 1634 3103 1373 2948 
Q 1113 2794 1113 2528 
Q 1113 2219 1719 2053 
Q 1766 2041 1788 2034 
L 1972 1978 
Q 2547 1819 2739 1644 
Q 2931 1469 2931 1166 
Q 2931 609 2489 259 
Q 2047 -91 1331 -91 
Q 1053 -91 747 -37 
Q 441 16 72 128 
L 184 722 
Q 500 559 806 475 
Q 1113 391 1394 391 
Q 1816 391 2080 572 
Q 2344 753 2344 1031 
Q 2344 1331 1650 1516 
L 1591 1531 
L 1394 1581 
Q 956 1697 753 1886 
Q 550 2075 550 2369 
Q 550 2928 970 3256 
Q 1391 3584 2113 3584 
Q 2397 3584 2667 3537 
Q 2938 3491 3200 3397 
z
" transform="scale(0.015625)"/>
      </defs>
      <use xlink:href="#DejaVuSans-Oblique-4e" transform="translate(0 0.09375)"/>
      <use xlink:href="#DejaVuSans-Oblique-73" transform="translate(74.804688 -16.3125) scale(0.7)"/>
     </g>
    </g>
   </g>
   <g id="matplotlib.axis_2">
    <g id="ytick_1">
     <g id="line2d_11">
      <defs>
       <path id="mad7d4aeb0d" d="M 0 0 
L 3.5 0 
" style="stroke: #000000; stroke-width: 0.8"/>
      </defs>
      <g>
       <use xlink:href="#mad7d4aeb0d" x="57.6" y="254.540631" style="stroke: #000000; stroke-width: 0.8"/>
      </g>
     </g>
     <g id="line2d_12">
      <defs>
       <path id="me9c618301d" d="M 0 0 
L -3.5 0 
" style="stroke: #000000; stroke-width: 0.8"/>
      </defs>
      <g>
       <use xlink:href="#me9c618301d" x="414.72" y="254.540631" style="stroke: #000000; stroke-width: 0.8"/>
      </g>
     </g>
     <g id="text_7">
      <!-- 0.5 -->
      <g transform="translate(35.01625 259.099693) scale(0.12 -0.12)">
       <defs>
        <path id="DejaVuSans-2e" d="M 684 794 
L 1344 794 
L 1344 0 
L 684 0 
L 684 794 
z
" transform="scale(0.015625)"/>
       </defs>
       <use xlink:href="#DejaVuSans-30"/>
       <use xlink:href="#DejaVuSans-2e" x="63.623047"/>
       <use xlink:href="#DejaVuSans-35" x="95.410156"/>
      </g>
     </g>
    </g>
    <g id="ytick_2">
     <g id="line2d_13">
      <g>
       <use xlink:href="#mad7d4aeb0d" x="57.6" y="196.582177" style="stroke: #000000; stroke-width: 0.8"/>
      </g>
     </g>
     <g id="line2d_14">
      <g>
       <use xlink:href="#me9c618301d" x="414.72" y="196.582177" style="stroke: #000000; stroke-width: 0.8"/>
      </g>
     </g>
     <g id="text_8">
      <!-- 1.0 -->
      <g transform="translate(35.01625 201.141239) scale(0.12 -0.12)">
       <defs>
        <path id="DejaVuSans-31" d="M 794 531 
L 1825 531 
L 1825 4091 
L 703 3866 
L 703 4441 
L 1819 4666 
L 2450 4666 
L 2450 531 
L 3481 531 
L 3481 0 
L 794 0 
L 794 531 
z
" transform="scale(0.015625)"/>
       </defs>
       <use xlink:href="#DejaVuSans-31"/>
       <use xlink:href="#DejaVuSans-2e" x="63.623047"/>
       <use xlink:href="#DejaVuSans-30" x="95.410156"/>
      </g>
     </g>
    </g>
    <g id="ytick_3">
     <g id="line2d_15">
      <g>
       <use xlink:href="#mad7d4aeb0d" x="57.6" y="138.623723" style="stroke: #000000; stroke-width: 0.8"/>
      </g>
     </g>
     <g id="line2d_16">
      <g>
       <use xlink:href="#me9c618301d" x="414.72" y="138.623723" style="stroke: #000000; stroke-width: 0.8"/>
      </g>
     </g>
     <g id="text_9">
      <!-- 1.5 -->
      <g transform="translate(35.01625 143.182786) scale(0.12 -0.12)">
       <use xlink:href="#DejaVuSans-31"/>
       <use xlink:href="#DejaVuSans-2e" x="63.623047"/>
       <use xlink:href="#DejaVuSans-35" x="95.410156"/>
      </g>
     </g>
    </g>
    <g id="ytick_4">
     <g id="line2d_17">
      <g>
       <use xlink:href="#mad7d4aeb0d" x="57.6" y="80.665269" style="stroke: #000000; stroke-width: 0.8"/>
      </g>
     </g>
     <g id="line2d_18">
      <g>
       <use xlink:href="#me9c618301d" x="414.72" y="80.665269" style="stroke: #000000; stroke-width: 0.8"/>
      </g>
     </g>
     <g id="text_10">
      <!-- 2.0 -->
      <g transform="translate(35.01625 85.224332) scale(0.12 -0.12)">
       <use xlink:href="#DejaVuSans-32"/>
       <use xlink:href="#DejaVuSans-2e" x="63.623047"/>
       <use xlink:href="#DejaVuSans-30" x="95.410156"/>
      </g>
     </g>
    </g>
    <g id="text_11">
     <!-- $\chi_{max}$ -->
     <g transform="translate(28.49625 187.428) rotate(-90) scale(0.12 -0.12)">
      <defs>
       <path id="DejaVuSans-Oblique-3c7" d="M 1922 -781 
L 1691 416 
L 394 -1334 
L -284 -1334 
L 1553 1141 
L 1269 2613 
Q 1194 3006 713 3006 
L 559 3006 
L 653 3500 
L 872 3494 
Q 1675 3472 1775 2950 
L 2006 1753 
L 3303 3503 
L 3981 3503 
L 2144 1028 
L 2428 -444 
Q 2503 -838 2984 -838 
L 3138 -838 
L 3044 -1331 
L 2825 -1325 
Q 2022 -1303 1922 -781 
z
" transform="scale(0.015625)"/>
       <path id="DejaVuSans-Oblique-6d" d="M 5747 2113 
L 5338 0 
L 4763 0 
L 5166 2094 
Q 5191 2228 5203 2325 
Q 5216 2422 5216 2491 
Q 5216 2772 5059 2928 
Q 4903 3084 4622 3084 
Q 4203 3084 3875 2770 
Q 3547 2456 3450 1953 
L 3066 0 
L 2491 0 
L 2900 2094 
Q 2925 2209 2937 2307 
Q 2950 2406 2950 2484 
Q 2950 2769 2794 2926 
Q 2638 3084 2363 3084 
Q 1938 3084 1609 2770 
Q 1281 2456 1184 1953 
L 800 0 
L 225 0 
L 909 3500 
L 1484 3500 
L 1375 2956 
Q 1609 3263 1923 3423 
Q 2238 3584 2597 3584 
Q 2978 3584 3223 3384 
Q 3469 3184 3519 2828 
Q 3781 3197 4126 3390 
Q 4472 3584 4856 3584 
Q 5306 3584 5551 3325 
Q 5797 3066 5797 2591 
Q 5797 2488 5784 2364 
Q 5772 2241 5747 2113 
z
" transform="scale(0.015625)"/>
       <path id="DejaVuSans-Oblique-61" d="M 3438 1997 
L 3047 0 
L 2472 0 
L 2578 531 
Q 2325 219 2001 64 
Q 1678 -91 1281 -91 
Q 834 -91 548 182 
Q 263 456 263 884 
Q 263 1497 752 1853 
Q 1241 2209 2100 2209 
L 2900 2209 
L 2931 2363 
Q 2938 2388 2941 2417 
Q 2944 2447 2944 2509 
Q 2944 2788 2717 2942 
Q 2491 3097 2081 3097 
Q 1800 3097 1504 3025 
Q 1209 2953 897 2809 
L 997 3341 
Q 1322 3463 1633 3523 
Q 1944 3584 2234 3584 
Q 2853 3584 3176 3315 
Q 3500 3047 3500 2534 
Q 3500 2431 3484 2292 
Q 3469 2153 3438 1997 
z
M 2816 1759 
L 2241 1759 
Q 1534 1759 1195 1570 
Q 856 1381 856 984 
Q 856 709 1029 553 
Q 1203 397 1509 397 
Q 1978 397 2328 733 
Q 2678 1069 2791 1631 
L 2816 1759 
z
" transform="scale(0.015625)"/>
       <path id="DejaVuSans-Oblique-78" d="M 3841 3500 
L 2234 1784 
L 3219 0 
L 2559 0 
L 1819 1388 
L 531 0 
L -166 0 
L 1556 1844 
L 641 3500 
L 1300 3500 
L 1972 2234 
L 3144 3500 
L 3841 3500 
z
" transform="scale(0.015625)"/>
      </defs>
      <use xlink:href="#DejaVuSans-Oblique-3c7" transform="translate(0 0.265625)"/>
      <use xlink:href="#DejaVuSans-Oblique-6d" transform="translate(59.179688 -16.140625) scale(0.7)"/>
      <use xlink:href="#DejaVuSans-Oblique-61" transform="translate(127.368164 -16.140625) scale(0.7)"/>
      <use xlink:href="#DejaVuSans-Oblique-78" transform="translate(170.263672 -16.140625) scale(0.7)"/>
     </g>
    </g>
   </g>
   <g id="patch_3">
    <path d="M 57.6 307.584 
L 57.6 41.472 
" style="fill: none; stroke: #000000; stroke-width: 0.8; stroke-linejoin: miter; stroke-linecap: square"/>
   </g>
   <g id="patch_4">
    <path d="M 414.72 307.584 
L 414.72 41.472 
" style="fill: none; stroke: #000000; stroke-width: 0.8; stroke-linejoin: miter; stroke-linecap: square"/>
   </g>
   <g id="patch_5">
    <path d="M 57.6 307.584 
L 414.72 307.584 
" style="fill: none; stroke: #000000; stroke-width: 0.8; stroke-linejoin: miter; stroke-linecap: square"/>
   </g>
   <g id="patch_6">
    <path d="M 57.6 41.472 
L 414.72 41.472 
" style="fill: none; stroke: #000000; stroke-width: 0.8; stroke-linejoin: miter; stroke-linecap: square"/>
   </g>
   <g id="text_12">
    <!-- Power Law Fit of $\chi_{max}$ vs $N_s$ (Reweighting) -->
    <g transform="translate(110.82 35.472) scale(0.12 -0.12)">
     <defs>
      <path id="DejaVuSans-50" d="M 1259 4147 
L 1259 2394 
L 2053 2394 
Q 2494 2394 2734 2622 
Q 2975 2850 2975 3272 
Q 2975 3691 2734 3919 
Q 2494 4147 2053 4147 
L 1259 4147 
z
M 628 4666 
L 2053 4666 
Q 2838 4666 3239 4311 
Q 3641 3956 3641 3272 
Q 3641 2581 3239 2228 
Q 2838 1875 2053 1875 
L 1259 1875 
L 1259 0 
L 628 0 
L 628 4666 
z
" transform="scale(0.015625)"/>
      <path id="DejaVuSans-6f" d="M 1959 3097 
Q 1497 3097 1228 2736 
Q 959 2375 959 1747 
Q 959 1119 1226 758 
Q 1494 397 1959 397 
Q 2419 397 2687 759 
Q 2956 1122 2956 1747 
Q 2956 2369 2687 2733 
Q 2419 3097 1959 3097 
z
M 1959 3584 
Q 2709 3584 3137 3096 
Q 3566 2609 3566 1747 
Q 3566 888 3137 398 
Q 2709 -91 1959 -91 
Q 1206 -91 779 398 
Q 353 888 353 1747 
Q 353 2609 779 3096 
Q 1206 3584 1959 3584 
z
" transform="scale(0.015625)"/>
      <path id="DejaVuSans-77" d="M 269 3500 
L 844 3500 
L 1563 769 
L 2278 3500 
L 2956 3500 
L 3675 769 
L 4391 3500 
L 4966 3500 
L 4050 0 
L 3372 0 
L 2619 2869 
L 1863 0 
L 1184 0 
L 269 3500 
z
" transform="scale(0.015625)"/>
      <path id="DejaVuSans-65" d="M 3597 1894 
L 3597 1613 
L 953 1613 
Q 991 1019 1311 708 
Q 1631 397 2203 397 
Q 2534 397 2845 478 
Q 3156 559 3463 722 
L 3463 178 
Q 3153 47 2828 -22 
Q 2503 -91 2169 -91 
Q 1331 -91 842 396 
Q 353 884 353 1716 
Q 353 2575 817 3079 
Q 1281 3584 2069 3584 
Q 2775 3584 3186 3129 
Q 3597 2675 3597 1894 
z
M 3022 2063 
Q 3016 2534 2758 2815 
Q 2500 3097 2075 3097 
Q 1594 3097 1305 2825 
Q 1016 2553 972 2059 
L 3022 2063 
z
" transform="scale(0.015625)"/>
      <path id="DejaVuSans-72" d="M 2631 2963 
Q 2534 3019 2420 3045 
Q 2306 3072 2169 3072 
Q 1681 3072 1420 2755 
Q 1159 2438 1159 1844 
L 1159 0 
L 581 0 
L 581 3500 
L 1159 3500 
L 1159 2956 
Q 1341 3275 1631 3429 
Q 1922 3584 2338 3584 
Q 2397 3584 2469 3576 
Q 2541 3569 2628 3553 
L 2631 2963 
z
" transform="scale(0.015625)"/>
      <path id="DejaVuSans-20" transform="scale(0.015625)"/>
      <path id="DejaVuSans-4c" d="M 628 4666 
L 1259 4666 
L 1259 531 
L 3531 531 
L 3531 0 
L 628 0 
L 628 4666 
z
" transform="scale(0.015625)"/>
      <path id="DejaVuSans-61" d="M 2194 1759 
Q 1497 1759 1228 1600 
Q 959 1441 959 1056 
Q 959 750 1161 570 
Q 1363 391 1709 391 
Q 2188 391 2477 730 
Q 2766 1069 2766 1631 
L 2766 1759 
L 2194 1759 
z
M 3341 1997 
L 3341 0 
L 2766 0 
L 2766 531 
Q 2569 213 2275 61 
Q 1981 -91 1556 -91 
Q 1019 -91 701 211 
Q 384 513 384 1019 
Q 384 1609 779 1909 
Q 1175 2209 1959 2209 
L 2766 2209 
L 2766 2266 
Q 2766 2663 2505 2880 
Q 2244 3097 1772 3097 
Q 1472 3097 1187 3025 
Q 903 2953 641 2809 
L 641 3341 
Q 956 3463 1253 3523 
Q 1550 3584 1831 3584 
Q 2591 3584 2966 3190 
Q 3341 2797 3341 1997 
z
" transform="scale(0.015625)"/>
      <path id="DejaVuSans-46" d="M 628 4666 
L 3309 4666 
L 3309 4134 
L 1259 4134 
L 1259 2759 
L 3109 2759 
L 3109 2228 
L 1259 2228 
L 1259 0 
L 628 0 
L 628 4666 
z
" transform="scale(0.015625)"/>
      <path id="DejaVuSans-69" d="M 603 3500 
L 1178 3500 
L 1178 0 
L 603 0 
L 603 3500 
z
M 603 4863 
L 1178 4863 
L 1178 4134 
L 603 4134 
L 603 4863 
z
" transform="scale(0.015625)"/>
      <path id="DejaVuSans-74" d="M 1172 4494 
L 1172 3500 
L 2356 3500 
L 2356 3053 
L 1172 3053 
L 1172 1153 
Q 1172 725 1289 603 
Q 1406 481 1766 481 
L 2356 481 
L 2356 0 
L 1766 0 
Q 1100 0 847 248 
Q 594 497 594 1153 
L 594 3053 
L 172 3053 
L 172 3500 
L 594 3500 
L 594 4494 
L 1172 4494 
z
" transform="scale(0.015625)"/>
      <path id="DejaVuSans-66" d="M 2375 4863 
L 2375 4384 
L 1825 4384 
Q 1516 4384 1395 4259 
Q 1275 4134 1275 3809 
L 1275 3500 
L 2222 3500 
L 2222 3053 
L 1275 3053 
L 1275 0 
L 697 0 
L 697 3053 
L 147 3053 
L 147 3500 
L 697 3500 
L 697 3744 
Q 697 4328 969 4595 
Q 1241 4863 1831 4863 
L 2375 4863 
z
" transform="scale(0.015625)"/>
      <path id="DejaVuSans-76" d="M 191 3500 
L 800 3500 
L 1894 563 
L 2988 3500 
L 3597 3500 
L 2284 0 
L 1503 0 
L 191 3500 
z
" transform="scale(0.015625)"/>
      <path id="DejaVuSans-73" d="M 2834 3397 
L 2834 2853 
Q 2591 2978 2328 3040 
Q 2066 3103 1784 3103 
Q 1356 3103 1142 2972 
Q 928 2841 928 2578 
Q 928 2378 1081 2264 
Q 1234 2150 1697 2047 
L 1894 2003 
Q 2506 1872 2764 1633 
Q 3022 1394 3022 966 
Q 3022 478 2636 193 
Q 2250 -91 1575 -91 
Q 1294 -91 989 -36 
Q 684 19 347 128 
L 347 722 
Q 666 556 975 473 
Q 1284 391 1588 391 
Q 1994 391 2212 530 
Q 2431 669 2431 922 
Q 2431 1156 2273 1281 
Q 2116 1406 1581 1522 
L 1381 1569 
Q 847 1681 609 1914 
Q 372 2147 372 2553 
Q 372 3047 722 3315 
Q 1072 3584 1716 3584 
Q 2034 3584 2315 3537 
Q 2597 3491 2834 3397 
z
" transform="scale(0.015625)"/>
      <path id="DejaVuSans-28" d="M 1984 4856 
Q 1566 4138 1362 3434 
Q 1159 2731 1159 2009 
Q 1159 1288 1364 580 
Q 1569 -128 1984 -844 
L 1484 -844 
Q 1016 -109 783 600 
Q 550 1309 550 2009 
Q 550 2706 781 3412 
Q 1013 4119 1484 4856 
L 1984 4856 
z
" transform="scale(0.015625)"/>
      <path id="DejaVuSans-52" d="M 2841 2188 
Q 3044 2119 3236 1894 
Q 3428 1669 3622 1275 
L 4263 0 
L 3584 0 
L 2988 1197 
Q 2756 1666 2539 1819 
Q 2322 1972 1947 1972 
L 1259 1972 
L 1259 0 
L 628 0 
L 628 4666 
L 2053 4666 
Q 2853 4666 3247 4331 
Q 3641 3997 3641 3322 
Q 3641 2881 3436 2590 
Q 3231 2300 2841 2188 
z
M 1259 4147 
L 1259 2491 
L 2053 2491 
Q 2509 2491 2742 2702 
Q 2975 2913 2975 3322 
Q 2975 3731 2742 3939 
Q 2509 4147 2053 4147 
L 1259 4147 
z
" transform="scale(0.015625)"/>
      <path id="DejaVuSans-67" d="M 2906 1791 
Q 2906 2416 2648 2759 
Q 2391 3103 1925 3103 
Q 1463 3103 1205 2759 
Q 947 2416 947 1791 
Q 947 1169 1205 825 
Q 1463 481 1925 481 
Q 2391 481 2648 825 
Q 2906 1169 2906 1791 
z
M 3481 434 
Q 3481 -459 3084 -895 
Q 2688 -1331 1869 -1331 
Q 1566 -1331 1297 -1286 
Q 1028 -1241 775 -1147 
L 775 -588 
Q 1028 -725 1275 -790 
Q 1522 -856 1778 -856 
Q 2344 -856 2625 -561 
Q 2906 -266 2906 331 
L 2906 616 
Q 2728 306 2450 153 
Q 2172 0 1784 0 
Q 1141 0 747 490 
Q 353 981 353 1791 
Q 353 2603 747 3093 
Q 1141 3584 1784 3584 
Q 2172 3584 2450 3431 
Q 2728 3278 2906 2969 
L 2906 3500 
L 3481 3500 
L 3481 434 
z
" transform="scale(0.015625)"/>
      <path id="DejaVuSans-68" d="M 3513 2113 
L 3513 0 
L 2938 0 
L 2938 2094 
Q 2938 2591 2744 2837 
Q 2550 3084 2163 3084 
Q 1697 3084 1428 2787 
Q 1159 2491 1159 1978 
L 1159 0 
L 581 0 
L 581 4863 
L 1159 4863 
L 1159 2956 
Q 1366 3272 1645 3428 
Q 1925 3584 2291 3584 
Q 2894 3584 3203 3211 
Q 3513 2838 3513 2113 
z
" transform="scale(0.015625)"/>
      <path id="DejaVuSans-6e" d="M 3513 2113 
L 3513 0 
L 2938 0 
L 2938 2094 
Q 2938 2591 2744 2837 
Q 2550 3084 2163 3084 
Q 1697 3084 1428 2787 
Q 1159 2491 1159 1978 
L 1159 0 
L 581 0 
L 581 3500 
L 1159 3500 
L 1159 2956 
Q 1366 3272 1645 3428 
Q 1925 3584 2291 3584 
Q 2894 3584 3203 3211 
Q 3513 2838 3513 2113 
z
" transform="scale(0.015625)"/>
      <path id="DejaVuSans-29" d="M 513 4856 
L 1013 4856 
Q 1481 4119 1714 3412 
Q 1947 2706 1947 2009 
Q 1947 1309 1714 600 
Q 1481 -109 1013 -844 
L 513 -844 
Q 928 -128 1133 580 
Q 1338 1288 1338 2009 
Q 1338 2731 1133 3434 
Q 928 4138 513 4856 
z
" transform="scale(0.015625)"/>
     </defs>
     <use xlink:href="#DejaVuSans-50" transform="translate(0 0.015625)"/>
     <use xlink:href="#DejaVuSans-6f" transform="translate(60.302734 0.015625)"/>
     <use xlink:href="#DejaVuSans-77" transform="translate(121.484375 0.015625)"/>
     <use xlink:href="#DejaVuSans-65" transform="translate(203.271484 0.015625)"/>
     <use xlink:href="#DejaVuSans-72" transform="translate(264.794922 0.015625)"/>
     <use xlink:href="#DejaVuSans-20" transform="translate(305.908203 0.015625)"/>
     <use xlink:href="#DejaVuSans-4c" transform="translate(337.695312 0.015625)"/>
     <use xlink:href="#DejaVuSans-61" transform="translate(393.408203 0.015625)"/>
     <use xlink:href="#DejaVuSans-77" transform="translate(454.6875 0.015625)"/>
     <use xlink:href="#DejaVuSans-20" transform="translate(536.474609 0.015625)"/>
     <use xlink:href="#DejaVuSans-46" transform="translate(568.261719 0.015625)"/>
     <use xlink:href="#DejaVuSans-69" transform="translate(625.78125 0.015625)"/>
     <use xlink:href="#DejaVuSans-74" transform="translate(653.564453 0.015625)"/>
     <use xlink:href="#DejaVuSans-20" transform="translate(692.773438 0.015625)"/>
     <use xlink:href="#DejaVuSans-6f" transform="translate(724.560547 0.015625)"/>
     <use xlink:href="#DejaVuSans-66" transform="translate(785.742188 0.015625)"/>
     <use xlink:href="#DejaVuSans-20" transform="translate(820.947266 0.015625)"/>
     <use xlink:href="#DejaVuSans-Oblique-3c7" transform="translate(852.734375 0.015625)"/>
     <use xlink:href="#DejaVuSans-Oblique-6d" transform="translate(911.914062 -16.390625) scale(0.7)"/>
     <use xlink:href="#DejaVuSans-Oblique-61" transform="translate(980.102539 -16.390625) scale(0.7)"/>
     <use xlink:href="#DejaVuSans-Oblique-78" transform="translate(1022.998047 -16.390625) scale(0.7)"/>
     <use xlink:href="#DejaVuSans-20" transform="translate(1067.158203 0.015625)"/>
     <use xlink:href="#DejaVuSans-76" transform="translate(1098.945312 0.015625)"/>
     <use xlink:href="#DejaVuSans-73" transform="translate(1158.125 0.015625)"/>
     <use xlink:href="#DejaVuSans-20" transform="translate(1210.224609 0.015625)"/>
     <use xlink:href="#DejaVuSans-Oblique-4e" transform="translate(1242.011719 0.015625)"/>
     <use xlink:href="#DejaVuSans-Oblique-73" transform="translate(1316.816406 -16.390625) scale(0.7)"/>
     <use xlink:href="#DejaVuSans-20" transform="translate(1356.020508 0.015625)"/>
     <use xlink:href="#DejaVuSans-28" transform="translate(1387.807617 0.015625)"/>
     <use xlink:href="#DejaVuSans-52" transform="translate(1426.821289 0.015625)"/>
     <use xlink:href="#DejaVuSans-65" transform="translate(1496.303711 0.015625)"/>
     <use xlink:href="#DejaVuSans-77" transform="translate(1557.827148 0.015625)"/>
     <use xlink:href="#DejaVuSans-65" transform="translate(1639.614258 0.015625)"/>
     <use xlink:href="#DejaVuSans-69" transform="translate(1701.137695 0.015625)"/>
     <use xlink:href="#DejaVuSans-67" transform="translate(1728.920898 0.015625)"/>
     <use xlink:href="#DejaVuSans-68" transform="translate(1792.397461 0.015625)"/>
     <use xlink:href="#DejaVuSans-74" transform="translate(1855.776367 0.015625)"/>
     <use xlink:href="#DejaVuSans-69" transform="translate(1894.985352 0.015625)"/>
     <use xlink:href="#DejaVuSans-6e" transform="translate(1922.768555 0.015625)"/>
     <use xlink:href="#DejaVuSans-67" transform="translate(1986.147461 0.015625)"/>
     <use xlink:href="#DejaVuSans-29" transform="translate(2049.624023 0.015625)"/>
    </g>
   </g>
   <g id="PolyCollection_1">
    <defs>
     <path id="m041e77a8c4" d="M 73.832727 -51.232681 
L 73.832727 -50.29675 
L 74.157382 -50.365257 
L 74.482036 -50.433991 
L 74.806691 -50.502953 
L 75.131345 -50.572142 
L 75.456 -50.641559 
L 75.780655 -50.711204 
L 76.105309 -50.781076 
L 76.429964 -50.851177 
L 76.754618 -50.921505 
L 77.079273 -50.99206 
L 77.403927 -51.062844 
L 77.728582 -51.133856 
L 78.053236 -51.205095 
L 78.377891 -51.276563 
L 78.702545 -51.348259 
L 79.0272 -51.420183 
L 79.351855 -51.492334 
L 79.676509 -51.564714 
L 80.001164 -51.637323 
L 80.325818 -51.710159 
L 80.650473 -51.783223 
L 80.975127 -51.856516 
L 81.299782 -51.930037 
L 81.624436 -52.003786 
L 81.949091 -52.077763 
L 82.273745 -52.151968 
L 82.5984 -52.226401 
L 82.923055 -52.301063 
L 83.247709 -52.375952 
L 83.572364 -52.45107 
L 83.897018 -52.526416 
L 84.221673 -52.60199 
L 84.546327 -52.677791 
L 84.870982 -52.753821 
L 85.195636 -52.830079 
L 85.520291 -52.906565 
L 85.844945 -52.983278 
L 86.1696 -53.06022 
L 86.494255 -53.137389 
L 86.818909 -53.214786 
L 87.143564 -53.292411 
L 87.468218 -53.370263 
L 87.792873 -53.448343 
L 88.117527 -53.526651 
L 88.442182 -53.605186 
L 88.766836 -53.683948 
L 89.091491 -53.762939 
L 89.416145 -53.842156 
L 89.7408 -53.921601 
L 90.065455 -54.001273 
L 90.390109 -54.081172 
L 90.714764 -54.161299 
L 91.039418 -54.241653 
L 91.364073 -54.322234 
L 91.688727 -54.403042 
L 92.013382 -54.484077 
L 92.338036 -54.565339 
L 92.662691 -54.646828 
L 92.987345 -54.728544 
L 93.312 -54.810486 
L 93.636655 -54.892656 
L 93.961309 -54.975053 
L 94.285964 -55.057676 
L 94.610618 -55.140527 
L 94.935273 -55.223604 
L 95.259927 -55.306908 
L 95.584582 -55.390439 
L 95.909236 -55.474197 
L 96.233891 -55.558181 
L 96.558545 -55.642393 
L 96.8832 -55.726832 
L 97.207855 -55.811497 
L 97.532509 -55.89639 
L 97.857164 -55.98151 
L 98.181818 -56.066857 
L 98.506473 -56.152431 
L 98.831127 -56.238233 
L 99.155782 -56.324262 
L 99.480436 -56.410519 
L 99.805091 -56.497004 
L 100.129745 -56.583716 
L 100.4544 -56.670656 
L 100.779055 -56.757825 
L 101.103709 -56.845222 
L 101.428364 -56.932847 
L 101.753018 -57.020701 
L 102.077673 -57.108783 
L 102.402327 -57.197095 
L 102.726982 -57.285636 
L 103.051636 -57.374407 
L 103.376291 -57.463408 
L 103.700945 -57.552638 
L 104.0256 -57.642099 
L 104.350255 -57.731791 
L 104.674909 -57.821713 
L 104.999564 -57.911867 
L 105.324218 -58.002253 
L 105.648873 -58.09287 
L 105.973527 -58.18372 
L 106.298182 -58.274802 
L 106.622836 -58.366117 
L 106.947491 -58.457666 
L 107.272145 -58.549449 
L 107.5968 -58.641466 
L 107.921455 -58.733718 
L 108.246109 -58.826205 
L 108.570764 -58.918927 
L 108.895418 -59.011886 
L 109.220073 -59.105081 
L 109.544727 -59.198513 
L 109.869382 -59.292183 
L 110.194036 -59.386091 
L 110.518691 -59.480238 
L 110.843345 -59.574624 
L 111.168 -59.669249 
L 111.492655 -59.764115 
L 111.817309 -59.859221 
L 112.141964 -59.954569 
L 112.466618 -60.050158 
L 112.791273 -60.145991 
L 113.115927 -60.242066 
L 113.440582 -60.338385 
L 113.765236 -60.434948 
L 114.089891 -60.531757 
L 114.414545 -60.62881 
L 114.7392 -60.72611 
L 115.063855 -60.823657 
L 115.388509 -60.921451 
L 115.713164 -61.019493 
L 116.037818 -61.117784 
L 116.362473 -61.216324 
L 116.687127 -61.315114 
L 117.011782 -61.414155 
L 117.336436 -61.513447 
L 117.661091 -61.61299 
L 117.985745 -61.712787 
L 118.3104 -61.812836 
L 118.635055 -61.91314 
L 118.959709 -62.013697 
L 119.284364 -62.11451 
L 119.609018 -62.215579 
L 119.933673 -62.316905 
L 120.258327 -62.418487 
L 120.582982 -62.520327 
L 120.907636 -62.622426 
L 121.232291 -62.724783 
L 121.556945 -62.827401 
L 121.8816 -62.930278 
L 122.206255 -63.033417 
L 122.530909 -63.136817 
L 122.855564 -63.24048 
L 123.180218 -63.344406 
L 123.504873 -63.448595 
L 123.829527 -63.553048 
L 124.154182 -63.657766 
L 124.478836 -63.76275 
L 124.803491 -63.867999 
L 125.128145 -63.973516 
L 125.4528 -64.079299 
L 125.777455 -64.185351 
L 126.102109 -64.291671 
L 126.426764 -64.39826 
L 126.751418 -64.505119 
L 127.076073 -64.612248 
L 127.400727 -64.719648 
L 127.725382 -64.82732 
L 128.050036 -64.935263 
L 128.374691 -65.04348 
L 128.699345 -65.151969 
L 129.024 -65.260733 
L 129.348655 -65.36977 
L 129.673309 -65.479083 
L 129.997964 -65.588671 
L 130.322618 -65.698535 
L 130.647273 -65.808676 
L 130.971927 -65.919094 
L 131.296582 -66.02979 
L 131.621236 -66.140764 
L 131.945891 -66.252017 
L 132.270545 -66.363548 
L 132.5952 -66.47536 
L 132.919855 -66.587452 
L 133.244509 -66.699825 
L 133.569164 -66.81248 
L 133.893818 -66.925416 
L 134.218473 -67.038634 
L 134.543127 -67.152136 
L 134.867782 -67.26592 
L 135.192436 -67.379989 
L 135.517091 -67.494342 
L 135.841745 -67.60898 
L 136.1664 -67.723903 
L 136.491055 -67.839112 
L 136.815709 -67.954607 
L 137.140364 -68.070389 
L 137.465018 -68.186458 
L 137.789673 -68.302814 
L 138.114327 -68.419459 
L 138.438982 -68.536393 
L 138.763636 -68.653615 
L 139.088291 -68.771127 
L 139.412945 -68.888928 
L 139.7376 -69.00702 
L 140.062255 -69.125403 
L 140.386909 -69.244077 
L 140.711564 -69.363042 
L 141.036218 -69.4823 
L 141.360873 -69.60185 
L 141.685527 -69.721692 
L 142.010182 -69.841829 
L 142.334836 -69.962258 
L 142.659491 -70.082982 
L 142.984145 -70.204001 
L 143.3088 -70.325314 
L 143.633455 -70.446923 
L 143.958109 -70.568827 
L 144.282764 -70.691027 
L 144.607418 -70.813524 
L 144.932073 -70.936318 
L 145.256727 -71.059409 
L 145.581382 -71.182797 
L 145.906036 -71.306484 
L 146.230691 -71.430469 
L 146.555345 -71.554753 
L 146.88 -71.679335 
L 147.204655 -71.804218 
L 147.529309 -71.9294 
L 147.853964 -72.054882 
L 148.178618 -72.180665 
L 148.503273 -72.306749 
L 148.827927 -72.433134 
L 149.152582 -72.559821 
L 149.477236 -72.68681 
L 149.801891 -72.814101 
L 150.126545 -72.941694 
L 150.4512 -73.069591 
L 150.775855 -73.197791 
L 151.100509 -73.326295 
L 151.425164 -73.455103 
L 151.749818 -73.584215 
L 152.074473 -73.713632 
L 152.399127 -73.843353 
L 152.723782 -73.973381 
L 153.048436 -74.103713 
L 153.373091 -74.234352 
L 153.697745 -74.365297 
L 154.0224 -74.496549 
L 154.347055 -74.628108 
L 154.671709 -74.759973 
L 154.996364 -74.892147 
L 155.321018 -75.024628 
L 155.645673 -75.157418 
L 155.970327 -75.290516 
L 156.294982 -75.423922 
L 156.619636 -75.557638 
L 156.944291 -75.691664 
L 157.268945 -75.825998 
L 157.5936 -75.960643 
L 157.918255 -76.095599 
L 158.242909 -76.230864 
L 158.567564 -76.366441 
L 158.892218 -76.502329 
L 159.216873 -76.638528 
L 159.541527 -76.775039 
L 159.866182 -76.911862 
L 160.190836 -77.048997 
L 160.515491 -77.186445 
L 160.840145 -77.324206 
L 161.1648 -77.46228 
L 161.489455 -77.600667 
L 161.814109 -77.739368 
L 162.138764 -77.878383 
L 162.463418 -78.017712 
L 162.788073 -78.157356 
L 163.112727 -78.297314 
L 163.437382 -78.437588 
L 163.762036 -78.578176 
L 164.086691 -78.719081 
L 164.411345 -78.860301 
L 164.736 -79.001837 
L 165.060655 -79.14369 
L 165.385309 -79.285859 
L 165.709964 -79.428345 
L 166.034618 -79.571148 
L 166.359273 -79.714269 
L 166.683927 -79.857707 
L 167.008582 -80.001463 
L 167.333236 -80.145538 
L 167.657891 -80.28993 
L 167.982545 -80.434642 
L 168.3072 -80.579672 
L 168.631855 -80.725021 
L 168.956509 -80.87069 
L 169.281164 -81.016678 
L 169.605818 -81.162986 
L 169.930473 -81.309614 
L 170.255127 -81.456563 
L 170.579782 -81.603832 
L 170.904436 -81.751421 
L 171.229091 -81.899332 
L 171.553745 -82.047564 
L 171.8784 -82.196118 
L 172.203055 -82.344993 
L 172.527709 -82.494191 
L 172.852364 -82.64371 
L 173.177018 -82.793552 
L 173.501673 -82.943717 
L 173.826327 -83.094204 
L 174.150982 -83.245014 
L 174.475636 -83.396148 
L 174.800291 -83.547605 
L 175.124945 -83.699386 
L 175.4496 -83.851491 
L 175.774255 -84.003921 
L 176.098909 -84.156674 
L 176.423564 -84.309752 
L 176.748218 -84.463155 
L 177.072873 -84.616883 
L 177.397527 -84.770936 
L 177.722182 -84.925315 
L 178.046836 -85.080019 
L 178.371491 -85.235049 
L 178.696145 -85.390405 
L 179.0208 -85.546088 
L 179.345455 -85.702097 
L 179.670109 -85.858433 
L 179.994764 -86.015095 
L 180.319418 -86.172085 
L 180.644073 -86.329401 
L 180.968727 -86.487046 
L 181.293382 -86.645018 
L 181.618036 -86.803318 
L 181.942691 -86.961946 
L 182.267345 -87.120902 
L 182.592 -87.280186 
L 182.916655 -87.4398 
L 183.241309 -87.599742 
L 183.565964 -87.760013 
L 183.890618 -87.920613 
L 184.215273 -88.081543 
L 184.539927 -88.242802 
L 184.864582 -88.404391 
L 185.189236 -88.56631 
L 185.513891 -88.728559 
L 185.838545 -88.891139 
L 186.1632 -89.054049 
L 186.487855 -89.217289 
L 186.812509 -89.380861 
L 187.137164 -89.544763 
L 187.461818 -89.708997 
L 187.786473 -89.873562 
L 188.111127 -90.038458 
L 188.435782 -90.203686 
L 188.760436 -90.369247 
L 189.085091 -90.535139 
L 189.409745 -90.701363 
L 189.7344 -90.86792 
L 190.059055 -91.034809 
L 190.383709 -91.202031 
L 190.708364 -91.369586 
L 191.033018 -91.537474 
L 191.357673 -91.705696 
L 191.682327 -91.87425 
L 192.006982 -92.043139 
L 192.331636 -92.21236 
L 192.656291 -92.381916 
L 192.980945 -92.551806 
L 193.3056 -92.72203 
L 193.630255 -92.892588 
L 193.954909 -93.063481 
L 194.279564 -93.234708 
L 194.604218 -93.406271 
L 194.928873 -93.578168 
L 195.253527 -93.7504 
L 195.578182 -93.922967 
L 195.902836 -94.09587 
L 196.227491 -94.269109 
L 196.552145 -94.442683 
L 196.8768 -94.616593 
L 197.201455 -94.790839 
L 197.526109 -94.965421 
L 197.850764 -95.140339 
L 198.175418 -95.315594 
L 198.500073 -95.491185 
L 198.824727 -95.667113 
L 199.149382 -95.843378 
L 199.474036 -96.019979 
L 199.798691 -96.196918 
L 200.123345 -96.374194 
L 200.448 -96.551808 
L 200.772655 -96.729759 
L 201.097309 -96.908047 
L 201.421964 -97.086674 
L 201.746618 -97.265638 
L 202.071273 -97.44494 
L 202.395927 -97.624581 
L 202.720582 -97.80456 
L 203.045236 -97.984877 
L 203.369891 -98.165533 
L 203.694545 -98.346527 
L 204.0192 -98.52786 
L 204.343855 -98.709533 
L 204.668509 -98.891544 
L 204.993164 -99.073894 
L 205.317818 -99.256584 
L 205.642473 -99.439613 
L 205.967127 -99.622982 
L 206.291782 -99.80669 
L 206.616436 -99.990738 
L 206.941091 -100.175126 
L 207.265745 -100.359854 
L 207.5904 -100.544922 
L 207.915055 -100.730331 
L 208.239709 -100.91608 
L 208.564364 -101.102169 
L 208.889018 -101.288599 
L 209.213673 -101.475369 
L 209.538327 -101.66248 
L 209.862982 -101.849933 
L 210.187636 -102.037726 
L 210.512291 -102.22586 
L 210.836945 -102.414336 
L 211.1616 -102.603153 
L 211.486255 -102.792311 
L 211.810909 -102.981812 
L 212.135564 -103.171653 
L 212.460218 -103.361837 
L 212.784873 -103.552362 
L 213.109527 -103.74323 
L 213.434182 -103.934439 
L 213.758836 -104.125991 
L 214.083491 -104.317885 
L 214.408145 -104.510121 
L 214.7328 -104.7027 
L 215.057455 -104.895621 
L 215.382109 -105.088886 
L 215.706764 -105.282492 
L 216.031418 -105.476442 
L 216.356073 -105.670735 
L 216.680727 -105.865371 
L 217.005382 -106.06035 
L 217.330036 -106.255673 
L 217.654691 -106.451338 
L 217.979345 -106.647348 
L 218.304 -106.8437 
L 218.628655 -107.040397 
L 218.953309 -107.237437 
L 219.277964 -107.434821 
L 219.602618 -107.632549 
L 219.927273 -107.830621 
L 220.251927 -108.029037 
L 220.576582 -108.227797 
L 220.901236 -108.426902 
L 221.225891 -108.626351 
L 221.550545 -108.826145 
L 221.8752 -109.026283 
L 222.199855 -109.226765 
L 222.524509 -109.427593 
L 222.849164 -109.628765 
L 223.173818 -109.830282 
L 223.498473 -110.032144 
L 223.823127 -110.234351 
L 224.147782 -110.436904 
L 224.472436 -110.639802 
L 224.797091 -110.843045 
L 225.121745 -111.046633 
L 225.4464 -111.250567 
L 225.771055 -111.454847 
L 226.095709 -111.659472 
L 226.420364 -111.864443 
L 226.745018 -112.06976 
L 227.069673 -112.275422 
L 227.394327 -112.481431 
L 227.718982 -112.687786 
L 228.043636 -112.894487 
L 228.368291 -113.101534 
L 228.692945 -113.308928 
L 229.0176 -113.516668 
L 229.342255 -113.724754 
L 229.666909 -113.933188 
L 229.991564 -114.141967 
L 230.316218 -114.351094 
L 230.640873 -114.560567 
L 230.965527 -114.770388 
L 231.290182 -114.980555 
L 231.614836 -115.191069 
L 231.939491 -115.401931 
L 232.264145 -115.613139 
L 232.5888 -115.824695 
L 232.913455 -116.036599 
L 233.238109 -116.248849 
L 233.562764 -116.461448 
L 233.887418 -116.674394 
L 234.212073 -116.887688 
L 234.536727 -117.101329 
L 234.861382 -117.315318 
L 235.186036 -117.529656 
L 235.510691 -117.744341 
L 235.835345 -117.959374 
L 236.16 -118.174756 
L 236.484655 -118.390486 
L 236.809309 -118.606564 
L 237.133964 -118.82299 
L 237.458618 -119.039765 
L 237.783273 -119.256889 
L 238.107927 -119.474361 
L 238.432582 -119.692182 
L 238.757236 -119.910352 
L 239.081891 -120.128871 
L 239.406545 -120.347738 
L 239.7312 -120.566955 
L 240.055855 -120.786521 
L 240.380509 -121.006436 
L 240.705164 -121.2267 
L 241.029818 -121.447314 
L 241.354473 -121.668277 
L 241.679127 -121.88959 
L 242.003782 -122.111252 
L 242.328436 -122.333264 
L 242.653091 -122.555626 
L 242.977745 -122.778338 
L 243.3024 -123.001399 
L 243.627055 -123.224811 
L 243.951709 -123.448573 
L 244.276364 -123.672684 
L 244.601018 -123.897147 
L 244.925673 -124.121959 
L 245.250327 -124.347122 
L 245.574982 -124.572635 
L 245.899636 -124.798499 
L 246.224291 -125.024714 
L 246.548945 -125.251279 
L 246.8736 -125.478196 
L 247.198255 -125.705463 
L 247.522909 -125.933081 
L 247.847564 -126.161051 
L 248.172218 -126.389371 
L 248.496873 -126.618043 
L 248.821527 -126.847066 
L 249.146182 -127.076441 
L 249.470836 -127.306167 
L 249.795491 -127.536245 
L 250.120145 -127.766674 
L 250.4448 -127.997455 
L 250.769455 -128.228588 
L 251.094109 -128.460073 
L 251.418764 -128.691911 
L 251.743418 -128.9241 
L 252.068073 -129.156641 
L 252.392727 -129.389535 
L 252.717382 -129.622782 
L 253.042036 -129.85638 
L 253.366691 -130.090332 
L 253.691345 -130.324636 
L 254.016 -130.559293 
L 254.340655 -130.794302 
L 254.665309 -131.029665 
L 254.989964 -131.265381 
L 255.314618 -131.501449 
L 255.639273 -131.737872 
L 255.963927 -131.974647 
L 256.288582 -132.211776 
L 256.613236 -132.449258 
L 256.937891 -132.687094 
L 257.262545 -132.925284 
L 257.5872 -133.163828 
L 257.911855 -133.402725 
L 258.236509 -133.641977 
L 258.561164 -133.881582 
L 258.885818 -134.121542 
L 259.210473 -134.361856 
L 259.535127 -134.602524 
L 259.859782 -134.843547 
L 260.184436 -135.084925 
L 260.509091 -135.326657 
L 260.833745 -135.568744 
L 261.1584 -135.811186 
L 261.483055 -136.053983 
L 261.807709 -136.297135 
L 262.132364 -136.540642 
L 262.457018 -136.784505 
L 262.781673 -137.028723 
L 263.106327 -137.273296 
L 263.430982 -137.518225 
L 263.755636 -137.76351 
L 264.080291 -138.009151 
L 264.404945 -138.255148 
L 264.7296 -138.5015 
L 265.054255 -138.748209 
L 265.378909 -138.995274 
L 265.703564 -139.242695 
L 266.028218 -139.490473 
L 266.352873 -139.738608 
L 266.677527 -139.987099 
L 267.002182 -140.235947 
L 267.326836 -140.485151 
L 267.651491 -140.734713 
L 267.976145 -140.984632 
L 268.3008 -141.234908 
L 268.625455 -141.485542 
L 268.950109 -141.736533 
L 269.274764 -141.987881 
L 269.599418 -142.239587 
L 269.924073 -142.491651 
L 270.248727 -142.744073 
L 270.573382 -142.996853 
L 270.898036 -143.249991 
L 271.222691 -143.503488 
L 271.547345 -143.757342 
L 271.872 -144.011555 
L 272.196655 -144.266127 
L 272.521309 -144.521058 
L 272.845964 -144.776347 
L 273.170618 -145.031995 
L 273.495273 -145.288003 
L 273.819927 -145.544369 
L 274.144582 -145.801095 
L 274.469236 -146.05818 
L 274.793891 -146.315625 
L 275.118545 -146.573429 
L 275.4432 -146.831594 
L 275.767855 -147.090118 
L 276.092509 -147.349002 
L 276.417164 -147.608246 
L 276.741818 -147.867851 
L 277.066473 -148.127816 
L 277.391127 -148.388141 
L 277.715782 -148.648828 
L 278.040436 -148.909874 
L 278.365091 -149.171282 
L 278.689745 -149.433051 
L 279.0144 -149.695181 
L 279.339055 -149.957672 
L 279.663709 -150.220525 
L 279.988364 -150.483739 
L 280.313018 -150.747315 
L 280.637673 -151.011252 
L 280.962327 -151.275552 
L 281.286982 -151.540213 
L 281.611636 -151.805237 
L 281.936291 -152.070623 
L 282.260945 -152.336371 
L 282.5856 -152.602482 
L 282.910255 -152.868955 
L 283.234909 -153.135792 
L 283.559564 -153.402991 
L 283.884218 -153.670553 
L 284.208873 -153.938478 
L 284.533527 -154.206767 
L 284.858182 -154.475419 
L 285.182836 -154.744435 
L 285.507491 -155.013815 
L 285.832145 -155.283558 
L 286.1568 -155.553665 
L 286.481455 -155.824137 
L 286.806109 -156.094973 
L 287.130764 -156.366173 
L 287.455418 -156.637737 
L 287.780073 -156.909667 
L 288.104727 -157.181961 
L 288.429382 -157.454619 
L 288.754036 -157.727643 
L 289.078691 -158.001033 
L 289.403345 -158.274787 
L 289.728 -158.548907 
L 290.052655 -158.823393 
L 290.377309 -159.098244 
L 290.701964 -159.373461 
L 291.026618 -159.649044 
L 291.351273 -159.924993 
L 291.675927 -160.201309 
L 292.000582 -160.477991 
L 292.325236 -160.75504 
L 292.649891 -161.032455 
L 292.974545 -161.310237 
L 293.2992 -161.588386 
L 293.623855 -161.866902 
L 293.948509 -162.145786 
L 294.273164 -162.425036 
L 294.597818 -162.704655 
L 294.922473 -162.984641 
L 295.247127 -163.264994 
L 295.571782 -163.545716 
L 295.896436 -163.826806 
L 296.221091 -164.108264 
L 296.545745 -164.390091 
L 296.8704 -164.672286 
L 297.195055 -164.954849 
L 297.519709 -165.237782 
L 297.844364 -165.521083 
L 298.169018 -165.804753 
L 298.493673 -166.088793 
L 298.818327 -166.373202 
L 299.142982 -166.657981 
L 299.467636 -166.943129 
L 299.792291 -167.228647 
L 300.116945 -167.514535 
L 300.4416 -167.800793 
L 300.766255 -168.087421 
L 301.090909 -168.37442 
L 301.415564 -168.661789 
L 301.740218 -168.949529 
L 302.064873 -169.237639 
L 302.389527 -169.526121 
L 302.714182 -169.814973 
L 303.038836 -170.104197 
L 303.363491 -170.393793 
L 303.688145 -170.683759 
L 304.0128 -170.974098 
L 304.337455 -171.264808 
L 304.662109 -171.55589 
L 304.986764 -171.847345 
L 305.311418 -172.139171 
L 305.636073 -172.43137 
L 305.960727 -172.723942 
L 306.285382 -173.016886 
L 306.610036 -173.310203 
L 306.934691 -173.603893 
L 307.259345 -173.897957 
L 307.584 -174.192393 
L 307.908655 -174.487203 
L 308.233309 -174.782386 
L 308.557964 -175.077944 
L 308.882618 -175.373875 
L 309.207273 -175.67018 
L 309.531927 -175.966859 
L 309.856582 -176.263913 
L 310.181236 -176.561341 
L 310.505891 -176.859143 
L 310.830545 -177.157321 
L 311.1552 -177.455873 
L 311.479855 -177.7548 
L 311.804509 -178.054103 
L 312.129164 -178.35378 
L 312.453818 -178.653834 
L 312.778473 -178.954263 
L 313.103127 -179.255068 
L 313.427782 -179.556248 
L 313.752436 -179.857805 
L 314.077091 -180.159738 
L 314.401745 -180.462047 
L 314.7264 -180.764733 
L 315.051055 -181.067796 
L 315.375709 -181.371235 
L 315.700364 -181.675052 
L 316.025018 -181.979245 
L 316.349673 -182.283816 
L 316.674327 -182.588764 
L 316.998982 -182.89409 
L 317.323636 -183.199794 
L 317.648291 -183.505875 
L 317.972945 -183.812334 
L 318.2976 -184.119172 
L 318.622255 -184.426388 
L 318.946909 -184.733982 
L 319.271564 -185.041955 
L 319.596218 -185.350307 
L 319.920873 -185.659038 
L 320.245527 -185.968147 
L 320.570182 -186.277636 
L 320.894836 -186.587505 
L 321.219491 -186.897752 
L 321.544145 -187.20838 
L 321.8688 -187.519387 
L 322.193455 -187.830774 
L 322.518109 -188.142542 
L 322.842764 -188.454689 
L 323.167418 -188.767217 
L 323.492073 -189.080126 
L 323.816727 -189.393415 
L 324.141382 -189.707085 
L 324.466036 -190.021136 
L 324.790691 -190.335569 
L 325.115345 -190.650382 
L 325.44 -190.965577 
L 325.764655 -191.281154 
L 326.089309 -191.597112 
L 326.413964 -191.913453 
L 326.738618 -192.230175 
L 327.063273 -192.54728 
L 327.387927 -192.864767 
L 327.712582 -193.182636 
L 328.037236 -193.500888 
L 328.361891 -193.819523 
L 328.686545 -194.138541 
L 329.0112 -194.457942 
L 329.335855 -194.777726 
L 329.660509 -195.097894 
L 329.985164 -195.418445 
L 330.309818 -195.73938 
L 330.634473 -196.060698 
L 330.959127 -196.382401 
L 331.283782 -196.704488 
L 331.608436 -197.026959 
L 331.933091 -197.349815 
L 332.257745 -197.673055 
L 332.5824 -197.99668 
L 332.907055 -198.32069 
L 333.231709 -198.645085 
L 333.556364 -198.969865 
L 333.881018 -199.29503 
L 334.205673 -199.620581 
L 334.530327 -199.946518 
L 334.854982 -200.27284 
L 335.179636 -200.599549 
L 335.504291 -200.926643 
L 335.828945 -201.254124 
L 336.1536 -201.581991 
L 336.478255 -201.910244 
L 336.802909 -202.238885 
L 337.127564 -202.567912 
L 337.452218 -202.897326 
L 337.776873 -203.227127 
L 338.101527 -203.557316 
L 338.426182 -203.887892 
L 338.750836 -204.218855 
L 339.075491 -204.550207 
L 339.400145 -204.881946 
L 339.7248 -205.214073 
L 340.049455 -205.546589 
L 340.374109 -205.879492 
L 340.698764 -206.212784 
L 341.023418 -206.546465 
L 341.348073 -206.880535 
L 341.672727 -207.214993 
L 341.997382 -207.549841 
L 342.322036 -207.885078 
L 342.646691 -208.220704 
L 342.971345 -208.55672 
L 343.296 -208.893125 
L 343.620655 -209.22992 
L 343.945309 -209.567106 
L 344.269964 -209.904681 
L 344.594618 -210.242646 
L 344.919273 -210.581002 
L 345.243927 -210.919749 
L 345.568582 -211.258886 
L 345.893236 -211.598414 
L 346.217891 -211.938333 
L 346.542545 -212.278643 
L 346.8672 -212.619345 
L 347.191855 -212.960438 
L 347.516509 -213.301922 
L 347.841164 -213.643799 
L 348.165818 -213.986067 
L 348.490473 -214.328727 
L 348.815127 -214.67178 
L 349.139782 -215.015224 
L 349.464436 -215.359061 
L 349.789091 -215.703291 
L 350.113745 -216.047914 
L 350.4384 -216.392929 
L 350.763055 -216.738338 
L 351.087709 -217.08414 
L 351.412364 -217.430335 
L 351.737018 -217.776924 
L 352.061673 -218.123906 
L 352.386327 -218.471282 
L 352.710982 -218.819052 
L 353.035636 -219.167216 
L 353.360291 -219.515775 
L 353.684945 -219.864728 
L 354.0096 -220.214075 
L 354.334255 -220.563817 
L 354.658909 -220.913954 
L 354.983564 -221.264486 
L 355.308218 -221.615413 
L 355.632873 -221.966735 
L 355.957527 -222.318453 
L 356.282182 -222.670566 
L 356.606836 -223.023075 
L 356.931491 -223.37598 
L 357.256145 -223.72928 
L 357.5808 -224.082977 
L 357.905455 -224.437071 
L 358.230109 -224.79156 
L 358.554764 -225.146447 
L 358.879418 -225.50173 
L 359.204073 -225.857409 
L 359.528727 -226.213486 
L 359.853382 -226.56996 
L 360.178036 -226.926832 
L 360.502691 -227.284101 
L 360.827345 -227.641767 
L 361.152 -227.999831 
L 361.476655 -228.358293 
L 361.801309 -228.717153 
L 362.125964 -229.076412 
L 362.450618 -229.436068 
L 362.775273 -229.796123 
L 363.099927 -230.156577 
L 363.424582 -230.51743 
L 363.749236 -230.878681 
L 364.073891 -231.240331 
L 364.398545 -231.602381 
L 364.7232 -231.96483 
L 365.047855 -232.327679 
L 365.372509 -232.690927 
L 365.697164 -233.054575 
L 366.021818 -233.418622 
L 366.346473 -233.78307 
L 366.671127 -234.147918 
L 366.995782 -234.513167 
L 367.320436 -234.878816 
L 367.645091 -235.244865 
L 367.969745 -235.611316 
L 368.2944 -235.978167 
L 368.619055 -236.345419 
L 368.943709 -236.713073 
L 369.268364 -237.081128 
L 369.593018 -237.449584 
L 369.917673 -237.818443 
L 370.242327 -238.187702 
L 370.566982 -238.557364 
L 370.891636 -238.927428 
L 371.216291 -239.297894 
L 371.540945 -239.668763 
L 371.8656 -240.040034 
L 372.190255 -240.411708 
L 372.514909 -240.783784 
L 372.839564 -241.156263 
L 373.164218 -241.529146 
L 373.488873 -241.902432 
L 373.813527 -242.276121 
L 374.138182 -242.650213 
L 374.462836 -243.024709 
L 374.787491 -243.399609 
L 375.112145 -243.774913 
L 375.4368 -244.150621 
L 375.761455 -244.526734 
L 376.086109 -244.90325 
L 376.410764 -245.280171 
L 376.735418 -245.657497 
L 377.060073 -246.035228 
L 377.384727 -246.413363 
L 377.709382 -246.791904 
L 378.034036 -247.17085 
L 378.358691 -247.550201 
L 378.683345 -247.929957 
L 379.008 -248.31012 
L 379.332655 -248.690688 
L 379.657309 -249.071662 
L 379.981964 -249.453042 
L 380.306618 -249.834828 
L 380.631273 -250.21702 
L 380.955927 -250.59962 
L 381.280582 -250.982625 
L 381.605236 -251.366038 
L 381.929891 -251.749857 
L 382.254545 -252.134084 
L 382.5792 -252.518717 
L 382.903855 -252.903758 
L 383.228509 -253.289207 
L 383.553164 -253.675063 
L 383.877818 -254.061326 
L 384.202473 -254.447998 
L 384.527127 -254.835078 
L 384.851782 -255.222566 
L 385.176436 -255.610462 
L 385.501091 -255.998767 
L 385.825745 -256.38748 
L 386.1504 -256.776602 
L 386.475055 -257.166133 
L 386.799709 -257.556073 
L 387.124364 -257.946422 
L 387.449018 -258.33718 
L 387.773673 -258.728348 
L 388.098327 -259.119926 
L 388.422982 -259.511913 
L 388.747636 -259.90431 
L 389.072291 -260.297117 
L 389.396945 -260.690334 
L 389.7216 -261.083961 
L 390.046255 -261.477999 
L 390.370909 -261.872447 
L 390.695564 -262.267306 
L 391.020218 -262.662576 
L 391.344873 -263.058257 
L 391.669527 -263.454349 
L 391.994182 -263.850852 
L 392.318836 -264.247767 
L 392.643491 -264.645093 
L 392.968145 -265.042831 
L 393.2928 -265.44098 
L 393.617455 -265.839542 
L 393.942109 -266.238515 
L 394.266764 -266.637901 
L 394.591418 -267.037699 
L 394.916073 -267.43791 
L 395.240727 -267.838533 
L 395.565382 -268.239569 
L 395.890036 -268.641018 
L 396.214691 -269.04288 
L 396.539345 -269.445156 
L 396.864 -269.847844 
L 397.188655 -270.250946 
L 397.513309 -270.654462 
L 397.837964 -271.058391 
L 398.162618 -271.462734 
L 398.162618 -286.576828 
L 398.162618 -286.576828 
L 397.837964 -286.124477 
L 397.513309 -285.672647 
L 397.188655 -285.221337 
L 396.864 -284.770547 
L 396.539345 -284.320277 
L 396.214691 -283.870527 
L 395.890036 -283.421296 
L 395.565382 -282.972584 
L 395.240727 -282.524391 
L 394.916073 -282.076717 
L 394.591418 -281.629562 
L 394.266764 -281.182924 
L 393.942109 -280.736805 
L 393.617455 -280.291204 
L 393.2928 -279.84612 
L 392.968145 -279.401553 
L 392.643491 -278.957504 
L 392.318836 -278.513971 
L 391.994182 -278.070956 
L 391.669527 -277.628456 
L 391.344873 -277.186473 
L 391.020218 -276.745006 
L 390.695564 -276.304055 
L 390.370909 -275.863619 
L 390.046255 -275.423698 
L 389.7216 -274.984293 
L 389.396945 -274.545402 
L 389.072291 -274.107026 
L 388.747636 -273.669165 
L 388.422982 -273.231817 
L 388.098327 -272.794984 
L 387.773673 -272.358664 
L 387.449018 -271.922858 
L 387.124364 -271.487565 
L 386.799709 -271.052785 
L 386.475055 -270.618518 
L 386.1504 -270.184763 
L 385.825745 -269.751521 
L 385.501091 -269.318791 
L 385.176436 -268.886572 
L 384.851782 -268.454866 
L 384.527127 -268.02367 
L 384.202473 -267.592986 
L 383.877818 -267.162813 
L 383.553164 -266.733151 
L 383.228509 -266.303999 
L 382.903855 -265.875358 
L 382.5792 -265.447226 
L 382.254545 -265.019604 
L 381.929891 -264.592492 
L 381.605236 -264.16589 
L 381.280582 -263.739796 
L 380.955927 -263.314211 
L 380.631273 -262.889135 
L 380.306618 -262.464567 
L 379.981964 -262.040508 
L 379.657309 -261.616957 
L 379.332655 -261.193913 
L 379.008 -260.771377 
L 378.683345 -260.349348 
L 378.358691 -259.927826 
L 378.034036 -259.506811 
L 377.709382 -259.086303 
L 377.384727 -258.666301 
L 377.060073 -258.246805 
L 376.735418 -257.827815 
L 376.410764 -257.409331 
L 376.086109 -256.991352 
L 375.761455 -256.573878 
L 375.4368 -256.15691 
L 375.112145 -255.740446 
L 374.787491 -255.324486 
L 374.462836 -254.909031 
L 374.138182 -254.49408 
L 373.813527 -254.079633 
L 373.488873 -253.66569 
L 373.164218 -253.252249 
L 372.839564 -252.839312 
L 372.514909 -252.426878 
L 372.190255 -252.014947 
L 371.8656 -251.603518 
L 371.540945 -251.192591 
L 371.216291 -250.782166 
L 370.891636 -250.372243 
L 370.566982 -249.962822 
L 370.242327 -249.553901 
L 369.917673 -249.145482 
L 369.593018 -248.737564 
L 369.268364 -248.330146 
L 368.943709 -247.923229 
L 368.619055 -247.516811 
L 368.2944 -247.110894 
L 367.969745 -246.705476 
L 367.645091 -246.300558 
L 367.320436 -245.896139 
L 366.995782 -245.492219 
L 366.671127 -245.088798 
L 366.346473 -244.685875 
L 366.021818 -244.28345 
L 365.697164 -243.881524 
L 365.372509 -243.480095 
L 365.047855 -243.079164 
L 364.7232 -242.678731 
L 364.398545 -242.278794 
L 364.073891 -241.879354 
L 363.749236 -241.480411 
L 363.424582 -241.081965 
L 363.099927 -240.684014 
L 362.775273 -240.28656 
L 362.450618 -239.889601 
L 362.125964 -239.493137 
L 361.801309 -239.097169 
L 361.476655 -238.701696 
L 361.152 -238.306718 
L 360.827345 -237.912235 
L 360.502691 -237.518245 
L 360.178036 -237.12475 
L 359.853382 -236.731749 
L 359.528727 -236.339241 
L 359.204073 -235.947226 
L 358.879418 -235.555705 
L 358.554764 -235.164677 
L 358.230109 -234.774141 
L 357.905455 -234.384098 
L 357.5808 -233.994547 
L 357.256145 -233.605488 
L 356.931491 -233.216921 
L 356.606836 -232.828845 
L 356.282182 -232.441261 
L 355.957527 -232.054168 
L 355.632873 -231.667565 
L 355.308218 -231.281453 
L 354.983564 -230.895832 
L 354.658909 -230.5107 
L 354.334255 -230.126059 
L 354.0096 -229.741907 
L 353.684945 -229.358244 
L 353.360291 -228.975071 
L 353.035636 -228.592387 
L 352.710982 -228.210191 
L 352.386327 -227.828484 
L 352.061673 -227.447265 
L 351.737018 -227.066534 
L 351.412364 -226.686291 
L 351.087709 -226.306535 
L 350.763055 -225.927267 
L 350.4384 -225.548485 
L 350.113745 -225.170191 
L 349.789091 -224.792383 
L 349.464436 -224.415062 
L 349.139782 -224.038226 
L 348.815127 -223.661877 
L 348.490473 -223.286013 
L 348.165818 -222.910635 
L 347.841164 -222.535741 
L 347.516509 -222.161333 
L 347.191855 -221.787409 
L 346.8672 -221.41397 
L 346.542545 -221.041015 
L 346.217891 -220.668544 
L 345.893236 -220.296557 
L 345.568582 -219.925054 
L 345.243927 -219.554033 
L 344.919273 -219.183496 
L 344.594618 -218.813442 
L 344.269964 -218.44387 
L 343.945309 -218.07478 
L 343.620655 -217.706173 
L 343.296 -217.338047 
L 342.971345 -216.970403 
L 342.646691 -216.603241 
L 342.322036 -216.23656 
L 341.997382 -215.870359 
L 341.672727 -215.504639 
L 341.348073 -215.1394 
L 341.023418 -214.774641 
L 340.698764 -214.410362 
L 340.374109 -214.046562 
L 340.049455 -213.683243 
L 339.7248 -213.320402 
L 339.400145 -212.95804 
L 339.075491 -212.596157 
L 338.750836 -212.234753 
L 338.426182 -211.873827 
L 338.101527 -211.513379 
L 337.776873 -211.153409 
L 337.452218 -210.793916 
L 337.127564 -210.434901 
L 336.802909 -210.076363 
L 336.478255 -209.718302 
L 336.1536 -209.360717 
L 335.828945 -209.003609 
L 335.504291 -208.646977 
L 335.179636 -208.290821 
L 334.854982 -207.93514 
L 334.530327 -207.579935 
L 334.205673 -207.225205 
L 333.881018 -206.87095 
L 333.556364 -206.51717 
L 333.231709 -206.163865 
L 332.907055 -205.811033 
L 332.5824 -205.458676 
L 332.257745 -205.106792 
L 331.933091 -204.755382 
L 331.608436 -204.404445 
L 331.283782 -204.053981 
L 330.959127 -203.70399 
L 330.634473 -203.354471 
L 330.309818 -203.005425 
L 329.985164 -202.65685 
L 329.660509 -202.308748 
L 329.335855 -201.961117 
L 329.0112 -201.613958 
L 328.686545 -201.267269 
L 328.361891 -200.921052 
L 328.037236 -200.575305 
L 327.712582 -200.230028 
L 327.387927 -199.885222 
L 327.063273 -199.540885 
L 326.738618 -199.197018 
L 326.413964 -198.853621 
L 326.089309 -198.510692 
L 325.764655 -198.168233 
L 325.44 -197.826242 
L 325.115345 -197.48472 
L 324.790691 -197.143665 
L 324.466036 -196.803079 
L 324.141382 -196.462961 
L 323.816727 -196.12331 
L 323.492073 -195.784126 
L 323.167418 -195.445409 
L 322.842764 -195.107158 
L 322.518109 -194.769375 
L 322.193455 -194.432057 
L 321.8688 -194.095206 
L 321.544145 -193.75882 
L 321.219491 -193.422899 
L 320.894836 -193.087444 
L 320.570182 -192.752454 
L 320.245527 -192.417929 
L 319.920873 -192.083868 
L 319.596218 -191.750272 
L 319.271564 -191.417139 
L 318.946909 -191.08447 
L 318.622255 -190.752265 
L 318.2976 -190.420523 
L 317.972945 -190.089244 
L 317.648291 -189.758428 
L 317.323636 -189.428074 
L 316.998982 -189.098183 
L 316.674327 -188.768754 
L 316.349673 -188.439786 
L 316.025018 -188.11128 
L 315.700364 -187.783235 
L 315.375709 -187.455652 
L 315.051055 -187.128529 
L 314.7264 -186.801867 
L 314.401745 -186.475664 
L 314.077091 -186.149922 
L 313.752436 -185.82464 
L 313.427782 -185.499818 
L 313.103127 -185.175454 
L 312.778473 -184.85155 
L 312.453818 -184.528104 
L 312.129164 -184.205117 
L 311.804509 -183.882589 
L 311.479855 -183.560518 
L 311.1552 -183.238905 
L 310.830545 -182.91775 
L 310.505891 -182.597052 
L 310.181236 -182.276811 
L 309.856582 -181.957027 
L 309.531927 -181.637699 
L 309.207273 -181.318828 
L 308.882618 -181.000412 
L 308.557964 -180.682453 
L 308.233309 -180.364949 
L 307.908655 -180.0479 
L 307.584 -179.731306 
L 307.259345 -179.415167 
L 306.934691 -179.099482 
L 306.610036 -178.784252 
L 306.285382 -178.469475 
L 305.960727 -178.155153 
L 305.636073 -177.841284 
L 305.311418 -177.527868 
L 304.986764 -177.214905 
L 304.662109 -176.902394 
L 304.337455 -176.590337 
L 304.0128 -176.278731 
L 303.688145 -175.967577 
L 303.363491 -175.656875 
L 303.038836 -175.346624 
L 302.714182 -175.036825 
L 302.389527 -174.727476 
L 302.064873 -174.418579 
L 301.740218 -174.110131 
L 301.415564 -173.802134 
L 301.090909 -173.494586 
L 300.766255 -173.187488 
L 300.4416 -172.880839 
L 300.116945 -172.57464 
L 299.792291 -172.268889 
L 299.467636 -171.963587 
L 299.142982 -171.658733 
L 298.818327 -171.354327 
L 298.493673 -171.050369 
L 298.169018 -170.746858 
L 297.844364 -170.443795 
L 297.519709 -170.141179 
L 297.195055 -169.839009 
L 296.8704 -169.537286 
L 296.545745 -169.236009 
L 296.221091 -168.935178 
L 295.896436 -168.634792 
L 295.571782 -168.334852 
L 295.247127 -168.035357 
L 294.922473 -167.736307 
L 294.597818 -167.437702 
L 294.273164 -167.139541 
L 293.948509 -166.841824 
L 293.623855 -166.54455 
L 293.2992 -166.24772 
L 292.974545 -165.951334 
L 292.649891 -165.65539 
L 292.325236 -165.359889 
L 292.000582 -165.064831 
L 291.675927 -164.770215 
L 291.351273 -164.47604 
L 291.026618 -164.182307 
L 290.701964 -163.889016 
L 290.377309 -163.596166 
L 290.052655 -163.303756 
L 289.728 -163.011787 
L 289.403345 -162.720258 
L 289.078691 -162.429169 
L 288.754036 -162.13852 
L 288.429382 -161.848311 
L 288.104727 -161.55854 
L 287.780073 -161.269209 
L 287.455418 -160.980316 
L 287.130764 -160.691861 
L 286.806109 -160.403845 
L 286.481455 -160.116266 
L 286.1568 -159.829124 
L 285.832145 -159.54242 
L 285.507491 -159.256153 
L 285.182836 -158.970323 
L 284.858182 -158.684929 
L 284.533527 -158.39997 
L 284.208873 -158.115448 
L 283.884218 -157.831362 
L 283.559564 -157.54771 
L 283.234909 -157.264494 
L 282.910255 -156.981712 
L 282.5856 -156.699365 
L 282.260945 -156.417451 
L 281.936291 -156.135972 
L 281.611636 -155.854926 
L 281.286982 -155.574313 
L 280.962327 -155.294134 
L 280.637673 -155.014387 
L 280.313018 -154.735072 
L 279.988364 -154.45619 
L 279.663709 -154.177739 
L 279.339055 -153.89972 
L 279.0144 -153.622133 
L 278.689745 -153.344976 
L 278.365091 -153.06825 
L 278.040436 -152.791954 
L 277.715782 -152.516088 
L 277.391127 -152.240652 
L 277.066473 -151.965646 
L 276.741818 -151.691068 
L 276.417164 -151.41692 
L 276.092509 -151.1432 
L 275.767855 -150.869909 
L 275.4432 -150.597046 
L 275.118545 -150.32461 
L 274.793891 -150.052602 
L 274.469236 -149.781021 
L 274.144582 -149.509866 
L 273.819927 -149.239139 
L 273.495273 -148.968837 
L 273.170618 -148.698962 
L 272.845964 -148.429512 
L 272.521309 -148.160487 
L 272.196655 -147.891888 
L 271.872 -147.623713 
L 271.547345 -147.355963 
L 271.222691 -147.088636 
L 270.898036 -146.821734 
L 270.573382 -146.555255 
L 270.248727 -146.289199 
L 269.924073 -146.023567 
L 269.599418 -145.758356 
L 269.274764 -145.493568 
L 268.950109 -145.229202 
L 268.625455 -144.965258 
L 268.3008 -144.701735 
L 267.976145 -144.438633 
L 267.651491 -144.175952 
L 267.326836 -143.913692 
L 267.002182 -143.651851 
L 266.677527 -143.39043 
L 266.352873 -143.129429 
L 266.028218 -142.868847 
L 265.703564 -142.608684 
L 265.378909 -142.348939 
L 265.054255 -142.089613 
L 264.7296 -141.830704 
L 264.404945 -141.572213 
L 264.080291 -141.31414 
L 263.755636 -141.056483 
L 263.430982 -140.799243 
L 263.106327 -140.542419 
L 262.781673 -140.286012 
L 262.457018 -140.03002 
L 262.132364 -139.774443 
L 261.807709 -139.519282 
L 261.483055 -139.264535 
L 261.1584 -139.010202 
L 260.833745 -138.756284 
L 260.509091 -138.502779 
L 260.184436 -138.249688 
L 259.859782 -137.99701 
L 259.535127 -137.744745 
L 259.210473 -137.492892 
L 258.885818 -137.241451 
L 258.561164 -136.990422 
L 258.236509 -136.739805 
L 257.911855 -136.489598 
L 257.5872 -136.239803 
L 257.262545 -135.990417 
L 256.937891 -135.741442 
L 256.613236 -135.492877 
L 256.288582 -135.244721 
L 255.963927 -134.996975 
L 255.639273 -134.749637 
L 255.314618 -134.502708 
L 254.989964 -134.256187 
L 254.665309 -134.010073 
L 254.340655 -133.764367 
L 254.016 -133.519069 
L 253.691345 -133.274177 
L 253.366691 -133.029691 
L 253.042036 -132.785612 
L 252.717382 -132.541938 
L 252.392727 -132.29867 
L 252.068073 -132.055807 
L 251.743418 -131.813348 
L 251.418764 -131.571294 
L 251.094109 -131.329644 
L 250.769455 -131.088398 
L 250.4448 -130.847555 
L 250.120145 -130.607115 
L 249.795491 -130.367078 
L 249.470836 -130.127444 
L 249.146182 -129.888211 
L 248.821527 -129.64938 
L 248.496873 -129.41095 
L 248.172218 -129.172921 
L 247.847564 -128.935293 
L 247.522909 -128.698065 
L 247.198255 -128.461237 
L 246.8736 -128.224808 
L 246.548945 -127.988779 
L 246.224291 -127.753149 
L 245.899636 -127.517917 
L 245.574982 -127.283083 
L 245.250327 -127.048647 
L 244.925673 -126.814609 
L 244.601018 -126.580968 
L 244.276364 -126.347723 
L 243.951709 -126.114875 
L 243.627055 -125.882423 
L 243.3024 -125.650366 
L 242.977745 -125.418705 
L 242.653091 -125.187439 
L 242.328436 -124.956568 
L 242.003782 -124.72609 
L 241.679127 -124.496007 
L 241.354473 -124.266317 
L 241.029818 -124.037021 
L 240.705164 -123.808117 
L 240.380509 -123.579606 
L 240.055855 -123.351487 
L 239.7312 -123.12376 
L 239.406545 -122.896424 
L 239.081891 -122.669479 
L 238.757236 -122.442925 
L 238.432582 -122.216761 
L 238.107927 -121.990987 
L 237.783273 -121.765603 
L 237.458618 -121.540608 
L 237.133964 -121.316002 
L 236.809309 -121.091785 
L 236.484655 -120.867956 
L 236.16 -120.644514 
L 235.835345 -120.42146 
L 235.510691 -120.198793 
L 235.186036 -119.976513 
L 234.861382 -119.754619 
L 234.536727 -119.533111 
L 234.212073 -119.311989 
L 233.887418 -119.091252 
L 233.562764 -118.870899 
L 233.238109 -118.650932 
L 232.913455 -118.431349 
L 232.5888 -118.212149 
L 232.264145 -117.993333 
L 231.939491 -117.7749 
L 231.614836 -117.55685 
L 231.290182 -117.339182 
L 230.965527 -117.121896 
L 230.640873 -116.904991 
L 230.316218 -116.688468 
L 229.991564 -116.472326 
L 229.666909 -116.256565 
L 229.342255 -116.041183 
L 229.0176 -115.826182 
L 228.692945 -115.611559 
L 228.368291 -115.397316 
L 228.043636 -115.183452 
L 227.718982 -114.969966 
L 227.394327 -114.756858 
L 227.069673 -114.544127 
L 226.745018 -114.331774 
L 226.420364 -114.119798 
L 226.095709 -113.908198 
L 225.771055 -113.696975 
L 225.4464 -113.486127 
L 225.121745 -113.275654 
L 224.797091 -113.065557 
L 224.472436 -112.855835 
L 224.147782 -112.646486 
L 223.823127 -112.437512 
L 223.498473 -112.228911 
L 223.173818 -112.020684 
L 222.849164 -111.812829 
L 222.524509 -111.605347 
L 222.199855 -111.398237 
L 221.8752 -111.191499 
L 221.550545 -110.985133 
L 221.225891 -110.779137 
L 220.901236 -110.573512 
L 220.576582 -110.368258 
L 220.251927 -110.163373 
L 219.927273 -109.958858 
L 219.602618 -109.754713 
L 219.277964 -109.550936 
L 218.953309 -109.347528 
L 218.628655 -109.144487 
L 218.304 -108.941815 
L 217.979345 -108.73951 
L 217.654691 -108.537573 
L 217.330036 -108.336002 
L 217.005382 -108.134797 
L 216.680727 -107.933958 
L 216.356073 -107.733486 
L 216.031418 -107.533378 
L 215.706764 -107.333635 
L 215.382109 -107.134257 
L 215.057455 -106.935243 
L 214.7328 -106.736593 
L 214.408145 -106.538307 
L 214.083491 -106.340383 
L 213.758836 -106.142823 
L 213.434182 -105.945624 
L 213.109527 -105.748788 
L 212.784873 -105.552314 
L 212.460218 -105.356201 
L 212.135564 -105.160449 
L 211.810909 -104.965058 
L 211.486255 -104.770027 
L 211.1616 -104.575356 
L 210.836945 -104.381045 
L 210.512291 -104.187093 
L 210.187636 -103.9935 
L 209.862982 -103.800265 
L 209.538327 -103.607389 
L 209.213673 -103.41487 
L 208.889018 -103.222709 
L 208.564364 -103.030905 
L 208.239709 -102.839458 
L 207.915055 -102.648368 
L 207.5904 -102.457633 
L 207.265745 -102.267255 
L 206.941091 -102.077232 
L 206.616436 -101.887563 
L 206.291782 -101.69825 
L 205.967127 -101.509291 
L 205.642473 -101.320686 
L 205.317818 -101.132435 
L 204.993164 -100.944537 
L 204.668509 -100.756992 
L 204.343855 -100.5698 
L 204.0192 -100.38296 
L 203.694545 -100.196473 
L 203.369891 -100.010336 
L 203.045236 -99.824552 
L 202.720582 -99.639118 
L 202.395927 -99.454035 
L 202.071273 -99.269302 
L 201.746618 -99.084919 
L 201.421964 -98.900886 
L 201.097309 -98.717202 
L 200.772655 -98.533867 
L 200.448 -98.350881 
L 200.123345 -98.168243 
L 199.798691 -97.985953 
L 199.474036 -97.804011 
L 199.149382 -97.622416 
L 198.824727 -97.441168 
L 198.500073 -97.260266 
L 198.175418 -97.079711 
L 197.850764 -96.899502 
L 197.526109 -96.719639 
L 197.201455 -96.540121 
L 196.8768 -96.360948 
L 196.552145 -96.182119 
L 196.227491 -96.003635 
L 195.902836 -95.825495 
L 195.578182 -95.647699 
L 195.253527 -95.470246 
L 194.928873 -95.293137 
L 194.604218 -95.11637 
L 194.279564 -94.939945 
L 193.954909 -94.763863 
L 193.630255 -94.588122 
L 193.3056 -94.412723 
L 192.980945 -94.237665 
L 192.656291 -94.062948 
L 192.331636 -93.888571 
L 192.006982 -93.714535 
L 191.682327 -93.540838 
L 191.357673 -93.367481 
L 191.033018 -93.194464 
L 190.708364 -93.021785 
L 190.383709 -92.849445 
L 190.059055 -92.677443 
L 189.7344 -92.50578 
L 189.409745 -92.334454 
L 189.085091 -92.163465 
L 188.760436 -91.992814 
L 188.435782 -91.822499 
L 188.111127 -91.652521 
L 187.786473 -91.482879 
L 187.461818 -91.313573 
L 187.137164 -91.144603 
L 186.812509 -90.975968 
L 186.487855 -90.807667 
L 186.1632 -90.639702 
L 185.838545 -90.472071 
L 185.513891 -90.304774 
L 185.189236 -90.13781 
L 184.864582 -89.97118 
L 184.539927 -89.804884 
L 184.215273 -89.63892 
L 183.890618 -89.473289 
L 183.565964 -89.30799 
L 183.241309 -89.143023 
L 182.916655 -88.978388 
L 182.592 -88.814084 
L 182.267345 -88.650112 
L 181.942691 -88.48647 
L 181.618036 -88.323159 
L 181.293382 -88.160178 
L 180.968727 -87.997527 
L 180.644073 -87.835205 
L 180.319418 -87.673213 
L 179.994764 -87.511551 
L 179.670109 -87.350217 
L 179.345455 -87.189211 
L 179.0208 -87.028534 
L 178.696145 -86.868185 
L 178.371491 -86.708163 
L 178.046836 -86.548469 
L 177.722182 -86.389102 
L 177.397527 -86.230062 
L 177.072873 -86.071349 
L 176.748218 -85.912962 
L 176.423564 -85.7549 
L 176.098909 -85.597165 
L 175.774255 -85.439755 
L 175.4496 -85.28267 
L 175.124945 -85.125911 
L 174.800291 -84.969476 
L 174.475636 -84.813365 
L 174.150982 -84.657578 
L 173.826327 -84.502116 
L 173.501673 -84.346976 
L 173.177018 -84.192161 
L 172.852364 -84.037668 
L 172.527709 -83.883498 
L 172.203055 -83.729651 
L 171.8784 -83.576126 
L 171.553745 -83.422922 
L 171.229091 -83.270041 
L 170.904436 -83.117481 
L 170.579782 -82.965243 
L 170.255127 -82.813325 
L 169.930473 -82.661728 
L 169.605818 -82.510451 
L 169.281164 -82.359495 
L 168.956509 -82.208859 
L 168.631855 -82.058542 
L 168.3072 -81.908545 
L 167.982545 -81.758867 
L 167.657891 -81.609508 
L 167.333236 -81.460467 
L 167.008582 -81.311746 
L 166.683927 -81.163342 
L 166.359273 -81.015256 
L 166.034618 -80.867488 
L 165.709964 -80.720037 
L 165.385309 -80.572904 
L 165.060655 -80.426088 
L 164.736 -80.279588 
L 164.411345 -80.133405 
L 164.086691 -79.987538 
L 163.762036 -79.841987 
L 163.437382 -79.696752 
L 163.112727 -79.551833 
L 162.788073 -79.407229 
L 162.463418 -79.26294 
L 162.138764 -79.118966 
L 161.814109 -78.975306 
L 161.489455 -78.831961 
L 161.1648 -78.68893 
L 160.840145 -78.546213 
L 160.515491 -78.40381 
L 160.190836 -78.261721 
L 159.866182 -78.119944 
L 159.541527 -77.978481 
L 159.216873 -77.83733 
L 158.892218 -77.696493 
L 158.567564 -77.555967 
L 158.242909 -77.415754 
L 157.918255 -77.275853 
L 157.5936 -77.136263 
L 157.268945 -76.996985 
L 156.944291 -76.858019 
L 156.619636 -76.719363 
L 156.294982 -76.581019 
L 155.970327 -76.442985 
L 155.645673 -76.305262 
L 155.321018 -76.167849 
L 154.996364 -76.030746 
L 154.671709 -75.893954 
L 154.347055 -75.757471 
L 154.0224 -75.621297 
L 153.697745 -75.485433 
L 153.373091 -75.349878 
L 153.048436 -75.214632 
L 152.723782 -75.079694 
L 152.399127 -74.945066 
L 152.074473 -74.810745 
L 151.749818 -74.676733 
L 151.425164 -74.543029 
L 151.100509 -74.409633 
L 150.775855 -74.276544 
L 150.4512 -74.143763 
L 150.126545 -74.01129 
L 149.801891 -73.879123 
L 149.477236 -73.747263 
L 149.152582 -73.615711 
L 148.827927 -73.484464 
L 148.503273 -73.353525 
L 148.178618 -73.222891 
L 147.853964 -73.092564 
L 147.529309 -72.962543 
L 147.204655 -72.832828 
L 146.88 -72.703418 
L 146.555345 -72.574314 
L 146.230691 -72.445515 
L 145.906036 -72.317022 
L 145.581382 -72.188833 
L 145.256727 -72.06095 
L 144.932073 -71.933371 
L 144.607418 -71.806097 
L 144.282764 -71.679128 
L 143.958109 -71.552463 
L 143.633455 -71.426102 
L 143.3088 -71.300046 
L 142.984145 -71.174293 
L 142.659491 -71.048844 
L 142.334836 -70.9237 
L 142.010182 -70.798858 
L 141.685527 -70.674321 
L 141.360873 -70.550087 
L 141.036218 -70.426156 
L 140.711564 -70.302528 
L 140.386909 -70.179204 
L 140.062255 -70.056182 
L 139.7376 -69.933464 
L 139.412945 -69.811048 
L 139.088291 -69.688935 
L 138.763636 -69.567125 
L 138.438982 -69.445617 
L 138.114327 -69.324412 
L 137.789673 -69.203509 
L 137.465018 -69.082909 
L 137.140364 -68.962611 
L 136.815709 -68.842615 
L 136.491055 -68.722921 
L 136.1664 -68.60353 
L 135.841745 -68.48444 
L 135.517091 -68.365652 
L 135.192436 -68.247167 
L 134.867782 -68.128983 
L 134.543127 -68.011101 
L 134.218473 -67.893521 
L 133.893818 -67.776242 
L 133.569164 -67.659266 
L 133.244509 -67.542591 
L 132.919855 -67.426217 
L 132.5952 -67.310146 
L 132.270545 -67.194376 
L 131.945891 -67.078908 
L 131.621236 -66.963741 
L 131.296582 -66.848876 
L 130.971927 -66.734313 
L 130.647273 -66.620051 
L 130.322618 -66.506091 
L 129.997964 -66.392432 
L 129.673309 -66.279076 
L 129.348655 -66.166021 
L 129.024 -66.053267 
L 128.699345 -65.940816 
L 128.374691 -65.828666 
L 128.050036 -65.716818 
L 127.725382 -65.605272 
L 127.400727 -65.494027 
L 127.076073 -65.383085 
L 126.751418 -65.272445 
L 126.426764 -65.162106 
L 126.102109 -65.05207 
L 125.777455 -64.942336 
L 125.4528 -64.832904 
L 125.128145 -64.723774 
L 124.803491 -64.614947 
L 124.478836 -64.506422 
L 124.154182 -64.3982 
L 123.829527 -64.29028 
L 123.504873 -64.182663 
L 123.180218 -64.075349 
L 122.855564 -63.968338 
L 122.530909 -63.861629 
L 122.206255 -63.755224 
L 121.8816 -63.649122 
L 121.556945 -63.543323 
L 121.232291 -63.437827 
L 120.907636 -63.332635 
L 120.582982 -63.227746 
L 120.258327 -63.123161 
L 119.933673 -63.018879 
L 119.609018 -62.914902 
L 119.284364 -62.811228 
L 118.959709 -62.707858 
L 118.635055 -62.604793 
L 118.3104 -62.502032 
L 117.985745 -62.399575 
L 117.661091 -62.297423 
L 117.336436 -62.195575 
L 117.011782 -62.094032 
L 116.687127 -61.992793 
L 116.362473 -61.89186 
L 116.037818 -61.791231 
L 115.713164 -61.690908 
L 115.388509 -61.590889 
L 115.063855 -61.491176 
L 114.7392 -61.391768 
L 114.414545 -61.292666 
L 114.089891 -61.193869 
L 113.765236 -61.095377 
L 113.440582 -60.997191 
L 113.115927 -60.899311 
L 112.791273 -60.801736 
L 112.466618 -60.704467 
L 112.141964 -60.607504 
L 111.817309 -60.510846 
L 111.492655 -60.414494 
L 111.168 -60.318448 
L 110.843345 -60.222708 
L 110.518691 -60.127273 
L 110.194036 -60.032145 
L 109.869382 -59.937322 
L 109.544727 -59.842804 
L 109.220073 -59.748593 
L 108.895418 -59.654687 
L 108.570764 -59.561086 
L 108.246109 -59.467791 
L 107.921455 -59.374801 
L 107.5968 -59.282116 
L 107.272145 -59.189737 
L 106.947491 -59.097662 
L 106.622836 -59.005893 
L 106.298182 -58.914427 
L 105.973527 -58.823267 
L 105.648873 -58.732411 
L 105.324218 -58.641859 
L 104.999564 -58.551611 
L 104.674909 -58.461666 
L 104.350255 -58.372025 
L 104.0256 -58.282687 
L 103.700945 -58.193652 
L 103.376291 -58.10492 
L 103.051636 -58.01649 
L 102.726982 -57.928363 
L 102.402327 -57.840537 
L 102.077673 -57.753012 
L 101.753018 -57.665789 
L 101.428364 -57.578866 
L 101.103709 -57.492244 
L 100.779055 -57.405921 
L 100.4544 -57.319898 
L 100.129745 -57.234175 
L 99.805091 -57.14875 
L 99.480436 -57.063623 
L 99.155782 -56.978794 
L 98.831127 -56.894263 
L 98.506473 -56.810028 
L 98.181818 -56.72609 
L 97.857164 -56.642448 
L 97.532509 -56.559102 
L 97.207855 -56.47605 
L 96.8832 -56.393293 
L 96.558545 -56.31083 
L 96.233891 -56.22866 
L 95.909236 -56.146783 
L 95.584582 -56.065199 
L 95.259927 -55.983906 
L 94.935273 -55.902904 
L 94.610618 -55.822193 
L 94.285964 -55.741772 
L 93.961309 -55.66164 
L 93.636655 -55.581797 
L 93.312 -55.502242 
L 92.987345 -55.422975 
L 92.662691 -55.343995 
L 92.338036 -55.265301 
L 92.013382 -55.186893 
L 91.688727 -55.108771 
L 91.364073 -55.030933 
L 91.039418 -54.953378 
L 90.714764 -54.876107 
L 90.390109 -54.799119 
L 90.065455 -54.722413 
L 89.7408 -54.645988 
L 89.416145 -54.569843 
L 89.091491 -54.493979 
L 88.766836 -54.418395 
L 88.442182 -54.343089 
L 88.117527 -54.268061 
L 87.792873 -54.193311 
L 87.468218 -54.118838 
L 87.143564 -54.044641 
L 86.818909 -53.970719 
L 86.494255 -53.897073 
L 86.1696 -53.823701 
L 85.844945 -53.750602 
L 85.520291 -53.677777 
L 85.195636 -53.605224 
L 84.870982 -53.532943 
L 84.546327 -53.460932 
L 84.221673 -53.389193 
L 83.897018 -53.317723 
L 83.572364 -53.246523 
L 83.247709 -53.175591 
L 82.923055 -53.104927 
L 82.5984 -53.03453 
L 82.273745 -52.9644 
L 81.949091 -52.894537 
L 81.624436 -52.824939 
L 81.299782 -52.755605 
L 80.975127 -52.686536 
L 80.650473 -52.617731 
L 80.325818 -52.549189 
L 80.001164 -52.480909 
L 79.676509 -52.412891 
L 79.351855 -52.345134 
L 79.0272 -52.277639 
L 78.702545 -52.210403 
L 78.377891 -52.143426 
L 78.053236 -52.076709 
L 77.728582 -52.01025 
L 77.403927 -51.944048 
L 77.079273 -51.878104 
L 76.754618 -51.812416 
L 76.429964 -51.746985 
L 76.105309 -51.681809 
L 75.780655 -51.616887 
L 75.456 -51.55222 
L 75.131345 -51.487807 
L 74.806691 -51.423647 
L 74.482036 -51.35974 
L 74.157382 -51.296085 
L 73.832727 -51.232681 
z
" style="stroke: #1f77b4; stroke-opacity: 0.5"/>
    </defs>
    <g clip-path="url(#p81a6d4f1d8)">
     <use xlink:href="#m041e77a8c4" x="0" y="345.6" style="fill: #1f77b4; fill-opacity: 0.5; stroke: #1f77b4; stroke-opacity: 0.5"/>
    </g>
   </g>
   <g id="line2d_19">
    <path d="M 73.832727 294.835285 
L 83.897018 292.677931 
L 93.636655 290.362773 
L 103.376291 287.815836 
L 112.791273 285.126137 
L 122.206255 282.205679 
L 131.621236 279.047748 
L 140.711564 275.767215 
L 149.801891 272.253388 
L 158.892218 268.500589 
L 167.982545 264.503246 
L 177.072873 260.255884 
L 185.838545 255.918395 
L 194.604218 251.33868 
L 203.369891 246.512065 
L 212.135564 241.433949 
L 220.901236 236.099793 
L 229.666909 230.505124 
L 238.432582 224.645528 
L 247.198255 218.51665 
L 255.963927 212.114189 
L 264.7296 205.433898 
L 273.495273 198.47158 
L 282.260945 191.223089 
L 291.026618 183.684324 
L 299.792291 175.851232 
L 308.557964 167.719802 
L 317.323636 159.286066 
L 326.089309 150.546098 
L 334.854982 141.49601 
L 343.620655 132.131953 
L 352.386327 122.450117 
L 361.152 112.446725 
L 370.242327 101.729198 
L 379.332655 90.6577 
L 388.422982 79.228135 
L 397.513309 67.436446 
L 398.162618 66.580219 
L 398.162618 66.580219 
" clip-path="url(#p81a6d4f1d8)" style="fill: none; stroke: #1f77b4; stroke-linecap: square"/>
   </g>
   <g id="LineCollection_1">
    <path d="M 73.832727 295.488 
L 73.832727 294.45007 
" clip-path="url(#p81a6d4f1d8)" style="fill: none; stroke: #ff7f0e"/>
    <path d="M 120.211948 283.133335 
L 120.211948 282.311745 
" clip-path="url(#p81a6d4f1d8)" style="fill: none; stroke: #ff7f0e"/>
    <path d="M 212.97039 242.667272 
L 212.97039 239.970921 
" clip-path="url(#p81a6d4f1d8)" style="fill: none; stroke: #ff7f0e"/>
    <path d="M 305.728831 178.003952 
L 305.728831 166.3502 
" clip-path="url(#p81a6d4f1d8)" style="fill: none; stroke: #ff7f0e"/>
    <path d="M 398.487273 71.899041 
L 398.487273 53.568 
" clip-path="url(#p81a6d4f1d8)" style="fill: none; stroke: #ff7f0e"/>
   </g>
   <g id="line2d_20">
    <defs>
     <path id="maaa2682d77" d="M 1.5 0 
L -1.5 -0 
" style="stroke: #ff7f0e"/>
    </defs>
    <g clip-path="url(#p81a6d4f1d8)">
     <use xlink:href="#maaa2682d77" x="73.832727" y="295.488" style="fill: #ff7f0e; stroke: #ff7f0e"/>
     <use xlink:href="#maaa2682d77" x="120.211948" y="283.133335" style="fill: #ff7f0e; stroke: #ff7f0e"/>
     <use xlink:href="#maaa2682d77" x="212.97039" y="242.667272" style="fill: #ff7f0e; stroke: #ff7f0e"/>
     <use xlink:href="#maaa2682d77" x="305.728831" y="178.003952" style="fill: #ff7f0e; stroke: #ff7f0e"/>
     <use xlink:href="#maaa2682d77" x="398.487273" y="71.899041" style="fill: #ff7f0e; stroke: #ff7f0e"/>
    </g>
   </g>
   <g id="line2d_21">
    <g clip-path="url(#p81a6d4f1d8)">
     <use xlink:href="#maaa2682d77" x="73.832727" y="294.45007" style="fill: #ff7f0e; stroke: #ff7f0e"/>
     <use xlink:href="#maaa2682d77" x="120.211948" y="282.311745" style="fill: #ff7f0e; stroke: #ff7f0e"/>
     <use xlink:href="#maaa2682d77" x="212.97039" y="239.970921" style="fill: #ff7f0e; stroke: #ff7f0e"/>
     <use xlink:href="#maaa2682d77" x="305.728831" y="166.3502" style="fill: #ff7f0e; stroke: #ff7f0e"/>
     <use xlink:href="#maaa2682d77" x="398.487273" y="53.568" style="fill: #ff7f0e; stroke: #ff7f0e"/>
    </g>
   </g>
   <g id="line2d_22">
    <defs>
     <path id="m3e31e6de9f" d="M 0 4 
C 1.060812 4 2.078319 3.578535 2.828427 2.828427 
C 3.578535 2.078319 4 1.060812 4 0 
C 4 -1.060812 3.578535 -2.078319 2.828427 -2.828427 
C 2.078319 -3.578535 1.060812 -4 0 -4 
C -1.060812 -4 -2.078319 -3.578535 -2.828427 -2.828427 
C -3.578535 -2.078319 -4 -1.060812 -4 0 
C -4 1.060812 -3.578535 2.078319 -2.828427 2.828427 
C -2.078319 3.578535 -1.060812 4 0 4 
z
" style="stroke: #ff7f0e"/>
    </defs>
    <g clip-path="url(#p81a6d4f1d8)">
     <use xlink:href="#m3e31e6de9f" x="73.832727" y="294.969035" style="fill-opacity: 0; stroke: #ff7f0e"/>
     <use xlink:href="#m3e31e6de9f" x="120.211948" y="282.72254" style="fill-opacity: 0; stroke: #ff7f0e"/>
     <use xlink:href="#m3e31e6de9f" x="212.97039" y="241.319096" style="fill-opacity: 0; stroke: #ff7f0e"/>
     <use xlink:href="#m3e31e6de9f" x="305.728831" y="172.177076" style="fill-opacity: 0; stroke: #ff7f0e"/>
     <use xlink:href="#m3e31e6de9f" x="398.487273" y="62.733521" style="fill-opacity: 0; stroke: #ff7f0e"/>
    </g>
   </g>
  </g>
 </g>
 <defs>
  <clipPath id="p81a6d4f1d8">
   <rect x="57.6" y="41.472" width="357.12" height="266.112"/>
  </clipPath>
 </defs>
</svg>
